<svg xmlns="http://www.w3.org/2000/svg" width="64" height="64" fill="none"><g stroke-width=".5"><path d="M29.33 26.68a10.61 10.61 0 0 1-7.523-3.058 10.61 10.61 0 0 1-3.157-7.482A10.5 10.5 0 0 1 19 13.5a10.54 10.54 0 0 0-8.552 6.711 10.54 10.54 0 0 0 1.927 10.699 10.54 10.54 0 0 0 10.357 3.305A10.54 10.54 0 0 0 30.5 26.61c-.389.043-.779.067-1.17.07z" fill="url(#A)" stroke="#72b9d5" stroke-linejoin="round"/><path d="M46.5 31.5h-.32a10.49 10.49 0 0 0-6.144-12.149A10.49 10.49 0 0 0 27.07 23.5a7 7 0 0 0-7.026-.066A7 7 0 0 0 16.5 29.5a7.21 7.21 0 0 0 .1 1.14 7.5 7.5 0 0 0-6.025 8.064A7.5 7.5 0 0 0 18 45.5a4.21 4.21 0 0 0 .5 0h28a7 7 0 0 0 7-7 7 7 0 0 0-7-7z" fill="url(#B)" stroke="#e6effc" stroke-miterlimit="10"/></g><defs><linearGradient id="A" x1="13.58" y1="15.57" x2="24.15" y2="33.87" gradientUnits="userSpaceOnUse"><stop stop-color="#86c3db"/><stop offset=".45" stop-color="#86c3db"/><stop offset="1" stop-color="#5eafcf"/></linearGradient><linearGradient id="B" x1="22.56" y1="21.96" x2="39.2" y2="50.8" gradientUnits="userSpaceOnUse"><stop stop-color="#f3f7fe"/><stop offset=".45" stop-color="#f3f7fe"/><stop offset="1" stop-color="#deeafb"/></linearGradient></defs></svg>