<svg xmlns="http://www.w3.org/2000/svg" width="512" height="512" fill="none"><g clip-path="url(#C)"><g clip-path="url(#D)"><path d="M267.34 265.18c0 8.604 3.418 16.855 9.501 22.939 3.013 3.012 6.589 5.401 10.525 7.032s8.154 2.469 12.414 2.469h129.75v-.12c.77 0 1.53.12 2.31.12a34.75 34.75 0 0 0 23.396-9.049c6.4-5.824 10.397-13.826 11.208-22.442s-1.62-17.223-6.82-24.14-12.793-11.645-21.294-13.259a32.38 32.38 0 0 0-2.175-18.004c-2.425-5.672-6.419-10.533-11.513-14.011a32.38 32.38 0 0 0-17.242-5.624 32.39 32.39 0 0 0-17.56 4.529 48.58 48.58 0 0 0-60.318-19.566 48.58 48.58 0 0 0-24.678 23.127c-5.191 10.416-6.47 22.35-3.604 33.629-.49 0-1-.07-1.46-.07-4.26 0-8.478.839-12.414 2.469a32.45 32.45 0 0 0-10.525 7.033 32.44 32.44 0 0 0-9.501 22.938z" fill="url(#A)" stroke="#848b98" stroke-miterlimit="10"/></g><g clip-path="url(#E)"><path d="M359.84 252c-.85 0-1.68.09-2.53.13 4.824-19.428 2.544-39.94-6.431-57.833a83.9 83.9 0 0 0-42.505-39.741c-18.456-7.752-39.075-8.65-58.135-2.531s-35.304 18.849-45.799 35.895a55.91 55.91 0 0 0-28.074-7.919c-9.894-.109-19.639 2.409-28.241 7.298s-15.753 11.973-20.722 20.529-7.579 18.278-7.563 28.172a56.51 56.51 0 0 0 .8 9.08c-14.648 2.817-27.721 10.989-36.67 22.923a60 60 0 0 0 7.565 80.324c11.02 10.052 25.389 15.64 40.305 15.673 1.35 0 2.67-.11 4-.2v.2h224a56 56 0 0 0 56-56 56 56 0 0 0-56-56z" fill="url(#B)" stroke="#e6effc" stroke-width="6" stroke-miterlimit="10"/></g></g><defs><linearGradient id="A" x1="319.58" y1="181.62" x2="400.2" y2="321.27" gradientUnits="userSpaceOnUse"><stop stop-color="#9ca3af"/><stop offset=".45" stop-color="#9ca3af"/><stop offset="1" stop-color="#6b7280"/></linearGradient><linearGradient id="B" x1="168.29" y1="175.68" x2="301.48" y2="406.37" gradientUnits="userSpaceOnUse"><stop stop-color="#f3f7fe"/><stop offset=".45" stop-color="#f3f7fe"/><stop offset="1" stop-color="#deeafb"/></linearGradient><clipPath id="C"><path fill="#fff" transform="translate(68.84 145)" d="M0 0h398v222H0z"/></clipPath><clipPath id="D"><path fill="#fff" transform="translate(266.84 172)" d="M0 0h200.26v126.12H0z"/></clipPath><clipPath id="E"><path fill="#fff" transform="translate(68.84 145)" d="M0 0h350v222H0z"/></clipPath></defs></svg>