<svg xmlns="http://www.w3.org/2000/svg" width="64" height="64" fill="none"><g stroke-miterlimit="10"><path d="M46.5 31.5h-.32a10.49 10.49 0 0 0-6.144-12.149A10.49 10.49 0 0 0 27.07 23.5a7 7 0 0 0-7.026-.066A7 7 0 0 0 16.5 29.5a7.21 7.21 0 0 0 .1 1.14 7.5 7.5 0 0 0-6.025 8.064A7.5 7.5 0 0 0 18 45.5a4.21 4.21 0 0 0 .5 0h28a7 7 0 0 0 7-7 7 7 0 0 0-7-7z" fill="url(#A)" stroke="#e6effc" stroke-width=".5"/><g stroke-width="2" stroke-linecap="round"><path d="M24.39 43.03L23.61 47.97" stroke="url(#B)"/><path d="M31.39 43.03L30.61 47.97" stroke="url(#C)"/><path d="M38.39 43.03L37.61 47.97" stroke="url(#D)"/></g></g><defs><linearGradient id="A" x1="22.56" y1="21.96" x2="39.2" y2="50.8" gradientUnits="userSpaceOnUse"><stop stop-color="#f3f7fe"/><stop offset=".45" stop-color="#f3f7fe"/><stop offset="1" stop-color="#deeafb"/></linearGradient><linearGradient id="B" x1="22.53" y1="42.95" x2="25.47" y2="48.05" gradientUnits="userSpaceOnUse"><stop stop-color="#4286ee"/><stop offset=".45" stop-color="#4286ee"/><stop offset="1" stop-color="#0950bc"/></linearGradient><linearGradient id="C" x1="29.53" y1="42.95" x2="32.47" y2="48.05" gradientUnits="userSpaceOnUse"><stop stop-color="#4286ee"/><stop offset=".45" stop-color="#4286ee"/><stop offset="1" stop-color="#0950bc"/></linearGradient><linearGradient id="D" x1="36.53" y1="42.95" x2="39.47" y2="48.05" gradientUnits="userSpaceOnUse"><stop stop-color="#4286ee"/><stop offset=".45" stop-color="#4286ee"/><stop offset="1" stop-color="#0950bc"/></linearGradient></defs></svg>