<svg xmlns="http://www.w3.org/2000/svg" xmlns:xlink="http://www.w3.org/1999/xlink" width="64" height="64" fill="none"><g stroke-width=".5"><path d="M29.33 26.68a10.61 10.61 0 0 1-7.523-3.058 10.61 10.61 0 0 1-3.157-7.482A10.5 10.5 0 0 1 19 13.5a10.54 10.54 0 0 0-8.552 6.711 10.54 10.54 0 0 0 1.927 10.699 10.54 10.54 0 0 0 10.357 3.305A10.54 10.54 0 0 0 30.5 26.61c-.389.043-.779.067-1.17.07z" fill="url(#A)" stroke="#72b9d5" stroke-linejoin="round"/><path d="M46.5 31.5h-.32a10.49 10.49 0 0 0-6.144-12.149A10.49 10.49 0 0 0 27.07 23.5a7 7 0 0 0-7.026-.066A7 7 0 0 0 16.5 29.5a7.21 7.21 0 0 0 .1 1.14 7.5 7.5 0 0 0-6.025 8.064A7.5 7.5 0 0 0 18 45.5a4.21 4.21 0 0 0 .5 0h28a7 7 0 0 0 7-7 7 7 0 0 0-7-7z" fill="url(#B)" stroke="#e6effc" stroke-miterlimit="10"/></g><g stroke-width="2" stroke-linecap="round"><path d="M24.39 43.03L23.61 47.97" stroke="url(#C)" stroke-miterlimit="10"/><path d="M31.39 43.03L30.61 47.97" stroke="url(#D)" stroke-miterlimit="10"/><path d="M38.39 43.03L37.61 47.97" stroke="url(#E)" stroke-miterlimit="10"/></g><defs><linearGradient id="A" x1="13.58" y1="15.57" x2="24.15" y2="33.87" xlink:href="#F"><stop stop-color="#86c3db"/><stop offset=".45" stop-color="#86c3db"/><stop offset="1" stop-color="#5eafcf"/></linearGradient><linearGradient id="B" x1="22.56" y1="21.96" x2="39.2" y2="50.8" xlink:href="#F"><stop stop-color="#f3f7fe"/><stop offset=".45" stop-color="#f3f7fe"/><stop offset="1" stop-color="#deeafb"/></linearGradient><linearGradient id="C" x1="22.53" y1="42.95" x2="25.47" y2="48.05" xlink:href="#F"><stop stop-color="#4286ee"/><stop offset=".45" stop-color="#4286ee"/><stop offset="1" stop-color="#0950bc"/></linearGradient><linearGradient id="D" x1="29.53" y1="42.95" x2="32.47" y2="48.05" xlink:href="#F"><stop stop-color="#4286ee"/><stop offset=".45" stop-color="#4286ee"/><stop offset="1" stop-color="#0950bc"/></linearGradient><linearGradient id="E" x1="36.53" y1="42.95" x2="39.47" y2="48.05" xlink:href="#F"><stop stop-color="#4286ee"/><stop offset=".45" stop-color="#4286ee"/><stop offset="1" stop-color="#0950bc"/></linearGradient><linearGradient id="F" gradientUnits="userSpaceOnUse"/></defs></svg>