<svg xmlns="http://www.w3.org/2000/svg" xmlns:xlink="http://www.w3.org/1999/xlink" width="64" height="64" fill="none"><g stroke-miterlimit="10"><path d="M19 29a5 5 0 1 0 0-10 5 5 0 1 0 0 10z" fill="url(#A)" stroke="#f8af18" stroke-width=".5"/><path d="M19 15.67V12.5m0 23v-3.17m5.89-14.22l2.24-2.24M10.87 32.13l2.24-2.24m0-11.78l-2.24-2.24m16.26 16.26l-2.24-2.24M7.5 24h3.17m19.83 0h-3.17" stroke="#fbbf24" stroke-width="2" stroke-linecap="round"/><path d="M46.5 31.5h-.32a10.49 10.49 0 0 0-6.144-12.149A10.49 10.49 0 0 0 27.07 23.5a7 7 0 0 0-7.026-.066A7 7 0 0 0 16.5 29.5a7.21 7.21 0 0 0 .1 1.14 7.5 7.5 0 0 0-6.025 8.064A7.5 7.5 0 0 0 18 45.5a4.21 4.21 0 0 0 .5 0h28a7 7 0 0 0 7-7 7 7 0 0 0-7-7z" fill="url(#B)" stroke="#e6effc" stroke-width=".5"/><path d="M31 46.25C31.6904 46.25 32.25 45.6904 32.25 45C32.25 44.3096 31.6904 43.75 31 43.75C30.3096 43.75 29.75 44.3096 29.75 45C29.75 45.6904 30.3096 46.25 31 46.25Z" stroke="url(#C)"/><path d="M33.17 46.25L32.08 45.62M29.92 44.38L28.83 43.75M31 42.5V43.75M31 47.5V46.25M29.92 45.62L28.83 46.25M33.17 43.75L32.08 44.38" stroke="url(#D)" stroke-linecap="round"/><path d="M24 46.25C24.6904 46.25 25.25 45.6904 25.25 45C25.25 44.3096 24.6904 43.75 24 43.75C23.3096 43.75 22.75 44.3096 22.75 45C22.75 45.6904 23.3096 46.25 24 46.25Z" stroke="url(#E)"/><path d="M26.17 46.25L25.08 45.62M22.92 44.38L21.83 43.75M24 42.5V43.75M24 47.5V46.25M22.92 45.62L21.83 46.25M26.17 43.75L25.08 44.38" stroke="url(#F)" stroke-linecap="round"/><path d="M38 46.25C38.6904 46.25 39.25 45.6904 39.25 45C39.25 44.3096 38.6904 43.75 38 43.75C37.3096 43.75 36.75 44.3096 36.75 45C36.75 45.6904 37.3096 46.25 38 46.25Z" stroke="url(#G)"/><path d="M40.17 46.25L39.08 45.62M36.92 44.38L35.83 43.75M38 42.5V43.75M38 47.5V46.25M36.92 45.62L35.83 46.25M40.17 43.75L39.08 44.38" stroke="url(#H)" stroke-linecap="round"/></g><defs><linearGradient id="A" x1="16.5" y1="19.67" x2="21.5" y2="28.33" xlink:href="#I"><stop stop-color="#fbbf24"/><stop offset=".45" stop-color="#fbbf24"/><stop offset="1" stop-color="#f59e0b"/></linearGradient><linearGradient id="B" x1="22.56" y1="21.96" x2="39.2" y2="50.8" xlink:href="#I"><stop stop-color="#f3f7fe"/><stop offset=".45" stop-color="#f3f7fe"/><stop offset="1" stop-color="#deeafb"/></linearGradient><linearGradient id="C" x1="30.12" y1="43.48" x2="31.88" y2="46.52" xlink:href="#I"><stop stop-color="#86c3db"/><stop offset=".45" stop-color="#86c3db"/><stop offset="1" stop-color="#5eafcf"/></linearGradient><linearGradient id="D" x1="29.67" y1="42.69" x2="32.33" y2="47.31" xlink:href="#I"><stop stop-color="#86c3db"/><stop offset=".45" stop-color="#86c3db"/><stop offset="1" stop-color="#5eafcf"/></linearGradient><linearGradient id="E" x1="23.12" y1="43.48" x2="24.88" y2="46.52" xlink:href="#I"><stop stop-color="#86c3db"/><stop offset=".45" stop-color="#86c3db"/><stop offset="1" stop-color="#5eafcf"/></linearGradient><linearGradient id="F" x1="22.67" y1="42.69" x2="25.33" y2="47.31" xlink:href="#I"><stop stop-color="#86c3db"/><stop offset=".45" stop-color="#86c3db"/><stop offset="1" stop-color="#5eafcf"/></linearGradient><linearGradient id="G" x1="37.12" y1="43.48" x2="38.88" y2="46.52" xlink:href="#I"><stop stop-color="#86c3db"/><stop offset=".45" stop-color="#86c3db"/><stop offset="1" stop-color="#5eafcf"/></linearGradient><linearGradient id="H" x1="36.67" y1="42.69" x2="39.33" y2="47.31" xlink:href="#I"><stop stop-color="#86c3db"/><stop offset=".45" stop-color="#86c3db"/><stop offset="1" stop-color="#5eafcf"/></linearGradient><linearGradient id="I" gradientUnits="userSpaceOnUse"/></defs></svg>