<svg xmlns="http://www.w3.org/2000/svg" width="172" height="104" fill="none" xmlns:v="https://vecta.io/nano"><rect x=".75" y=".75" width="170.5" height="102.5" rx="3.25" fill="#fff"/><g fill="#8796a1"><path d="M18 49a2 2 0 1 0-4 0 2 2 0 1 0 4 0z"/><rect x="20" y="47.5" width="23" height="3" rx="1.5"/><rect x="14" y="55" width="16" height="3" rx="1.5"/><path d="M63.133 51.28h1.626c.271.022.543-.014.798-.107s.488-.239.681-.43a2.16 2.16 0 0 0 .488-1.512c.025-.517-.15-1.023-.488-1.415a1.82 1.82 0 0 0-1.398-.52 1.95 1.95 0 0 0-1.317.472 1.63 1.63 0 0 0-.418.572c-.096.219-.142.457-.135.696h-2.764a3.25 3.25 0 0 1 1.236-2.927c.914-.751 2.07-1.144 3.252-1.106a5.27 5.27 0 0 1 3.447 1.106 3.76 3.76 0 0 1 1.002 1.386 3.75 3.75 0 0 1 .283 1.687 3.25 3.25 0 0 1-.52 1.805 3.9 3.9 0 0 1-1.626 1.333c.719.233 1.342.695 1.772 1.317a3.56 3.56 0 0 1 .715 2.081 3.84 3.84 0 0 1-.33 1.733c-.243.544-.608 1.025-1.068 1.404-1.026.791-2.299 1.194-3.593 1.138a5.36 5.36 0 0 1-3.349-1.073 3.48 3.48 0 0 1-1.415-3.057h2.732a1.86 1.86 0 0 0 .569 1.382 2.08 2.08 0 0 0 1.463.537 2.14 2.14 0 0 0 .828-.12 2.1 2.1 0 0 0 .716-.432 2.03 2.03 0 0 0 .553-1.512 2.19 2.19 0 0 0-.111-.869c-.095-.279-.245-.537-.442-.757a2.26 2.26 0 0 0-1.626-.537h-1.626l.065-2.276zm18.014 8.503h-9.56v-1.902l4.536-5.04a11.69 11.69 0 0 0 1.398-1.967 3.25 3.25 0 0 0 .374-1.512 2.23 2.23 0 0 0-.472-1.496 1.62 1.62 0 0 0-.605-.454c-.235-.102-.49-.147-.745-.131a1.73 1.73 0 0 0-.826.155c-.259.119-.483.3-.654.527a2.94 2.94 0 0 0-.504 1.821H71.39a4.44 4.44 0 0 1 1.236-3.252c.455-.46 1.001-.819 1.603-1.054a4.62 4.62 0 0 1 1.893-.312 4.75 4.75 0 0 1 3.398 1.171 4.02 4.02 0 0 1 .93 1.383c.21.521.308 1.08.289 1.641a4.39 4.39 0 0 1-.699 2.422c-.685 1.035-1.452 2.013-2.292 2.927l-2.504 2.78h5.902v2.292zm2.151-13.372a1.16 1.16 0 0 1 .188-.692.71.71 0 0 1 .247-.206.6.6 0 0 1 .297-.062.62.62 0 0 1 .307.059.72.72 0 0 1 .257.209 1.16 1.16 0 0 1 .188.692 1.14 1.14 0 0 1-.188.692.71.71 0 0 1-.247.206.6.6 0 0 1-.298.062.62.62 0 0 1-.307-.059.72.72 0 0 1-.257-.209 1.14 1.14 0 0 1-.188-.692zm.413 0c-.026.132-.026.27 0 .402a.31.31 0 0 0 .113.122c.046.027.098.039.15.034.047.005.093-.007.134-.035a.25.25 0 0 0 .092-.121c.066-.119.099-.259.094-.402a.91.91 0 0 0-.056-.335c-.023-.052-.058-.095-.102-.123s-.093-.039-.143-.033c-.047-.005-.093.007-.134.035s-.072.07-.092.121c-.061.121-.094.26-.094.402l.038-.067zm4.284 1.941c.009.205-.017.411-.079.603s-.156.367-.278.513c-.291.281-.659.424-1.034.402a1.15 1.15 0 0 1-.585-.112 1.34 1.34 0 0 1-.486-.402 1.81 1.81 0 0 1-.32-.596 2.04 2.04 0 0 1-.094-.698v-.848c-.017-.477.124-.942.395-1.295a1.46 1.46 0 0 1 1.052-.47 1.46 1.46 0 0 1 1.052.47c.129.141.23.314.295.507a1.62 1.62 0 0 1 .081.609h-.714a1.14 1.14 0 0 0-.169-.67c-.073-.08-.159-.141-.253-.18a.61.61 0 0 0-.292-.043c-.093.017-.181.057-.259.119a.72.72 0 0 0-.192.238c-.135.245-.2.534-.188.826v.848a1.42 1.42 0 0 0 .207.826c.064.099.147.178.241.233a.59.59 0 0 0 .303.08.53.53 0 0 0 .275-.042.62.62 0 0 0 .232-.181 1.01 1.01 0 0 0 .169-.647l.639-.089zm-4.697 7.566a1.16 1.16 0 0 1 .188-.692.71.71 0 0 1 .247-.206.6.6 0 0 1 .297-.062.62.62 0 0 1 .307.059.72.72 0 0 1 .257.209 1.16 1.16 0 0 1 .188.692 1.14 1.14 0 0 1-.188.692.71.71 0 0 1-.247.206.6.6 0 0 1-.298.062.61.61 0 0 1-.307-.059.72.72 0 0 1-.257-.209 1.14 1.14 0 0 1-.188-.692zm.413 0c-.026.132-.026.27 0 .402a.31.31 0 0 0 .113.122c.046.027.098.039.15.034.047.005.093-.007.134-.035a.25.25 0 0 0 .092-.121c.066-.119.099-.259.094-.402a.91.91 0 0 0-.056-.335c-.023-.052-.058-.095-.102-.123s-.093-.039-.143-.033c-.047-.005-.093.007-.134.035s-.072.07-.092.121c-.061.121-.094.26-.094.402l.038-.067zm3.814 1.651h-1.448v1.853h-.724v-4.465h2.497v.692h-1.773v1.228h1.52l-.072.692zm24.03-2.217a4.18 4.18 0 0 1-4.175 4.178H96.666a4.79 4.79 0 0 1 0-9.576h.132c.222-.891.708-1.693 1.394-2.303s1.54-.998 2.45-1.114a4.56 4.56 0 0 1 4.579 2.344c.227-.053.459-.08.692-.08.74.004 1.454.278 2.006.771a3.04 3.04 0 0 1 .994 1.906 4.19 4.19 0 0 1 2.641 3.873h0z"/><rect x="129" y="47.5" width="29" height="3" rx="1.5"/><rect x="129" y="54.5" width="16" height="3" rx="1.5"/></g><g stroke="#8796a1"><rect x="8.5" y="41.5" width="155" height="22" rx="1.5"/><rect x=".75" y=".75" width="170.5" height="102.5" rx="3.25" stroke-width="1.5"/></g></svg>