<svg xmlns="http://www.w3.org/2000/svg" xmlns:xlink="http://www.w3.org/1999/xlink" width="172" height="104" fill="none" xmlns:v="https://vecta.io/nano"><style><![CDATA[.B{fill:#fff}.C{fill:#8796a1}]]></style><g class="B"><rect x=".75" y=".75" width="170.5" height="102.5" rx="3.25"/><path d="M8.5 12l.069-2.128c.066-.489.186-.748.371-.933s.444-.305.933-.371C10.376 8.501 11.043 8.5 12 8.5h32 116l2.128.069c.489.066.748.186.933.371s.304.444.37.933c.068.504.069 1.171.069 2.128v80l-.069 2.128c-.066.489-.186.748-.37.933s-.444.305-.933.371c-.504.068-1.171.069-2.128.069H12c-.957 0-1.624-.001-2.128-.069-.489-.066-.748-.186-.933-.371s-.305-.444-.371-.933C8.501 93.624 8.5 92.957 8.5 92V12z" stroke="#8796a1"/></g><rect x="14" y="14" width="59" height="5" rx="2" class="C"/><g class="B"><path d="M21 16.5a1.5 1.5 0 1 1-3 0 1.5 1.5 0 1 1 3 0z"/><rect x="23" y="15.75" width="20" height="1.5" rx=".75"/><rect x="59" y="15.75" width="10" height="1.5" rx=".75"/></g><g class="C"><path d="M38.623 31.28h1.626c.271.022.543-.014.798-.107s.488-.239.681-.43a2.16 2.16 0 0 0 .488-1.512c.025-.517-.15-1.023-.488-1.415a1.82 1.82 0 0 0-1.398-.52 1.95 1.95 0 0 0-1.317.471 1.63 1.63 0 0 0-.418.572c-.096.219-.142.457-.135.696h-2.764a3.25 3.25 0 0 1 1.236-2.927 4.88 4.88 0 0 1 3.252-1.106 5.27 5.27 0 0 1 3.447 1.106 3.76 3.76 0 0 1 1.002 1.386 3.75 3.75 0 0 1 .283 1.687 3.25 3.25 0 0 1-.52 1.805 3.9 3.9 0 0 1-1.626 1.333c.719.233 1.342.695 1.772 1.317a3.56 3.56 0 0 1 .715 2.081c.025.596-.088 1.189-.33 1.733s-.608 1.025-1.068 1.404c-1.026.791-2.299 1.194-3.593 1.138a5.36 5.36 0 0 1-3.349-1.073 3.48 3.48 0 0 1-1.415-3.057h2.732a1.85 1.85 0 0 0 .569 1.382 2.08 2.08 0 0 0 1.463.537 2.14 2.14 0 0 0 .828-.12 2.1 2.1 0 0 0 .716-.432 2.03 2.03 0 0 0 .553-1.512 2.19 2.19 0 0 0-.111-.869c-.095-.279-.245-.537-.442-.757a2.26 2.26 0 0 0-1.626-.537h-1.626l.065-2.276zm18.014 8.503h-9.56v-1.902l4.536-5.04a11.69 11.69 0 0 0 1.398-1.967 3.25 3.25 0 0 0 .374-1.512 2.23 2.23 0 0 0-.471-1.496 1.62 1.62 0 0 0-.605-.454c-.235-.102-.49-.147-.745-.131a1.73 1.73 0 0 0-.826.155c-.259.119-.483.3-.654.527a2.94 2.94 0 0 0-.504 1.821h-2.699a4.44 4.44 0 0 1 1.236-3.252c.455-.46 1.001-.819 1.603-1.054a4.62 4.62 0 0 1 1.893-.312 4.75 4.75 0 0 1 3.398 1.171 4.01 4.01 0 0 1 1.219 3.024 4.39 4.39 0 0 1-.699 2.422 23.38 23.38 0 0 1-2.293 2.927l-2.504 2.78h5.902v2.292zm2.151-13.372a1.16 1.16 0 0 1 .188-.692.71.71 0 0 1 .247-.206.6.6 0 0 1 .298-.062.62.62 0 0 1 .307.059.73.73 0 0 1 .257.209 1.16 1.16 0 0 1 .188.692 1.14 1.14 0 0 1-.188.692.71.71 0 0 1-.247.206c-.094.046-.196.068-.297.062a.62.62 0 0 1-.307-.059.72.72 0 0 1-.257-.209 1.14 1.14 0 0 1-.188-.692zm.413 0c-.026.132-.026.27 0 .402a.31.31 0 0 0 .113.122c.046.027.098.039.15.034.047.005.093-.007.134-.035s.072-.07.092-.121c.066-.119.099-.259.094-.402a.91.91 0 0 0-.056-.335c-.023-.052-.058-.095-.102-.123s-.093-.039-.143-.033c-.047-.005-.093.007-.134.035s-.072.07-.092.121c-.061.121-.094.26-.094.402l.038-.067zm4.284 1.941c.009.205-.017.411-.079.603s-.156.367-.278.513c-.291.281-.659.424-1.033.402a1.15 1.15 0 0 1-.585-.112 1.34 1.34 0 0 1-.486-.402 1.81 1.81 0 0 1-.32-.596 2.04 2.04 0 0 1-.094-.698v-.848a2.02 2.02 0 0 1 .395-1.295 1.46 1.46 0 0 1 1.052-.47 1.46 1.46 0 0 1 1.052.47c.129.14.23.314.295.507a1.62 1.62 0 0 1 .081.609h-.714a1.14 1.14 0 0 0-.169-.67.7.7 0 0 0-.253-.18.61.61 0 0 0-.292-.043c-.093.017-.181.057-.259.119a.72.72 0 0 0-.192.238c-.134.245-.2.534-.188.826v.848a1.42 1.42 0 0 0 .207.826c.064.099.147.178.241.233a.59.59 0 0 0 .303.08.53.53 0 0 0 .275-.042.63.63 0 0 0 .232-.181 1.01 1.01 0 0 0 .169-.647l.639-.089zm-4.697 7.566a1.16 1.16 0 0 1 .188-.692.71.71 0 0 1 .247-.206.6.6 0 0 1 .298-.062.62.62 0 0 1 .307.059.72.72 0 0 1 .257.209 1.16 1.16 0 0 1 .188.692 1.14 1.14 0 0 1-.188.692c-.069.089-.153.16-.247.206s-.196.068-.297.062a.62.62 0 0 1-.307-.059.72.72 0 0 1-.257-.209 1.14 1.14 0 0 1-.188-.692zm.413 0c-.026.132-.026.27 0 .402a.31.31 0 0 0 .113.122c.046.027.098.039.15.034.047.005.093-.007.134-.035s.072-.07.092-.121c.066-.119.099-.259.094-.402a.91.91 0 0 0-.056-.335c-.023-.052-.058-.095-.102-.123s-.093-.039-.143-.033c-.047-.005-.093.007-.134.035s-.072.07-.092.121c-.061.121-.094.26-.094.402l.038-.067zm3.815 1.651h-1.448v1.853h-.724v-4.465h2.497v.692h-1.773v1.228h1.52l-.072.692zm-29.46-1.828a4.18 4.18 0 0 1-4.175 4.178H18.668a4.79 4.79 0 0 1 0-9.577h.132a4.56 4.56 0 0 1 1.394-2.303c.686-.61 1.54-.998 2.451-1.114a4.56 4.56 0 0 1 2.652.464c.817.418 1.488 1.073 1.927 1.88a3.07 3.07 0 0 1 .692-.08 3.04 3.04 0 0 1 3.001 2.678A4.18 4.18 0 0 1 32.83 33.4a4.19 4.19 0 0 1 .727 2.341h0z"/><rect x="14" y="43" width="36" height="2" rx="1"/><rect x="67" y="38" width="6" height="1.5" rx=".75"/><rect x="75" y="38" width="6" height="1.5" rx=".75"/><rect x="14" y="51" width="31.5" height="11" rx="1.5"/></g><g class="B"><use xlink:href="#B"/><rect x="25.75" y="54.25" width="16" height="1.5" rx=".75"/><rect x="25.75" y="57.5" width="10" height="1.5" rx=".75"/></g><rect x="48.5" y="51" width="31.5" height="11" rx="1.5" class="C"/><g class="B"><use xlink:href="#B" x="34.5"/><rect x="60.25" y="54.25" width="16" height="1.5" rx=".75"/><rect x="60.25" y="57.5" width="10" height="1.5" rx=".75"/></g><rect x="14" y="65" width="31.5" height="11" rx="1.5" class="C"/><g class="B"><use xlink:href="#B" y="14"/><rect x="25.75" y="68.25" width="16" height="1.5" rx=".75"/><rect x="25.75" y="71.5" width="10" height="1.5" rx=".75"/></g><rect x="48.5" y="65" width="31.5" height="11" rx="1.5" class="C"/><g class="B"><use xlink:href="#B" x="34.5" y="14"/><rect x="60.25" y="68.25" width="16" height="1.5" rx=".75"/><rect x="60.25" y="71.5" width="10" height="1.5" rx=".75"/></g><rect x="14" y="79" width="31.5" height="11" rx="1.5" class="C"/><g class="B"><use xlink:href="#B" y="28"/><rect x="25.75" y="82.25" width="16" height="1.5" rx=".75"/><rect x="25.75" y="85.5" width="10" height="1.5" rx=".75"/></g><rect x="48.5" y="79" width="31.5" height="11" rx="1.5" class="C"/><g class="B"><use xlink:href="#B" x="34.5" y="28"/><rect x="60.25" y="82.25" width="16" height="1.5" rx=".75"/><rect x="60.25" y="85.5" width="10" height="1.5" rx=".75"/></g><g class="C"><rect x="90" y="51" width="28" height="3" rx="1.5"/><rect x="138" y="51" width="20" height="3" rx="1.5"/><rect x="90" y="59" width="15" height="14" rx="2"/></g><path d="M101 66a3.5 3.5 0 1 1-7 0 3.5 3.5 0 1 1 7 0z" class="B"/><g class="C"><rect x="109" y="63" width="12" height="2" rx="1"/><rect x="109" y="67" width="18" height="2" rx="1"/><rect x="146" y="63" width="1" height="6" rx=".5"/><rect x="150" y="63" width="8" height="2" rx="1"/><rect x="150" y="67" width="8" height="2" rx="1"/><rect x="90" y="76" width="15" height="14" rx="2"/></g><path d="M101 83a3.5 3.5 0 1 1-7 0 3.5 3.5 0 1 1 7 0z" class="B"/><g class="C"><rect x="109" y="80" width="12" height="2" rx="1"/><rect x="109" y="84" width="18" height="2" rx="1"/><rect x="146" y="80" width="1" height="6" rx=".5"/><rect x="150" y="80" width="8" height="2" rx="1"/><rect x="150" y="84" width="8" height="2" rx="1"/><rect x="91" y="39" width="12" height="2" rx="1"/><rect x="91" y="43" width="15" height="2" rx="1"/><rect x="146" y="39" width="12" height="2" rx="1"/><rect x="143" y="43" width="15" height="2" rx="1"/><path d="M152.84 38c.641 0 1.164-.52 1.126-1.159-.347-5.943-3.352-11.584-8.46-15.811C140.068 16.529 132.691 14 125 14s-15.068 2.529-20.506 7.029c-5.108 4.227-8.113 9.868-8.46 15.811-.037.639.486 1.159 1.126 1.159h0c.641 0 1.156-.52 1.197-1.159.345-5.434 3.105-10.587 7.777-14.454 5.004-4.141 11.79-6.467 18.866-6.467s13.862 2.326 18.866 6.467c4.672 3.867 7.432 9.02 7.777 14.454.041.639.556 1.159 1.197 1.159h0z"/></g><g clip-path="url(#A)" class="C"><path d="M135.851 14.888c.144.143.331.215.519.215a.73.73 0 0 0 .518-1.252l-1.037-1.037c-.286-.286-.75-.286-1.037 0s-.286.751 0 1.037l1.037 1.037zM135.6 19c0-.405-.328-.667-.733-.667H133.4c-.405 0-.733.262-.733.667s.328.667.733.667h1.467c.405 0 .733-.262.733-.667zm4.4-5.4c.405 0 .667-.328.667-.733V11.4c0-.405-.262-.733-.667-.733s-.667.328-.667.733v1.467c0 .405.262.733.667.733zm3.63 1.503c.188 0 .375-.072.519-.215l1.037-1.037c.286-.286.286-.751 0-1.037s-.751-.286-1.037 0l-1.037 1.037a.73.73 0 0 0 .518 1.252zm-3.63-.77A3.67 3.67 0 0 0 136.333 18 3.67 3.67 0 0 0 140 21.666 3.67 3.67 0 0 0 143.667 18 3.67 3.67 0 0 0 140 14.333zm-4.149 6.778l-1.037 1.037c-.286.287-.286.751 0 1.037.144.143.331.215.519.215a.73.73 0 0 0 .518-.215l1.037-1.037a.73.73 0 0 0 0-1.037c-.286-.286-.75-.286-1.037 0h0zm10.749-3.778h-1.467c-.405 0-.733.262-.733.667s.328.667.733.667h1.467c.405 0 .733-.262.733-.667s-.328-.667-.733-.667zM140 22.4c-.405 0-.667.328-.667.733V24.6c0 .405.262.733.667.733s.667-.328.667-.733v-1.467c0-.405-.262-.733-.667-.733z"/></g><rect x=".75" y=".75" width="170.5" height="102.5" rx="3.25" stroke="#8796a1" stroke-width="1.5"/><defs><clipPath id="A"><path transform="translate(132 10)" d="M0 0h16v16H0z" class="B"/></clipPath><path id="B" d="M22.75 56.5a2.5 2.5 0 1 1-5 0 2.5 2.5 0 1 1 5 0z"/></defs></svg>