<svg xmlns="http://www.w3.org/2000/svg" xmlns:xlink="http://www.w3.org/1999/xlink" width="172" height="104" fill="none" xmlns:v="https://vecta.io/nano"><style><![CDATA[.B{fill:#8796a1}.C{fill:#b2bcc3}]]></style><g fill="#fff"><rect x=".75" y=".75" width="170.5" height="102.5" rx="3.25"/><rect x="8.5" y="8.5" width="155" height="87" rx="2.5" stroke="#8796a1"/></g><g class="B"><rect x="39" y="36.15" width="14" height="1.5" rx=".75"/><path d="M17.294 28.479h1.71c.285.024.571-.015.84-.112s.513-.252.716-.452c.334-.447.498-.999.462-1.556a2.12 2.12 0 0 0-.513-1.488 1.91 1.91 0 0 0-.677-.431 1.92 1.92 0 0 0-.794-.116 1.97 1.97 0 0 0-1.385.496 1.71 1.71 0 0 0-.581 1.317h-2.856a3.42 3.42 0 0 1 1.317-2.958 5.13 5.13 0 0 1 3.42-1.163 5.54 5.54 0 0 1 3.608 1.043 3.95 3.95 0 0 1 1.402 3.3 3.42 3.42 0 0 1-.599 1.898 4.1 4.1 0 0 1-1.71 1.402 3.63 3.63 0 0 1 1.864 1.385 3.71 3.71 0 0 1 .752 2.155c.011.623-.123 1.241-.39 1.805s-.66 1.058-1.149 1.444a5.78 5.78 0 0 1-3.779 1.197 5.64 5.64 0 0 1-3.523-1.129 3.66 3.66 0 0 1-1.419-3.181h2.89a1.97 1.97 0 0 0 .598 1.453 2.19 2.19 0 0 0 1.539.564 2.31 2.31 0 0 0 1.625-.581 2.12 2.12 0 0 0 .451-.727c.099-.27.144-.558.13-.846.039-.624-.17-1.239-.581-1.71-.48-.393-1.091-.588-1.71-.547h-1.71l.051-2.462zm19.401 9.171H26.486v-2.031l4.844-5.382a12.5 12.5 0 0 0 1.493-2.084 3.47 3.47 0 0 0 .434-1.597 2.38 2.38 0 0 0-.504-1.597c-.174-.21-.395-.376-.646-.485s-.523-.157-.795-.14a1.84 1.84 0 0 0-1.58.729 3.14 3.14 0 0 0-.538 1.945h-2.917a4.79 4.79 0 0 1 1.32-3.559c.486-.489 1.07-.87 1.713-1.118a4.92 4.92 0 0 1 2.02-.323 5.21 5.21 0 0 1 3.629 1.233 4.36 4.36 0 0 1 1.302 3.177 4.69 4.69 0 0 1-.747 2.587 25 25 0 0 1-2.448 3.125l-2.674 3.004h6.303v2.518z"/><rect x="14.011" y="41.745" width="12" height="2" rx="1"/><rect x="28.011" y="41.745" width="12" height="2" rx="1"/><path d="M38.001 22.843c-.009-.219.049-.435.165-.607a.62.62 0 0 1 .217-.181.53.53 0 0 1 .261-.054c.092-.006.184.011.269.052s.162.103.225.183a1.02 1.02 0 0 1 .165.607c.011.22-.048.436-.165.607a.62.62 0 0 1-.217.18.52.52 0 0 1-.261.054.54.54 0 0 1-.269-.052c-.085-.041-.162-.103-.225-.183a1 1 0 0 1-.165-.607zm.362 0c-.023.116-.023.236 0 .352.024.046.058.083.099.107s.086.035.132.03c.041.004.082-.007.117-.031s.064-.061.08-.106a.67.67 0 0 0 .082-.352.8.8 0 0 0-.049-.294.24.24 0 0 0-.089-.108c-.038-.024-.082-.034-.125-.029-.041-.004-.082.007-.117.031s-.063.061-.08.106a.78.78 0 0 0-.082.352l.033-.059zm3.756 1.702a1.52 1.52 0 0 1-.069.529 1.34 1.34 0 0 1-.244.45c-.255.246-.578.371-.906.352a1.01 1.01 0 0 1-.513-.098 1.19 1.19 0 0 1-.426-.352c-.123-.15-.218-.328-.28-.523a1.8 1.8 0 0 1-.082-.612v-.743a1.77 1.77 0 0 1 .346-1.135 1.28 1.28 0 0 1 .922-.412 1.28 1.28 0 0 1 .922.412 1.24 1.24 0 0 1 .259.445 1.42 1.42 0 0 1 .071.534h-.626a1 1 0 0 0-.148-.587c-.064-.07-.139-.124-.221-.158s-.169-.047-.256-.038a.51.51 0 0 0-.227.104.63.63 0 0 0-.168.209 1.39 1.39 0 0 0-.165.724v.744a1.24 1.24 0 0 0 .181.724c.056.087.129.156.212.204s.174.072.266.07c.082.009.164-.003.241-.037s.147-.088.203-.159a.89.89 0 0 0 .148-.567l.56-.078z"/><rect x="44.121" y="22" width=".5" height="4" rx=".25"/><path d="M46.622 22.843c-.009-.219.049-.435.165-.607a.62.62 0 0 1 .217-.181.53.53 0 0 1 .261-.054c.092-.006.184.011.269.052s.162.103.225.183a1.02 1.02 0 0 1 .165.607c.011.22-.048.436-.165.607a.62.62 0 0 1-.217.18.52.52 0 0 1-.261.054.54.54 0 0 1-.269-.052c-.085-.041-.162-.103-.225-.183a1 1 0 0 1-.165-.607zm.362 0c-.022.116-.022.236 0 .352a.27.27 0 0 0 .099.107c.041.024.086.035.132.03.041.004.082-.007.117-.031s.063-.061.08-.106a.67.67 0 0 0 .082-.352.8.8 0 0 0-.05-.294.24.24 0 0 0-.089-.108c-.038-.024-.082-.034-.125-.029-.041-.004-.082.007-.117.031s-.063.061-.08.106a.78.78 0 0 0-.082.352l.033-.059zm3.344 1.446h-1.269v1.624h-.634V22h2.189v.607H49.06v1.076h1.332l-.063.607zM18 16a2 2 0 1 1-4 0 2 2 0 1 1 4 0z"/><rect x="20" y="15" width="20" height="2" rx="1"/><rect x="47" y="15" width="10" height="2" rx="1"/><path d="M83.556 34.441a4.18 4.18 0 0 1-4.175 4.178H68.668A4.79 4.79 0 0 1 64 33.831a4.79 4.79 0 0 1 4.668-4.788h.132c.222-.89.708-1.693 1.394-2.303s1.54-.998 2.451-1.114 1.835.046 2.651.464 1.489 1.073 1.927 1.88a3.07 3.07 0 0 1 .692-.08 3.04 3.04 0 0 1 3.001 2.678c.776.308 1.443.842 1.913 1.532s.724 1.506.727 2.341h0z"/><rect x="61" y="41.7" width="26" height="2" rx="1"/></g><rect x="14" y="54" width="12" height="2" rx="1" class="C"/><rect x="14" y="59" width="19" height="2" rx="1" class="B"/><rect x="41" y="54" width="12" height="2" rx="1" class="C"/><rect x="41" y="59" width="19" height="2" rx="1" class="B"/><rect x="68" y="54" width="12" height="2" rx="1" class="C"/><rect x="68" y="59" width="19" height="2" rx="1" class="B"/><rect x="14" y="68.5" width="12" height="2" rx="1" class="C"/><rect x="14" y="73.5" width="19" height="2" rx="1" class="B"/><rect x="41" y="68.5" width="12" height="2" rx="1" class="C"/><rect x="41" y="73.5" width="19" height="2" rx="1" class="B"/><rect x="68" y="68.5" width="12" height="2" rx="1" class="C"/><rect x="68" y="73.5" width="19" height="2" rx="1" class="B"/><rect x="14" y="83" width="12" height="2" rx="1" class="C"/><rect x="14" y="88" width="19" height="2" rx="1" class="B"/><rect x="41" y="83" width="12" height="2" rx="1" class="C"/><rect x="41" y="88" width="19" height="2" rx="1" class="B"/><rect x="68" y="83" width="12" height="2" rx="1" class="C"/><g class="B"><rect x="68" y="88" width="19" height="2" rx="1"/><rect x="97" y="14" width="21" height="3" rx="1.5"/><rect x="141" y="14" width="18" height="3" rx="1.5"/><rect x="97" y="25" width="16" height="2" rx="1"/><use xlink:href="#B"/><rect x="139" y="25" width="9" height="2" rx="1"/><rect x="150" y="25" width="9" height="2" rx="1"/><rect x="97" y="35.167" width="17.1" height="2" rx="1"/><use xlink:href="#B" y="10.167"/><rect x="139" y="35.167" width="9" height="2" rx="1"/><rect x="150" y="35.167" width="9" height="2" rx="1"/><rect x="97" y="45.334" width="16" height="2" rx="1"/><use xlink:href="#B" y="20.334"/><rect x="139" y="45.334" width="9" height="2" rx="1"/><rect x="150" y="45.334" width="9" height="2" rx="1"/><rect x="97" y="55.5" width="16" height="2" rx="1"/><use xlink:href="#B" y="30.5"/><rect x="139" y="55.5" width="9" height="2" rx="1"/><rect x="150" y="55.5" width="9" height="2" rx="1"/><rect x="97" y="65.667" width="16" height="2" rx="1"/><use xlink:href="#B" y="40.667"/><rect x="139" y="65.667" width="9" height="2" rx="1"/><rect x="150" y="65.667" width="9" height="2" rx="1"/><rect x="97" y="75.834" width="16" height="2" rx="1"/><use xlink:href="#B" y="50.834"/><rect x="139" y="75.834" width="9" height="2" rx="1"/><rect x="150" y="75.834" width="9" height="2" rx="1"/><rect x="97" y="86" width="16" height="2" rx="1"/><use xlink:href="#B" y="61"/><rect x="139" y="86" width="9" height="2" rx="1"/><rect x="150" y="86" width="9" height="2" rx="1"/></g><rect x="161" y="14" width="1" height="76" rx=".5" fill="#abb6bd"/><rect x="161" y="35" width="1" height="7" rx=".5" class="B"/><rect x=".75" y=".75" width="170.5" height="102.5" rx="3.25" stroke="#8796a1" stroke-width="1.5"/><defs ><path id="B" d="M132 26a3 3 0 1 0-6 0 3 3 0 1 0 6 0z"/></defs></svg>