<svg xmlns="http://www.w3.org/2000/svg" width="60" height="56" fill="none" xmlns:v="https://vecta.io/nano"><rect x="10.5" y="8.5" width="39" height="39" rx="1.5" fill="#fff" stroke="#8796a1"/><g fill="#8796a1"><rect x="15" y="11" width="4" height="4" rx="2"/><rect x="21" y="12" width="24" height="2" rx="1"/><path d="M10 18h40v10H10z"/><rect x="15" y="18" width="4" height="4" rx="2"/><rect x="21" y="19" width="24" height="2" rx="1"/></g><g fill="#fff"><rect x="15" y="21" width="4" height="4" rx="2"/><rect x="21" y="22" width="24" height="2" rx="1"/></g><path d="M10 38h40v6c0 1.886 0 2.828-.586 3.414S47.886 48 46 48H14c-1.886 0-2.828 0-3.414-.586S10 45.886 10 44v-6z" fill="#8796a1"/><g fill="#fff"><rect x="15" y="41" width="4" height="4" rx="2"/><rect x="21" y="42" width="24" height="2" rx="1"/></g><g fill="#8796a1"><rect x="15" y="31" width="4" height="4" rx="2"/><rect x="21" y="32" width="24" height="2" rx="1"/></g><rect x=".75" y=".75" width="58.5" height="54.5" rx="1.25" stroke="#8796a1" stroke-width="1.5"/></svg>