<?xml version="1.0" encoding="utf-8"?>
<!-- Generator: Adobe Illustrator 25.4.1, SVG Export Plug-In . SVG Version: 6.00 Build 0)  -->
<svg version="1.1" id="Layer_1" xmlns="http://www.w3.org/2000/svg" xmlns:xlink="http://www.w3.org/1999/xlink" x="0px" y="0px"
	 viewBox="0 0 300.25 101.51" style="enable-background:new 0 0 300.25 101.51;" xml:space="preserve">
<style type="text/css">
	.st0{fill:#F9F9F9;stroke:#E6EAED;stroke-width:0.25;stroke-miterlimit:10;}
	.st1{fill:#F4812E;}
	.st2{fill:#E4E8EB;}
	.st3{fill:#E63D6A;}
	.st4{fill:#FDC602;}
	.st5{fill:#2BC641;}
</style>
<g>
	<rect x="0.12" y="21.38" class="st0" width="300" height="80"/>
	<g>
		<path d="M197.51,73.67h3.09v0.7h-3.95v-6.52h0.86V73.67z"/>
		<path d="M201.23,71.91c0-0.47,0.09-0.9,0.28-1.28c0.19-0.38,0.45-0.67,0.78-0.88c0.33-0.21,0.71-0.31,1.14-0.31
			c0.66,0,1.19,0.23,1.6,0.69s0.61,1.06,0.61,1.82v0.06c0,0.47-0.09,0.89-0.27,1.27c-0.18,0.37-0.44,0.67-0.77,0.88
			c-0.34,0.21-0.72,0.31-1.16,0.31c-0.66,0-1.19-0.23-1.6-0.68c-0.41-0.46-0.61-1.06-0.61-1.81V71.91z M202.07,72.01
			c0,0.54,0.12,0.97,0.37,1.29c0.25,0.33,0.58,0.49,1,0.49c0.42,0,0.75-0.17,1-0.49c0.25-0.33,0.37-0.79,0.37-1.39
			c0-0.53-0.13-0.96-0.38-1.29c-0.25-0.33-0.59-0.49-1.01-0.49c-0.41,0-0.74,0.16-0.99,0.49C202.19,70.94,202.07,71.4,202.07,72.01z
			"/>
		<path d="M208.63,73.79c0.3,0,0.55-0.09,0.77-0.27c0.22-0.18,0.34-0.4,0.37-0.67h0.78c-0.02,0.28-0.11,0.54-0.29,0.79
			c-0.18,0.25-0.41,0.45-0.7,0.6c-0.29,0.15-0.61,0.22-0.93,0.22c-0.66,0-1.18-0.22-1.57-0.66c-0.39-0.44-0.58-1.04-0.58-1.81v-0.14
			c0-0.47,0.09-0.89,0.26-1.26c0.17-0.37,0.42-0.65,0.75-0.85c0.32-0.2,0.71-0.31,1.15-0.31c0.54,0,0.99,0.16,1.35,0.49
			c0.36,0.33,0.55,0.75,0.58,1.27h-0.78c-0.02-0.31-0.14-0.57-0.36-0.77c-0.21-0.2-0.48-0.3-0.79-0.3c-0.42,0-0.75,0.15-0.98,0.45
			c-0.23,0.3-0.35,0.74-0.35,1.31v0.16c0,0.56,0.12,0.99,0.34,1.29C207.87,73.64,208.2,73.79,208.63,73.79z"/>
		<path d="M214.47,74.38c-0.05-0.1-0.09-0.27-0.12-0.51c-0.39,0.4-0.84,0.6-1.38,0.6c-0.48,0-0.87-0.14-1.17-0.41
			c-0.31-0.27-0.46-0.61-0.46-1.03c0-0.5,0.19-0.9,0.58-1.18c0.38-0.28,0.92-0.42,1.62-0.42h0.81v-0.38c0-0.29-0.09-0.52-0.26-0.69
			c-0.17-0.17-0.43-0.26-0.77-0.26c-0.3,0-0.54,0.08-0.74,0.22c-0.2,0.15-0.3,0.33-0.3,0.54h-0.83c0-0.24,0.09-0.47,0.26-0.7
			c0.17-0.23,0.4-0.4,0.7-0.54c0.29-0.13,0.62-0.2,0.97-0.2c0.56,0,1,0.14,1.31,0.42c0.32,0.28,0.48,0.66,0.49,1.15v2.23
			c0,0.44,0.06,0.8,0.17,1.06v0.07H214.47z M213.1,73.74c0.26,0,0.51-0.07,0.74-0.2c0.23-0.13,0.4-0.31,0.51-0.52v-0.99h-0.65
			c-1.01,0-1.52,0.3-1.52,0.89c0,0.26,0.09,0.46,0.26,0.61C212.6,73.67,212.83,73.74,213.1,73.74z"/>
		<path d="M217.59,68.36v1.17h0.9v0.64h-0.9v3.01c0,0.19,0.04,0.34,0.12,0.44c0.08,0.1,0.22,0.15,0.41,0.15
			c0.1,0,0.23-0.02,0.39-0.05v0.67c-0.22,0.06-0.43,0.09-0.64,0.09c-0.37,0-0.65-0.11-0.84-0.34c-0.19-0.22-0.28-0.54-0.28-0.95v-3
			h-0.88v-0.64h0.88v-1.17H217.59z"/>
		<path d="M219.47,68.25c0-0.13,0.04-0.25,0.12-0.34c0.08-0.09,0.2-0.14,0.36-0.14c0.16,0,0.28,0.05,0.37,0.14
			c0.08,0.09,0.13,0.21,0.13,0.34c0,0.13-0.04,0.25-0.13,0.34c-0.08,0.09-0.21,0.13-0.37,0.13c-0.16,0-0.28-0.04-0.36-0.13
			C219.51,68.49,219.47,68.38,219.47,68.25z M220.36,74.38h-0.83v-4.84h0.83V74.38z"/>
		<path d="M221.47,71.91c0-0.47,0.09-0.9,0.28-1.28c0.19-0.38,0.45-0.67,0.78-0.88c0.33-0.21,0.71-0.31,1.14-0.31
			c0.66,0,1.19,0.23,1.6,0.69s0.61,1.06,0.61,1.82v0.06c0,0.47-0.09,0.89-0.27,1.27c-0.18,0.37-0.44,0.67-0.77,0.88
			c-0.34,0.21-0.72,0.31-1.16,0.31c-0.66,0-1.19-0.23-1.6-0.68c-0.41-0.46-0.61-1.06-0.61-1.81V71.91z M222.3,72.01
			c0,0.54,0.12,0.97,0.37,1.29c0.25,0.33,0.58,0.49,1,0.49c0.42,0,0.75-0.17,1-0.49c0.25-0.33,0.37-0.79,0.37-1.39
			c0-0.53-0.13-0.96-0.38-1.29c-0.25-0.33-0.59-0.49-1.01-0.49c-0.41,0-0.74,0.16-0.99,0.49C222.43,70.94,222.3,71.4,222.3,72.01z"
			/>
		<path d="M227.7,69.53l0.03,0.61c0.37-0.47,0.85-0.7,1.45-0.7c1.02,0,1.54,0.58,1.55,1.73v3.2h-0.83v-3.21
			c0-0.35-0.08-0.61-0.24-0.77c-0.16-0.17-0.4-0.25-0.73-0.25c-0.27,0-0.5,0.07-0.71,0.22c-0.2,0.14-0.36,0.33-0.47,0.56v3.45h-0.83
			v-4.84H227.7z"/>
		<path d="M200,84.54l0.13,0.86l0.18-0.77l1.29-4.55h0.73l1.26,4.55l0.18,0.79l0.14-0.88l1.01-4.46h0.86l-1.58,6.52h-0.78
			l-1.34-4.75l-0.1-0.5l-0.1,0.5l-1.39,4.75h-0.78l-1.58-6.52h0.86L200,84.54z"/>
		<path d="M208.47,86.69c-0.66,0-1.19-0.22-1.6-0.65c-0.41-0.43-0.62-1.01-0.62-1.73v-0.15c0-0.48,0.09-0.91,0.28-1.29
			c0.18-0.38,0.44-0.67,0.77-0.89c0.33-0.21,0.69-0.32,1.07-0.32c0.63,0,1.12,0.21,1.47,0.62c0.35,0.42,0.52,1.01,0.52,1.78v0.34
			h-3.28c0.01,0.48,0.15,0.86,0.42,1.16c0.27,0.29,0.61,0.44,1.02,0.44c0.29,0,0.54-0.06,0.74-0.18c0.2-0.12,0.38-0.28,0.53-0.47
			l0.51,0.39C209.89,86.38,209.28,86.69,208.47,86.69z M208.36,82.35c-0.33,0-0.61,0.12-0.84,0.36c-0.23,0.24-0.37,0.58-0.42,1.02
			h2.43v-0.06c-0.02-0.42-0.14-0.75-0.34-0.98C208.98,82.46,208.71,82.35,208.36,82.35z"/>
		<path d="M214.3,86.6c-0.05-0.1-0.09-0.27-0.12-0.51c-0.39,0.4-0.84,0.6-1.38,0.6c-0.48,0-0.87-0.14-1.17-0.41
			c-0.31-0.27-0.46-0.61-0.46-1.03c0-0.5,0.19-0.9,0.58-1.18c0.38-0.28,0.92-0.42,1.62-0.42h0.81v-0.38c0-0.29-0.09-0.52-0.26-0.69
			c-0.17-0.17-0.43-0.26-0.77-0.26c-0.3,0-0.54,0.08-0.74,0.22c-0.2,0.15-0.3,0.33-0.3,0.54h-0.83c0-0.24,0.09-0.47,0.26-0.7
			s0.4-0.4,0.7-0.54c0.29-0.13,0.62-0.2,0.97-0.2c0.56,0,1,0.14,1.31,0.42c0.32,0.28,0.48,0.66,0.49,1.15v2.23
			c0,0.44,0.06,0.8,0.17,1.06v0.07H214.3z M212.93,85.97c0.26,0,0.51-0.07,0.74-0.2c0.23-0.13,0.4-0.31,0.51-0.52v-0.99h-0.65
			c-1.01,0-1.52,0.3-1.52,0.89c0,0.26,0.09,0.46,0.26,0.61C212.44,85.9,212.66,85.97,212.93,85.97z"/>
		<path d="M217.42,80.58v1.17h0.9v0.64h-0.9v3.01c0,0.19,0.04,0.34,0.12,0.44c0.08,0.1,0.22,0.15,0.41,0.15
			c0.1,0,0.23-0.02,0.39-0.05v0.67c-0.22,0.06-0.43,0.09-0.64,0.09c-0.37,0-0.65-0.11-0.84-0.34c-0.19-0.22-0.28-0.54-0.28-0.95v-3
			h-0.88v-0.64h0.88v-1.17H217.42z"/>
		<path d="M220.12,82.34c0.37-0.45,0.84-0.68,1.43-0.68c1.02,0,1.54,0.58,1.55,1.73v3.2h-0.83v-3.21c0-0.35-0.08-0.61-0.24-0.77
			c-0.16-0.17-0.4-0.25-0.73-0.25c-0.27,0-0.5,0.07-0.71,0.22c-0.2,0.14-0.36,0.33-0.47,0.56v3.45h-0.83v-6.88h0.83V82.34z"/>
		<path d="M226.35,86.69c-0.66,0-1.19-0.22-1.6-0.65c-0.41-0.43-0.62-1.01-0.62-1.73v-0.15c0-0.48,0.09-0.91,0.28-1.29
			c0.18-0.38,0.44-0.67,0.77-0.89c0.33-0.21,0.69-0.32,1.07-0.32c0.63,0,1.12,0.21,1.47,0.62c0.35,0.42,0.52,1.01,0.52,1.78v0.34
			h-3.28c0.01,0.48,0.15,0.86,0.42,1.16c0.27,0.29,0.61,0.44,1.02,0.44c0.29,0,0.54-0.06,0.74-0.18c0.2-0.12,0.38-0.28,0.53-0.47
			l0.51,0.39C227.78,86.38,227.17,86.69,226.35,86.69z M226.25,82.35c-0.33,0-0.61,0.12-0.84,0.36c-0.23,0.24-0.37,0.58-0.42,1.02
			h2.43v-0.06c-0.02-0.42-0.14-0.75-0.34-0.98C226.87,82.46,226.6,82.35,226.25,82.35z"/>
		<path d="M231.54,82.5c-0.13-0.02-0.26-0.03-0.41-0.03c-0.54,0-0.91,0.23-1.11,0.69v3.44h-0.83v-4.84h0.81l0.01,0.56
			c0.27-0.43,0.66-0.65,1.16-0.65c0.16,0,0.28,0.02,0.37,0.06V82.5z"/>
	</g>
	<g>
		<path class="st1" d="M220.63,41.96c0-0.93-0.38-1.77-0.99-2.36c-0.61-0.61-1.45-0.99-2.36-0.99c-0.63,0-1.22,0.17-1.73,0.48
			c-0.36,0.23-0.68,0.51-0.95,0.86l0.02,0.02c0.29,0.21,0.53,0.42,0.74,0.65c0.34,0.36,0.63,0.76,0.84,1.22
			c0.1,0,0.21-0.02,0.3-0.02c1.03,0,1.94,0.42,2.62,1.08c0.08,0.08,0.15,0.17,0.23,0.25c0.23,0.27,0.42,0.59,0.55,0.91
			c0.19-0.25,0.36-0.53,0.48-0.82C220.56,42.83,220.63,42.4,220.63,41.96z"/>
		<path class="st1" d="M217.3,37.68c0.27,0,0.49-0.23,0.49-0.49v-1.35c0-0.27-0.23-0.49-0.49-0.49c-0.27,0-0.49,0.23-0.49,0.49v1.35
			C216.81,37.45,217.04,37.68,217.3,37.68z"/>
		<path class="st1" d="M221.03,38.94l0.95-0.95c0.19-0.19,0.19-0.49,0-0.68c-0.19-0.19-0.49-0.19-0.68,0l-0.95,0.95
			c-0.19,0.19-0.19,0.49,0,0.68C220.54,39.13,220.84,39.13,221.03,38.94z"/>
		<path class="st1" d="M223.45,41.48h-1.35c-0.27,0-0.49,0.23-0.49,0.49s0.23,0.49,0.49,0.49h1.35c0.27,0,0.49-0.23,0.49-0.49
			C223.92,41.71,223.71,41.48,223.45,41.48z"/>
		<path class="st1" d="M221.03,45.02c-0.19-0.19-0.49-0.19-0.68,0c-0.19,0.19-0.19,0.49,0,0.68l0.95,0.95
			c0.19,0.19,0.49,0.19,0.68,0c0.19-0.19,0.19-0.49,0-0.68L221.03,45.02z"/>
		<path class="st1" d="M213.56,38.94c0.19,0.19,0.49,0.19,0.68,0c0.19-0.19,0.19-0.49,0-0.68l-0.95-0.95
			c-0.17-0.21-0.49-0.21-0.68,0c-0.19,0.19-0.19,0.49,0,0.68L213.56,38.94z"/>
		<path class="st1" d="M218.44,43.59c-0.49-0.49-1.18-0.8-1.92-0.8c-0.4,0-0.78,0.08-1.12,0.25c-0.34,0.15-0.67,0.38-0.91,0.68
			c-0.17,0.21-0.49,0.23-0.68,0.04c-0.21-0.17-0.23-0.49-0.04-0.68c0.36-0.4,0.78-0.7,1.26-0.91c0.08-0.04,0.15-0.08,0.23-0.1
			c-0.3-0.53-0.68-0.97-1.16-1.27c-0.61-0.42-1.33-0.67-2.11-0.67c-0.91,0-1.75,0.34-2.42,0.89c-0.65,0.55-1.1,1.35-1.24,2.24
			c-0.02,0.15-0.1,0.27-0.21,0.34c-0.08,0.06-0.17,0.08-0.27,0.08c-0.63,0-1.2,0.25-1.62,0.67c-0.42,0.42-0.67,0.99-0.67,1.62
			c0,0.63,0.25,1.2,0.67,1.62c0.42,0.42,0.99,0.67,1.62,0.67h8.65c0.76-0.02,1.45-0.32,1.94-0.82c0.49-0.49,0.8-1.18,0.8-1.92
			C219.24,44.75,218.94,44.09,218.44,43.59z M207.79,46.98c-0.58,0-1.05-0.47-1.05-1.05c0-0.58,0.47-1.05,1.05-1.05
			c0.58,0,1.05,0.47,1.05,1.05C208.84,46.51,208.37,46.98,207.79,46.98z"/>
		<path class="st1" d="M215.91,49.1h-9.26c-0.35,0-0.64,0.29-0.64,0.64c0,0.35,0.29,0.64,0.64,0.64h9.26c0.7,0,1.27,0.57,1.27,1.27
			c0,0.53-0.43,0.96-0.96,0.96c-0.53,0-0.96-0.43-0.96-0.96c0-0.35-0.29-0.64-0.64-0.64c-0.35,0-0.64,0.29-0.64,0.64
			c0,1.23,1,2.24,2.24,2.24c1.23,0,2.24-1,2.24-2.24C218.47,50.24,217.32,49.1,215.91,49.1z"/>
	</g>
	<g>
		<path d="M137.5,73.32l1.86-5.38h0.94l-2.42,6.52h-0.76l-2.41-6.52h0.94L137.5,73.32z"/>
		<path d="M142.86,74.55c-0.66,0-1.19-0.22-1.6-0.65c-0.41-0.43-0.62-1.01-0.62-1.73v-0.15c0-0.48,0.09-0.91,0.28-1.29
			c0.18-0.38,0.44-0.67,0.77-0.89c0.33-0.21,0.69-0.32,1.07-0.32c0.63,0,1.12,0.21,1.47,0.62c0.35,0.42,0.52,1.01,0.52,1.78v0.34
			h-3.28c0.01,0.48,0.15,0.86,0.42,1.16c0.27,0.29,0.61,0.44,1.02,0.44c0.29,0,0.54-0.06,0.74-0.18c0.2-0.12,0.38-0.28,0.53-0.47
			l0.51,0.39C144.28,74.24,143.67,74.55,142.86,74.55z M142.76,70.21c-0.33,0-0.61,0.12-0.84,0.36c-0.23,0.24-0.37,0.58-0.42,1.02
			h2.43v-0.06c-0.02-0.42-0.14-0.75-0.34-0.98C143.38,70.33,143.1,70.21,142.76,70.21z"/>
		<path d="M148.05,70.36c-0.13-0.02-0.26-0.03-0.41-0.03c-0.54,0-0.91,0.23-1.11,0.69v3.44h-0.83v-4.84h0.81l0.01,0.56
			c0.27-0.43,0.66-0.65,1.16-0.65c0.16,0,0.28,0.02,0.37,0.06V70.36z"/>
		<path d="M151.63,73.18c0-0.22-0.08-0.4-0.25-0.52c-0.17-0.12-0.46-0.23-0.88-0.32c-0.42-0.09-0.75-0.2-1-0.32
			c-0.25-0.13-0.43-0.28-0.55-0.45c-0.12-0.17-0.18-0.38-0.18-0.62c0-0.4,0.17-0.73,0.5-1.01c0.34-0.28,0.76-0.41,1.29-0.41
			c0.55,0,0.99,0.14,1.34,0.43c0.34,0.28,0.51,0.65,0.51,1.09h-0.83c0-0.23-0.1-0.42-0.29-0.59s-0.43-0.25-0.73-0.25
			c-0.3,0-0.54,0.07-0.71,0.2c-0.17,0.13-0.26,0.3-0.26,0.51c0,0.2,0.08,0.35,0.24,0.45c0.16,0.1,0.44,0.2,0.86,0.29
			c0.41,0.09,0.75,0.2,1.01,0.33c0.26,0.13,0.45,0.28,0.57,0.46s0.19,0.4,0.19,0.66c0,0.43-0.17,0.78-0.52,1.04
			c-0.35,0.26-0.8,0.39-1.35,0.39c-0.39,0-0.73-0.07-1.03-0.21s-0.53-0.33-0.7-0.57c-0.17-0.25-0.25-0.51-0.25-0.8h0.83
			c0.01,0.28,0.13,0.5,0.33,0.66c0.21,0.16,0.48,0.24,0.82,0.24c0.31,0,0.56-0.06,0.75-0.19C151.54,73.56,151.63,73.39,151.63,73.18
			z"/>
		<path d="M155.55,74.55c-0.66,0-1.19-0.22-1.6-0.65c-0.41-0.43-0.62-1.01-0.62-1.73v-0.15c0-0.48,0.09-0.91,0.28-1.29
			c0.18-0.38,0.44-0.67,0.77-0.89c0.33-0.21,0.69-0.32,1.07-0.32c0.63,0,1.12,0.21,1.47,0.62c0.35,0.42,0.52,1.01,0.52,1.78v0.34
			h-3.28c0.01,0.48,0.15,0.86,0.42,1.16c0.27,0.29,0.61,0.44,1.02,0.44c0.29,0,0.54-0.06,0.74-0.18c0.2-0.12,0.38-0.28,0.53-0.47
			l0.51,0.39C156.97,74.24,156.36,74.55,155.55,74.55z M155.44,70.21c-0.33,0-0.61,0.12-0.84,0.36c-0.23,0.24-0.37,0.58-0.42,1.02
			h2.43v-0.06c-0.02-0.42-0.14-0.75-0.34-0.98C156.06,70.33,155.79,70.21,155.44,70.21z"/>
	</g>
	<path d="M152.34,35.16l-0.94,0.31c-0.1,0-3.76,1.04-5.43,2.19c-1.78,1.15-2.51,2.19-2.93,2.82c-0.63,0.94-1.78,4.91-1.78,6.58
		l-0.94,2.4c-0.21,0.42,0,0.84,0.42,1.04c0.1,0,0.21,0.1,0.31,0.1c0.31,0,0.63-0.21,0.73-0.52l0.63-1.57c0.31,0,0.73-0.1,1.25-0.21
		c0.73-0.1,1.46-0.31,2.3-0.52c0.84-0.21,1.67-0.52,2.51-0.84c0.73-0.31,1.46-0.73,1.99-1.25c0.52-0.52,0.84-1.25,1.04-1.99
		c0.21-0.73,0.31-1.67,0.42-2.51c0.1-0.84,0.1-1.78,0.21-2.61c0-0.84,0.1-1.57,0.21-2.19C152.34,36.41,152.34,35.16,152.34,35.16z
		 M150.36,41.01c-0.1,0.84-0.21,1.57-0.31,2.19c-0.21,0.63-0.42,1.04-0.63,1.36c-0.31,0.31-0.84,0.63-1.46,0.94
		c-0.73,0.31-1.46,0.52-2.3,0.84c-0.63,0.21-1.36,0.31-1.88,0.42l5.64-5.85c0.31-0.31,0.63-0.73,1.04-1.15
		C150.46,40.17,150.46,40.59,150.36,41.01z M140.01,53.97h8.36V52.4h-8.36V53.97z"/>
	<g>
		<path d="M71.77,65.59h-2.1v5.82h-0.85v-5.82h-2.09v-0.7h5.04V65.59z"/>
		<path d="M75.09,71.41c-0.05-0.1-0.09-0.27-0.12-0.51c-0.39,0.4-0.84,0.6-1.38,0.6c-0.48,0-0.87-0.14-1.17-0.41
			c-0.31-0.27-0.46-0.61-0.46-1.03c0-0.5,0.19-0.9,0.58-1.18c0.38-0.28,0.92-0.42,1.62-0.42h0.81v-0.38c0-0.29-0.09-0.52-0.26-0.69
			c-0.17-0.17-0.43-0.26-0.77-0.26c-0.3,0-0.54,0.08-0.74,0.22c-0.2,0.15-0.3,0.33-0.3,0.54h-0.83c0-0.24,0.09-0.47,0.26-0.7
			c0.17-0.23,0.4-0.4,0.7-0.54c0.29-0.13,0.62-0.2,0.97-0.2c0.56,0,1,0.14,1.31,0.42c0.32,0.28,0.48,0.66,0.49,1.15v2.23
			c0,0.44,0.06,0.8,0.17,1.06v0.07H75.09z M73.72,70.78c0.26,0,0.51-0.07,0.74-0.2c0.23-0.13,0.4-0.31,0.51-0.52v-0.99h-0.65
			c-1.01,0-1.52,0.3-1.52,0.89c0,0.26,0.09,0.46,0.26,0.61C73.22,70.7,73.45,70.78,73.72,70.78z"/>
		<path d="M81.19,69.04c0,0.74-0.17,1.33-0.51,1.78c-0.34,0.45-0.8,0.67-1.37,0.67c-0.61,0-1.08-0.22-1.42-0.65l-0.04,0.56h-0.76
			v-6.88h0.83v2.56c0.33-0.41,0.8-0.62,1.38-0.62c0.59,0,1.05,0.22,1.39,0.67c0.34,0.44,0.5,1.05,0.5,1.83V69.04z M80.36,68.94
			c0-0.56-0.11-1-0.33-1.31c-0.22-0.31-0.53-0.46-0.94-0.46c-0.55,0-0.94,0.25-1.18,0.76v2.1c0.25,0.51,0.65,0.76,1.19,0.76
			c0.4,0,0.71-0.15,0.93-0.46C80.25,70.03,80.36,69.56,80.36,68.94z"/>
		<path d="M83.13,71.41H82.3v-6.88h0.83V71.41z"/>
		<path d="M86.47,71.5c-0.66,0-1.19-0.22-1.6-0.65c-0.41-0.43-0.62-1.01-0.62-1.73v-0.15c0-0.48,0.09-0.91,0.28-1.29
			c0.18-0.38,0.44-0.67,0.77-0.89c0.33-0.21,0.69-0.32,1.07-0.32c0.63,0,1.12,0.21,1.47,0.62c0.35,0.42,0.52,1.01,0.52,1.78v0.34
			h-3.28c0.01,0.48,0.15,0.86,0.42,1.16c0.27,0.29,0.61,0.44,1.02,0.44c0.29,0,0.54-0.06,0.74-0.18c0.2-0.12,0.38-0.28,0.53-0.47
			l0.51,0.39C87.89,71.19,87.28,71.5,86.47,71.5z M86.36,67.15c-0.33,0-0.61,0.12-0.84,0.36c-0.23,0.24-0.37,0.58-0.42,1.02h2.43
			v-0.06c-0.02-0.42-0.14-0.75-0.34-0.98C86.98,67.27,86.71,67.15,86.36,67.15z"/>
	</g>
	<path d="M83.42,35.09H71.78c-0.91,0-1.66,0.75-1.66,1.66v11.63c0,0.91,0.75,1.66,1.66,1.66h11.63c0.91,0,1.66-0.75,1.66-1.66V36.75
		C85.08,35.83,84.33,35.09,83.42,35.09z M71.78,36.33h11.63c0.25,0,0.42,0.17,0.42,0.42v2.91H71.37v-2.91
		C71.37,36.5,71.53,36.33,71.78,36.33z M78.43,40.9h5.4v2.91h-5.4V40.9z M77.18,43.81h-5.82V40.9h5.82V43.81z M71.37,48.38v-3.32
		h5.82v3.74h-5.4C71.53,48.8,71.37,48.63,71.37,48.38z M83.42,48.8h-4.99v-3.74h5.4v3.32C83.83,48.63,83.67,48.8,83.42,48.8z"/>
	<path class="st2" d="M300.12,22h-300V6.7c0-3.7,3-6.7,6.7-6.7h286.61c3.7,0,6.7,3,6.7,6.7V22z"/>
	<g>
		<g>
			<ellipse class="st3" cx="15.13" cy="11" rx="3.48" ry="3.48"/>
		</g>
		<g>
			<ellipse class="st4" cx="26.46" cy="11" rx="3.48" ry="3.48"/>
		</g>
		<g>
			<ellipse class="st5" cx="37.77" cy="11" rx="3.48" ry="3.48"/>
		</g>
	</g>
</g>
</svg>
