<svg xmlns="http://www.w3.org/2000/svg" xmlns:xlink="http://www.w3.org/1999/xlink" width="120" height="80" fill="none" xmlns:v="https://vecta.io/nano"><g fill="#fff"><rect x=".75" y=".75" width="118.5" height="78.5" rx="3.25"/><rect x="20.5" y="14.5" width="79" height="51" rx="1.5" stroke="#8796a1"/></g><g fill="#8796a1"><rect x="75" y="19" width="7" height="1.5" rx=".75"/><rect x="83" y="19" width="6" height="1.5" rx=".75"/><rect x="75" y="22.25" width="7" height="1.5" rx=".75"/><rect x="83" y="22.25" width="12" height="1.5" rx=".75"/><rect x="75" y="25.5" width="7" height="1.5" rx=".75"/><rect x="83" y="25.5" width="8" height="1.5" rx=".75"/><rect x="75" y="28.75" width="7" height="1.5" rx=".75"/><rect x="83" y="28.75" width="7" height="1.5" rx=".75"/><rect x="75" y="32" width="7" height="1.5" rx=".75"/><rect x="83" y="32" width="11" height="1.5" rx=".75"/><rect x="75" y="35.25" width="7" height="1.5" rx=".75"/><rect x="83" y="35.25" width="10" height="1.5" rx=".75"/><rect x="75" y="38.5" width="7" height="1.5" rx=".75"/><rect x="83" y="38.5" width="6" height="1.5" rx=".75"/><rect x="25" y="49" width="10" height="2" rx="1"/></g><g fill="#abb6bd"><rect x="37" y="49" width="10" height="2" rx="1"/><rect x="49" y="49" width="10" height="2" rx="1"/><rect x="61" y="49" width="10" height="2" rx="1"/></g><g fill="#8796a1"><rect x="26" y="54" width="8" height="1" rx=".5"/><use xlink:href="#B"/><rect x="25" y="60" width="10" height="1" rx=".5"/><rect x="37.5" y="54" width="9" height="1" rx=".5"/><use xlink:href="#B" x="12"/><rect x="37" y="60" width="10" height="1" rx=".5"/><rect x="50.5" y="54" width="7" height="1" rx=".5"/><use xlink:href="#B" x="24"/><rect x="49" y="60" width="10" height="1" rx=".5"/><rect x="62.5" y="54" width="7" height="1" rx=".5"/><use xlink:href="#B" x="36"/><rect x="61" y="60" width="10" height="1" rx=".5"/><rect x="74.5" y="54" width="7" height="1" rx=".5"/><use xlink:href="#B" x="48"/><rect x="73" y="60" width="10" height="1" rx=".5"/><rect x="86.5" y="54" width="7" height="1" rx=".5"/><use xlink:href="#B" x="60"/><rect x="85" y="60" width="10" height="1" rx=".5"/><path d="M37.394 19H25.94c-.519 0-.94.448-.94 1s.421 1 .94 1h11.454c.519 0 .94-.448.94-1s-.421-1-.94-1zm16 0H41.94c-.519 0-.94.448-.94 1s.421 1 .94 1h11.454c.519 0 .94-.448.94-1s-.421-1-.94-1z"/><rect x="25" y="38" width="37" height="2" rx="1"/><path d="M44.762 28.541h1.146a1.35 1.35 0 0 0 .58-.076 1.34 1.34 0 0 0 .491-.314c.241-.307.362-.69.338-1.078.016-.364-.105-.721-.338-1.003a1.31 1.31 0 0 0-.467-.294 1.33 1.33 0 0 0-.548-.078 1.44 1.44 0 0 0-.958.335 1.2 1.2 0 0 0-.284.406 1.17 1.17 0 0 0-.092.485h-1.973a2.37 2.37 0 0 1 .213-1.114 2.4 2.4 0 0 1 .708-.892 3.56 3.56 0 0 1 2.349-.799 3.79 3.79 0 0 1 2.518.78c.302.27.538.605.691.978s.219.775.192 1.177a2.21 2.21 0 0 1-.413 1.282c-.286.415-.683.743-1.146.947.519.169.968.502 1.278.948a2.47 2.47 0 0 1 .451 1.468c.022.427-.058.854-.235 1.244s-.444.735-.78 1.004c-.741.564-1.659.853-2.593.817a3.79 3.79 0 0 1-2.406-.762 2.45 2.45 0 0 1-.773-.962 2.43 2.43 0 0 1-.204-1.212h1.879a1.27 1.27 0 0 0 .098.537 1.28 1.28 0 0 0 .315.448c.285.261.663.401 1.052.39a1.47 1.47 0 0 0 .599-.087 1.45 1.45 0 0 0 .51-.322 1.39 1.39 0 0 0 .325-.495 1.38 1.38 0 0 0 .089-.583 1.36 1.36 0 0 0-.048-.638c-.067-.206-.182-.393-.335-.547a1.38 1.38 0 0 0-.55-.338 1.41 1.41 0 0 0-.645-.055H44.65l.113-1.598zm13.024 6.075h-6.897V33.26l3.27-3.604c.386-.436.726-.909 1.015-1.412.181-.325.284-.688.301-1.059a1.66 1.66 0 0 0-.357-1.078c-.118-.14-.269-.25-.439-.321a1.18 1.18 0 0 0-.538-.088 1.24 1.24 0 0 0-.598.105 1.22 1.22 0 0 0-.473.378 2.26 2.26 0 0 0-.357 1.3H50.74a3.18 3.18 0 0 1 .203-1.281 3.21 3.21 0 0 1 .699-1.097 3.31 3.31 0 0 1 1.153-.759 3.34 3.34 0 0 1 1.366-.226c.9-.051 1.784.249 2.462.836a2.9 2.9 0 0 1 .685 1.02 2.87 2.87 0 0 1 .198 1.209c.012.611-.158 1.212-.489 1.728a18.15 18.15 0 0 1-1.673 2.099l-1.879 2.006h4.322v1.598zm1.703-9.684a.85.85 0 0 1 .188-.576c.069-.074.153-.133.247-.171a.7.7 0 0 1 .297-.052.72.72 0 0 1 .307.049c.097.038.185.098.257.174a.85.85 0 0 1 .188.576.83.83 0 0 1-.188.576.71.71 0 0 1-.247.172c-.094.039-.196.056-.297.052a.72.72 0 0 1-.307-.049c-.097-.038-.185-.098-.257-.174a.83.83 0 0 1-.188-.576zm.413 0c-.026.11-.026.224 0 .334a.28.28 0 0 0 .113.102c.046.023.098.033.15.028.047.004.093-.006.134-.03s.072-.058.092-.101a.56.56 0 0 0 .094-.334c.002-.096-.017-.191-.056-.279-.023-.044-.058-.079-.102-.103s-.093-.033-.142-.027c-.046-.004-.093.006-.134.029s-.073.058-.092.101a.65.65 0 0 0-.094.334l.038-.056zm4.286 1.616a1.23 1.23 0 0 1-.079.502 1.22 1.22 0 0 1-.278.427c-.291.233-.659.353-1.034.335a1.35 1.35 0 0 1-.585-.093 1.33 1.33 0 0 1-.486-.334 1.6 1.6 0 0 1-.32-.496c-.072-.185-.103-.383-.094-.581v-.706c-.017-.397.124-.784.395-1.078a1.61 1.61 0 0 1 2.105 0 1.15 1.15 0 0 1 .295.422 1.14 1.14 0 0 1 .081.507h-.714a.83.83 0 0 0-.169-.557.72.72 0 0 0-.253-.15c-.094-.032-.194-.044-.292-.036a.65.65 0 0 0-.259.099c-.078.051-.144.119-.192.198a1.14 1.14 0 0 0-.188.687v.706a1.03 1.03 0 0 0 .207.687.68.68 0 0 0 .241.194.69.69 0 0 0 .304.067.63.63 0 0 0 .275-.035.62.62 0 0 0 .232-.15.74.74 0 0 0 .169-.539l.639-.074zm-4.699 5.07a.83.83 0 0 1 .189-.57.7.7 0 0 1 .249-.17.71.71 0 0 1 .299-.051.74.74 0 0 1 .309.049.72.72 0 0 1 .258.172.83.83 0 0 1 .189.57c.012.207-.055.41-.189.57a.7.7 0 0 1-.249.17c-.095.038-.197.056-.3.051a.74.74 0 0 1-.309-.049.72.72 0 0 1-.258-.172.81.81 0 0 1-.189-.57zm.416 0a.71.71 0 0 0 0 .331.28.28 0 0 0 .114.101.29.29 0 0 0 .151.028c.047.004.094-.006.135-.029s.073-.058.092-.1a.54.54 0 0 0 .095-.331.63.63 0 0 0-.057-.276c-.023-.043-.058-.079-.102-.102a.25.25 0 0 0-.144-.027c-.047-.004-.094.006-.135.029s-.073.058-.092.1a.63.63 0 0 0-.095.331l.038-.055zm3.84 1.36h-1.457v1.527h-.728v-3.68h2.513v.57h-1.785v1.012h1.53l-.073.57zm-23.379-1.325a3.29 3.29 0 0 1-.961 2.32 3.28 3.28 0 0 1-2.319.963h-8.418c-.981-.025-1.914-.432-2.599-1.135S25 32.155 25 31.174s.384-1.924 1.069-2.627 1.618-1.11 2.599-1.135h.104a3.58 3.58 0 0 1 6.618-.842 2.41 2.41 0 0 1 .544-.063c.582.003 1.143.218 1.577.606a2.39 2.39 0 0 1 .781 1.498 3.29 3.29 0 0 1 2.075 3.043h0z"/></g><rect x="25" y="44" width="70" height="1" rx=".5" fill="#b7c0c7"/><rect x=".75" y=".75" width="118.5" height="78.5" rx="3.25" stroke="#8796a1" stroke-width="1.5"/><defs ><path id="B" d="M31.5 57.5a1.5 1.5 0 1 1-3 0 1.5 1.5 0 1 1 3 0z"/></defs></svg>