<svg xmlns="http://www.w3.org/2000/svg" xmlns:xlink="http://www.w3.org/1999/xlink" width="120" height="80" fill="none" xmlns:v="https://vecta.io/nano"><style><![CDATA[.B{fill-rule:evenodd}.C{stroke:#8796a1}]]></style><g fill="#fff"><rect x=".75" y=".75" width="118.5" height="78.5" rx="3.25"/><rect x="20.5" y="10.5" width="79" height="59" rx="1.5" class="C"/></g><rect x="60.5" y="20.5" width="39" height="49" rx=".5" class="C"/><g fill="#8796a1"><rect x="63" y="23" width="2" height="2" rx="1"/><rect x="66" y="23.25" width="8" height="1.5" rx=".75"/><rect x="89" y="23.25" width="8" height="1.5" rx=".75"/><path d="M60 27h40v1H60v-1z" class="B"/><rect x="63" y="30" width="2" height="2" rx="1"/><rect x="66" y="30.25" width="6" height="1.5" rx=".75"/><rect x="87" y="30.25" width="10" height="1.5" rx=".75"/><path d="M60 34h40v1H60v-1z" class="B"/><rect x="63" y="37" width="2" height="2" rx="1"/><rect x="66" y="37.25" width="8" height="1.5" rx=".75"/><rect x="89" y="37.25" width="8" height="1.5" rx=".75"/><path d="M60 41h40v1H60v-1z" class="B"/><rect x="63" y="44" width="2" height="2" rx="1"/><rect x="66" y="44.25" width="10" height="1.5" rx=".75"/><rect x="90" y="44.25" width="7" height="1.5" rx=".75"/><path d="M60 48h40v1H60v-1z" class="B"/><rect x="63" y="51" width="2" height="2" rx="1"/><rect x="66" y="51.25" width="7" height="1.5" rx=".75"/><rect x="85" y="51.25" width="12" height="1.5" rx=".75"/><path d="M60 55h40v1H60v-1z" class="B"/><rect x="63" y="58" width="2" height="2" rx="1"/><rect x="66" y="58.25" width="8" height="1.5" rx=".75"/><rect x="88" y="58.25" width="9" height="1.5" rx=".75"/><path d="M60 62h40v1H60v-1z" class="B"/><rect x="63" y="65" width="2" height="2" rx="1"/><rect x="66" y="65.25" width="6" height="1.5" rx=".75"/><rect x="87" y="65.25" width="10" height="1.5" rx=".75"/><path d="M20 20h80v1H20z"/><path d="M60 10h1v10h-1z"/><rect x="32" y="14.5" width="16" height="2" rx="1"/><rect x="72" y="14.5" width="16" height="2" rx="1"/><path d="M40.17 44.156h.895a.89.89 0 0 0 .453-.071 1.04 1.04 0 0 0 .384-.295 1.7 1.7 0 0 0 .264-1.011c.012-.342-.082-.677-.264-.942a1.02 1.02 0 0 0-.365-.276.88.88 0 0 0-.428-.073c-.274-.008-.54.104-.749.314a1.14 1.14 0 0 0-.222.381 1.3 1.3 0 0 0-.072.456h-1.541a2.62 2.62 0 0 1 .167-1.046c.125-.328.315-.615.553-.838.515-.506 1.167-.772 1.835-.75.709-.046 1.407.214 1.967.732a2.56 2.56 0 0 1 .54.918 2.94 2.94 0 0 1 .15 1.105c-.001.431-.114.851-.323 1.203a2.28 2.28 0 0 1-.895.889c.406.159.756.471.998.889a2.65 2.65 0 0 1 .352 1.378 2.97 2.97 0 0 1-.183 1.168c-.138.367-.347.69-.61.942-.579.529-1.296.801-2.026.767-.677.026-1.341-.226-1.879-.715a2.29 2.29 0 0 1-.604-.903 2.69 2.69 0 0 1-.16-1.137h1.468c-.005.172.021.344.077.504a1.23 1.23 0 0 0 .246.42c.223.245.518.377.822.366.159.012.318-.016.468-.082s.285-.169.399-.302.198-.29.254-.464.079-.361.069-.547a1.52 1.52 0 0 0-.038-.599c-.052-.193-.142-.37-.262-.514a1.08 1.08 0 0 0-.429-.317c-.162-.064-.335-.082-.504-.052h-.895l.088-1.5zm10.172 5.702h-5.387v-1.273l2.554-3.383c.301-.409.567-.853.793-1.325a2.6 2.6 0 0 0 .235-.994c.009-.365-.09-.723-.279-1.011a.94.94 0 0 0-.343-.301c-.133-.067-.277-.095-.421-.083-.16-.014-.321.02-.467.099s-.273.201-.369.354c-.194.364-.291.79-.279 1.221h-1.541a3.55 3.55 0 0 1 .159-1.202 3.14 3.14 0 0 1 .546-1.03c.254-.31.561-.553.9-.712a2.22 2.22 0 0 1 1.067-.212c.703-.048 1.393.234 1.923.785a2.8 2.8 0 0 1 .535.958 3.19 3.19 0 0 1 .155 1.135 3.35 3.35 0 0 1-.382 1.622 16.89 16.89 0 0 1-1.306 1.971l-1.468 1.883h3.376v1.5zm1.659-8.679a.91.91 0 0 1 .147-.541c.054-.07.12-.125.193-.161a.47.47 0 0 1 .232-.048.48.48 0 0 1 .24.046c.076.036.145.092.2.163.103.153.155.345.147.541.01.196-.043.389-.147.541-.054.07-.12.125-.193.161a.46.46 0 0 1-.233.048c-.082.006-.164-.01-.24-.046a.57.57 0 0 1-.201-.163.89.89 0 0 1-.147-.541zm.323 0a.83.83 0 0 0 0 .314.24.24 0 0 0 .088.095.19.19 0 0 0 .117.027c.036.004.073-.006.105-.028a.2.2 0 0 0 .072-.094.6.6 0 0 0 .073-.314.71.71 0 0 0-.044-.262.21.21 0 0 0-.079-.096.17.17 0 0 0-.111-.026c-.036-.004-.073.006-.105.028a.2.2 0 0 0-.072.094.7.7 0 0 0-.073.314l.029-.052zm3.347 1.517a1.35 1.35 0 0 1-.062.471c-.048.15-.122.287-.217.401a1.07 1.07 0 0 1-.807.314.9.9 0 0 1-.457-.087 1.06 1.06 0 0 1-.38-.314 1.41 1.41 0 0 1-.25-.466 1.59 1.59 0 0 1-.073-.546v-.663c-.014-.372.097-.736.308-1.011a1.14 1.14 0 0 1 .822-.367 1.14 1.14 0 0 1 .822.367 1.11 1.11 0 0 1 .231.396c.051.151.072.314.063.476h-.558c.01-.188-.037-.373-.132-.523a.55.55 0 0 0-.197-.14.47.47 0 0 0-.228-.034.46.46 0 0 0-.202.093.56.56 0 0 0-.15.186c-.105.191-.157.417-.147.645v.663a1.11 1.11 0 0 0 .161.645.56.56 0 0 0 .189.182.46.46 0 0 0 .237.062.42.42 0 0 0 .215-.033.48.48 0 0 0 .181-.141.79.79 0 0 0 .132-.506l.499-.07zm-3.67 4.555a.91.91 0 0 1 .147-.541c.054-.07.12-.125.193-.161a.46.46 0 0 1 .232-.048.48.48 0 0 1 .24.046.57.57 0 0 1 .201.163c.103.153.155.345.147.541.01.196-.043.389-.147.541-.054.07-.12.125-.193.161a.47.47 0 0 1-.233.048.48.48 0 0 1-.24-.046.57.57 0 0 1-.201-.163.89.89 0 0 1-.147-.541zm.323 0a.83.83 0 0 0 0 .314.24.24 0 0 0 .088.095.19.19 0 0 0 .117.027c.036.004.073-.006.104-.028a.2.2 0 0 0 .072-.094.6.6 0 0 0 .073-.314.71.71 0 0 0-.044-.262.21.21 0 0 0-.079-.096.17.17 0 0 0-.111-.026c-.036-.004-.073.006-.105.028a.2.2 0 0 0-.072.094.7.7 0 0 0-.073.314l.029-.052zm2.98 1.289h-1.131v1.447h-.566V46.5h1.951v.541h-1.385V48h1.187l-.057.541zM37 47.465c-.001.679-.27 1.331-.751 1.812s-1.131.751-1.811.752h-6.574A2.94 2.94 0 0 1 25 47.091a2.94 2.94 0 0 1 2.864-2.938h.081a2.79 2.79 0 0 1 .856-1.413c.422-.374.945-.612 1.504-.683s1.126.028 1.627.285.913.659 1.182 1.153c.139-.032.282-.049.424-.049a1.87 1.87 0 0 1 1.232.473 1.86 1.86 0 0 1 .61 1.17A2.57 2.57 0 0 1 37 47.465h0z"/><rect x="27" y="30" width="28" height="2.5" rx="1.25"/><use xlink:href="#B"/><use xlink:href="#B" x="12"/></g><rect x="30" y="54" width="10" height="1.5" rx=".75" fill="#9fabb4"/><g fill="#8796a1"><rect x="41" y="54" width="10" height="1.5" rx=".75"/><rect x="27" y="57.75" width="16" height="1.5" rx=".75"/><rect x="44" y="57.5" width="1" height="2" rx=".5"/><rect x="46" y="57.75" width="8" height="1.5" rx=".75"/></g><rect x=".75" y=".75" width="118.5" height="78.5" rx="3.25" stroke-width="1.5" class="C"/><defs ><path id="B" d="M39.295 34.5h-8.59c-.389 0-.705.336-.705.75s.316.75.705.75h8.59c.389 0 .705-.336.705-.75s-.316-.75-.705-.75z"/></defs></svg>