<svg width="120" height="80" viewBox="0 0 120 80" fill="none" xmlns="http://www.w3.org/2000/svg">
<rect x="0.75" y="0.75" width="118.5" height="78.5" rx="3.25" fill="white"/>
<path d="M20.5 14C20.5 13.0431 20.5011 12.3756 20.5688 11.8721C20.6345 11.3829 20.7548 11.1238 20.9393 10.9393C21.1238 10.7548 21.3829 10.6345 21.8721 10.5688C22.3756 10.5011 23.0431 10.5 24 10.5H34C34.4855 10.5 34.7994 10.5011 35.0306 10.5322C35.2475 10.5613 35.3155 10.6084 35.3536 10.6464C35.3916 10.6845 35.4387 10.7525 35.4678 10.9694C35.4989 11.2006 35.5 11.5145 35.5 12V15L35.5 15.0329C35.5 15.4762 35.5 15.8581 35.5411 16.1639C35.5851 16.4917 35.6845 16.8058 35.9393 17.0607C36.1942 17.3155 36.5083 17.4149 36.8361 17.4589C37.1419 17.5 37.5238 17.5 37.9671 17.5L38 17.5H98C98.4855 17.5 98.7994 17.5011 99.0306 17.5322C99.2475 17.5613 99.3155 17.6084 99.3536 17.6464C99.3916 17.6845 99.4387 17.7525 99.4678 17.9694C99.4989 18.2006 99.5 18.5145 99.5 19V66C99.5 66.9569 99.4989 67.6244 99.4312 68.1279C99.3655 68.6171 99.2452 68.8762 99.0607 69.0607C98.8762 69.2452 98.6171 69.3655 98.1279 69.4312C97.6244 69.4989 96.9569 69.5 96 69.5H24C23.0431 69.5 22.3756 69.4989 21.8721 69.4312C21.3829 69.3655 21.1238 69.2452 20.9393 69.0607C20.7548 68.8762 20.6345 68.6171 20.5688 68.1279C20.5011 67.6244 20.5 66.9569 20.5 66V14Z" fill="white" stroke="#8796A1"/>
<g clip-path="url(#clip0_3318_6097)">
<path d="M75.407 30.0555C75.4965 30.145 75.6138 30.1898 75.7311 30.1898C75.8484 30.1898 75.9656 30.145 76.0551 30.0555C76.2342 29.8765 76.2342 29.5864 76.0551 29.4074L75.407 28.7593C75.228 28.5802 74.9379 28.5802 74.7589 28.7593C74.5799 28.9383 74.5799 29.2284 74.7589 29.4074L75.407 30.0555Z" fill="#8796A1"/>
<path d="M75.25 31.9997C75.25 31.7465 75.045 31.583 74.7916 31.583H73.875C73.6216 31.583 73.4166 31.7465 73.4166 31.9997C73.4166 32.2528 73.6216 32.4163 73.875 32.4163H74.7916C75.045 32.4163 75.25 32.2528 75.25 31.9997Z" fill="#8796A1"/>
<path d="M77.9999 29.2498C78.2532 29.2498 78.4166 29.0446 78.4166 28.7915V27.8748C78.4166 27.6217 78.2532 27.4165 77.9999 27.4165C77.7466 27.4165 77.5833 27.6217 77.5833 27.8748V28.7915C77.5833 29.0446 77.7466 29.2498 77.9999 29.2498Z" fill="#8796A1"/>
<path d="M80.2687 30.1898C80.386 30.1898 80.5033 30.145 80.5928 30.0555L81.2409 29.4074C81.4199 29.2284 81.4199 28.9383 81.2409 28.7593C81.0619 28.5802 80.7718 28.5802 80.5928 28.7593L79.9447 29.4074C79.7657 29.5864 79.7657 29.8765 79.9447 30.0555C80.0342 30.145 80.1515 30.1898 80.2687 30.1898Z" fill="#8796A1"/>
<path d="M77.9999 29.708C76.7364 29.708 75.7083 30.7362 75.7083 31.9997C75.7083 33.2632 76.7364 34.2913 77.9999 34.2913C79.2634 34.2913 80.2916 33.2632 80.2916 31.9997C80.2916 30.7362 79.2634 29.708 77.9999 29.708Z" fill="#8796A1"/>
<path d="M75.407 33.9443L74.7589 34.5924C74.5799 34.7715 74.5799 35.0615 74.7589 35.2406C74.8484 35.3301 74.9657 35.3748 75.083 35.3748C75.2002 35.3748 75.3175 35.3301 75.407 35.2406L76.0551 34.5924C76.2342 34.4134 76.2342 34.1234 76.0551 33.9443C75.8761 33.7653 75.5861 33.7653 75.407 33.9443H75.407Z" fill="#8796A1"/>
<path d="M80.5929 33.9443C80.4139 33.7653 80.1239 33.7653 79.9448 33.9443C79.7658 34.1234 79.7658 34.4134 79.9448 34.5924L80.5929 35.2406C80.6824 35.3301 80.7997 35.3748 80.917 35.3748C81.0343 35.3748 81.1515 35.3301 81.241 35.2406C81.4201 35.0615 81.4201 34.7715 81.241 34.5924L80.5929 33.9443Z" fill="#8796A1"/>
<path d="M82.125 31.583H81.2083C80.955 31.583 80.75 31.7465 80.75 31.9997C80.75 32.2528 80.955 32.4163 81.2083 32.4163H82.125C82.3783 32.4163 82.5833 32.2528 82.5833 31.9997C82.5833 31.7465 82.3783 31.583 82.125 31.583Z" fill="#8796A1"/>
<path d="M77.9999 34.75C77.7466 34.75 77.5833 34.9552 77.5833 35.2083V36.125C77.5833 36.3781 77.7466 36.5833 77.9999 36.5833C78.2532 36.5833 78.4166 36.3781 78.4166 36.125V35.2083C78.4166 34.9552 78.2532 34.75 77.9999 34.75Z" fill="#8796A1"/>
</g>
<path d="M35 10H48V18H35V10Z" fill="#8796A1"/>
<path d="M48 10H49.5V17H48V10Z" fill="white"/>
<path d="M50 10H64V17H50V10Z" fill="#8796A1"/>
<path d="M63.5 10H65V17H63.5V10Z" fill="white"/>
<path d="M65 10H77C77.9428 10 78.4142 10 78.7071 10.2929C79 10.5858 79 11.0572 79 12V17H65V10Z" fill="#8796A1"/>
<rect x="24" y="21" width="28" height="1.5" rx="0.75" fill="#8796A1"/>
<path d="M33.2951 24.5H24.7049C24.3156 24.5 24 24.8358 24 25.25C24 25.6642 24.3156 26 24.7049 26H33.2951C33.6844 26 34 25.6642 34 25.25C34 24.8358 33.6844 24.5 33.2951 24.5Z" fill="#8796A1"/>
<path d="M45.2951 24.5H36.7049C36.3156 24.5 36 24.8358 36 25.25C36 25.6642 36.3156 26 36.7049 26H45.2951C45.6844 26 46 25.6642 46 25.25C46 24.8358 45.6844 24.5 45.2951 24.5Z" fill="#8796A1"/>
<rect x="24" y="14" width="8" height="2" rx="1" fill="#8796A1"/>
<rect x="21" y="11" width="14" height="1" fill="#8796A1"/>
<rect x="38" y="13" width="7" height="2" rx="1" fill="#DCE2E5"/>
<rect x="53" y="13" width="8" height="2" rx="1" fill="#DCE2E5"/>
<rect x="68" y="13" width="8" height="2" rx="1" fill="#DCE2E5"/>
<rect x="24" y="42" width="10" height="1.5" rx="0.75" fill="#9FABB4"/>
<rect x="35" y="42" width="10" height="1.5" rx="0.75" fill="#8796A1"/>
<rect x="24" y="45.5" width="16" height="1.5" rx="0.75" fill="#8796A1"/>
<rect x="41" y="45.5" width="0.5" height="1.5" rx="0.25" fill="#8796A1"/>
<rect x="42.5" y="45.5" width="8" height="1.5" rx="0.75" fill="#8796A1"/>
<path d="M39.1694 33.1555H40.0649C40.2185 33.1718 40.3732 33.1474 40.5179 33.0841C40.6626 33.0208 40.7936 32.9201 40.9016 32.7893C41.0903 32.5016 41.1842 32.142 41.1659 31.7779C41.1779 31.4362 41.0839 31.1011 40.9016 30.8363C40.7979 30.7147 40.6735 30.6207 40.5369 30.5606C40.4002 30.5004 40.2543 30.4755 40.1089 30.4875C39.8354 30.4795 39.569 30.5913 39.3603 30.8014C39.2648 30.9087 39.1893 31.0387 39.1387 31.1829C39.0881 31.3271 39.0636 31.4823 39.0667 31.6384H37.5253C37.5097 31.279 37.5668 30.9205 37.692 30.5927C37.8172 30.265 38.0067 29.9778 38.2446 29.7551C38.7597 29.2495 39.4117 28.9831 40.0796 29.0053C40.7882 28.9589 41.487 29.2191 42.0466 29.7377C42.2823 29.9914 42.4668 30.3051 42.5863 30.6554C42.7057 31.0056 42.7571 31.3834 42.7366 31.7605C42.7358 32.1915 42.623 32.6117 42.4136 32.9637C42.1901 33.3529 41.8802 33.6607 41.5182 33.853C41.9238 34.0118 42.2745 34.3242 42.5164 34.7424C42.7529 35.1461 42.8762 35.6282 42.8687 36.12C42.886 36.521 42.8232 36.9213 42.6854 37.288C42.5477 37.6547 42.3388 37.9775 42.076 38.23C41.4969 38.759 40.7802 39.0305 40.0502 38.9973C39.3732 39.0236 38.7094 38.771 38.1712 38.2823C37.9087 38.0471 37.7009 37.7364 37.5674 37.3795C37.4339 37.0226 37.379 36.6311 37.4079 36.2421H38.8759C38.8707 36.4146 38.8969 36.5865 38.9526 36.7459C39.0083 36.9054 39.0923 37.0488 39.1988 37.1663C39.4218 37.4116 39.717 37.5431 40.0209 37.5325C40.1798 37.5446 40.3392 37.5168 40.4884 37.4506C40.6377 37.3845 40.7735 37.2817 40.8869 37.1488C40.9984 37.0174 41.0849 36.8591 41.1406 36.6847C41.1963 36.5102 41.2199 36.3236 41.2099 36.1374C41.2372 35.937 41.2243 35.7317 41.1722 35.5383C41.1201 35.3449 41.0303 35.1688 40.9102 35.0244C40.79 34.8799 40.6429 34.7712 40.4807 34.7071C40.3185 34.6429 40.1459 34.6252 39.9768 34.6552H39.0814L39.1694 33.1555Z" fill="#8796A1"/>
<path d="M49.3423 38.8577H43.9549V37.5848L46.5091 34.2018C46.8104 33.793 47.076 33.3489 47.3018 32.8765C47.4434 32.571 47.5238 32.2309 47.5367 31.8825C47.5457 31.5171 47.4471 31.1594 47.2578 30.8711C47.1652 30.7399 47.0477 30.6368 46.915 30.5701C46.7823 30.5034 46.6381 30.4751 46.4944 30.4875C46.3341 30.4732 46.1733 30.5072 46.0271 30.5865C45.8808 30.6658 45.7537 30.7877 45.6577 30.9409C45.4636 31.3052 45.3664 31.7306 45.3788 32.1615H43.8374C43.8211 31.7521 43.8751 31.3431 43.9963 30.9593C44.1174 30.5755 44.3031 30.2251 44.5421 29.9294C44.7965 29.6192 45.1033 29.3765 45.4423 29.2172C45.7813 29.0579 46.1449 28.9857 46.5091 29.0052C47.2119 28.9574 47.9024 29.2392 48.4321 29.7899C48.666 30.0602 48.8485 30.3867 48.9675 30.7476C49.0865 31.1085 49.1392 31.4955 49.1221 31.8825C49.1312 32.4558 48.9985 33.0197 48.7404 33.5042C48.3463 34.1984 47.9097 34.857 47.4339 35.4747L45.966 37.3581H49.3423V38.8577Z" fill="#8796A1"/>
<path d="M51.453 30.1787C51.4448 29.9833 51.497 29.791 51.5998 29.6381C51.6535 29.5683 51.7195 29.5134 51.7931 29.4772C51.8666 29.4411 51.946 29.4246 52.0255 29.4289C52.1074 29.4232 52.1893 29.439 52.2654 29.4751C52.3415 29.5113 52.41 29.567 52.4659 29.6381C52.5687 29.791 52.6209 29.9833 52.6127 30.1787C52.6223 30.3744 52.57 30.5672 52.4659 30.7193C52.4122 30.7891 52.3462 30.844 52.2727 30.8802C52.1991 30.9164 52.1197 30.9329 52.0402 30.9285C51.9584 30.9343 51.8765 30.9185 51.8004 30.8823C51.7242 30.8461 51.6558 30.7905 51.5998 30.7193C51.4958 30.5672 51.4434 30.3744 51.453 30.1787ZM51.776 30.1787C51.7559 30.282 51.7559 30.3893 51.776 30.4926C51.7974 30.5334 51.828 30.5665 51.8643 30.588C51.9005 30.6095 51.9411 30.6188 51.9815 30.6147C52.0179 30.6185 52.0544 30.6089 52.0859 30.587C52.1175 30.5651 52.1426 30.5321 52.1576 30.4926C52.2096 30.3999 52.2353 30.29 52.231 30.1787C52.2328 30.0887 52.2177 29.9994 52.187 29.9171C52.1694 29.8762 52.1417 29.8426 52.1076 29.8208C52.0735 29.799 52.0346 29.79 51.9962 29.7951C51.9598 29.7912 51.9233 29.8009 51.8917 29.8227C51.8601 29.8446 51.8351 29.8776 51.82 29.9171C51.7721 30.0119 51.7467 30.1204 51.7466 30.231L51.776 30.1787Z" fill="#8796A1"/>
<path d="M55.1228 31.6956C55.1301 31.856 55.1091 32.0165 55.061 32.1667C55.013 32.3168 54.939 32.4534 54.8439 32.5675C54.6165 32.7867 54.329 32.8985 54.0365 32.8814C53.8807 32.8933 53.7246 32.8634 53.5797 32.794C53.4349 32.7246 53.3051 32.6174 53.1998 32.4803C53.0906 32.347 53.0056 32.1884 52.95 32.0144C52.8945 31.8405 52.8696 31.6548 52.8768 31.4689V30.8063C52.8633 30.4341 52.9741 30.0705 53.1851 29.7949C53.4126 29.5582 53.7047 29.4277 54.0072 29.4277C54.3096 29.4277 54.6017 29.5582 54.8292 29.7949C54.9302 29.9046 55.009 30.04 55.0599 30.191C55.1107 30.342 55.1322 30.5046 55.1228 30.6668H54.565C54.5751 30.4792 54.5282 30.2936 54.4329 30.1436C54.376 30.081 54.3088 30.0332 54.2355 30.0032C54.1622 29.9731 54.0844 29.9616 54.0072 29.9693C53.9348 29.9823 53.8658 30.014 53.8049 30.0622C53.744 30.1104 53.6928 30.1739 53.6549 30.2483C53.5498 30.4395 53.4984 30.6654 53.5081 30.8935V31.5561C53.4958 31.7871 53.553 32.0158 53.6695 32.2013C53.7197 32.2785 53.7842 32.3407 53.8581 32.3831C53.932 32.4255 54.0132 32.4468 54.0952 32.4455C54.1681 32.4539 54.2416 32.4425 54.3103 32.4123C54.3789 32.3821 54.4409 32.3338 54.4916 32.2711C54.5899 32.1297 54.6373 31.948 54.6237 31.7654L55.1228 31.6956Z" fill="#8796A1"/>
<path d="M58.5834 30.1787C58.5752 29.9833 58.6274 29.791 58.7302 29.6381C58.7839 29.5683 58.8499 29.5134 58.9234 29.4772C58.997 29.4411 59.0764 29.4246 59.1559 29.4289C59.2377 29.4232 59.3196 29.439 59.3957 29.4751C59.4719 29.5113 59.5403 29.567 59.5963 29.6381C59.6991 29.791 59.7513 29.9833 59.7431 30.1787C59.7527 30.3744 59.7003 30.5672 59.5963 30.7193C59.5426 30.7891 59.4766 30.844 59.403 30.8802C59.3295 30.9164 59.2501 30.9329 59.1706 30.9285C59.0887 30.9343 59.0068 30.9185 58.9307 30.8823C58.8546 30.8461 58.7861 30.7905 58.7302 30.7193C58.6262 30.5672 58.5738 30.3744 58.5834 30.1787ZM58.9063 30.1787C58.8863 30.282 58.8863 30.3893 58.9063 30.4926C58.9278 30.5334 58.9584 30.5665 58.9946 30.588C59.0309 30.6095 59.0715 30.6188 59.1119 30.6147C59.1483 30.6185 59.1848 30.6089 59.2163 30.587C59.2479 30.5651 59.2729 30.5321 59.288 30.4926C59.34 30.3999 59.3657 30.29 59.3614 30.1787C59.3631 30.0887 59.3481 29.9994 59.3174 29.9171C59.2997 29.8762 59.272 29.8426 59.238 29.8208C59.2039 29.799 59.165 29.79 59.1265 29.7951C59.0901 29.7912 59.0536 29.8009 59.0221 29.8227C58.9905 29.8446 58.9655 29.8776 58.9504 29.9171C58.9024 30.0119 58.8771 30.1204 58.877 30.231L58.9063 30.1787Z" fill="#8796A1"/>
<path d="M61.8861 31.468H60.7553V32.9153H60.1898V29.4277H62.1406V29.9683H60.7553V30.9274H61.9427L61.8861 31.468Z" fill="#8796A1"/>
<rect x="56.7997" y="29.4277" width="0.445647" height="3.56518" rx="0.222823" fill="#8796A1"/>
<path d="M65.99 41.0002C66.9411 38.4135 68.6667 36.1802 70.9332 34.6025C73.1998 33.0248 75.898 32.1787 78.6628 32.1787C81.4277 32.1787 84.1259 33.0248 86.3925 34.6025C88.659 36.1802 90.3846 38.4135 91.3357 41.0002" stroke="#8796A1" stroke-width="1.5" stroke-miterlimit="10" stroke-linecap="round"/>
<rect x="62.5" y="43" width="7" height="1.5" rx="0.75" fill="#9FABB4"/>
<rect x="61" y="45.5" width="10" height="1.5" rx="0.75" fill="#8796A1"/>
<rect x="87.5" y="43" width="7" height="1.5" rx="0.75" fill="#9FABB4"/>
<rect x="86" y="45.5" width="10" height="1.5" rx="0.75" fill="#8796A1"/>
<rect x="24.5" y="51.5" width="71" height="14" rx="0.5" stroke="#8796A1"/>
<path fill-rule="evenodd" clip-rule="evenodd" d="M24 58H96V59H24V58Z" fill="#8796A1"/>
<rect x="59.5" y="51" width="1" height="14" fill="#8796A1"/>
<rect x="26" y="54" width="2" height="2" rx="1" fill="#8796A1"/>
<rect x="29" y="54.25" width="8" height="1.5" rx="0.75" fill="#8796A1"/>
<rect x="49.5" y="54.25" width="8" height="1.5" rx="0.75" fill="#8796A1"/>
<rect x="26" y="61" width="2" height="2" rx="1" fill="#8796A1"/>
<rect x="29" y="61.25" width="6" height="1.5" rx="0.75" fill="#8796A1"/>
<rect x="47.5" y="61.25" width="10" height="1.5" rx="0.75" fill="#8796A1"/>
<rect x="61.5" y="54" width="2" height="2" rx="1" fill="#8796A1"/>
<rect x="64.5" y="54.25" width="9" height="1.5" rx="0.75" fill="#8796A1"/>
<rect x="85" y="54.25" width="8" height="1.5" rx="0.75" fill="#8796A1"/>
<rect x="61.5" y="61" width="2" height="2" rx="1" fill="#8796A1"/>
<rect x="64.5" y="61.25" width="11" height="1.5" rx="0.75" fill="#8796A1"/>
<rect x="84" y="61.25" width="9" height="1.5" rx="0.75" fill="#8796A1"/>
<path d="M36 36.465C35.9995 37.1445 35.7295 37.7959 35.2493 38.2766C34.769 38.7572 34.1178 39.0276 33.4384 39.0286H26.8645C26.0981 39.0092 25.3698 38.6912 24.8346 38.1423C24.2995 37.5934 24 36.8572 24 36.0905C24 35.324 24.2995 34.5878 24.8346 34.0388C25.3698 33.49 26.0981 33.1719 26.8645 33.1525H26.9456C27.0819 32.6061 27.3801 32.1136 27.8011 31.7395C28.222 31.3655 28.7462 31.1272 29.3048 31.0561C29.8634 30.9849 30.4305 31.0842 30.9318 31.3408C31.4331 31.5974 31.8452 31.9994 32.1141 32.4942C32.2533 32.4618 32.3957 32.4453 32.5385 32.4451C32.9929 32.4475 33.4309 32.6157 33.77 32.9183C34.109 33.2209 34.3258 33.6369 34.3796 34.0881C34.856 34.2774 35.2648 34.6049 35.5536 35.0285C35.8424 35.452 35.9978 35.9523 36 36.4649L36 36.465Z" fill="#8796A1"/>
<rect x="0.75" y="0.75" width="118.5" height="78.5" rx="3.25" stroke="#8796A1" stroke-width="1.5"/>
<defs>
<clipPath id="clip0_3318_6097">
<rect width="10" height="10" fill="white" transform="translate(73 27)"/>
</clipPath>
</defs>
</svg>
