<svg xmlns="http://www.w3.org/2000/svg" width="120" height="80" fill="none" xmlns:v="https://vecta.io/nano"><rect x=".75" y=".75" width="118.5" height="78.5" rx="3.25" fill="#fff"/><g fill="#8796a1"><path d="M45 12a1 1 0 1 1-2 0 1 1 0 1 1 2 0z"/><rect x="46" y="11.25" width="10" height="1.5" rx=".75"/><rect x="70" y="11.25" width="7" height="1.5" rx=".75"/><path d="M45 54a1 1 0 1 1-2 0 1 1 0 1 1 2 0z"/><rect x="46" y="53.25" width="6" height="1.5" rx=".75"/><path d="M57 54a1 1 0 1 1-2 0 1 1 0 1 1 2 0z"/><rect x="58" y="53.25" width="8" height="1.5" rx=".75"/><path d="M71 54a1 1 0 1 1-2 0 1 1 0 1 1 2 0z"/><rect x="72" y="53.25" width="5" height="1.5" rx=".75"/><rect x="43" y="59" width="10" height="1.5" rx=".75"/><rect x="69" y="59" width="8" height="1.5" rx=".75"/><rect x="43" y="62.5" width="6" height="1" rx=".5"/><path d="M57.5 63a1 1 0 1 1-2 0 1 1 0 1 1 2 0z"/><rect x="64" y="62.5" width="6" height="1" rx=".5"/><rect x="71" y="62.5" width="6" height="1" rx=".5"/><rect x="43" y="65" width="6" height="1" rx=".5"/><path d="M57.5 65.5a1 1 0 1 1-2 0 1 1 0 1 1 2 0z"/><rect x="64" y="65" width="6" height="1" rx=".5"/><rect x="71" y="65" width="6" height="1" rx=".5"/><rect x="43" y="67.5" width="6" height="1" rx=".5"/><path d="M57.5 68a1 1 0 1 1-2 0 1 1 0 1 1 2 0z"/><rect x="64" y="67.5" width="6" height="1" rx=".5"/><rect x="71" y="67.5" width="6" height="1" rx=".5"/><rect x="48.5" y="31" width="10" height="1.5" rx=".75"/><rect x="61.5" y="31" width="10" height="1.5" rx=".75"/><rect x="46" y="34.5" width="28" height="1.5" rx=".75"/><rect x="50" y="40" width="21" height="1.5" rx=".75"/><rect x="53" y="43" width="15" height="1.5" rx=".75"/><rect x="52" y="46" width="17" height="1.5" rx=".75"/><rect x="51" y="49" width="19" height="1.5" rx=".75"/></g><path d="M42.439 8.5h35.122c1.037 0 1.939.916 1.939 2.123v58.754c0 1.207-.902 2.123-1.939 2.123H42.439c-1.037 0-1.939-.916-1.939-2.123V10.623c0-1.207.902-2.123 1.939-2.123z" stroke="#8796a1"/><path d="M59.928 21.156h.895a.89.89 0 0 0 .453-.071c.145-.063.276-.164.384-.295a1.7 1.7 0 0 0 .264-1.012c.012-.342-.082-.677-.264-.942a1.02 1.02 0 0 0-.365-.276.88.88 0 0 0-.428-.073c-.273-.008-.54.104-.748.314a1.14 1.14 0 0 0-.222.381c-.051.144-.075.299-.072.456h-1.541a2.62 2.62 0 0 1 .167-1.046 2.24 2.24 0 0 1 .553-.838c.515-.505 1.167-.772 1.834-.75.709-.046 1.407.214 1.967.732a2.56 2.56 0 0 1 .539.918 2.92 2.92 0 0 1 .15 1.105 2.37 2.37 0 0 1-.323 1.203 2.28 2.28 0 0 1-.895.889c.406.159.756.471.998.889a2.66 2.66 0 0 1 .352 1.378 2.97 2.97 0 0 1-.183 1.168c-.138.367-.347.689-.609.942-.579.529-1.295.801-2.025.767-.677.026-1.341-.226-1.879-.715a2.29 2.29 0 0 1-.604-.903 2.69 2.69 0 0 1-.159-1.137h1.468c-.005.172.021.344.077.504a1.23 1.23 0 0 0 .246.42c.223.245.518.377.822.366a.97.97 0 0 0 .468-.082 1.12 1.12 0 0 0 .398-.302 1.35 1.35 0 0 0 .254-.464 1.53 1.53 0 0 0 .069-.547 1.53 1.53 0 0 0-.038-.599 1.36 1.36 0 0 0-.262-.514 1.08 1.08 0 0 0-.429-.317c-.162-.064-.335-.082-.504-.052h-.895l.088-1.5zm10.171 5.702h-5.386v-1.273l2.554-3.383a8.18 8.18 0 0 0 .793-1.325 2.6 2.6 0 0 0 .235-.994c.009-.366-.09-.723-.279-1.011-.093-.131-.21-.235-.343-.301a.78.78 0 0 0-.42-.083c-.16-.014-.321.02-.467.099s-.273.201-.369.354c-.194.364-.291.79-.279 1.221h-1.541a3.54 3.54 0 0 1 .159-1.202 3.14 3.14 0 0 1 .546-1.03c.254-.31.561-.553.9-.712a2.22 2.22 0 0 1 1.067-.212c.703-.048 1.393.234 1.923.785a2.8 2.8 0 0 1 .535.958c.119.361.172.748.154 1.135a3.35 3.35 0 0 1-.382 1.622 16.93 16.93 0 0 1-1.306 1.97l-1.468 1.883h3.376v1.5zm1.111-9.107a.91.91 0 0 1 .147-.541c.054-.07.12-.125.193-.161a.47.47 0 0 1 .232-.048.48.48 0 0 1 .24.046c.076.036.144.092.2.163a.91.91 0 0 1 .147.541.88.88 0 0 1-.147.54c-.054.07-.12.125-.193.161a.46.46 0 0 1-.232.048.48.48 0 0 1-.24-.046c-.076-.036-.144-.092-.2-.163a.89.89 0 0 1-.147-.54zm.323 0a.83.83 0 0 0 0 .314.24.24 0 0 0 .088.095.19.19 0 0 0 .117.027c.036.004.073-.006.104-.028s.057-.055.072-.094a.6.6 0 0 0 .073-.314c.002-.09-.013-.179-.044-.262a.21.21 0 0 0-.079-.096.17.17 0 0 0-.111-.026c-.036-.004-.073.006-.104.028a.2.2 0 0 0-.072.094.7.7 0 0 0-.073.314l.029-.052zm3.346 1.517a1.36 1.36 0 0 1-.062.471c-.048.15-.122.287-.217.401-.227.219-.515.331-.807.314a.9.9 0 0 1-.457-.087 1.06 1.06 0 0 1-.38-.314c-.109-.133-.194-.292-.25-.466a1.59 1.59 0 0 1-.073-.546v-.663c-.014-.372.097-.736.308-1.011a1.14 1.14 0 0 1 .822-.367 1.14 1.14 0 0 1 .822.367 1.11 1.11 0 0 1 .231.396 1.27 1.27 0 0 1 .063.476h-.558c.01-.188-.037-.373-.132-.523a.55.55 0 0 0-.197-.141.47.47 0 0 0-.228-.034.46.46 0 0 0-.202.093c-.061.048-.112.112-.15.186-.105.191-.157.417-.147.645v.663a1.11 1.11 0 0 0 .161.645.56.56 0 0 0 .188.182.46.46 0 0 0 .237.062.42.42 0 0 0 .215-.033.48.48 0 0 0 .181-.141.79.79 0 0 0 .132-.506l.499-.07zM56 24.448a2.35 2.35 0 0 1-2.348 2.35h-6.026c-.703-.018-1.37-.309-1.861-.812S45 24.807 45 24.104a2.7 2.7 0 0 1 .765-1.881c.49-.504 1.158-.795 1.861-.812h.074a2.56 2.56 0 0 1 2.162-1.921c.512-.065 1.032.026 1.491.261a2.57 2.57 0 0 1 1.084 1.057 1.72 1.72 0 0 1 .389-.045 1.71 1.71 0 0 1 1.688 1.506 2.36 2.36 0 0 1 1.076.862c.265.388.407.847.409 1.317h0z" fill="#8796a1"/><rect x=".75" y=".75" width="118.5" height="78.5" rx="3.25" stroke="#8796a1" stroke-width="1.5"/></svg>