<svg xmlns="http://www.w3.org/2000/svg" xmlns:xlink="http://www.w3.org/1999/xlink" viewBox="0 0 800 400" xmlns:v="https://vecta.io/nano"><path d="M.5 0h800v400H.5z" fill="#f1f0f0"/><path d="M510.28 318.94H290.72a9.16 9.16 0 0 1-9.16-9.16V90.22a9.16 9.16 0 0 1 9.16-9.16h219.56a9.16 9.16 0 0 1 9.16 9.16v219.56a9.16 9.16 0 0 1-9.16 9.16z" fill="#cecece"/><g fill="#29292d"><path d="M343.95 126.77c.17 0 .31.06.43.19l1.19 1.29c-.66.82-1.47 1.44-2.44 1.88-.96.44-2.12.65-3.47.65-1.21 0-2.29-.21-3.26-.62-.96-.41-1.79-.99-2.47-1.72-.68-.74-1.21-1.61-1.57-2.63s-.55-2.13-.55-3.34c0-1.22.2-2.34.61-3.36a7.87 7.87 0 0 1 1.71-2.63c.74-.74 1.62-1.31 2.64-1.72s2.16-.61 3.39-.61c1.21 0 2.26.19 3.17.58.9.39 1.68.9 2.32 1.54l-1.01 1.41c-.06.09-.14.17-.23.24s-.22.1-.39.1-.35-.07-.53-.2a7.78 7.78 0 0 0-.69-.44c-.28-.16-.63-.3-1.05-.44-.42-.13-.96-.2-1.62-.2-.77 0-1.47.13-2.11.4s-1.19.65-1.65 1.14c-.46.5-.82 1.1-1.08 1.81s-.39 1.51-.39 2.39c0 .92.13 1.73.39 2.44s.61 1.31 1.05 1.8a4.44 4.44 0 0 0 1.56 1.12c.6.26 1.25.39 1.94.39.41 0 .79-.02 1.12-.07s.64-.12.92-.21a3.91 3.91 0 0 0 .8-.38c.25-.16.5-.34.75-.57.08-.07.15-.12.24-.16a.61.61 0 0 1 .28-.07zm12.8 3.84h-1.25c-.26 0-.47-.04-.62-.12s-.26-.24-.34-.48l-.25-.82c-.29.26-.58.49-.86.69s-.57.37-.87.5c-.3.14-.62.24-.96.3s-.71.1-1.13.1c-.49 0-.94-.07-1.35-.2s-.77-.33-1.06-.59c-.3-.26-.53-.59-.69-.98a3.6 3.6 0 0 1-.25-1.37 2.65 2.65 0 0 1 .34-1.29c.23-.42.61-.81 1.14-1.15s1.24-.63 2.13-.85c.88-.23 1.98-.34 3.3-.34v-.68c0-.78-.16-1.36-.49-1.73s-.8-.56-1.42-.56c-.45 0-.83.05-1.13.16s-.56.22-.78.35l-.61.35c-.19.11-.39.16-.62.16-.19 0-.35-.05-.48-.15s-.24-.22-.33-.36l-.51-.89c1.33-1.22 2.93-1.82 4.81-1.82.68 0 1.28.11 1.81.33s.98.53 1.34.92c.37.39.65.86.84 1.41a5.48 5.48 0 0 1 .29 1.8v7.31zm-5.4-1.73a3.84 3.84 0 0 0 .79-.08c.24-.05.47-.13.68-.23a3.69 3.69 0 0 0 .62-.38 4.87 4.87 0 0 0 .6-.54v-1.93c-.81 0-1.49.05-2.03.15s-.98.23-1.31.39-.56.34-.7.56a1.22 1.22 0 0 0-.21.69c0 .49.14.84.43 1.05s.66.32 1.13.32zm11.1-15v16.73h-2.78v-16.73h2.78z"/><use xlink:href="#B"/><path d="M372.18 130.61v-9.45l-1-.16c-.22-.04-.39-.11-.52-.23-.13-.11-.2-.27-.2-.47v-1.14h1.72v-.86c0-.66.1-1.25.3-1.78s.48-.97.86-1.34c.37-.37.82-.65 1.36-.84.53-.2 1.13-.29 1.8-.29a5.11 5.11 0 0 1 1.49.21l-.06 1.4c-.01.22-.12.35-.3.41a2.57 2.57 0 0 1-.65.08 3.36 3.36 0 0 0-.88.11c-.26.07-.48.2-.66.37-.18.18-.32.41-.41.7s-.14.65-.14 1.07v.77h3.01v1.98h-2.92v9.47h-2.8zm12.33-11.73c.86 0 1.65.14 2.35.42s1.3.67 1.8 1.18.88 1.13 1.15 1.87.41 1.56.41 2.47c0 .92-.13 1.74-.41 2.48-.27.74-.65 1.36-1.15 1.88s-1.09.92-1.8 1.19c-.7.28-1.48.42-2.35.42s-1.65-.14-2.35-.42c-.71-.28-1.31-.67-1.81-1.19s-.89-1.14-1.16-1.88-.41-1.56-.41-2.48c0-.91.14-1.73.41-2.47s.66-1.36 1.16-1.87 1.1-.9 1.81-1.18c.7-.28 1.48-.42 2.35-.42zm0 9.76c.96 0 1.67-.32 2.13-.97.46-.64.69-1.59.69-2.84s-.23-2.19-.69-2.85-1.17-.98-2.13-.98c-.98 0-1.7.33-2.16.98-.47.66-.7 1.6-.7 2.84s.23 2.18.7 2.83c.46.67 1.18.99 2.16.99zm7.86 1.97v-11.55H394c.29 0 .48.05.6.16.11.11.19.29.22.54l.17 1.4c.41-.71.9-1.28 1.45-1.69.56-.41 1.18-.62 1.87-.62.57 0 1.04.13 1.42.39l-.36 2.08c-.02.13-.07.23-.15.29s-.18.08-.3.08a2.01 2.01 0 0 1-.46-.08c-.2-.05-.45-.08-.78-.08-.58 0-1.07.16-1.49.48-.41.32-.76.79-1.05 1.4v7.19h-2.77zm9.2 0v-11.55h1.7a.68.68 0 0 1 .71.51l.19.91c.23-.24.48-.46.74-.65a6.25 6.25 0 0 1 .82-.51c.29-.14.6-.25.93-.33s.69-.11 1.08-.11c.63 0 1.19.11 1.68.32a3.24 3.24 0 0 1 1.22.9c.33.39.57.85.74 1.38.17.54.25 1.13.25 1.77v7.35h-2.78v-7.35c0-.71-.16-1.25-.49-1.64s-.82-.58-1.47-.58c-.48 0-.93.11-1.35.33s-.82.51-1.19.89v8.35h-2.78z"/><use xlink:href="#B" x="48.78"/><path d="M429.51 130.61h-1.25c-.26 0-.47-.04-.62-.12s-.26-.24-.34-.48l-.25-.82c-.29.26-.58.49-.86.69s-.57.37-.87.5c-.3.14-.62.24-.96.3-.34.07-.71.1-1.13.1-.49 0-.94-.07-1.35-.2s-.77-.33-1.06-.59c-.3-.26-.53-.59-.69-.98a3.6 3.6 0 0 1-.25-1.37 2.65 2.65 0 0 1 .34-1.29c.23-.42.61-.81 1.14-1.15s1.24-.63 2.13-.85c.89-.23 1.98-.34 3.3-.34v-.68c0-.78-.16-1.36-.49-1.73s-.8-.56-1.42-.56c-.45 0-.83.05-1.13.16s-.56.22-.78.35l-.61.35c-.19.11-.39.16-.62.16-.19 0-.35-.05-.48-.15s-.24-.22-.33-.36l-.51-.89c1.33-1.22 2.93-1.82 4.81-1.82.68 0 1.28.11 1.81.33s.98.53 1.34.92c.37.39.65.86.84 1.41a5.48 5.48 0 0 1 .29 1.8v7.31zm-5.4-1.73c.28 0 .55-.03.79-.08s.47-.13.68-.23a3.69 3.69 0 0 0 .62-.38 4.87 4.87 0 0 0 .6-.54v-1.93c-.81 0-1.49.05-2.03.15s-.98.23-1.31.39-.56.34-.7.56a1.22 1.22 0 0 0-.21.69c0 .49.14.84.43 1.05s.67.32 1.13.32zm7.55.02c0-.21.04-.41.12-.59a1.47 1.47 0 0 1 .33-.48c.14-.14.32-.25.52-.33a1.76 1.76 0 0 1 .66-.12c.28 0 .53.05.74.15s.39.24.53.42a1.87 1.87 0 0 1 .32.61c.07.23.1.47.1.73 0 .36-.05.74-.16 1.14s-.27.8-.48 1.19c-.21.4-.47.78-.78 1.16-.31.37-.66.72-1.06 1.04l-.48-.44a.53.53 0 0 1-.2-.42c0-.06.02-.13.06-.2a.75.75 0 0 1 .15-.2l.3-.33c.12-.13.24-.28.36-.45s.23-.35.33-.55.17-.41.22-.64c-.23 0-.45-.04-.64-.13a1.5 1.5 0 0 1-.5-.35c-.14-.15-.25-.33-.33-.53a2.2 2.2 0 0 1-.11-.68zm16.7-.73c.59 0 1.11-.1 1.57-.29a3.26 3.26 0 0 0 1.17-.82c.32-.35.56-.78.73-1.28s.25-1.06.25-1.69v-9.75h3.03v9.75c0 .97-.16 1.86-.47 2.68a6.05 6.05 0 0 1-1.35 2.13c-.58.6-1.29 1.06-2.13 1.4-.83.33-1.77.5-2.81.5s-1.98-.17-2.81-.5-1.54-.8-2.12-1.4a6.17 6.17 0 0 1-1.34-2.13c-.31-.82-.47-1.72-.47-2.68v-9.75h3.03v9.74c0 .62.08 1.19.25 1.69s.41.93.73 1.29.7.63 1.17.83c.47.18.99.28 1.57.28zm18.57-10.88c-.08.16-.18.28-.29.35s-.24.1-.39.1-.32-.06-.51-.17l-.66-.39c-.26-.14-.55-.27-.89-.39s-.74-.17-1.21-.17c-.42 0-.79.05-1.1.15s-.57.24-.79.42c-.21.18-.37.4-.48.65s-.16.53-.16.83c0 .38.11.7.32.96s.5.47.85.65.75.34 1.2.48l1.38.46a13.74 13.74 0 0 1 1.38.56c.45.21.85.48 1.2.81a3.73 3.73 0 0 1 .85 1.2c.21.47.32 1.05.32 1.72a5.68 5.68 0 0 1-.38 2.07 4.85 4.85 0 0 1-1.1 1.68c-.48.48-1.07.85-1.77 1.13-.7.27-1.5.41-2.4.41-.52 0-1.03-.05-1.53-.15s-.99-.25-1.45-.43a7.86 7.86 0 0 1-1.29-.67 6.2 6.2 0 0 1-1.07-.88l.88-1.45a.94.94 0 0 1 .3-.26c.12-.07.25-.11.39-.11.19 0 .39.08.61.23l.77.51c.3.19.64.36 1.05.51.4.15.88.23 1.45.23.86 0 1.53-.2 2-.61s.71-1 .71-1.76c0-.43-.11-.78-.32-1.05a2.53 2.53 0 0 0-.85-.68 6.67 6.67 0 0 0-1.2-.47l-1.37-.42c-.47-.15-.92-.33-1.37-.54a4.33 4.33 0 0 1-1.2-.82c-.35-.34-.64-.76-.85-1.27s-.32-1.13-.32-1.87a4.53 4.53 0 0 1 .35-1.73c.24-.56.58-1.06 1.04-1.5.45-.44 1.01-.78 1.67-1.05.66-.26 1.41-.39 2.26-.39.96 0 1.85.15 2.66.45s1.5.72 2.07 1.26l-.76 1.41z"/><use xlink:href="#C"/><path d="M356.77 146.75c0-.15.03-.3.09-.44s.14-.26.24-.36.22-.18.36-.24a1.13 1.13 0 0 1 .45-.09 1.08 1.08 0 0 1 .44.09c.14.06.26.14.36.24s.18.22.24.36.09.29.09.44a1.13 1.13 0 0 1-.09.45c-.06.14-.14.26-.24.36s-.22.18-.36.24-.29.09-.44.09a1.13 1.13 0 0 1-.45-.09c-.14-.06-.26-.14-.36-.24s-.18-.22-.24-.36a1.13 1.13 0 0 1-.09-.45zm0 5.35a1.08 1.08 0 0 1 .09-.44c.06-.14.14-.26.24-.36s.22-.18.36-.24a1.13 1.13 0 0 1 .45-.09 1.08 1.08 0 0 1 .44.09c.14.06.26.14.36.24s.18.22.24.36.09.29.09.44a1.13 1.13 0 0 1-.09.45c-.06.14-.14.26-.24.36s-.22.18-.36.24-.29.09-.44.09a1.13 1.13 0 0 1-.45-.09c-.14-.06-.26-.14-.36-.24s-.18-.22-.24-.36a1.13 1.13 0 0 1-.09-.45zm5.15-.37h2.2v-6.33l.02-.77-1.56 1.31a.5.5 0 0 1-.2.11c-.07.02-.13.03-.2.03-.1 0-.19-.02-.27-.06s-.14-.09-.18-.15l-.58-.8 3.31-2.81h1.52v9.48h1.95v1.39h-6v-1.4zm14.91-9.46v.8a1.84 1.84 0 0 1-.08.58 2.81 2.81 0 0 1-.15.37l-4.1 8.46c-.08.18-.21.32-.36.45-.16.12-.37.18-.63.18h-1.34l4.2-8.29a4.97 4.97 0 0 1 .58-.88h-5.19a.41.41 0 0 1-.3-.13c-.09-.08-.13-.19-.13-.3v-1.25h7.5zm10.4 10.85h-.83c-.18 0-.31-.03-.41-.08s-.18-.16-.23-.32l-.16-.55c-.2.18-.39.33-.57.46-.19.13-.38.24-.58.33s-.41.16-.64.2a3.54 3.54 0 0 1-.75.07 2.88 2.88 0 0 1-.9-.13c-.28-.09-.51-.22-.71-.4s-.35-.39-.46-.66c-.11-.26-.17-.56-.17-.91 0-.29.08-.58.23-.86s.41-.54.76-.77c.36-.23.83-.42 1.42-.57s1.32-.23 2.2-.23v-.45c0-.52-.11-.9-.33-1.15s-.53-.37-.95-.37c-.3 0-.55.04-.75.11s-.37.15-.52.24l-.41.24a.84.84 0 0 1-.41.11.49.49 0 0 1-.32-.1 1 1 0 0 1-.22-.24l-.34-.59a4.58 4.58 0 0 1 3.2-1.22c.45 0 .85.07 1.2.22s.65.35.9.61c.24.26.43.58.56.94.13.37.19.77.19 1.2v4.87zm-3.61-1.16a2.89 2.89 0 0 0 .53-.05 1.72 1.72 0 0 0 .45-.16 2.5 2.5 0 0 0 .41-.25 3.25 3.25 0 0 0 .4-.36v-1.29c-.54 0-.99.03-1.35.1s-.65.16-.87.26c-.22.11-.38.23-.47.37a.83.83 0 0 0-.14.46c0 .33.1.56.29.7.19.15.44.22.75.22zm5.43 1.16v-7.7h1.13c.24 0 .4.11.47.34l.12.57a4.04 4.04 0 0 1 .42-.41 2.44 2.44 0 0 1 .47-.32 2.52 2.52 0 0 1 .54-.21c.19-.05.4-.08.63-.08.48 0 .88.13 1.2.39.31.26.55.61.7 1.05.12-.26.27-.47.45-.66.18-.18.38-.33.59-.45.21-.11.44-.2.69-.26.24-.05.49-.08.73-.08.42 0 .8.06 1.13.19s.61.32.83.57.4.56.51.92c.12.36.18.77.18 1.24v4.9h-1.85v-4.9c0-.49-.11-.86-.32-1.11-.22-.25-.53-.37-.95-.37-.19 0-.37.03-.53.1a1.39 1.39 0 0 0-.43.28 1.34 1.34 0 0 0-.29.46c-.07.19-.11.4-.11.64v4.9h-1.86v-4.9c0-.52-.1-.89-.31-1.13s-.51-.35-.92-.35a1.53 1.53 0 0 0-.75.2c-.23.13-.45.31-.65.54v5.63h-1.82zm12.24-1.14c0-.14.03-.27.08-.39s.13-.23.22-.32c.1-.09.21-.17.35-.22a1.23 1.23 0 0 1 .44-.08c.19 0 .36.03.5.1s.26.16.35.28c.1.12.17.25.21.4.05.15.07.31.07.48 0 .24-.04.49-.11.76s-.18.53-.32.8a4.17 4.17 0 0 1-.52.77c-.21.25-.44.48-.71.69l-.32-.29c-.09-.08-.14-.17-.14-.28 0-.04.01-.08.04-.13s.06-.1.1-.13l.2-.22c.08-.09.16-.19.24-.3s.15-.24.22-.37a1.5 1.5 0 0 0 .15-.42c-.16 0-.3-.03-.43-.09s-.24-.14-.33-.24-.16-.22-.22-.35-.07-.29-.07-.45zm16.31 1.14h-1.56c-.18 0-.32-.04-.43-.13s-.19-.2-.24-.33l-.81-2.21h-4.49l-.81 2.21c-.04.12-.12.22-.24.32-.12.09-.26.14-.43.14h-1.57l4.26-10.85h2.06l4.26 10.85zm-7.02-4.1h3.46l-1.32-3.61-.2-.57-.21-.71-.21.71-.2.58-1.32 3.6zm8.03 6.61v-10.21h1.13a.62.62 0 0 1 .31.08c.09.05.14.14.16.25l.15.71c.31-.36.67-.64 1.07-.86s.87-.33 1.42-.33a2.59 2.59 0 0 1 1.15.26c.35.18.65.43.9.76s.45.74.58 1.23c.14.49.21 1.05.21 1.68 0 .58-.08 1.11-.23 1.6-.16.49-.38.92-.66 1.28-.29.36-.64.64-1.04.84-.41.2-.86.3-1.37.3-.44 0-.8-.07-1.11-.2-.3-.13-.57-.32-.81-.55v3.15h-1.86zm3.6-8.89c-.38 0-.71.08-.99.24a2.71 2.71 0 0 0-.76.69v3.45c.21.26.44.44.69.54a2.11 2.11 0 0 0 .8.15c.28 0 .53-.05.76-.16s.42-.27.58-.48.28-.49.36-.81c.09-.33.13-.71.13-1.16s-.04-.83-.11-1.14-.18-.57-.31-.76a1.18 1.18 0 0 0-.49-.43c-.19-.08-.41-.13-.66-.13zm4.89 6.38v-7.7h1.09c.19 0 .32.03.4.11.07.07.12.19.15.36l.11.93c.27-.48.6-.85.97-1.13s.79-.41 1.25-.41c.38 0 .7.09.95.26l-.24 1.39a.27.27 0 0 1-.1.19c-.05.04-.12.06-.2.06-.07 0-.18-.02-.31-.05s-.3-.05-.52-.05c-.38 0-.72.11-.99.32s-.51.52-.7.93v4.79h-1.86zm12.55-10.97c.5 0 .96.07 1.37.22.42.15.77.36 1.07.63.29.27.53.6.69.98a3.23 3.23 0 0 1 .25 1.27c0 .4-.06.77-.18 1.11s-.27.67-.47.98a7.18 7.18 0 0 1-.69.9l-.83.89-2.45 2.5c.24-.07.48-.12.71-.16s.45-.06.66-.06h2.78c.2 0 .36.06.48.17a.58.58 0 0 1 .18.45v1.11h-7.44v-.62a1.18 1.18 0 0 1 .08-.39c.05-.13.14-.26.25-.37l3.29-3.3.74-.8a5.18 5.18 0 0 0 .55-.76 3.41 3.41 0 0 0 .34-.76 2.74 2.74 0 0 0 .12-.81 2.08 2.08 0 0 0-.11-.69c-.07-.2-.18-.36-.32-.5-.14-.13-.31-.24-.5-.3-.19-.07-.41-.1-.65-.1-.45 0-.81.11-1.1.34-.29.22-.49.53-.6.91-.05.19-.14.33-.25.41s-.25.12-.42.12c-.07 0-.16-.01-.25-.02l-.98-.17a4.01 4.01 0 0 1 .43-1.37c.21-.39.48-.72.81-.98.32-.26.69-.46 1.11-.59.4-.17.85-.24 1.33-.24zm8.88 0a4.07 4.07 0 0 1 1.35.21c.4.14.75.34 1.03.59a2.62 2.62 0 0 1 .66.89 2.71 2.71 0 0 1 .23 1.1c0 .35-.04.65-.12.91s-.19.49-.34.69c-.15.19-.33.36-.54.5s-.45.25-.72.34c.65.21 1.14.52 1.46.94s.48.95.48 1.58c0 .54-.1 1.02-.3 1.43-.2.42-.47.76-.81 1.05-.34.28-.73.5-1.18.64-.45.15-.92.22-1.42.22-.55 0-1.02-.06-1.43-.19a2.91 2.91 0 0 1-1.06-.56c-.3-.24-.55-.55-.76-.9a6.33 6.33 0 0 1-.54-1.23l.82-.34a1.07 1.07 0 0 1 .43-.09c.13 0 .25.03.35.08s.18.13.24.24c.09.18.19.35.3.52s.24.32.39.45.33.24.53.32.44.12.72.12a2.12 2.12 0 0 0 .83-.15c.24-.1.43-.24.59-.4a1.61 1.61 0 0 0 .35-.55c.08-.2.12-.41.12-.61a3.08 3.08 0 0 0-.08-.71 1 1 0 0 0-.35-.54c-.17-.15-.43-.27-.75-.35-.33-.08-.77-.13-1.32-.13v-1.33c.45 0 .83-.04 1.13-.12s.54-.19.72-.33.3-.31.37-.51.11-.42.11-.66c0-.52-.14-.9-.42-1.17-.28-.26-.66-.39-1.15-.39-.44 0-.8.12-1.1.35-.29.23-.49.53-.61.9-.06.19-.14.33-.25.41s-.24.12-.41.12c-.08 0-.16-.01-.26-.02l-.98-.17c.08-.52.22-.98.44-1.37.21-.39.48-.72.81-.98s.69-.46 1.11-.59a4.41 4.41 0 0 1 1.33-.21zm-62.91 60.66c1.65-.35 3.14-.52 4.48-.52 1.68 0 3.17.25 4.46.75s2.37 1.19 3.25 2.07 1.54 1.91 1.98 3.11c.44 1.19.66 2.49.66 3.88 0 1.71-.3 3.26-.9 4.66s-1.43 2.59-2.48 3.58-2.29 1.75-3.73 2.28c-1.43.53-2.97.8-4.63.8-.98 0-1.9-.1-2.78-.29-.88-.2-1.7-.45-2.47-.78a13.02 13.02 0 0 1-2.13-1.12 12.83 12.83 0 0 1-1.74-1.33l1.35-1.89c.29-.42.67-.63 1.15-.63.32 0 .66.12 1.05.35l1.36.78c.53.29 1.15.54 1.87.78.72.23 1.58.35 2.57.35 1.1 0 2.08-.18 2.96-.53s1.62-.85 2.23-1.5c.61-.64 1.07-1.42 1.4-2.32.32-.9.48-1.9.48-2.99 0-.98-.14-1.85-.43-2.63s-.71-1.45-1.28-2c-.57-.56-1.28-.98-2.14-1.27s-1.85-.44-2.99-.44c-1.59 0-3.29.29-5.09.86l-2.77-.81 2.63-15.26h15.49v1.91c0 .63-.2 1.14-.6 1.54s-1.06.6-1.99.6H387l-1.38 8.01zm42.52 4.28c0 2.82-.3 5.27-.91 7.34s-1.44 3.79-2.5 5.14c-1.06 1.36-2.3 2.37-3.74 3.03-1.43.66-2.98.99-4.63.99s-3.19-.33-4.63-.99c-1.43-.66-2.68-1.67-3.73-3.03s-1.88-3.07-2.48-5.14-.9-4.52-.9-7.34.3-5.27.9-7.35 1.43-3.8 2.48-5.15c1.05-1.36 2.29-2.37 3.73-3.03 1.43-.66 2.97-.99 4.63-.99s3.19.33 4.63.99c1.43.66 2.68 1.67 3.74 3.03s1.89 3.08 2.5 5.15c.61 2.08.91 4.53.91 7.35zm-4.54 0c0-2.43-.2-4.46-.6-6.1s-.93-2.95-1.6-3.95-1.44-1.71-2.31-2.13-1.78-.63-2.72-.63a6.16 6.16 0 0 0-2.72.63c-.87.42-1.64 1.13-2.31 2.13s-1.2 2.31-1.59 3.95-.58 3.67-.58 6.1.19 4.46.58 6.1.92 2.95 1.59 3.94 1.44 1.7 2.31 2.12 1.78.63 2.72.63a6.16 6.16 0 0 0 2.72-.63c.87-.42 1.64-1.12 2.31-2.12.67-.99 1.2-2.3 1.6-3.94.4-1.63.6-3.66.6-6.1zm7.74-.02c0-1.02.19-1.98.57-2.87s.91-1.67 1.58-2.33 1.45-1.18 2.35-1.56 1.88-.57 2.93-.57 2.03.19 2.94.57a7.56 7.56 0 0 1 2.38 1.56c.68.66 1.2 1.44 1.59 2.33.38.89.57 1.85.57 2.87a7.18 7.18 0 0 1-.57 2.85c-.38.89-.91 1.67-1.59 2.34a7.64 7.64 0 0 1-2.38 1.59c-.91.39-1.89.59-2.94.59s-2.03-.19-2.93-.59c-.9-.39-1.68-.92-2.35-1.59s-1.19-1.45-1.58-2.34-.57-1.84-.57-2.85zm3.11.02a4.43 4.43 0 0 0 .33 1.72 4.2 4.2 0 0 0 .91 1.38 4.29 4.29 0 0 0 1.37.92 4.42 4.42 0 0 0 1.71.34c.61 0 1.19-.11 1.72-.34s.99-.53 1.38-.92a4.2 4.2 0 0 0 .91-1.38c.22-.53.33-1.11.33-1.72s-.11-1.19-.33-1.72-.52-1-.91-1.4a4.1 4.1 0 0 0-1.38-.93c-.53-.23-1.11-.34-1.72-.34-.62 0-1.19.11-1.71.34-.53.22-.98.54-1.37.93-.39.4-.69.86-.91 1.4-.23.53-.33 1.11-.33 1.72zm22.48-12.27v10.83h12.97v3.89h-12.97v13.71h-4.82v-32.32h20.03v3.89h-15.21zM361.69 246h4.34v1.67h-6.36v-10.85h2.02V246z"/><use xlink:href="#D"/><use xlink:href="#C" x="25.98" y="94.54"/><path d="M386.26 247.78c-.56 0-1.07-.08-1.53-.23s-.86-.36-1.19-.64a2.8 2.8 0 0 1-.77-1 3.1 3.1 0 0 1-.27-1.31c0-.64.16-1.18.47-1.62.32-.44.8-.77 1.47-.99-.53-.22-.93-.53-1.19-.94s-.39-.89-.39-1.46c0-.41.08-.79.25-1.15s.4-.66.7-.93c.3-.26.66-.47 1.08-.62s.88-.22 1.38-.22.96.07 1.38.22.78.35 1.08.62c.3.26.53.57.7.93.17.35.25.74.25 1.15 0 .57-.13 1.06-.4 1.46s-.66.72-1.19.94c.66.21 1.16.54 1.47.99.32.44.47.98.47 1.62 0 .48-.09.91-.27 1.31a2.89 2.89 0 0 1-.77 1c-.33.27-.73.49-1.19.64-.47.16-.98.23-1.54.23zm0-1.45c.31 0 .57-.04.8-.13s.42-.21.58-.36c.16-.16.28-.34.36-.55a1.98 1.98 0 0 0 .12-.7c0-.59-.16-1.05-.5-1.35-.33-.31-.79-.46-1.37-.46s-1.04.15-1.37.46-.5.76-.5 1.35a2.02 2.02 0 0 0 .12.7c.08.21.2.4.36.55a1.5 1.5 0 0 0 .58.36c.25.09.52.13.82.13zm0-5.01a1.91 1.91 0 0 0 .76-.14 1.28 1.28 0 0 0 .5-.38c.13-.16.21-.34.27-.54s.08-.41.08-.63c0-.21-.03-.4-.1-.58-.07-.19-.16-.35-.29-.49s-.29-.26-.5-.34c-.2-.09-.44-.13-.71-.13-.28 0-.51.04-.71.13s-.37.2-.5.34-.23.31-.29.49a1.9 1.9 0 0 0-.09.58 2.72 2.72 0 0 0 .08.63 1.31 1.31 0 0 0 .27.54c.13.16.29.28.5.38s.43.14.73.14zm4.77-2.08a2.55 2.55 0 0 1 .2-1c.13-.31.32-.58.55-.81s.51-.41.82-.54c.32-.13.66-.2 1.02-.2.37 0 .71.07 1.02.2a2.59 2.59 0 0 1 .83.54c.24.23.42.5.56.81.13.31.2.65.2 1 0 .34-.07.67-.2.98-.14.31-.32.58-.56.81s-.51.42-.83.55-.66.2-1.02.2c-.37 0-.71-.07-1.02-.2-.32-.14-.59-.32-.82-.55s-.42-.5-.55-.81c-.14-.31-.2-.64-.2-.98zm1.29.01c0 .18.03.36.1.52s.16.3.27.42a1.3 1.3 0 0 0 .41.28c.16.07.33.1.51.1s.36-.03.52-.1.3-.16.42-.28.21-.26.27-.42a1.46 1.46 0 0 0 .1-.52c0-.19-.03-.37-.1-.53s-.16-.3-.27-.42a1.37 1.37 0 0 0-.42-.29c-.16-.07-.33-.11-.52-.11s-.36.04-.51.11a1.18 1.18 0 0 0-.41.29c-.12.12-.21.26-.27.42s-.1.34-.1.53zm17.46 8.41h-2.03v-4.74h-5.09v4.74h-2.03v-10.85h2.03v4.67h5.09v-4.67h2.03v10.85z"/><use xlink:href="#D" x="44.55"/><use xlink:href="#E"/><use xlink:href="#E" x="8.71"/><path d="M435.57 239.24a2.55 2.55 0 0 1 .2-1c.13-.31.32-.58.55-.81s.51-.41.82-.54c.32-.13.66-.2 1.02-.2.37 0 .71.07 1.02.2a2.59 2.59 0 0 1 .83.54c.24.23.42.5.56.81s.2.65.2 1c0 .34-.07.67-.2.98-.14.31-.32.58-.56.81a2.51 2.51 0 0 1-.83.55c-.32.13-.66.2-1.02.2-.37 0-.71-.07-1.02-.2-.32-.14-.59-.32-.82-.55s-.42-.5-.55-.81-.2-.64-.2-.98zm1.29.01c0 .18.03.36.1.52s.16.3.27.42c.12.12.26.21.41.28.16.07.33.1.51.1s.36-.03.52-.1.3-.16.42-.28.21-.26.27-.42a1.46 1.46 0 0 0 .1-.52c0-.19-.03-.37-.1-.53s-.16-.3-.27-.42a1.37 1.37 0 0 0-.42-.29c-.16-.07-.33-.11-.52-.11s-.36.04-.51.11c-.16.07-.3.16-.41.29-.12.12-.21.26-.27.42s-.1.34-.1.53zm-128.35 35.01v3.57h4.27v1.28h-4.27v4.52h-1.59v-10.66h6.6v1.28h-5.01zm12.04 8.29c-.18.21-.38.39-.62.54a4.26 4.26 0 0 1-.74.37c-.26.09-.53.16-.81.21a5.81 5.81 0 0 1-.83.07c-.52 0-1-.09-1.44-.26-.44-.18-.83-.43-1.15-.77s-.58-.76-.76-1.26-.27-1.08-.27-1.73c0-.52.08-1.01.24-1.46s.4-.85.7-1.18c.3-.34.68-.6 1.12-.79s.93-.29 1.48-.29c.46 0 .88.07 1.27.23.39.15.72.37 1.01.66.28.29.5.64.66 1.06s.24.9.24 1.44c0 .22-.02.37-.07.45s-.14.11-.27.11h-4.94c.01.45.08.84.19 1.18a2.31 2.31 0 0 0 .47.83 1.91 1.91 0 0 0 .72.5c.28.11.59.16.93.16a3 3 0 0 0 .84-.11c.23-.07.44-.15.61-.24l.43-.24c.12-.07.22-.11.31-.11.12 0 .21.04.27.13l.41.5zm-1.19-3.53a2.47 2.47 0 0 0-.12-.79c-.08-.24-.2-.45-.36-.63s-.35-.32-.58-.42-.49-.15-.79-.15c-.61 0-1.09.18-1.44.53s-.57.84-.66 1.46h3.95z"/><use xlink:href="#F"/><path d="M331.56 272.68v10.95h-1.45v-10.95h1.45zm6.51 4.71c-.04.06-.08.11-.13.14-.04.03-.1.04-.17.04-.08 0-.17-.03-.26-.08l-.35-.18c-.14-.07-.3-.12-.48-.18-.18-.05-.4-.08-.65-.08a2.01 2.01 0 0 0-.57.08c-.17.05-.32.12-.43.21-.12.09-.21.2-.27.33s-.1.26-.1.4c0 .19.06.34.17.47.11.12.26.23.44.32s.39.17.62.24l.7.23.71.27c.23.1.43.23.62.38a1.7 1.7 0 0 1 .44.55c.11.21.17.47.17.78 0 .35-.06.68-.19.98a2.16 2.16 0 0 1-.56.78c-.24.22-.55.39-.91.51s-.77.19-1.24.19c-.52 0-1-.09-1.44-.26s-.81-.39-1.11-.66l.34-.56c.04-.07.09-.12.15-.16s.14-.06.24-.06c.09 0 .19.03.29.1l.36.23a2.59 2.59 0 0 0 .5.22c.2.07.45.1.74.1.25 0 .46-.03.65-.09.18-.06.33-.15.46-.25a1.07 1.07 0 0 0 .27-.37c.06-.14.09-.29.09-.44a.73.73 0 0 0-.17-.49c-.11-.13-.26-.24-.44-.34a4 4 0 0 0-.62-.25l-.71-.22-.71-.27c-.23-.1-.44-.24-.62-.39s-.33-.35-.44-.58-.17-.5-.17-.83c0-.29.06-.57.18-.84a2 2 0 0 1 .53-.7c.23-.2.51-.36.85-.49.34-.12.73-.18 1.16-.18.5 0 .95.08 1.35.24s.75.38 1.04.65l-.33.51zm12.15 4.91v1.33h-6.1v-10.66h1.58v9.33h4.52zm3.03-8.54c0 .13-.03.26-.08.38s-.13.23-.22.32-.2.16-.32.22c-.12.05-.25.08-.39.08s-.26-.03-.38-.08-.22-.12-.32-.22c-.09-.09-.16-.2-.22-.32-.05-.12-.08-.25-.08-.38 0-.14.03-.27.08-.39s.12-.23.22-.32a.99.99 0 0 1 .32-.21c.12-.05.25-.08.38-.08s.26.03.39.08a.99.99 0 0 1 .32.21c.09.09.16.2.22.32.05.12.08.25.08.39zm-.27 2.33v7.54h-1.45v-7.54h1.45zm3.54-3.41v6.4h.34c.1 0 .19-.01.26-.04s.14-.09.21-.18l2.26-2.49c.07-.09.15-.16.23-.21s.19-.07.32-.07h1.32l-2.66 2.92a1.79 1.79 0 0 1-.46.42c.09.06.18.14.25.22s.14.18.21.27l2.83 3.7h-1.3c-.12 0-.22-.02-.31-.06s-.16-.11-.23-.21l-2.33-3.03c-.07-.11-.15-.19-.22-.22s-.19-.05-.33-.05h-.39v3.57h-1.45v-10.95h1.45z"/><use xlink:href="#F" x="40.08"/><path d="M381.08 279.74v.84c0 .08-.03.16-.08.21s-.13.09-.23.09h-1.23v2.75h-1.27v-2.75h-4.67a.4.4 0 0 1-.27-.09c-.07-.06-.12-.14-.15-.23l-.15-.74 5.15-6.85h1.37v6.78h1.53zm-2.81 0v-4.16l.01-.46.05-.5-3.73 5.11h3.67zm9.12-1.67c.66.2 1.17.52 1.51.96s.52 1 .52 1.67a3.02 3.02 0 0 1-.26 1.26c-.18.38-.42.7-.74.96-.32.27-.7.47-1.15.61s-.93.22-1.47.22a4.58 4.58 0 0 1-1.47-.22 3.41 3.41 0 0 1-1.15-.61c-.32-.26-.57-.58-.74-.96-.18-.38-.26-.8-.26-1.26 0-.67.17-1.23.52-1.67.34-.44.85-.76 1.51-.96-.55-.21-.96-.52-1.24-.93s-.42-.9-.42-1.47a2.72 2.72 0 0 1 .23-1.11c.16-.34.38-.64.66-.89s.63-.45 1.03-.59a3.99 3.99 0 0 1 1.33-.21 3.99 3.99 0 0 1 1.33.21c.4.14.74.34 1.03.59a2.62 2.62 0 0 1 .66.89c.16.34.23.71.23 1.11 0 .57-.14 1.06-.42 1.47s-.69.72-1.24.93zm-1.59 4.53c.34 0 .64-.05.9-.14a1.96 1.96 0 0 0 .67-.4 1.75 1.75 0 0 0 .42-.61c.09-.24.14-.5.14-.78 0-.35-.06-.64-.17-.89s-.27-.45-.46-.62c-.19-.16-.42-.28-.68-.36s-.53-.12-.82-.12a2.71 2.71 0 0 0-.82.12c-.26.08-.48.19-.68.36-.19.16-.35.37-.46.62s-.17.55-.17.89c0 .28.05.54.14.78a1.52 1.52 0 0 0 .42.61c.18.17.41.3.67.4.26.09.56.14.9.14zm0-8.63c-.31 0-.57.05-.8.14a1.67 1.67 0 0 0-.58.38c-.15.16-.27.34-.34.55a2.09 2.09 0 0 0-.11.67 2.24 2.24 0 0 0 .1.68c.07.22.17.42.32.59s.34.31.57.41.52.16.85.16.61-.05.85-.16c.23-.1.43-.24.57-.41.15-.17.25-.37.32-.59a2.24 2.24 0 0 0 .1-.68 2.09 2.09 0 0 0-.11-.67c-.07-.21-.19-.39-.34-.55s-.35-.28-.58-.38a2.39 2.39 0 0 0-.82-.14zm5.08 8.79c0-.13.02-.26.07-.38a1.1 1.1 0 0 1 .2-.31c.09-.09.19-.16.31-.21s.25-.08.39-.08c.13 0 .26.03.38.08s.22.12.31.21.16.19.21.31.08.25.08.38c0 .14-.03.27-.08.39s-.12.22-.21.31-.19.16-.31.21-.25.07-.38.07a1 1 0 0 1-.39-.07c-.12-.05-.22-.12-.31-.21a.92.92 0 0 1-.2-.31 1 1 0 0 1-.07-.39zm7.83-3.34l.54-.74c-.27.2-.57.36-.89.46-.33.1-.68.16-1.05.16a3.22 3.22 0 0 1-1.12-.2 2.67 2.67 0 0 1-.95-.59c-.27-.26-.49-.58-.66-.96s-.24-.82-.24-1.31a3.4 3.4 0 0 1 .26-1.31 3.18 3.18 0 0 1 .73-1.07c.31-.3.69-.54 1.13-.72s.92-.26 1.44-.26.99.08 1.41.25.78.4 1.08.71c.3.3.53.67.69 1.09s.25.89.25 1.4c0 .31-.03.61-.09.89s-.14.56-.25.82a5.26 5.26 0 0 1-.39.79 8.32 8.32 0 0 1-.52.8l-2.56 3.67c-.07.1-.17.18-.3.24-.13.07-.28.1-.45.1h-1.33l3.27-4.22zm-2.92-3.3c0 .66.18 1.16.53 1.52.36.36.85.53 1.48.53a2.38 2.38 0 0 0 .91-.17 2.06 2.06 0 0 0 .66-.44 1.84 1.84 0 0 0 .41-.65c.09-.25.14-.5.14-.77 0-.32-.05-.61-.15-.87a1.76 1.76 0 0 0-.43-.66c-.18-.18-.4-.32-.65-.42s-.53-.14-.83-.14c-.31 0-.6.05-.85.15a1.76 1.76 0 0 0-.66.43c-.18.18-.32.4-.42.65a2.55 2.55 0 0 0-.14.84zm10.03.82l-.25.32-.23.3a3.35 3.35 0 0 1 .79-.36 3.5 3.5 0 0 1 .94-.13c.42 0 .82.07 1.2.21a2.97 2.97 0 0 1 1.01.61c.29.27.52.6.69.99.17.4.25.85.25 1.37 0 .49-.09.95-.27 1.38a3.3 3.3 0 0 1-.75 1.11c-.32.31-.71.56-1.16.74s-.95.27-1.5.27a4.01 4.01 0 0 1-1.47-.26 3.09 3.09 0 0 1-1.12-.74c-.31-.32-.55-.7-.72-1.16-.17-.45-.25-.96-.25-1.51 0-.47.1-.98.31-1.5.21-.53.53-1.09.98-1.69l2.66-3.57c.07-.1.18-.18.31-.25s.29-.1.46-.1h1.29l-3.17 3.97zm.68 5.6c.34 0 .65-.06.93-.17s.51-.26.71-.46.35-.42.46-.69a2.28 2.28 0 0 0 .16-.87c0-.34-.05-.65-.16-.92s-.25-.5-.45-.69c-.19-.19-.42-.33-.69-.43s-.56-.15-.89-.15c-.34 0-.65.06-.92.18s-.5.27-.7.47c-.19.2-.34.42-.44.69a2.3 2.3 0 0 0-.16.82 2.83 2.83 0 0 0 .14.9c.09.27.23.5.42.7.18.19.41.34.67.45s.58.17.92.17zm8.69-7.27c0-.34.06-.65.19-.95a2.55 2.55 0 0 1 .52-.77c.22-.22.48-.39.78-.52s.62-.19.96-.19.67.06.97.19.56.3.78.52.4.47.52.77c.13.29.19.61.19.95 0 .33-.06.64-.19.94a2.55 2.55 0 0 1-.52.77c-.22.22-.48.39-.78.52a2.4 2.4 0 0 1-.97.19c-.35 0-.67-.06-.96-.19-.3-.13-.56-.3-.78-.52a2.55 2.55 0 0 1-.52-.77c-.13-.3-.19-.61-.19-.94zm1.02.01c0 .2.04.39.11.57a1.31 1.31 0 0 0 .3.46c.13.13.28.23.45.3a1.47 1.47 0 0 0 .56.11c.2 0 .39-.04.57-.11s.33-.18.46-.3a1.31 1.31 0 0 0 .3-.46c.07-.18.11-.36.11-.57 0-.2-.04-.39-.11-.57a1.31 1.31 0 0 0-.3-.46 1.49 1.49 0 0 0-.46-.31c-.18-.07-.36-.11-.57-.11a1.47 1.47 0 0 0-.56.11c-.17.07-.32.18-.45.31s-.23.29-.3.46-.11.36-.11.57zm7.41-1.02v3.57h4.27v1.28h-4.27v4.52h-1.59v-10.66h6.6v1.28h-5.01zm17.66 7.09c.09 0 .17.04.23.1l.62.68c-.43.51-.97.91-1.59 1.19-.63.28-1.38.42-2.26.42-.77 0-1.47-.13-2.1-.4s-1.16-.64-1.6-1.12-.79-1.05-1.03-1.72-.36-1.4-.36-2.2.13-1.54.38-2.2.61-1.24 1.07-1.72 1.01-.85 1.65-1.12 1.35-.4 2.13-.4c.76 0 1.43.12 2.02.37a5.22 5.22 0 0 1 1.54.99l-.52.73c-.04.05-.08.1-.13.13-.05.04-.12.05-.2.05-.09 0-.2-.05-.33-.14l-.5-.32c-.21-.12-.46-.22-.76-.32-.3-.09-.68-.14-1.13-.14-.53 0-1.01.09-1.45.28a3.27 3.27 0 0 0-1.14.8c-.32.35-.57.78-.74 1.28-.18.51-.26 1.08-.26 1.72 0 .65.09 1.22.27 1.73.18.5.44.93.76 1.28s.7.62 1.14.8.91.27 1.41.27c.31 0 .58-.02.83-.06a3.56 3.56 0 0 0 .68-.17 2.42 2.42 0 0 0 .58-.29c.18-.12.36-.26.54-.42.04-.03.08-.06.13-.08.02.01.07 0 .12 0zm3.63-8.67v10.95h-1.45v-10.95h1.45zm8.26 9.87c-.18.21-.38.39-.62.54-.23.15-.48.27-.74.37-.26.09-.53.16-.81.21a5.81 5.81 0 0 1-.83.07c-.52 0-1-.09-1.44-.26-.44-.18-.83-.43-1.15-.77s-.58-.76-.76-1.26-.27-1.08-.27-1.73a4.11 4.11 0 0 1 .25-1.46c.16-.45.4-.85.7-1.18.3-.34.68-.6 1.12-.79s.93-.29 1.48-.29c.46 0 .88.07 1.27.23a2.73 2.73 0 0 1 1 .66c.28.29.5.64.66 1.06s.24.9.24 1.44c0 .22-.03.37-.07.45-.05.08-.14.11-.27.11h-4.94c.01.45.08.84.19 1.18a2.31 2.31 0 0 0 .47.83 1.91 1.91 0 0 0 .72.5c.28.11.59.16.93.16.32 0 .6-.04.83-.11a3.23 3.23 0 0 0 .61-.24l.43-.24c.12-.07.22-.11.31-.11.12 0 .21.04.28.13l.41.5zm-1.2-3.53a2.47 2.47 0 0 0-.12-.79c-.08-.24-.2-.45-.36-.63s-.35-.32-.58-.42-.49-.15-.79-.15c-.61 0-1.09.18-1.44.53s-.57.84-.66 1.46h3.95zm2.67-1.88c.42-.4.88-.7 1.37-.9s1.03-.3 1.62-.3c.43 0 .81.07 1.14.21a2.41 2.41 0 0 1 .84.59c.23.25.4.55.52.9s.17.74.17 1.17v4.81h-.64c-.14 0-.25-.02-.33-.07-.07-.05-.13-.14-.18-.26l-.16-.66c-.19.18-.38.33-.57.47s-.39.25-.59.35-.42.17-.66.22c-.23.05-.49.07-.77.07-.3 0-.58-.04-.84-.12s-.49-.21-.68-.37-.35-.38-.46-.63-.17-.55-.17-.88c0-.3.08-.58.24-.86.16-.27.42-.52.79-.74.36-.22.84-.4 1.43-.54s1.31-.22 2.16-.24v-.55c0-.57-.12-.99-.36-1.28-.24-.28-.6-.42-1.07-.42-.32 0-.58.04-.8.12-.21.08-.4.17-.56.26l-.41.26c-.12.08-.24.12-.36.12a.47.47 0 0 1-.26-.08c-.07-.05-.13-.12-.18-.19l-.23-.46zm4.25 3.14a11.3 11.3 0 0 0-1.5.14c-.41.07-.75.17-1 .29-.26.12-.44.26-.56.42-.11.16-.17.34-.17.54 0 .19.03.35.09.49a.85.85 0 0 0 .25.33 1 1 0 0 0 .37.19c.14.04.3.06.47.06.22 0 .43-.02.61-.07.18-.04.36-.11.52-.19s.32-.18.47-.3a4.12 4.12 0 0 0 .44-.41v-1.49zm4.72-2.74c.24-.5.54-.88.88-1.17.34-.28.75-.42 1.23-.42.16 0 .32.02.46.06a1.1 1.1 0 0 1 .38.17l-.1 1.09c-.04.13-.12.2-.25.2a1.52 1.52 0 0 1-.31-.04c-.14-.03-.29-.04-.45-.04-.23 0-.44.03-.61.1-.18.07-.34.17-.48.3s-.27.29-.37.48a4.37 4.37 0 0 0-.3.65v4.72h-1.45v-7.54h.83c.16 0 .27.03.32.09s.1.16.12.3l.1 1.05zm13.33-2.69a.56.56 0 0 1-.19.23.53.53 0 0 1-.26.07c-.1 0-.21-.04-.33-.12s-.27-.16-.44-.26c-.17-.09-.36-.18-.59-.26s-.49-.11-.8-.11c-.28 0-.52.03-.72.1-.21.07-.38.16-.52.28a1.13 1.13 0 0 0-.32.43 1.4 1.4 0 0 0-.1.54c0 .25.07.46.21.63s.33.31.56.43.5.22.79.32l.91.3.91.37a2.91 2.91 0 0 1 .79.54c.23.21.42.48.56.79s.21.69.21 1.14c0 .48-.08.94-.25 1.36s-.41.79-.73 1.11a3.49 3.49 0 0 1-1.17.74c-.46.18-.99.27-1.58.27-.34 0-.68-.03-1.01-.1s-.65-.16-.95-.29a4.31 4.31 0 0 1-.85-.45c-.26-.17-.5-.37-.71-.58l.58-.96c.05-.07.12-.13.2-.18a.46.46 0 0 1 .26-.07c.12 0 .26.05.4.15l.51.34c.2.12.43.24.69.34.27.1.58.15.95.15.57 0 1.01-.14 1.32-.4s.47-.66.47-1.16c0-.28-.07-.51-.21-.69s-.33-.33-.56-.45-.5-.22-.79-.31l-.9-.27c-.3-.09-.61-.22-.91-.36a2.91 2.91 0 0 1-.79-.54c-.23-.22-.42-.5-.56-.84-.14-.33-.21-.75-.21-1.24 0-.39.08-.77.23-1.14a3.02 3.02 0 0 1 .68-.99c.3-.29.67-.52 1.1-.69s.93-.26 1.49-.26c.63 0 1.22.1 1.75.3a4.04 4.04 0 0 1 1.36.83l-.48.96zm3.96-2.25v6.32h.34c.12 0 .22-.02.29-.05s.14-.1.22-.19l1.89-2.34a.83.83 0 0 1 .27-.23c.09-.06.22-.08.37-.08h1.68l-2.37 2.83c-.08.1-.17.2-.26.29s-.19.16-.29.23c.1.07.2.16.28.26l.24.32 2.54 3.69h-1.66c-.14 0-.26-.02-.36-.07s-.19-.13-.27-.25l-1.94-2.89c-.07-.11-.15-.19-.22-.22-.07-.04-.18-.05-.33-.05h-.42v3.49h-1.83V272.6h1.83zm9.03 13.12c-.05.13-.12.23-.21.29-.09.07-.22.1-.4.1h-1.36l1.43-3.05-3.08-7.05h1.6c.15 0 .26.03.34.1a.69.69 0 0 1 .18.24l1.62 3.95c.06.13.1.26.14.4l.1.42.13-.42.15-.41 1.53-3.94c.04-.1.11-.18.2-.25.09-.06.19-.1.31-.1h1.47l-4.15 9.72z"/></g><path d="M356.81 211.92a1.24 1.24 0 0 1-1.01-.53 1.21 1.21 0 0 1 .32-1.69c1.88-1.28 3-3.4 3-5.67 0-3.79-3.08-6.86-6.86-6.86-2.77 0-5.26 1.65-6.33 4.21a1.22 1.22 0 0 1-1.6.65c-.62-.26-.91-.97-.65-1.59 1.45-3.47 4.82-5.71 8.58-5.71a9.31 9.31 0 0 1 9.3 9.3c0 3.08-1.52 5.95-4.06 7.68a1.29 1.29 0 0 1-.69.21zm-4.56-18.02c-.67 0-1.22-.55-1.22-1.22v-2.98c0-.67.55-1.22 1.22-1.22s1.22.55 1.22 1.22v2.98a1.22 1.22 0 0 1-1.22 1.22zm7.29 2.65c-.28 0-.55-.09-.78-.28a1.23 1.23 0 0 1-.15-1.72l1.91-2.28a1.23 1.23 0 0 1 1.72-.15 1.23 1.23 0 0 1 .15 1.72l-1.91 2.28a1.24 1.24 0 0 1-.94.43zm3.88 6.72a1.23 1.23 0 0 1-1.2-1.01c-.12-.66.32-1.29.99-1.41l2.93-.52c.67-.12 1.3.32 1.41.99.12.66-.32 1.29-.99 1.41l-2.93.52-.21.02zm1.23 9.13c-.2 0-.42-.05-.61-.16l-2.58-1.49c-.58-.34-.78-1.08-.45-1.66.34-.58 1.08-.78 1.66-.45l2.58 1.49c.58.34.78 1.08.45 1.66-.21.39-.62.61-1.05.61zm-19.69-15.85a1.22 1.22 0 0 1-.93-.43l-1.91-2.28a1.23 1.23 0 0 1 .15-1.72 1.22 1.22 0 0 1 1.72.15l1.91 2.28c.43.51.36 1.28-.15 1.72-.23.19-.51.28-.79.28z" fill="#ffe856"/><path d="M352.54 225.68h-27.87a9.5 9.5 0 0 1-9.49-9.49c0-5.23 4.26-9.49 9.49-9.49 1.03 0 2.05.17 3.02.5.68-5.45 5.33-9.67 10.96-9.67 6.09 0 11.04 4.95 11.04 11.04v.08a8.57 8.57 0 0 1 2.85-.48c4.83 0 8.76 3.93 8.76 8.76a8.77 8.77 0 0 1-8.76 8.75zm-27.87-16.55c-3.89 0-7.06 3.17-7.06 7.06s3.16 7.06 7.06 7.06h27.87a6.33 6.33 0 0 0 6.32-6.32 6.33 6.33 0 0 0-6.32-6.32c-1.3 0-2.55.4-3.62 1.15-.41.29-.96.3-1.38.01-.42-.28-.62-.79-.51-1.28.15-.65.22-1.3.22-1.93 0-4.74-3.86-8.61-8.6-8.61s-8.6 3.86-8.6 8.61l.01.24c0 .01.01.19.01.2.02.45-.21.87-.59 1.1s-.86.23-1.24.01a7.05 7.05 0 0 0-3.57-.98z" fill="#7cbbe8"/><defs ><path id="B" d="M368.96 115.7a1.57 1.57 0 0 1-.15.68 1.96 1.96 0 0 1-.39.55c-.16.16-.35.28-.57.38a1.82 1.82 0 0 1-.7.14c-.24 0-.47-.05-.68-.14a1.79 1.79 0 0 1-.56-.38 1.93 1.93 0 0 1-.38-.55c-.09-.21-.14-.44-.14-.68a1.82 1.82 0 0 1 .14-.7c.09-.22.22-.41.38-.56.16-.16.34-.28.56-.38.21-.09.44-.14.68-.14a1.82 1.82 0 0 1 .7.14c.22.09.41.22.57.38a2.01 2.01 0 0 1 .39.56 1.66 1.66 0 0 1 .15.7zm-.41 3.36v11.55h-2.78v-11.55h2.78z"/><path id="C" d="M354.29 149.03h1.37v1.07c0 .1-.03.19-.1.26s-.16.11-.29.11h-.98v2.65h-1.62v-2.65h-4.58c-.12 0-.24-.04-.33-.12-.1-.08-.16-.17-.18-.29l-.19-.94 5.14-6.87h1.76v6.78zm-1.62-3.55l.02-.52.05-.58-3.37 4.64h3.3v-3.54z"/><path id="D" d="M367.18 241.29a1.08 1.08 0 0 1 .09-.44c.06-.14.14-.26.24-.36s.22-.18.36-.24a1.13 1.13 0 0 1 .45-.09 1.08 1.08 0 0 1 .44.09c.14.06.26.14.36.24s.18.22.24.36.09.29.09.44a1.13 1.13 0 0 1-.09.45c-.06.14-.14.26-.24.36s-.22.18-.36.24-.29.09-.44.09a1.13 1.13 0 0 1-.45-.09c-.14-.06-.26-.14-.36-.24s-.18-.22-.24-.36a1.13 1.13 0 0 1-.09-.45zm0 5.35a1.08 1.08 0 0 1 .09-.44c.06-.14.14-.26.24-.36s.22-.18.36-.24a1.13 1.13 0 0 1 .45-.09 1.08 1.08 0 0 1 .44.09c.14.06.26.14.36.24s.18.22.24.36.09.29.09.44a1.13 1.13 0 0 1-.09.45c-.06.14-.14.26-.24.36s-.22.18-.36.24-.29.09-.44.09a1.13 1.13 0 0 1-.45-.09c-.14-.06-.26-.14-.36-.24s-.18-.22-.24-.36a1.13 1.13 0 0 1-.09-.45z"/><path id="E" d="M425.17 237.6c0 .27-.08.48-.25.65-.17.16-.45.25-.84.25h-2.99l-.39 2.27c.49-.1.94-.15 1.34-.15.57 0 1.07.09 1.5.26s.8.41 1.09.7c.29.3.52.65.67 1.06a3.7 3.7 0 0 1 .23 1.3c0 .58-.1 1.1-.3 1.58a3.5 3.5 0 0 1-.84 1.22c-.36.34-.79.6-1.28.78-.49.19-1.03.28-1.61.28a4.37 4.37 0 0 1-.97-.11 4.56 4.56 0 0 1-.86-.28c-.27-.12-.52-.25-.74-.41a4.31 4.31 0 0 1-.61-.48l.57-.79c.12-.17.28-.26.48-.26.13 0 .25.04.38.12l.45.26c.17.1.37.18.59.26s.5.12.82.12c.34 0 .64-.05.9-.16s.48-.26.65-.46a2.03 2.03 0 0 0 .39-.71c.09-.27.13-.57.13-.89 0-.59-.17-1.05-.51-1.38s-.85-.5-1.51-.5c-.53 0-1.05.1-1.58.28l-1.16-.33.9-5.27h5.36v.79z"/><path id="F" d="M328.41 282.55c-.18.21-.38.39-.62.54a4.26 4.26 0 0 1-.74.37c-.26.09-.53.16-.81.21a5.81 5.81 0 0 1-.83.07c-.52 0-1-.09-1.44-.26-.44-.18-.83-.43-1.15-.77s-.58-.76-.76-1.26-.27-1.08-.27-1.73c0-.52.08-1.01.24-1.46s.4-.85.7-1.18c.3-.34.68-.6 1.12-.79s.93-.29 1.48-.29c.46 0 .88.07 1.27.23.39.15.72.37 1.01.66.28.29.5.64.66 1.06s.24.9.24 1.44c0 .22-.02.37-.07.45s-.14.11-.27.11h-4.94c.01.45.08.84.19 1.18a2.31 2.31 0 0 0 .47.83 1.91 1.91 0 0 0 .72.5c.28.11.59.16.93.16a3 3 0 0 0 .84-.11c.23-.07.44-.15.61-.24l.43-.24c.12-.07.22-.11.31-.11.12 0 .21.04.27.13l.41.5zm-1.2-3.53a2.47 2.47 0 0 0-.12-.79c-.08-.24-.2-.45-.36-.63s-.35-.32-.58-.42-.49-.15-.79-.15c-.61 0-1.09.18-1.44.53s-.57.84-.66 1.46h3.95z"/></defs></svg>