<svg xmlns="http://www.w3.org/2000/svg" width="120" height="132" fill="none" xmlns:v="https://vecta.io/nano"><g fill="#fff"><rect x=".75" y=".75" width="118.5" height="130.5" rx="3.25"/><rect x="8.5" y="49.5" width="103" height="33" rx="1.5"/></g><rect x="16" y="61" width="42" height="10" rx="1" fill="#8796a1"/><g fill="#f6f7f7"><rect x="20" y="63" width="6" height="6" rx="3"/><rect x="30" y="63" width="24" height="2" rx="1"/><rect x="30" y="67" width="13" height="2" rx="1"/></g><rect x="62" y="61" width="42" height="10" rx="1" fill="#8796a1"/><g fill="#f6f7f7"><rect x="66" y="63" width="6" height="6" rx="3"/><rect x="76" y="63" width="18" height="2" rx="1"/><rect x="76" y="67" width="13" height="2" rx="1"/></g><path d="M106.249 68.175c-.001.179.07.351.196.478s.298.199.477.199a.68.68 0 0 0 .479-.197l2.153-2.156c.127-.127.198-.3.197-.48v-.022a.67.67 0 0 0-.196-.499l-2.155-2.15c-.172-.163-.417-.225-.645-.161s-.408.242-.471.471-.002.474.162.645L108.144 66l-1.698 1.698a.67.67 0 0 0-.197.477h0zm-92.497 0a.67.67 0 0 1-.197.478c-.127.127-.298.199-.477.199a.68.68 0 0 1-.478-.197l-2.153-2.156c-.127-.127-.198-.3-.197-.48v-.022a.67.67 0 0 1 .197-.499l2.155-2.15c.172-.163.417-.225.646-.161s.407.242.47.471.002.474-.162.645L11.856 66l1.698 1.698c.127.127.197.298.197.477h0z" fill="#8796a1"/><g stroke="#8796a1"><rect x="8.5" y="49.5" width="103" height="33" rx="1.5"/><rect x=".75" y=".75" width="118.5" height="130.5" rx="3.25" stroke-width="1.5"/></g></svg>