<svg xmlns="http://www.w3.org/2000/svg" width="120" height="132" fill="none" xmlns:v="https://vecta.io/nano"><style><![CDATA[.B{fill:#8796a1}.C{fill:#546069}]]></style><g fill="#fff"><rect x=".75" y=".75" width="118.5" height="130.5" rx="3.25"/><rect x="8.5" y="8.5" width="103" height="115" rx="1.5"/></g><g class="B"><rect x="23" y="16" width="10" height="10" rx="5"/><rect x="16" y="30" width="24" height="3" rx="1.5"/></g><rect x="21.5" y="35" width="13" height="3" rx="1.5" class="C"/><g class="B"><rect x="23" y="55" width="10" height="10" rx="5"/><rect x="16" y="69" width="24" height="3" rx="1.5"/></g><rect x="20" y="74" width="16" height="3" rx="1.5" class="C"/><g class="B"><rect x="23" y="94" width="10" height="10" rx="5"/><rect x="17.5" y="108" width="21" height="3" rx="1.5"/></g><rect x="20.5" y="113" width="15" height="3" rx="1.5" class="C"/><g class="B"><rect x="54.5" y="16" width="10" height="10" rx="5"/><rect x="53" y="30" width="13" height="3" rx="1.5"/></g><rect x="49" y="35" width="21" height="3" rx="1.5" class="C"/><g class="B"><rect x="54.5" y="55" width="10" height="10" rx="5"/><rect x="50.5" y="69" width="18" height="3" rx="1.5"/></g><rect x="47" y="74" width="25" height="3" rx="1.5" class="C"/><g class="B"><rect x="54.5" y="94" width="10" height="10" rx="5"/><rect x="49" y="108" width="21" height="3" rx="1.5"/></g><rect x="52" y="113" width="15" height="3" rx="1.5" class="C"/><g class="B"><rect x="86.5" y="16" width="10" height="10" rx="5"/><rect x="83.5" y="30" width="16" height="3" rx="1.5"/></g><rect x="84.5" y="35" width="14" height="3" rx="1.5" class="C"/><g class="B"><rect x="86.5" y="55" width="10" height="10" rx="5"/><rect x="79" y="69" width="25" height="3" rx="1.5"/></g><rect x="81.5" y="74" width="20" height="3" rx="1.5" class="C"/><g class="B"><rect x="86.5" y="94" width="10" height="10" rx="5"/><rect x="87" y="108" width="9" height="3" rx="1.5"/></g><rect x="82" y="113" width="19" height="3" rx="1.5" class="C"/><g stroke="#8796a1"><rect x="8.5" y="8.5" width="103" height="115" rx="1.5"/><rect x=".75" y=".75" width="118.5" height="130.5" rx="3.25" stroke-width="1.5"/></g></svg>