<svg xmlns="http://www.w3.org/2000/svg" width="120" height="132" fill="none" xmlns:v="https://vecta.io/nano"><style><![CDATA[.B{fill:#8796a1}.C{fill:#546069}]]></style><g fill="#fff"><rect x=".75" y=".75" width="118.5" height="130.5" rx="3.25"/><rect x="8.5" y="8.5" width="103" height="115" rx="1.5"/></g><g class="B"><rect x="14" y="21" width="6" height="6" rx="3"/><rect x="22" y="22.5" width="18" height="3" rx="1.5"/></g><rect x="43" y="22.5" width="13" height="3" rx="1.5" class="C"/><g class="B"><rect x="14" y="35" width="6" height="6" rx="3"/><rect x="22" y="36.5" width="14" height="3" rx="1.5"/></g><rect x="39" y="36.5" width="12.5" height="3" rx="1.5" class="C"/><g class="B"><rect x="14" y="49" width="6" height="6" rx="3"/><rect x="22" y="50.5" width="16" height="3" rx="1.5"/></g><rect x="41" y="50.5" width="12.5" height="3" rx="1.5" class="C"/><g class="B"><rect x="14" y="63" width="6" height="6" rx="3"/><rect x="22" y="64.5" width="18" height="3" rx="1.5"/></g><rect x="43" y="64.5" width="8" height="3" rx="1.5" class="C"/><g class="B"><rect x="14" y="77" width="6" height="6" rx="3"/><rect x="22" y="78.5" width="15" height="3" rx="1.5"/></g><rect x="40" y="78.5" width="16" height="3" rx="1.5" class="C"/><g class="B"><rect x="14" y="91" width="6" height="6" rx="3"/><rect x="22" y="92.5" width="10" height="3" rx="1.5"/></g><rect x="35" y="92.5" width="12.5" height="3" rx="1.5" class="C"/><g class="B"><rect x="14" y="105" width="6" height="6" rx="3"/><rect x="22" y="106.5" width="14" height="3" rx="1.5"/></g><rect x="39" y="106.5" width="11" height="3" rx="1.5" class="C"/><g class="B"><rect x="64" y="21" width="6" height="6" rx="3"/><rect x="72" y="22.5" width="19" height="3" rx="1.5"/></g><rect x="94" y="22.5" width="12" height="3" rx="1.5" class="C"/><g class="B"><rect x="64" y="35" width="6" height="6" rx="3"/><rect x="72" y="36.5" width="12" height="3" rx="1.5"/></g><rect x="87" y="36.5" width="19" height="3" rx="1.5" class="C"/><g class="B"><rect x="64" y="49" width="6" height="6" rx="3"/><rect x="72" y="50.5" width="16" height="3" rx="1.5"/></g><rect x="91" y="50.5" width="12.5" height="3" rx="1.5" class="C"/><g class="B"><rect x="64" y="63" width="6" height="6" rx="3"/><rect x="72" y="64.5" width="12" height="3" rx="1.5"/></g><rect x="87" y="64.5" width="12" height="3" rx="1.5" class="C"/><g class="B"><rect x="64" y="77" width="6" height="6" rx="3"/><rect x="72" y="78.5" width="19" height="3" rx="1.5"/></g><rect x="94" y="78.5" width="12" height="3" rx="1.5" class="C"/><g class="B"><rect x="64" y="91" width="6" height="6" rx="3"/><rect x="72" y="92.5" width="10" height="3" rx="1.5"/></g><rect x="85" y="92.5" width="12.5" height="3" rx="1.5" class="C"/><g class="B"><rect x="64" y="105" width="6" height="6" rx="3"/><rect x="72" y="106.5" width="14" height="3" rx="1.5"/></g><rect x="89" y="106.5" width="11" height="3" rx="1.5" class="C"/><g stroke="#8796a1"><rect x="8.5" y="8.5" width="103" height="115" rx="1.5"/><rect x=".75" y=".75" width="118.5" height="130.5" rx="3.25" stroke-width="1.5"/></g></svg>