<svg xmlns="http://www.w3.org/2000/svg" width="120" height="132" fill="none" xmlns:v="https://vecta.io/nano"><style><![CDATA[.B{fill:#8796a1}.C{fill:#546069}]]></style><g fill="#fff"><rect x=".75" y=".75" width="118.5" height="130.5" rx="3.25"/><rect x="8.5" y="8.5" width="103" height="115" rx="1.5"/></g><g class="B"><rect x="16" y="16" width="10" height="10" rx="5"/><rect x="30" y="17" width="24" height="3" rx="1.5"/></g><rect x="30" y="22" width="13" height="3" rx="1.5" class="C"/><g class="B"><rect x="16" y="34" width="10" height="10" rx="5"/><rect x="30" y="35" width="18" height="3" rx="1.5"/></g><rect x="30" y="40" width="25" height="3" rx="1.5" class="C"/><g class="B"><rect x="16" y="52" width="10" height="10" rx="5"/><rect x="30" y="53" width="21" height="3" rx="1.5"/></g><rect x="30" y="58" width="15" height="3" rx="1.5" class="C"/><g class="B"><rect x="16" y="70" width="10" height="10" rx="5"/><rect x="30" y="71" width="12" height="3" rx="1.5"/></g><rect x="30" y="76" width="18" height="3" rx="1.5" class="C"/><g class="B"><rect x="16" y="88" width="10" height="10" rx="5"/><rect x="30" y="89" width="24" height="3" rx="1.5"/></g><rect x="30" y="94" width="20" height="3" rx="1.5" class="C"/><g class="B"><rect x="16" y="106" width="10" height="10" rx="5"/><rect x="30" y="107" width="18" height="3" rx="1.5"/></g><rect x="30" y="112" width="13" height="3" rx="1.5" class="C"/><g class="B"><rect x="65" y="16" width="10" height="10" rx="5"/><rect x="79" y="17" width="22" height="3" rx="1.5"/></g><rect x="79" y="22" width="17" height="3" rx="1.5" class="C"/><g class="B"><rect x="65" y="34" width="10" height="10" rx="5"/><rect x="79" y="35" width="25" height="3" rx="1.5"/></g><rect x="79" y="40" width="20" height="3" rx="1.5" class="C"/><g class="B"><rect x="65" y="52" width="10" height="10" rx="5"/><rect x="79" y="53" width="9" height="3" rx="1.5"/></g><rect x="79" y="58" width="19" height="3" rx="1.5" class="C"/><g class="B"><rect x="65" y="70" width="10" height="10" rx="5"/><rect x="79" y="71" width="18" height="3" rx="1.5"/></g><rect x="79" y="76" width="9" height="3" rx="1.5" class="C"/><g class="B"><rect x="65" y="88" width="10" height="10" rx="5"/><rect x="79" y="89" width="15" height="3" rx="1.5"/></g><rect x="79" y="94" width="19" height="3" rx="1.5" class="C"/><g class="B"><rect x="65" y="106" width="10" height="10" rx="5"/><rect x="79" y="107" width="18" height="3" rx="1.5"/></g><rect x="79" y="112" width="13" height="3" rx="1.5" class="C"/><g stroke="#8796a1"><rect x="8.5" y="8.5" width="103" height="115" rx="1.5"/><rect x=".75" y=".75" width="118.5" height="130.5" rx="3.25" stroke-width="1.5"/></g></svg>