<svg xmlns="http://www.w3.org/2000/svg" width="120" height="132" fill="none" xmlns:v="https://vecta.io/nano"><style><![CDATA[.B{fill:#8796a1}.C{fill:#546069}]]></style><g fill="#fff"><rect x=".75" y=".75" width="118.5" height="130.5" rx="3.25"/><rect x="8.5" y="8.5" width="103" height="115" rx="1.5"/></g><path d="M20 113a3 3 0 1 1-6 0 3 3 0 1 1 6 0z" class="B"/><rect x="22" y="111.5" width="20" height="3" rx="1.5" class="C"/><path d="M53.5 113a3 3 0 1 1-6 0 3 3 0 1 1 6 0z" class="B"/><rect x="55.5" y="111.5" width="19" height="3" rx="1.5" class="C"/><path d="M86 113a3 3 0 1 1-6 0 3 3 0 1 1 6 0z" class="B"/><rect x="88" y="111.5" width="18" height="3" rx="1.5" class="C"/><g class="B"><rect x="28" y="16" width="6" height="6" rx="3"/><rect x="37" y="17.5" width="37" height="3" rx="1.5"/></g><rect x="76" y="17.5" width="16" height="3" rx="1.5" class="C"/><g class="B"><rect x="28" y="25.5" width="6" height="6" rx="3"/><rect x="37" y="27" width="19" height="3" rx="1.5"/></g><rect x="58" y="27" width="12" height="3" rx="1.5" class="C"/><g class="B"><rect x="28" y="35" width="6" height="6" rx="3"/><rect x="37" y="36.5" width="24" height="3" rx="1.5"/></g><rect x="63" y="36.5" width="17" height="3" rx="1.5" class="C"/><g class="B"><rect x="28" y="44.5" width="6" height="6" rx="3"/><rect x="37" y="46" width="24" height="3" rx="1.5"/></g><rect x="63" y="46" width="29" height="3" rx="1.5" class="C"/><g class="B"><rect x="28" y="54" width="6" height="6" rx="3"/><rect x="37" y="55.5" width="22" height="3" rx="1.5"/></g><rect x="61" y="55.5" width="12" height="3" rx="1.5" class="C"/><g class="B"><rect x="28" y="63.5" width="6" height="6" rx="3"/><rect x="37" y="65" width="27" height="3" rx="1.5"/></g><rect x="66" y="65" width="16" height="3" rx="1.5" class="C"/><g class="B"><rect x="28" y="73" width="6" height="6" rx="3"/><rect x="37" y="74.5" width="21" height="3" rx="1.5"/></g><rect x="60" y="74.5" width="12" height="3" rx="1.5" class="C"/><g class="B"><rect x="28" y="82.5" width="6" height="6" rx="3"/><rect x="37" y="84" width="24" height="3" rx="1.5"/></g><rect x="63" y="84" width="21" height="3" rx="1.5" class="C"/><g class="B"><rect x="28" y="92" width="6" height="6" rx="3"/><rect x="37" y="93.5" width="33" height="3" rx="1.5"/></g><rect x="72" y="93.5" width="20" height="3" rx="1.5" class="C"/><g stroke="#8796a1"><rect x="8.5" y="8.5" width="103" height="115" rx="1.5"/><rect x=".75" y=".75" width="118.5" height="130.5" rx="3.25" stroke-width="1.5"/></g></svg>