<svg xmlns="http://www.w3.org/2000/svg" width="205" height="42" fill="none" xmlns:v="https://vecta.io/nano"><g clip-path="url(#A)"><g fill="#f26c0d"><path d="M34.866 15.028c.2-7.166-9.691-10.351-13.787-4.578 1.599 1.194 2.797 2.488 3.597 4.28 3.596-.299 7.093 1.791 8.492 5.076 1.099-1.393 1.698-3.085 1.698-4.777zm-7.593-9.754c1.798 0 .899-3.185 1.099-4.18C28.373.498 27.873 0 27.274 0c-1.798 0-.899 3.185-1.099 4.18-.1.597.499 1.095 1.099 1.095zm8.492 2.886l2.098-2.19c.999-.995-.599-2.588-1.599-1.592l-2.198 2.19c-.899.995.699 2.588 1.698 1.592zm5.495 5.773h-3.097c-1.498 0-1.498 2.289 0 2.289h3.097c1.399 0 1.399-2.289 0-2.289zm-5.495 8.062c-.999-.995-2.597.597-1.598 1.593l2.198 2.189c.999.995 2.597-.597 1.598-1.592-.1 0-2.198-2.19-2.198-2.19zM18.682 8.161c.999.995 2.597-.597 1.598-1.592l-2.198-2.19c-.899-.995-2.597.597-1.499 1.592l2.098 2.19zm11.189 10.55c-5.694-4.976-7.892 1.194-10.59.398-1.399-1.792 1.998-3.284 3.297-3.882-4.196-7.564-14.985-4.379-16.284 3.483C3.297 18.91.4 20.701.5 24.085c0 2.886 2.298 5.175 5.195 5.175h19.781c5.395.199 8.292-6.867 4.396-10.55zM5.595 26.474c-3.097 0-3.097-4.777 0-4.777 3.097-.1 3.097 4.777 0 4.777zm18.482 4.777H2.998c-1.898 0-1.898 2.986 0 2.886h21.079c3.097-.199 4.196 4.877.699 5.076-1.199 0-2.198-.995-2.198-2.19 0-1.891-2.897-1.891-2.897 0-.1 6.569 10.29 6.569 10.19 0a5.79 5.79 0 0 0-5.794-5.772z"/></g><g fill="#4b4744"><path d="M59.342 25.379c0 .299 0 .498.1.697s.2.299.3.398.3.199.5.199.499.1.699.1c.4 0 .799 0 1.199-.1l.899-.299a4.89 4.89 0 0 0 .699-.299c.2-.099.3-.099.4-.099s.2 0 .3.099.1.199.1.398c0 .299 0 .498-.1.597l-.3.299-2.098.498c-.799-.1-1.598 0-2.498 0-.699 0-1.299 0-1.798-.1s-.799-.199-1.099-.299c-.3-.199-.5-.398-.5-.697-.1-.299-.2-.597-.2-1.095V14.133v-.398c0-.1-.1-.199-.1-.199-.1 0-.1-.1-.2-.1h-.3c-.2 0-.4 0-.599.1-.2 0-.499.099-.699.199-.3.1-.499.199-.699.299-.3.1-.499.299-.699.498s-.3.398-.499.597c-.1.199-.2.498-.2.697s0 .398.1.498.1.199.2.299a.31.31 0 0 0 .2.1h.2c.2 0 .3 0 .4-.1s.2-.099.3-.199.2-.1.3-.199.2-.099.3-.099.2 0 .3.099c.1 0 .2.099.3.199s.1.199.2.299.1.299.1.498c0 .299-.1.498-.2.697s-.2.398-.4.498l-.599.299c-.2.1-.4.1-.599.1-.3 0-.599-.1-.899-.199s-.499-.299-.699-.498-.3-.398-.4-.697-.1-.597-.1-.796c0-.498.1-.896.3-1.294a6.69 6.69 0 0 1 .699-1.095c.3-.299.599-.597.999-.796l1.299-.597c.499-.199.999-.299 1.399-.299.499-.1.999-.1 1.499-.1.599 0 .999.1 1.299.199s.5.199.699.398.2.299.3.498v.398l-.1 11.446zm5.195-2.886c0-.896.1-1.692.4-2.289.3-.697.599-1.194.999-1.692s.899-.796 1.498-.995 1.199-.299 1.798-.299 1.199.099 1.798.299 1.099.498 1.498.896.799.995.999 1.592.4 1.393.4 2.289-.1 1.692-.4 2.389-.599 1.294-.999 1.692c-.4.498-.899.796-1.498 1.095-.599.199-1.199.398-1.798.398s-1.199-.1-1.798-.299-1.099-.597-1.498-.995c-.4-.498-.799-.995-.999-1.692-.3-.796-.4-1.493-.4-2.389zm6.294-.1l-.1-1.592c0-.498-.1-.896-.2-1.294s-.3-.697-.5-.896-.5-.299-.799-.299-.599.1-.799.398c-.2.199-.4.597-.5.995s-.2.896-.2 1.393v1.592 1.592c0 .498.1.896.2 1.393.1.398.3.697.5.995.2.199.499.398.799.398s.599-.1.799-.398.4-.597.5-.995c.1-.498.2-.896.2-1.393 0-.299.1-1.891.1-1.891zm10.989-1.791c-.2 0-.4 0-.499-.1-.2-.1-.3-.199-.3-.299-.1-.1-.2-.199-.2-.398 0-.1-.1-.299-.1-.398v-.498-.498c0-.1-.1-.199-.2-.299s-.2-.1-.5-.1c-.2 0-.499.1-.799.199s-.5.299-.699.597-.4.697-.499 1.095c-.2.498-.2.995-.2 1.692a9.99 9.99 0 0 0 .2 1.891c.1.597.3 1.095.599 1.493.2.398.599.697.999.995.4.199.899.298 1.399.298.2 0 .499 0 .699-.099s.4-.099.599-.199.4-.199.499-.299l.499-.398.3.199c-.2.199-.4.398-.599.697s-.499.498-.899.697l-1.199.597c-.499.099-.999.199-1.599.199s-1.199-.099-1.698-.299c-.599-.199-1.099-.597-1.498-.995-.499-.498-.799-.995-.999-1.592-.3-.597-.4-1.294-.4-2.09 0-.597.1-1.194.2-1.692s.4-.995.599-1.393l.899-1.095c.4-.299.699-.597 1.099-.796s.799-.398 1.199-.498.799-.199 1.199-.199c.499 0 .899.099 1.299.199s.699.299.899.498.4.398.599.697c.1.299.2.498.2.796 0 .199 0 .398-.1.597 0 .199-.1.299-.2.498-.1.099-.2.199-.4.299h-.4z"/><path d="M87.415 18.015c-.2 0-.4 0-.599.1-.2 0-.3.1-.499.199-.1.1-.3.199-.3.299-.1.099-.1.199-.1.299s.1.199.2.199l.3.199c.1.1.2.1.3.199a.76.76 0 0 1 .2.498c0 .1 0 .299-.1.398s-.1.199-.2.299-.2.199-.3.199h-.599c-.4 0-.699-.1-.899-.398s-.3-.597-.3-.995.1-.796.3-1.095.499-.498.799-.697.699-.299 1.199-.398.899-.1 1.299-.1c.5 0 .999.1 1.499.199s.899.299 1.299.498.699.597.899.995.3.896.3 1.393v5.773.199.199c0 .1.1.1.1.199.1 0 .1.099.2.099s.2 0 .3-.099l.3-.299.3.199-.4.498-.5.498c-.2.199-.499.299-.699.398-.3.099-.599.199-.899.199-.4 0-.799-.1-1.099-.398s-.499-.597-.599-1.194a2.33 2.33 0 0 1-.699.697c-.2.199-.499.299-.699.498-.2.1-.499.199-.699.299-.3.1-.499.1-.799.1s-.599 0-.899-.199c-.3-.1-.599-.299-.799-.498s-.4-.498-.6-.896-.2-.796-.2-1.294c0-.597.1-1.095.4-1.493.2-.398.6-.697.999-.995s.799-.498 1.399-.697l1.598-.597c.4-.199.699-.398.899-.697s.3-.597.3-.896c0-.498-.2-.896-.4-1.195s-.999-.697-1.499-.697zm1.598 4.38c0-.199-.1-.299-.2-.398s-.2-.099-.4-.099-.499.099-.699.199-.4.299-.599.498-.3.498-.4.796c-.1.398-.1.697-.1 1.095s0 .697.1.995.1.498.2.597c.1.199.2.299.3.299.1.099.3.099.4.099.2 0 .3 0 .499-.099s.3-.199.4-.299.2-.299.3-.498.1-.299.1-.498l.1-2.687zm8.592-4.38v7.465c0 .398.1.597.2.796s.3.199.599.199c.2 0 .3 0 .5-.199.1-.1.3-.199.4-.299s.2-.299.3-.498l.3.1-.4.697c-.1.299-.3.498-.599.697-.2.199-.5.398-.899.597-.3.199-.799.199-1.299.199-.3 0-.599 0-.899-.099s-.499-.199-.699-.398-.4-.398-.499-.697-.2-.597-.2-.995v-7.465h-1.099v-.697c.2 0 .499 0 .799-.199a4.67 4.67 0 0 0 .999-.498c.3-.199.699-.498.999-.896s.499-.896.599-1.394h.799v2.986h1.698c.499 0 .799-.099.799-.299 0-.1 0-.1-.099-.1s-.1-.099-.2-.099-.2-.1-.2-.199c-.1-.199-.1-.299-.1-.398 0-.199.1-.299.2-.498.1-.1.3-.199.499-.199.1 0 .2 0 .3.099s.2.1.2.199c.1.1.1.199.1.299v.299c0 .398-.1.796-.4 1.095s-.699.398-1.199.398c.1 0-1.499 0-1.499 0z"/><path d="M104.198 26.773v.299c0 .099-.1.199-.199.398-.1.099-.3.199-.5.299s-.499.099-.899.099-.599 0-.799-.099-.4-.199-.5-.299-.2-.199-.2-.398v-.299-7.863c0-.199 0-.398-.1-.498s-.199-.199-.499-.199c-.1 0-.2 0-.3.099-.1 0-.2.099-.299.199l-.2-.299c.2-.1.299-.299.499-.398l.6-.299c.199-.099.499-.199.699-.199.3-.099.5-.099.799-.099.4 0 .799.099.999.199s.4.298.5.398.2.398.2.597v.498l.199 7.863zm-3.396-11.943c0-.199 0-.398.1-.498.099-.199.199-.299.399-.498.2-.099.3-.199.5-.299s.399-.1.699-.1c.2 0 .5 0 .599.1.2.1.4.199.5.299s.3.299.3.498c.1.199.1.398.1.498 0 .199 0 .398-.1.498-.1.199-.2.299-.3.398-.2.1-.3.199-.5.299s-.399.099-.599.099-.4 0-.699-.099c-.2-.1-.4-.199-.5-.299l-.399-.398c-.1-.1-.1-.299-.1-.498zm4.795 7.663c0-.896.1-1.692.4-2.289a6.86 6.86 0 0 1 .999-1.692c.399-.498.899-.796 1.498-.995s1.199-.299 1.798-.299a5.68 5.68 0 0 1 1.799.299c.599.199 1.099.498 1.498.896a4.33 4.33 0 0 1 .999 1.592c.2.597.4 1.393.4 2.289s-.1 1.692-.4 2.389-.599 1.294-.999 1.692c-.399.498-.899.796-1.498 1.095-.6.199-1.199.398-1.799.398a5.65 5.65 0 0 1-1.798-.299c-.6-.2-1.099-.597-1.498-.995-.4-.498-.8-.995-.999-1.692-.3-.796-.4-1.493-.4-2.389zm6.294-.099l-.1-1.593c0-.498-.1-.896-.2-1.294a1.93 1.93 0 0 0-.499-.896c-.2-.199-.5-.299-.8-.299s-.599.099-.799.398c-.2.199-.399.597-.499.995s-.2.896-.2 1.393v1.592 1.593c0 .498.1.896.2 1.393.1.398.299.697.499.995.2.199.5.398.799.398s.6-.1.8-.398.399-.597.499-.995c.1-.498.2-.896.2-1.393 0-.299.1-1.891.1-1.891zm10.49.199c0-.896 0-1.493-.1-1.991l-.3-1.194c-.1-.299-.3-.398-.4-.498s-.299-.1-.499-.1a.77.77 0 0 0-.5.199c-.1.099-.299.199-.399.398-.1.1-.2.299-.3.398s-.1.199-.2.299v6.768.299c0 .099-.1.299-.2.398s-.299.199-.499.299-.5.099-.799.099-.6 0-.8-.099-.399-.199-.499-.299-.2-.199-.2-.398v-.299-7.962c0-.199 0-.398-.1-.498-.1-.199-.2-.199-.499-.199-.1 0-.2 0-.3.099-.1 0-.2.099-.3.199l-.2-.299c.2-.1.3-.299.5-.398l.599-.299c.2-.099.5-.199.7-.199.299-.099.499-.099.799-.099.4 0 .799.099.999.199.2.199.4.298.499.498s.2.398.2.597v.597c.3-.398.5-.697.899-.995.1-.1.3-.199.4-.398.2-.099.3-.199.5-.298s.399-.199.599-.199c.2-.099.4-.099.599-.099.5 0 .899.099 1.199.299s.699.498.899.896.4.995.6 1.592c.1.697.199 1.493.199 2.488s-.099 1.791-.299 2.588a8.32 8.32 0 0 1-.7 1.891 3.03 3.03 0 0 1-.999 1.194c-.4.298-.699.597-1.098.796a4.86 4.86 0 0 1-1.099.398c-.3.099-.6.099-.9.099l-.099-.398c.199 0 .399-.099.599-.199s.3-.299.5-.498c.099-.199.299-.498.399-.796s.2-.697.3-1.095c.1-.498.1-1.095.2-1.592l.1-2.19zm18.681 1.493l.5-1.294.499-1.393.5-1.493.399-1.493-.999-3.185a.63.63 0 0 1 0-.597.78.78 0 0 1 .4-.398l.599-.299c.2-.1.5-.1.7-.1h.599c.2 0 .3.1.5.1s.199.199.299.299.2.299.2.398l2.897 9.356.5-1.393.499-1.493.5-1.592.399-1.592.3-1.493c.1-.498.1-.896.1-1.294s0-.796-.1-1.095-.1-.498-.2-.796l-.2-.498c-.099-.1-.099-.199-.099-.398 0-.1 0-.299.099-.398l.3-.299c.1-.1.2-.1.4-.199h.399c.3 0 .5 0 .7.1s.299.199.399.398c0 .1.1.199.1.299v.299.299.199c0 .299 0 .697-.1 1.194l-.399 1.692-.5 1.99-.599 2.19-.7 2.09-.599 1.891-.499 1.592-.3.995c0 .1-.1.299-.2.398s-.2.199-.3.199-.299.1-.399.1h-.4c-.3 0-.499 0-.699-.1s-.3-.099-.4-.199-.2-.199-.2-.299l-.099-.299-1.999-6.668-.699 2.19-.699 1.991-.6 1.592-.399.995c-.1.199-.2.299-.2.398-.1.1-.2.199-.3.199s-.299.099-.399.099h-.4c-.3 0-.499 0-.699-.099s-.3-.099-.4-.199-.2-.199-.2-.299l-.1-.299-3.996-11.445c-.1-.199-.1-.398-.199-.597a1.35 1.35 0 0 0-.3-.398c-.1-.099-.3-.199-.4-.199-.2 0-.399-.1-.599-.1s-.4 0-.699.1-.5.199-.7.398-.399.398-.599.697-.2.597-.2.896c0 .199 0 .398.1.498s.1.199.2.299a.31.31 0 0 0 .2.1h.199c.2 0 .3 0 .4-.1s.2-.099.3-.199.199-.1.199-.199c.1-.099.2-.099.3-.099s.2 0 .3.099c.1 0 .2.099.3.199s.099.199.199.299.1.299.1.498c0 .299-.1.498-.2.697s-.199.398-.399.498l-.6.299c-.199.099-.399.099-.599.099-.3 0-.599-.099-.899-.199s-.5-.299-.6-.498c-.199-.199-.299-.398-.399-.697s-.1-.597-.1-.796c0-.697.1-1.294.4-1.891.299-.498.599-.995 1.099-1.294.499-.398.999-.597 1.498-.796s1.199-.299 1.798-.299c.7 0 1.199.1 1.699.299a4.45 4.45 0 0 1 1.099.796 2.38 2.38 0 0 1 .599 1.095l.4 1.194 2.397 8.46zm13.986-1.095c0 .199 0 .498.1.697l.3.796c.1.299.3.498.5.697l.599.597c.2.199.5.299.799.398s.6.199.899.199c.2 0 .5 0 .7-.099s.399-.1.599-.199.3-.199.5-.299l.499-.398.3.199c-.2.199-.4.398-.6.697s-.499.498-.899.697c-.299.199-.799.398-1.199.597-.499.099-.999.199-1.598.199s-1.199-.1-1.698-.299c-.6-.199-1.099-.498-1.499-.995s-.799-.995-.999-1.593c-.3-.597-.399-1.393-.399-2.19 0-.597.099-1.194.199-1.692s.4-.995.6-1.394l.899-1.095a4.42 4.42 0 0 1 1.099-.796c.4-.199.799-.398 1.199-.498s.799-.199 1.198-.199c.5 0 .9.1 1.299.199.3.099.6.199.899.398l.6.597a1.87 1.87 0 0 1 .2.796c0 .298-.1.597-.3.896a2.33 2.33 0 0 1-.7.697l-4.096 2.389zm2.098-2.09c.1 0 .2-.099.2-.199.1-.099.1-.099.1-.199s.1-.199.1-.299v-.398c0-.199 0-.398-.1-.597 0-.199-.1-.398-.2-.597s-.199-.299-.299-.498c-.1-.1-.3-.199-.5-.199s-.499.1-.599.199c-.2.199-.3.299-.4.597l-.3.796c-.1.299-.099.597-.199.896l-.1.896v.697l2.297-1.095z"/><path d="M164.539 18.014c-.2 0-.399 0-.599.1-.2 0-.3.099-.5.199-.1.1-.299.199-.299.299s-.1.199-.1.299 0 .199.199.199l.3.199c.1.1.2.1.3.199a.76.76 0 0 1 .2.498c0 .099 0 .299-.1.398s-.1.199-.2.299-.2.199-.3.199-.299.1-.399.1c-.4 0-.7-.1-.899-.398a1.68 1.68 0 0 1-.3-.995c0-.398.1-.796.3-1.095s.499-.498.799-.697.699-.299 1.199-.398.899-.1 1.298-.1c.5 0 .999.1 1.499.199s.899.299 1.299.498.699.597.899.995.299.896.299 1.393v5.773.199.199c0 .1.1.1.1.199.1 0 .1.099.2.099s.2 0 .3-.099l.299-.299.3.199-.399.498-.5.498c-.2.199-.499.299-.699.398-.3.099-.6.199-.899.199-.4 0-.8-.1-1.099-.398s-.5-.597-.6-1.194a2.32 2.32 0 0 1-.699.697c-.2.199-.5.299-.699.498-.2.099-.5.199-.7.299-.299.1-.499.1-.799.1s-.599 0-.899-.199c-.3-.1-.599-.299-.799-.498s-.4-.498-.6-.896c-.099-.299-.199-.796-.199-1.294 0-.597.1-1.095.399-1.493.2-.398.6-.697.999-.995s.799-.498 1.399-.697l1.598-.597c.4-.199.7-.398.899-.697s.3-.597.3-.896c0-.498-.2-.896-.399-1.194-.8-.697-1.199-.796-1.699-.796zm1.599 4.379c0-.199-.1-.299-.2-.398s-.2-.099-.4-.099-.499.099-.699.199-.4.299-.6.498-.299.498-.399.796c-.1.398-.1.697-.1 1.095s0 .697.1.995.1.498.2.597c.1.199.199.299.299.299.1.099.3.099.4.099.2 0 .3 0 .499-.099s.3-.199.4-.299.2-.299.3-.498.1-.299.1-.498c.1-.199.1-2.687.1-2.687zm8.591-4.379v7.464c0 .398.1.597.2.796s.3.199.599.199c.2 0 .3 0 .5-.199.1-.1.3-.199.4-.299s.199-.299.299-.498l.3.1-.4.697c-.1.299-.299.498-.599.697-.2.199-.5.398-.899.597-.3.199-.799.199-1.299.199-.3 0-.599 0-.899-.1s-.5-.199-.699-.398-.4-.398-.5-.697-.2-.597-.2-.995v-7.464h-1.099v-.697c.2 0 .5 0 .8-.199.299-.099.699-.299.999-.498s.699-.498.999-.896.499-.896.599-1.393h.799v2.986h1.699c.499 0 .799-.1.799-.299 0-.1 0-.1-.1-.1s-.1-.099-.2-.099-.2-.099-.2-.199c-.1-.1-.1-.199-.1-.299 0-.199.1-.299.2-.498.1-.1.3-.199.5-.199.1 0 .2 0 .299.1.1 0 .2.1.2.199s.1.199.1.298v.299c0 .398-.1.796-.399 1.095s-.7.398-1.199.398l-1.499-.1zm6.294 1.095c.3-.398.5-.697.899-.995.1-.1.3-.199.4-.398.2-.099.299-.199.499-.299s.4-.199.6-.199c.199-.099.399-.099.599-.099.5 0 .899.099 1.199.299s.699.498.899.896.4.995.599 1.592a16.7 16.7 0 0 1 .2 2.488 10.28 10.28 0 0 1-.299 2.588c-.2.697-.4 1.294-.7 1.891s-.599.896-.999 1.194-.699.597-1.099.796a4.86 4.86 0 0 1-1.099.398c-.299.1-.599.1-.899.1l-.1-.398c.3-.1.6-.199.8-.398s.399-.498.599-.995.3-1.095.4-1.891.099-1.792.099-2.986l-.099-1.991-.3-1.194c-.1-.299-.3-.398-.4-.498s-.299-.099-.499-.099-.4.099-.5.199-.299.199-.399.398c-.1.099-.2.299-.3.398s-.1.199-.2.299v6.768.299c0 .1-.1.299-.2.398s-.299.199-.499.299-.5.1-.799.1-.6 0-.9-.1-.399-.199-.499-.299-.2-.199-.2-.398v-.299-13.336c0-.199 0-.398-.1-.498-.1-.199-.2-.199-.499-.199-.1 0-.2 0-.3.1-.1 0-.2.099-.3.199l-.199-.199c.199-.1.299-.299.499-.398l.599-.299c.2-.1.5-.199.7-.199.299-.1.499-.1.799-.1.4 0 .799.1.999.199s.4.299.5.398c.099.199.199.398.199.498v.498l.3 5.474zm10.09 3.882c0 .199 0 .498.1.697s.2.498.3.796.299.498.499.697l.6.597c.199.199.499.299.799.398s.599.199.899.199c.2 0 .5 0 .699-.099s.4-.1.6-.199.299-.199.499-.299l.5-.398.299.199c-.199.199-.399.398-.599.697s-.499.498-.899.697c-.3.199-.799.398-1.199.597-.499.099-.999.199-1.598.199s-1.199-.1-1.699-.299c-.599-.199-1.099-.498-1.498-.995s-.799-.995-.999-1.593c-.3-.597-.4-1.393-.4-2.19 0-.597.1-1.194.2-1.692s.4-.995.599-1.394l.9-1.095c.299-.299.699-.597 1.098-.796s.8-.398 1.199-.498.799-.199 1.199-.199c.5 0 .899.1 1.299.199.3.099.599.199.899.398l.599.597a1.87 1.87 0 0 1 .2.796c0 .298-.1.597-.3.896a2.32 2.32 0 0 1-.699.697l-4.096 2.389zm1.998-2.09c.1 0 .2-.099.2-.199.1-.099.1-.099.1-.199s.1-.199.1-.299v-.398c0-.199 0-.398-.1-.597 0-.199-.1-.398-.2-.597s-.2-.299-.3-.498a.76.76 0 0 0-.499-.199c-.2 0-.5.1-.6.199-.199.199-.299.299-.399.597-.1.199-.2.498-.3.796s-.1.597-.2.896l-.1.896v.697l2.298-1.095z"/><path d="M200.804 19.308c.299-.398.499-.796.799-1.095l.399-.398c.1-.1.3-.199.4-.299s.3-.199.5-.199c.199-.1.299-.1.499-.1.3 0 .6.1.799.299s.3.498.3.896c0 .199 0 .398-.1.697 0 .199-.1.498-.2.796h-.299c0-.199-.1-.398-.3-.498s-.4-.199-.6-.199-.399 0-.599.1l-.599.299c-.2.099-.4.199-.5.398l-.499.398v6.57.299c0 .1-.1.199-.2.299s-.3.199-.5.299-.499.099-.799.099c-.399 0-.599 0-.799-.099s-.4-.199-.5-.299-.199-.199-.199-.398v-.299-7.963c0-.199 0-.398-.1-.498-.1-.199-.2-.199-.5-.199-.1 0-.2 0-.3.1s-.199.1-.299.199l-.2-.299c.2-.099.3-.299.499-.398l.6-.299c.2-.099.499-.199.699-.199.3-.1.5-.1.799-.1s.5 0 .8.1c.199.1.399.199.499.299s.2.299.3.398.1.299.2.498c0 .199.1.299.1.498l-.1.299z"/></g></g><defs><clipPath id="A"><path fill="#fff" transform="translate(.5)" d="M0 0h204v42H0z"/></clipPath></defs></svg>