<svg width="136" height="136" viewBox="0 0 136 136" fill="none" xmlns="http://www.w3.org/2000/svg">
<path d="M111.79 48.7204C112.44 25.4884 80.2679 15.1627 66.9449 33.8786C72.146 37.7495 76.0427 41.9447 78.6448 47.7543C90.3414 46.7849 101.716 53.5607 106.267 64.2105C109.841 59.6945 111.79 54.209 111.79 48.7236V48.7204ZM87.092 17.0982C92.9403 17.0982 90.0162 6.77248 90.6667 3.54672C90.6699 1.6145 89.0436 0 87.0953 0C81.2469 0 84.1711 10.3257 83.5206 13.5515C83.1953 15.4869 85.1437 17.1014 87.0953 17.1014L87.092 17.0982ZM114.714 26.4545L121.538 19.3546C124.787 16.1288 119.589 10.9644 116.337 14.1934L109.187 21.2933C106.263 24.5191 111.464 29.6835 114.714 26.4545ZM132.587 45.1704H122.514C117.641 45.1704 117.641 52.5913 122.514 52.5913H132.587C137.138 52.5913 137.138 45.1704 132.587 45.1704ZM114.714 71.3072C111.464 68.0815 106.267 73.2427 109.516 76.4717L116.665 83.5684C119.915 86.7941 125.113 81.6329 121.863 78.4071C121.538 78.4071 114.714 71.3072 114.714 71.3072ZM59.1483 26.4578C62.3977 29.6835 67.5955 24.5223 64.3461 21.2965L57.1967 14.1966C54.2725 10.9708 48.7495 16.1321 52.3209 19.3578L59.1483 26.4578ZM95.5424 60.6606C77.0217 44.5285 69.8724 64.5315 61.0966 61.9509C56.5461 56.1413 67.5955 51.3042 71.8207 49.3655C58.1725 24.8432 23.0794 35.1689 18.8542 60.6573C9.10591 61.3057 -0.317083 67.1121 0.00818412 78.0829C0.00818412 87.4393 7.48283 94.8602 16.9058 94.8602H81.2469C98.7951 95.5053 108.218 72.5975 95.5457 60.6573L95.5424 60.6606ZM16.5806 85.828C6.50703 85.828 6.50703 70.3411 16.5806 70.3411C26.6541 70.0169 26.6541 85.828 16.5806 85.828ZM76.6965 101.315H8.13336C1.95979 101.315 1.95979 110.995 8.13336 110.671H76.6965C86.77 110.026 90.3447 126.482 78.9701 127.128C75.0701 127.128 71.8207 123.902 71.8207 120.028C71.8207 113.897 62.3977 113.897 62.3977 120.028C62.0724 141.324 95.8677 141.324 95.5424 120.028C95.5269 115.057 93.5341 110.296 90.0011 106.788C86.4681 103.28 81.6834 101.311 76.6965 101.315Z" fill="#FAC49E"/>
</svg>
