<svg xmlns="http://www.w3.org/2000/svg" width="20" height="20" fill="none"><g clip-path="url(#A)" fill="#a7aaad"><path d="M15.988 7.283c0-.951-.388-1.804-1.009-2.405-.621-.621-1.474-1.009-2.405-1.009-.64 0-1.242.175-1.765.485a3.78 3.78 0 0 0-.97.873l.019.019c.291.213.543.427.757.66a4.56 4.56 0 0 1 .853 1.242c.097 0 .213-.019.31-.019 1.047 0 1.979.427 2.677 1.106l.233.252c.233.271.427.601.563.931a3.6 3.6 0 0 0 .485-.834c.174-.407.252-.853.252-1.299zm-3.395-4.365c.271 0 .504-.233.504-.504V1.037c0-.271-.233-.504-.504-.504s-.504.233-.504.504v1.377c0 .271.233.504.504.504zm3.803 1.28l.97-.97a.494.494 0 1 0-.698-.698l-.97.97a.494.494 0 1 0 .698.698zm2.463 2.6h-1.377c-.271 0-.504.233-.504.504s.233.504.504.504h1.377c.271 0 .504-.233.504-.504-.019-.272-.233-.504-.504-.504zm-2.463 3.608a.494.494 0 1 0-.698.698l.97.97a.494.494 0 1 0 .698-.698l-.97-.97zM8.772 4.198A.494.494 0 1 0 9.47 3.5l-.97-.97c-.175-.214-.504-.214-.698 0a.49.49 0 0 0 0 .698l.97.97zm4.985 4.753c-.505-.504-1.202-.815-1.959-.815-.407 0-.795.077-1.144.252a2.51 2.51 0 0 0-.931.698c-.174.213-.504.233-.698.039-.213-.175-.233-.505-.039-.698a3.76 3.76 0 0 1 1.28-.931 1.21 1.21 0 0 1 .233-.097c-.31-.543-.698-.989-1.183-1.299-.621-.427-1.358-.679-2.153-.679-.931 0-1.784.349-2.463.912-.66.563-1.125 1.377-1.261 2.289-.019.155-.097.272-.213.349-.078.058-.175.077-.272.077-.64 0-1.222.252-1.649.679s-.679 1.009-.679 1.649.252 1.222.679 1.649 1.009.679 1.649.679h8.826c.776-.019 1.474-.33 1.979-.834a2.77 2.77 0 0 0 .815-1.959 2.74 2.74 0 0 0-.815-1.959zM2.893 12.403a1.071 1.071 0 1 1 0-2.142 1.071 1.071 0 1 1 0 2.142zm8.282 2.16h-9.45c-.36 0-.651.294-.651.654s.292.653.651.653h9.449a1.3 1.3 0 0 1 1.3 1.298.981.981 0 1 1-1.961-.001.651.651 0 1 0-1.303 0c0 1.259 1.024 2.283 2.283 2.283s2.284-1.023 2.284-2.282c0-1.436-1.167-2.604-2.603-2.604z"/></g><defs><clipPath id="A"><path fill="#fff" d="M0 0h20v20H0z"/></clipPath></defs></svg>