<svg width="300" height="60" viewBox="0 0 300 60" fill="none" xmlns="http://www.w3.org/2000/svg">
<path d="M14.3935 0H59.9729V45.5794C59.9729 53.5288 53.5288 59.9729 45.5794 59.9729H0V14.3935C0 6.44409 6.44409 0 14.3935 0Z" fill="white"/>
<path d="M30.1138 11.3438C25.8832 15.7778 23.1811 22.4563 23.1482 29.9413C23.1158 37.4263 25.7591 44.1586 29.9513 48.6288C28.7359 41.862 29.8332 34.4615 33.4211 28.4994C34.3324 26.985 35.3573 25.642 36.4678 24.4778C35.5227 19.2518 33.2505 14.6826 30.1138 11.3438Z" fill="#22A05B"/>
<path d="M11.2988 18.8354C10.0535 25.5962 11.0954 32.9712 14.6573 38.949C18.2188 44.9269 23.3364 48.2772 28.8187 48.627C24.6069 44.1746 22.1649 37.4543 22.1649 29.9688C22.1649 28.054 22.338 26.204 22.6686 24.417C19.4129 20.9903 15.3938 19.0917 11.2988 18.8354ZM48.7323 19.0115C34.2984 21.6373 28.8776 36.2908 30.969 48.6278C45.4886 46.0016 50.8506 31.4261 48.7323 19.0115Z" fill="#22A05B"/>
<path d="M81.0558 15.6749V28.6595H85.7905V15.6749H90.9078V11.9206H75.9146V15.6749H81.0558ZM100.724 15.926C99.9826 16.2209 99.3808 16.6633 98.9185 17.2531V15.6988H94.5903V28.6595H99.1337V22.7052C99.1337 21.6212 99.4087 20.8161 99.9587 20.2901C100.509 19.764 101.27 19.5009 102.242 19.5009C102.513 19.5009 102.856 19.5248 103.271 19.5727V15.4836C102.314 15.4836 101.465 15.6311 100.724 15.926ZM117.881 16.9542C116.749 15.9738 115.107 15.4836 112.955 15.4836C111.919 15.4836 110.887 15.6151 109.859 15.8782C108.83 16.1412 107.957 16.5119 107.24 16.9901L108.771 20.0748C109.217 19.7241 109.759 19.4491 110.397 19.2499C111.034 19.0506 111.664 18.9509 112.286 18.9509C114.039 18.9509 114.956 19.6364 115.036 21.0074H112.453C110.492 21.0074 109.042 21.3462 108.101 22.0237C107.16 22.7012 106.69 23.6538 106.69 24.8813C106.69 25.6465 106.877 26.328 107.252 26.9258C107.627 27.5236 108.181 27.9979 108.914 28.3486C109.647 28.6993 110.516 28.8747 111.52 28.8747C113.418 28.8747 114.693 28.245 115.346 26.9856V28.6595H119.579V21.4618C119.579 19.4372 119.013 17.9347 117.881 16.9542ZM114.175 25.6226C113.776 25.8776 113.314 26.0052 112.788 26.0052C112.262 26.0052 111.847 25.8856 111.544 25.6465C111.241 25.4074 111.09 25.0885 111.09 24.69C111.09 23.8132 111.752 23.3748 113.075 23.3748H115.036V24.4987C114.86 24.9929 114.573 25.3675 114.175 25.6226ZM111.7 33.3703C112.059 33.705 112.509 33.8724 113.051 33.8724C113.593 33.8724 114.043 33.705 114.402 33.3703C114.761 33.0355 114.94 32.5891 114.94 32.0312C114.94 31.4732 114.761 31.0189 114.402 30.6681C114.043 30.3174 113.593 30.1421 113.051 30.1421C112.509 30.1421 112.059 30.3174 111.7 30.6681C111.341 31.0189 111.162 31.4732 111.162 32.0312C111.162 32.5891 111.341 33.0355 111.7 33.3703ZM145.536 16.9184C144.588 15.9619 143.316 15.4836 141.722 15.4836C140.798 15.4836 139.945 15.659 139.163 16.0097C138.382 16.3604 137.737 16.8626 137.227 17.5162C136.78 16.8307 136.198 16.3206 135.481 15.9858C134.764 15.651 133.951 15.4836 133.042 15.4836C132.261 15.4836 131.539 15.6151 130.878 15.8782C130.216 16.1412 129.646 16.5358 129.168 17.0618V15.6988H124.84V28.6595H129.383V22.227C129.383 21.2545 129.59 20.5292 130.005 20.0509C130.419 19.5727 130.977 19.3335 131.679 19.3335C132.986 19.3335 133.64 20.2183 133.64 21.9878V28.6595H138.183V22.227C138.183 21.2545 138.39 20.5292 138.805 20.0509C139.219 19.5727 139.769 19.3335 140.455 19.3335C141.076 19.3335 141.559 19.5488 141.901 19.9792C142.244 20.4096 142.416 21.0792 142.416 21.9878V28.6595H146.959V21.2466C146.959 19.3176 146.485 17.8749 145.536 16.9184ZM167.452 24.1161L171.087 28.6595H176.587L170.752 21.2466L176.132 15.6988H170.752L166.113 20.2183V10.9163H161.57V28.6595H166.113V25.4791L167.452 24.1161ZM180.317 15.6988V28.6595H184.861V15.6988H180.317ZM180.58 13.5706C181.09 14.0329 181.76 14.2641 182.589 14.2641C183.418 14.2641 184.087 14.0289 184.597 13.5586C185.108 13.0884 185.363 12.4945 185.363 11.7772C185.363 11.0917 185.108 10.5297 184.597 10.0913C184.087 9.65291 183.418 9.43371 182.589 9.43371C181.76 9.43371 181.09 9.66487 180.58 10.1272C180.07 10.5895 179.815 11.1634 179.815 11.8489C179.815 12.5344 180.07 13.1083 180.58 13.5706ZM203.369 23.327C203.417 22.6096 203.441 22.2349 203.441 22.2031C203.441 20.8161 203.134 19.6165 202.52 18.6042C201.906 17.5919 201.073 16.8187 200.021 16.2847C198.969 15.7506 197.797 15.4836 196.506 15.4836C195.151 15.4836 193.931 15.7706 192.847 16.3445C191.763 16.9184 190.914 17.7115 190.301 18.7238C189.687 19.7361 189.38 20.8799 189.38 22.1552C189.38 23.4465 189.695 24.6023 190.325 25.6226C190.954 26.6428 191.843 27.4399 192.991 28.0138C194.139 28.5877 195.47 28.8747 196.984 28.8747C199.407 28.8747 201.249 28.1733 202.508 26.7704L200.117 24.2835C199.654 24.682 199.196 24.969 198.742 25.1443C198.287 25.3197 197.749 25.4074 197.128 25.4074C196.299 25.4074 195.609 25.228 195.059 24.8693C194.509 24.5106 194.139 23.9965 193.947 23.327H203.369ZM194.772 19.3096C195.243 18.9111 195.828 18.7118 196.53 18.7118C197.231 18.7118 197.817 18.9111 198.287 19.3096C198.758 19.7082 199.057 20.2502 199.184 20.9357H193.876C194.003 20.2502 194.302 19.7082 194.772 19.3096ZM198.443 14.1445H201.48L198.347 11.2272H194.473L191.341 14.1445H194.378L196.41 12.7337L198.443 14.1445ZM202.102 8.76416L199.567 11.7532H202.699L206.549 8.76416H202.102ZM220.263 16.9184C219.283 15.9619 217.988 15.4836 216.377 15.4836C215.548 15.4836 214.783 15.6231 214.082 15.9021C213.38 16.1811 212.775 16.5836 212.264 17.1097V15.6988H207.936V28.6595H212.48V22.3944C212.48 21.3741 212.715 20.6089 213.185 20.0988C213.655 19.5886 214.281 19.3335 215.062 19.3335C216.481 19.3335 217.19 20.2183 217.19 21.9878V28.6595H221.734V21.2466C221.734 19.3176 221.244 17.8749 220.263 16.9184ZM245.264 28.1334L244.14 24.953C243.741 25.224 243.279 25.3595 242.753 25.3595C242.339 25.3595 242.008 25.228 241.761 24.965C241.514 24.7019 241.39 24.3393 241.39 23.8769V19.5727H244.355V16.1771H241.39V12.8054H236.847V16.1771H234.958V19.5727H236.847V23.9248C236.847 25.5668 237.301 26.8023 238.21 27.6312C239.118 28.4602 240.418 28.8747 242.107 28.8747C242.729 28.8747 243.315 28.8109 243.865 28.6834C244.415 28.5559 244.881 28.3725 245.264 28.1334ZM261.728 16.9184C260.747 15.9619 259.452 15.4836 257.842 15.4836C257.077 15.4836 256.359 15.6032 255.69 15.8423C255.02 16.0814 254.438 16.4321 253.944 16.8945V10.9163H249.401V28.6595H253.944V22.3944C253.944 21.3741 254.179 20.6089 254.65 20.0988C255.12 19.5886 255.746 19.3335 256.527 19.3335C257.946 19.3335 258.655 20.2183 258.655 21.9878V28.6595H263.198V21.2466C263.198 19.3176 262.708 17.8749 261.728 16.9184ZM282.065 15.6988H277.522V21.94C277.522 22.9762 277.295 23.7454 276.84 24.2476C276.386 24.7498 275.8 25.0008 275.083 25.0008C274.381 25.0008 273.847 24.7777 273.481 24.3313C273.114 23.8849 272.931 23.1755 272.931 22.2031V15.6988H268.387V22.9444C268.387 24.9211 268.886 26.4037 269.882 27.3921C270.878 28.3805 272.213 28.8747 273.887 28.8747C274.637 28.8747 275.346 28.7392 276.016 28.4682C276.685 28.1972 277.259 27.7986 277.737 27.2725V28.6595H282.065V15.6988ZM279.148 15.6988V18.5683H279.794C281.213 18.5683 282.32 18.2017 283.118 17.4684C283.915 16.735 284.313 15.7068 284.313 14.3836C284.313 13.3952 284.034 12.5583 283.476 11.8728L280.846 12.8054C280.989 12.9808 281.105 13.192 281.193 13.4391C281.28 13.6862 281.324 13.9373 281.324 14.1923C281.324 14.6228 281.193 14.9814 280.93 15.2684C280.667 15.5553 280.344 15.6988 279.961 15.6988H279.148ZM276.087 10.5098L272.883 14.1445H276.135L280.631 10.5098H276.087ZM290.076 28.0138C291.208 28.5877 292.491 28.8747 293.926 28.8747C295.393 28.8747 296.66 28.5598 297.728 27.9301C298.796 27.3004 299.554 26.4276 300 25.3117L296.485 23.5183C295.895 24.682 295.034 25.2639 293.902 25.2639C293.089 25.2639 292.416 24.9889 291.882 24.4389C291.348 23.8889 291.08 23.1277 291.08 22.1552C291.08 21.1987 291.348 20.4495 291.882 19.9074C292.416 19.3654 293.089 19.0944 293.902 19.0944C295.034 19.0944 295.895 19.6763 296.485 20.84L300 19.0466C299.554 17.9307 298.796 17.0579 297.728 16.4282C296.66 15.7985 295.393 15.4836 293.926 15.4836C292.491 15.4836 291.208 15.7666 290.076 16.3325C288.944 16.8984 288.063 17.6876 287.434 18.6999C286.804 19.7122 286.489 20.864 286.489 22.1552C286.489 23.4465 286.804 24.6023 287.434 25.6226C288.063 26.6428 288.944 27.4399 290.076 28.0138Z" fill="white"/>
<path d="M82.0641 49.2682H83.2398L83.2318 42.5727H82.2076L79.5971 47.0125L76.9348 42.5727H75.9146V49.2682H77.0982V44.8882L79.2982 48.503H79.8522L82.0521 44.8285L82.0641 49.2682ZM89.7361 45.6256C89.5886 45.2908 89.3814 45.0078 89.1143 44.7727C89.3535 44.6651 89.5448 44.5096 89.6763 44.3024C89.8118 44.0991 89.8795 43.856 89.8795 43.577C89.8795 43.2502 89.7799 42.9513 89.5806 42.6763L88.8553 42.9473C88.9868 43.1386 89.0545 43.3339 89.0545 43.5372C89.0545 43.7245 88.9987 43.8759 88.8832 43.9915C88.7676 44.1111 88.6042 44.1709 88.385 44.1709C88.3013 44.1709 88.2136 44.1669 88.114 44.1589C88.0143 44.1549 87.9386 44.147 87.8868 44.143C87.6477 44.1151 87.4325 44.1031 87.2491 44.1031C86.7231 44.1031 86.2568 44.2147 85.8423 44.4379C85.4278 44.6611 85.101 44.9719 84.8659 45.3665C84.6307 45.7611 84.5111 46.2114 84.5111 46.7136C84.5111 47.2197 84.6267 47.6701 84.8619 48.0686C85.093 48.4672 85.4158 48.778 85.8303 49.0012C86.2448 49.2244 86.7111 49.336 87.2292 49.336C87.7513 49.336 88.2216 49.2244 88.6361 49.0012C89.0506 48.778 89.3734 48.4672 89.6045 48.0686C89.8397 47.6701 89.9553 47.2197 89.9553 46.7136C89.9553 46.319 89.8795 45.9563 89.7361 45.6256ZM88.3172 47.8733C88.0303 48.1643 87.6676 48.3117 87.2292 48.3117C86.7868 48.3117 86.4281 48.1643 86.1412 47.8733C85.8582 47.5784 85.7187 47.1918 85.7187 46.7136C85.7187 46.2353 85.8582 45.8487 86.1412 45.5578C86.4281 45.2629 86.7868 45.1154 87.2292 45.1154C87.6676 45.1154 88.0303 45.2629 88.3172 45.5578C88.6042 45.8487 88.7477 46.2353 88.7477 46.7136C88.7477 47.1918 88.6042 47.5784 88.3172 47.8733ZM87.0738 43.1187L87.4683 43.5571C88.0143 43.302 88.2893 42.9155 88.2893 42.4013C88.2893 42.1144 88.1897 41.8832 87.9944 41.7079C87.7951 41.5325 87.5441 41.4448 87.2372 41.4448C87.0578 41.4448 86.8865 41.4687 86.7231 41.5205C86.5557 41.5724 86.4082 41.6441 86.2807 41.7397L86.5397 42.2658C86.7231 42.1463 86.9144 42.0865 87.1136 42.0865C87.2531 42.0865 87.3687 42.1263 87.4564 42.206C87.5481 42.2858 87.5919 42.3854 87.5919 42.505C87.5919 42.6325 87.552 42.7481 87.4723 42.8437C87.3926 42.9433 87.2611 43.035 87.0738 43.1187ZM96.6986 44.1031C95.8298 44.1031 95.224 44.3701 94.8813 44.9082V44.1589H93.7414V49.2682H94.9371V46.7893C94.9371 46.2792 95.0686 45.8886 95.3316 45.6176C95.5907 45.3466 95.9533 45.2111 96.4196 45.2111C96.5033 45.2111 96.595 45.223 96.6986 45.2429V44.1031ZM98.5638 49.0012C98.9783 49.2244 99.4446 49.336 99.9587 49.336C100.481 49.336 100.951 49.2244 101.366 49.0012C101.78 48.778 102.103 48.4672 102.338 48.0686C102.569 47.6701 102.685 47.2197 102.685 46.7136C102.685 46.2114 102.569 45.7611 102.338 45.3665C102.103 44.9719 101.78 44.6611 101.366 44.4379C100.951 44.2147 100.481 44.1031 99.9587 44.1031C99.4446 44.1031 98.9783 44.2147 98.5638 44.4379C98.1493 44.6611 97.8265 44.9719 97.5914 45.3665C97.3602 45.7611 97.2446 46.2114 97.2446 46.7136C97.2446 47.2197 97.3602 47.6701 97.5914 48.0686C97.8265 48.4672 98.1493 48.778 98.5638 49.0012ZM101.051 47.8733C100.764 48.1643 100.401 48.3117 99.9587 48.3117C99.5203 48.3117 99.1576 48.1643 98.8747 47.8733C98.5917 47.5784 98.4482 47.1918 98.4482 46.7136C98.4482 46.2353 98.5917 45.8487 98.8747 45.5578C99.1576 45.2629 99.5203 45.1154 99.9587 45.1154C100.401 45.1154 100.764 45.2629 101.051 45.5578C101.338 45.8487 101.481 46.2353 101.481 46.7136C101.481 47.1918 101.338 47.5784 101.051 47.8733ZM99.5402 51.0577C99.6478 51.1573 99.7834 51.2092 99.9507 51.2092C100.114 51.2092 100.254 51.1573 100.361 51.0577C100.469 50.9541 100.525 50.8186 100.525 50.6472C100.525 50.4798 100.469 50.3403 100.361 50.2287C100.254 50.1171 100.114 50.0613 99.9507 50.0613C99.7834 50.0613 99.6478 50.1171 99.5402 50.2287C99.4286 50.3403 99.3768 50.4798 99.3768 50.6472C99.3768 50.8186 99.4286 50.9541 99.5402 51.0577ZM100.792 43.4615H101.776L100.497 42.1502H99.4047L98.1214 43.4615H99.1098L99.9507 42.756L100.792 43.4615ZM108.28 44.669C107.894 44.2904 107.376 44.1031 106.73 44.1031C106.355 44.1031 106.017 44.1629 105.718 44.2864C105.419 44.406 105.168 44.5854 104.972 44.8205V44.1589H103.833V49.2682H105.028V46.6857C105.028 46.1875 105.156 45.8089 105.411 45.5419C105.666 45.2788 106.013 45.1473 106.455 45.1473C106.842 45.1473 107.144 45.2589 107.352 45.4861C107.563 45.7132 107.671 46.048 107.671 46.4944V49.2682H108.866V46.3429C108.866 45.6016 108.671 45.0437 108.28 44.669ZM115.502 44.1589H114.366V44.8404C114.159 44.5893 113.908 44.406 113.605 44.2864C113.302 44.1629 112.963 44.1031 112.597 44.1031C112.11 44.1031 111.672 44.2067 111.281 44.41C110.887 44.6132 110.58 44.9002 110.353 45.2748C110.126 45.6495 110.014 46.0759 110.014 46.5621C110.014 47.0444 110.126 47.4748 110.353 47.8534C110.58 48.228 110.887 48.519 111.281 48.7262C111.672 48.9335 112.11 49.0371 112.597 49.0371C112.947 49.0371 113.266 48.9813 113.561 48.8657C113.856 48.7501 114.103 48.5827 114.306 48.3596V48.6266C114.306 49.1487 114.175 49.5393 113.916 49.7943C113.653 50.0494 113.242 50.1769 112.68 50.1769C112.33 50.1769 111.983 50.1211 111.644 50.0095C111.301 49.8979 111.018 49.7505 110.795 49.5632L110.261 50.4639C110.548 50.699 110.911 50.8784 111.353 51.0059C111.791 51.1294 112.258 51.1892 112.748 51.1892C114.585 51.1892 115.502 50.2925 115.502 48.4951V44.1589ZM113.892 47.6183C113.601 47.8893 113.23 48.0248 112.776 48.0248C112.318 48.0248 111.943 47.8893 111.652 47.6183C111.361 47.3473 111.218 46.9965 111.218 46.5621C111.218 46.1357 111.361 45.785 111.652 45.5179C111.943 45.2509 112.318 45.1154 112.776 45.1154C113.23 45.1154 113.601 45.2509 113.892 45.5179C114.183 45.785 114.326 46.1357 114.326 46.5621C114.326 46.9965 114.183 47.3473 113.892 47.6183ZM122.783 48.9893L122.449 48.1404C122.269 48.2799 122.046 48.3516 121.779 48.3516C121.548 48.3516 121.372 48.2838 121.253 48.1523C121.129 48.0248 121.07 47.8335 121.07 47.5864V45.1553H122.437V44.1988H121.07V43.031H119.874V44.1988H119.033V45.1553H119.874V47.6143C119.874 48.1762 120.025 48.6027 120.332 48.8936C120.639 49.1885 121.074 49.336 121.636 49.336C121.859 49.336 122.07 49.3081 122.269 49.2483C122.472 49.1925 122.64 49.1048 122.783 48.9893ZM128.215 44.669C127.825 44.2904 127.311 44.1031 126.665 44.1031C126.306 44.1031 125.984 44.1589 125.693 44.2705C125.406 44.3821 125.159 44.5415 124.963 44.7527V42.1702H123.768V49.2682H124.963V46.6857C124.963 46.1875 125.091 45.8089 125.346 45.5419C125.601 45.2788 125.948 45.1473 126.386 45.1473C126.777 45.1473 127.076 45.2589 127.287 45.4861C127.498 45.7132 127.602 46.048 127.602 46.4944V49.2682H128.797V46.3429C128.797 45.6016 128.602 45.0437 128.215 44.669ZM135.15 47.0962C135.162 46.9447 135.17 46.8252 135.17 46.7415C135.17 46.2194 135.058 45.7611 134.839 45.3625C134.62 44.964 134.313 44.6531 133.919 44.4339C133.528 44.2147 133.082 44.1031 132.588 44.1031C132.081 44.1031 131.631 44.2147 131.228 44.4379C130.826 44.6611 130.511 44.9719 130.284 45.3705C130.061 45.769 129.945 46.2154 129.945 46.7136C129.945 47.2197 130.061 47.6701 130.296 48.0686C130.527 48.4672 130.858 48.778 131.284 49.0012C131.711 49.2244 132.205 49.336 132.767 49.336C133.209 49.336 133.604 49.2643 133.955 49.1248C134.305 48.9853 134.596 48.778 134.823 48.503L134.182 47.7657C133.819 48.1364 133.357 48.3197 132.795 48.3197C132.356 48.3197 131.99 48.2121 131.691 47.9929C131.396 47.7697 131.213 47.4748 131.141 47.0962H135.15ZM131.615 45.3984C131.878 45.1712 132.205 45.0596 132.588 45.0596C132.974 45.0596 133.301 45.1752 133.56 45.4024C133.823 45.6335 133.978 45.9324 134.03 46.3031H131.133C131.189 45.9284 131.352 45.6256 131.615 45.3984ZM133.389 43.4615H134.385L133.094 42.4372H132.022L130.73 43.4615H131.727L132.556 42.9354L133.389 43.4615ZM134.692 41.4648L133.6 42.5807H134.516L135.971 41.4648H134.692ZM144.026 44.1589H142.886V44.8404C142.683 44.5893 142.432 44.406 142.129 44.2864C141.826 44.1629 141.487 44.1031 141.116 44.1031C140.634 44.1031 140.196 44.2067 139.801 44.41C139.411 44.6132 139.1 44.9002 138.877 45.2748C138.649 45.6495 138.534 46.0759 138.534 46.5621C138.534 47.0444 138.649 47.4748 138.877 47.8534C139.1 48.228 139.411 48.519 139.801 48.7262C140.196 48.9335 140.634 49.0371 141.116 49.0371C141.467 49.0371 141.79 48.9813 142.085 48.8657C142.376 48.7501 142.627 48.5827 142.83 48.3596V48.6266C142.83 49.1487 142.699 49.5393 142.44 49.7943C142.176 50.0494 141.766 50.1769 141.204 50.1769C140.853 50.1769 140.507 50.1211 140.168 50.0095C139.825 49.8979 139.542 49.7505 139.319 49.5632L138.785 50.4639C139.072 50.699 139.434 50.8784 139.873 51.0059C140.315 51.1294 140.782 51.1892 141.272 51.1892C143.109 51.1892 144.026 50.2925 144.026 48.4951V44.1589ZM142.416 47.6183C142.125 47.8893 141.754 48.0248 141.3 48.0248C140.841 48.0248 140.467 47.8893 140.176 47.6183C139.885 47.3473 139.741 46.9965 139.741 46.5621C139.741 46.1357 139.885 45.785 140.176 45.5179C140.467 45.2509 140.841 45.1154 141.3 45.1154C141.754 45.1154 142.125 45.2509 142.416 45.5179C142.703 45.785 142.85 46.1357 142.85 46.5621C142.85 46.9965 142.703 47.3473 142.416 47.6183ZM145.596 44.1589V49.2682H146.792V44.1589H145.596ZM145.652 43.1147C145.799 43.2502 145.979 43.318 146.198 43.318C146.421 43.318 146.604 43.2462 146.748 43.1028C146.891 42.9593 146.963 42.7839 146.963 42.5727C146.963 42.3734 146.887 42.21 146.744 42.0785C146.596 41.951 146.413 41.8832 146.198 41.8832C145.979 41.8832 145.799 41.951 145.652 42.0905C145.504 42.226 145.433 42.3973 145.433 42.6006C145.433 42.8039 145.504 42.9752 145.652 43.1147ZM153.16 45.6256C153.013 45.2908 152.806 45.0078 152.539 44.7727C152.782 44.6651 152.969 44.5096 153.105 44.3024C153.236 44.0991 153.304 43.856 153.304 43.577C153.304 43.2502 153.204 42.9513 153.009 42.6763L152.28 42.9473C152.415 43.1386 152.483 43.3339 152.483 43.5372C152.483 43.7245 152.423 43.8759 152.307 43.9915C152.196 44.1111 152.028 44.1709 151.813 44.1709C151.73 44.1709 151.638 44.1669 151.538 44.1589C151.439 44.1549 151.367 44.147 151.315 44.143C151.072 44.1151 150.857 44.1031 150.673 44.1031C150.151 44.1031 149.681 44.2147 149.267 44.4379C148.852 44.6611 148.529 44.9719 148.29 45.3665C148.055 45.7611 147.939 46.2114 147.939 46.7136C147.939 47.2197 148.055 47.6701 148.286 48.0686C148.521 48.4672 148.844 48.778 149.259 49.0012C149.673 49.2244 150.139 49.336 150.654 49.336C151.176 49.336 151.646 49.2244 152.06 49.0012C152.475 48.778 152.798 48.4672 153.033 48.0686C153.264 47.6701 153.38 47.2197 153.38 46.7136C153.38 46.319 153.308 45.9563 153.16 45.6256ZM151.746 47.8733C151.459 48.1643 151.096 48.3117 150.654 48.3117C150.215 48.3117 149.852 48.1643 149.569 47.8733C149.286 47.5784 149.143 47.1918 149.143 46.7136C149.143 46.2353 149.286 45.8487 149.569 45.5578C149.852 45.2629 150.215 45.1154 150.654 45.1154C151.096 45.1154 151.459 45.2629 151.746 45.5578C152.032 45.8487 152.176 46.2353 152.176 46.7136C152.176 47.1918 152.032 47.5784 151.746 47.8733ZM151.144 42.1502L149.852 43.4615H150.885L152.547 42.1502H151.144ZM154.527 44.1589V49.2682H155.723V44.1589H154.527ZM154.587 43.1147C154.731 43.2502 154.914 43.318 155.129 43.318C155.352 43.318 155.536 43.2462 155.679 43.1028C155.823 42.9593 155.894 42.7839 155.894 42.5727C155.894 42.3734 155.823 42.21 155.675 42.0785C155.528 41.951 155.348 41.8832 155.129 41.8832C154.914 41.8832 154.731 41.951 154.587 42.0905C154.44 42.226 154.364 42.3973 154.364 42.6006C154.364 42.8039 154.44 42.9752 154.587 43.1147Z" fill="white"/>
<path d="M300 45.9282H159.88V46.7253H300V45.9282Z" fill="white"/>
</svg>
