<svg xmlns="http://www.w3.org/2000/svg" width="104" height="172" fill="none" xmlns:v="https://vecta.io/nano"><g fill="#fff"><rect x=".75" y=".75" width="102.5" height="170.5" rx="3.25"/><rect x="6.5" y="6.5" width="91" height="159" rx="2.5" stroke="#8796a1"/></g><g fill="#8796a1"><rect x="12" y="18" width="14" height="2" rx="1"/><rect x="72" y="18" width="20" height="2" rx="1"/><rect x="35.5" y="62" width="14" height="2" rx="1"/><rect x="51.5" y="62" width="1" height="2" rx=".5"/><rect x="54.5" y="62" width="14" height="2" rx="1"/><rect x="28" y="67" width="48" height="2" rx="1"/><rect x="30" y="30" width="44" height="4" rx="2"/><path d="M51.728 46.649h1.423a1.41 1.41 0 0 0 .72-.114c.23-.101.438-.263.61-.472.3-.46.449-1.036.42-1.618.019-.547-.13-1.083-.42-1.506-.165-.195-.362-.345-.58-.441a1.39 1.39 0 0 0-.68-.117c-.435-.013-.858.166-1.19.502-.152.172-.272.38-.352.61a2.1 2.1 0 0 0-.114.729h-2.449a4.22 4.22 0 0 1 .265-1.673 3.58 3.58 0 0 1 .878-1.34c.819-.809 1.855-1.235 2.916-1.2 1.126-.074 2.237.342 3.126 1.172.375.406.668.908.858 1.468a4.73 4.73 0 0 1 .239 1.768c-.001.69-.18 1.362-.513 1.925-.355.623-.848 1.115-1.423 1.423.645.254 1.202.754 1.586 1.423.376.646.572 1.417.56 2.204a4.78 4.78 0 0 1-.291 1.869 4.07 4.07 0 0 1-.969 1.507c-.92.847-2.059 1.281-3.219 1.228-1.076.042-2.131-.362-2.986-1.144a3.65 3.65 0 0 1-.96-1.444 4.33 4.33 0 0 1-.253-1.82h2.333a2.26 2.26 0 0 0 .122.806 1.97 1.97 0 0 0 .391.673c.354.392.824.603 1.306.586a1.53 1.53 0 0 0 .743-.131 1.79 1.79 0 0 0 .633-.483 2.17 2.17 0 0 0 .403-.743 2.47 2.47 0 0 0 .11-.876 2.45 2.45 0 0 0-.06-.959 2.17 2.17 0 0 0-.416-.822c-.191-.231-.425-.405-.682-.508s-.532-.131-.801-.083h-1.423l.14-2.399zm16.166 9.123h-8.562v-2.037l4.059-5.413c.479-.654.901-1.364 1.26-2.12.225-.489.353-1.033.373-1.59a2.85 2.85 0 0 0-.443-1.618c-.147-.21-.334-.375-.545-.482s-.44-.152-.668-.132a1.3 1.3 0 0 0-.743.158c-.233.127-.434.322-.587.567a3.95 3.95 0 0 0-.443 1.953h-2.45a5.71 5.71 0 0 1 .252-1.924 5.04 5.04 0 0 1 .867-1.648c.404-.496.892-.885 1.431-1.139s1.117-.37 1.695-.339c1.117-.077 2.214.374 3.056 1.255.372.432.662.955.851 1.532s.273 1.197.246 1.816a5.39 5.39 0 0 1-.606 2.595 27.1 27.1 0 0 1-2.076 3.153l-2.333 3.013h5.365v2.399zm1.764-14.57a1.45 1.45 0 0 1 .235-.865.89.89 0 0 1 .309-.258.75.75 0 0 1 .372-.077.76.76 0 0 1 .383.074c.121.058.231.147.321.261.164.245.248.552.235.865a1.42 1.42 0 0 1-.235.865c-.086.112-.191.2-.309.258a.75.75 0 0 1-.372.077.76.76 0 0 1-.383-.074c-.121-.058-.231-.147-.321-.261a1.42 1.42 0 0 1-.235-.865zm.516 0a1.32 1.32 0 0 0 0 .502.38.38 0 0 0 .141.153c.058.035.123.049.187.043.058.006.117-.009.167-.044a.32.32 0 0 0 .115-.151.96.96 0 0 0 .117-.502 1.14 1.14 0 0 0-.07-.419.34.34 0 0 0-.127-.154c-.054-.035-.117-.049-.178-.041-.058-.006-.117.009-.167.044a.32.32 0 0 0-.115.151c-.077.152-.117.325-.117.502l.047-.084zm5.823 2.427a2.15 2.15 0 0 1-.099.754 1.91 1.91 0 0 1-.347.641c-.364.351-.824.529-1.291.502a1.43 1.43 0 0 1-.731-.14c-.232-.111-.439-.283-.608-.502a2.26 2.26 0 0 1-.4-.745 2.55 2.55 0 0 1-.117-.873v-1.06c-.022-.596.155-1.177.493-1.618.364-.379.831-.587 1.315-.587s.951.209 1.315.587c.162.176.288.392.369.634s.116.502.101.761h-.892a1.43 1.43 0 0 0-.211-.837.88.88 0 0 0-.316-.225c-.117-.048-.242-.066-.365-.054a.73.73 0 0 0-.324.149.9.9 0 0 0-.24.298c-.168.306-.25.667-.235 1.032v1.06c-.02.37.072.736.258 1.032.08.124.183.223.302.291s.248.102.379.1a.66.66 0 0 0 .344-.053.78.78 0 0 0 .29-.226c.157-.226.233-.517.211-.809l.798-.112z"/></g><path d="M69.658 51.43c-.013-.312.07-.62.235-.864a.88.88 0 0 1 .309-.257c.118-.058.244-.084.371-.077a.76.76 0 0 1 .383.074c.121.058.231.147.321.261a1.45 1.45 0 0 1 .234.864 1.42 1.42 0 0 1-.234.864.89.89 0 0 1-.309.257c-.118.058-.244.084-.371.077a.76.76 0 0 1-.383-.074c-.121-.058-.231-.147-.32-.26a1.42 1.42 0 0 1-.235-.864zm.516 0a1.32 1.32 0 0 0 0 .502c.034.065.083.118.141.153s.123.049.187.043c.058.006.117-.009.167-.044a.32.32 0 0 0 .115-.151c.083-.148.124-.324.117-.502.003-.144-.021-.286-.07-.418a.34.34 0 0 0-.127-.154c-.055-.035-.117-.049-.178-.041-.058-.006-.117.009-.167.044a.32.32 0 0 0-.115.151 1.11 1.11 0 0 0-.117.502l.047-.084zm5.16 2.034h-1.793v2.294h-.896V50.23h3.092v.857h-2.196v1.52h1.882l-.09.857z" fill="#9fa9af"/><g fill="#8796a1"><path d="M45.599 51.916a3.76 3.76 0 0 1-1.101 2.657c-.704.705-1.659 1.102-2.656 1.103h-9.641A4.31 4.31 0 0 1 28 51.366a4.31 4.31 0 0 1 4.201-4.309h.119a4.1 4.1 0 0 1 3.46-3.075 4.1 4.1 0 0 1 4.12 2.109c.204-.048.413-.072.622-.072.666.003 1.309.25 1.806.694s.815 1.054.894 1.716a3.77 3.77 0 0 1 2.376 3.486h0z"/><rect x="12" y="113" width="12" height="2" rx="1"/><rect x="12" y="118" width="15" height="2" rx="1"/><rect x="80" y="113" width="12" height="2" rx="1"/><rect x="77" y="118" width="15" height="2" rx="1"/><rect x="12" y="130" width="24" height="3" rx="1.5"/><rect x="72" y="130" width="20" height="3" rx="1.5"/><rect x="14" y="139" width="14" height="2" rx="1"/><path d="M24 146.5a3 3 0 1 1-6 0 3 3 0 1 1 6 0z"/><rect x="13.5" y="152" width="15" height="2" rx="1"/><rect x="32.667" y="139" width="18" height="2" rx="1"/><path d="M44.667 146.5a3 3 0 1 1-6 0 3 3 0 1 1 6 0z"/><rect x="34.167" y="152" width="15" height="2" rx="1"/><rect x="53.333" y="139" width="18" height="2" rx="1"/><path d="M65.333 146.5a3 3 0 0 1-6 0 3 3 0 0 1 6 0z"/><rect x="54.833" y="152" width="15" height="2" rx="1"/><rect x="75" y="139" width="16" height="2" rx="1"/><path d="M86 146.5a3 3 0 1 1-6 0 3 3 0 1 1 6 0z"/><rect x="75.5" y="152" width="15" height="2" rx="1"/><rect x="16" y="79" width="12" height="2" rx="1"/><rect x="14" y="84" width="16" height="2" rx="1"/><rect x="43" y="79" width="18" height="2" rx="1"/><rect x="42" y="84" width="20" height="2" rx="1"/><rect x="73" y="79" width="18" height="2" rx="1"/><rect x="74.5" y="84" width="15" height="2" rx="1"/><circle cx="32" cy="118" r="2"/><circle cx="72" cy="118" r="2"/><path d="M72.16 117c.464 0 .842-.376.823-.84a21 21 0 0 0-6.134-14.009A21 21 0 0 0 52 96a21 21 0 0 0-14.849 6.151 21 21 0 0 0-6.134 14.009c-.019.464.359.84.823.84h0a.87.87 0 0 0 .858-.84 19.32 19.32 0 0 1 5.64-12.821 19.33 19.33 0 0 1 6.268-4.188 19.32 19.32 0 0 1 14.787 0 19.33 19.33 0 0 1 6.268 4.188 19.32 19.32 0 0 1 5.64 12.821.87.87 0 0 0 .858.84h0z"/></g><g clip-path="url(#A)" fill="#8796a1"><path d="M48.37 94.278a.64.64 0 1 0 .907-.907l-.907-.907a.641.641 0 1 0-.907.907l.907.907zM48.15 97c0-.354-.287-.583-.642-.583h-1.283c-.355 0-.642.229-.642.583s.287.583.642.583h1.283c.355 0 .642-.229.642-.583zM52 93.15c.355 0 .583-.287.583-.642v-1.283c0-.354-.229-.642-.583-.642s-.583.287-.583.642v1.283c0 .354.229.642.583.642zm3.176 1.316a.64.64 0 0 0 .454-.188l.907-.907a.641.641 0 1 0-.907-.907l-.907.907a.64.64 0 0 0 .454 1.095zM52 93.792c-1.769 0-3.208 1.439-3.208 3.208s1.439 3.209 3.208 3.209 3.208-1.44 3.208-3.209-1.439-3.208-3.208-3.208zm-3.63 5.931l-.907.907a.64.64 0 0 0 0 .907c.125.126.29.188.454.188a.64.64 0 0 0 .454-.188l.907-.907a.641.641 0 1 0-.907-.907h0zm7.26 0a.641.641 0 1 0-.907.907l.907.907c.125.126.289.188.454.188s.328-.062.454-.188a.64.64 0 0 0 0-.907l-.907-.907zm2.145-3.306h-1.283c-.355 0-.642.229-.642.583s.287.583.642.583h1.283c.355 0 .642-.229.642-.583s-.287-.583-.642-.583zM52 100.85c-.355 0-.583.287-.583.642v1.283c0 .354.229.642.583.642s.583-.288.583-.642v-1.283c0-.355-.229-.642-.583-.642z"/></g><rect x=".75" y=".75" width="102.5" height="170.5" rx="3.25" stroke="#8796a1" stroke-width="1.5"/><defs><clipPath id="A"><path fill="#fff" transform="translate(45 90)" d="M0 0h14v14H0z"/></clipPath></defs></svg>