<svg xmlns="http://www.w3.org/2000/svg" xmlns:xlink="http://www.w3.org/1999/xlink" width="104" height="172" fill="none" xmlns:v="https://vecta.io/nano"><g fill="#fff"><rect x=".75" y=".75" width="102.5" height="170.5" rx="3.25"/><rect x="6.5" y="6.5" width="91" height="159" rx="2.5" stroke="#8796a1"/></g><g fill="#8796a1"><path d="M17 14.5a2.5 2.5 0 1 1-5 0 2.5 2.5 0 1 1 5 0z"/><rect x="18" y="13.5" width="20" height="2" rx="1"/><rect x="78" y="13.5" width="14" height="2" rx="1"/><rect x="12" y="95" width="24" height="3" rx="1.5"/><rect x="72" y="95" width="20" height="3" rx="1.5"/><rect x="12" y="104" width="12" height="2" rx="1"/><use xlink:href="#B"/><rect x="74" y="104" width="8" height="2" rx="1"/><rect x="84" y="104" width="8" height="2" rx="1"/><rect x="12" y="112.667" width="16" height="2" rx="1"/><use xlink:href="#B" y="8.667"/><rect x="74" y="112.667" width="8" height="2" rx="1"/><rect x="84" y="112.667" width="8" height="2" rx="1"/><rect x="12" y="121.333" width="14" height="2" rx="1"/><use xlink:href="#B" y="17.333"/><rect x="74" y="121.333" width="8" height="2" rx="1"/><rect x="84" y="121.333" width="8" height="2" rx="1"/><rect x="12" y="130" width="14" height="2" rx="1"/><use xlink:href="#B" y="26"/><rect x="74" y="130" width="8" height="2" rx="1"/><rect x="84" y="130" width="8" height="2" rx="1"/><rect x="12" y="138.667" width="14" height="2" rx="1"/><use xlink:href="#B" y="34.667"/><rect x="74" y="138.667" width="8" height="2" rx="1"/><rect x="84" y="138.667" width="8" height="2" rx="1"/><rect x="12" y="147.333" width="14" height="2" rx="1"/><use xlink:href="#B" y="43.333"/><rect x="74" y="147.333" width="8" height="2" rx="1"/><rect x="84" y="147.333" width="8" height="2" rx="1"/><rect x="12" y="156" width="14" height="2" rx="1"/><use xlink:href="#B" y="52"/><rect x="74" y="156" width="8" height="2" rx="1"/><rect x="84" y="156" width="8" height="2" rx="1"/><rect x="12" y="55" width="21" height="2" rx="1"/><rect x="35" y="55" width="13" height="2" rx="1"/><rect x="12" y="60" width="13" height="2" rx="1"/><rect x="27" y="60" width="20" height="2" rx="1"/><rect x="12" y="65" width="19" height="2" rx="1"/><rect x="33" y="65" width="10" height="2" rx="1"/><rect x="12" y="70" width="22" height="2" rx="1"/><rect x="36" y="70" width="8" height="2" rx="1"/><rect x="12" y="75" width="18" height="2" rx="1"/><rect x="32" y="75" width="10" height="2" rx="1"/><rect x="12" y="80" width="15" height="2" rx="1"/><rect x="29" y="80" width="13" height="2" rx="1"/><rect x="12" y="85" width="16" height="2" rx="1"/><rect x="30" y="85" width="12" height="2" rx="1"/><rect x="56" y="55" width="20" height="2" rx="1"/><rect x="78" y="55" width="14" height="2" rx="1"/><rect x="61" y="60" width="19" height="2" rx="1"/><rect x="82" y="60" width="10" height="2" rx="1"/><rect x="56" y="65" width="23" height="2" rx="1"/><rect x="81" y="65" width="11" height="2" rx="1"/><rect x="62" y="70" width="20" height="2" rx="1"/><rect x="84" y="70" width="8" height="2" rx="1"/><rect x="65" y="75" width="18" height="2" rx="1"/><rect x="85" y="75" width="7" height="2" rx="1"/><rect x="69" y="80" width="12" height="2" rx="1"/><rect x="83" y="80" width="9" height="2" rx="1"/><rect x="62" y="85" width="16" height="2" rx="1"/><rect x="80" y="85" width="12" height="2" rx="1"/><rect x="12" y="45" width="24" height="2" rx="1"/><rect x="74" y="45" width="18" height="2" rx="1"/><rect x="69" y="39" width="10" height="2" rx="1"/><rect x="82" y="39" width="10" height="2" rx="1"/><path d="M35.886 31.649h1.432a1.43 1.43 0 0 0 .725-.114 1.67 1.67 0 0 0 .614-.472 2.72 2.72 0 0 0 .423-1.618c.019-.547-.131-1.083-.423-1.507-.166-.195-.365-.345-.583-.441a1.41 1.41 0 0 0-.684-.117c-.437-.013-.864.166-1.198.502a1.82 1.82 0 0 0-.355.61 2.08 2.08 0 0 0-.115.729h-2.465a4.2 4.2 0 0 1 .266-1.673 3.58 3.58 0 0 1 .884-1.34c.824-.809 1.867-1.235 2.935-1.2 1.133-.074 2.251.342 3.146 1.172.377.406.672.908.863 1.468a4.7 4.7 0 0 1 .24 1.768 3.79 3.79 0 0 1-.517 1.925c-.358.623-.853 1.115-1.432 1.423.649.254 1.21.754 1.597 1.423.378.646.576 1.417.564 2.204a4.75 4.75 0 0 1-.293 1.869c-.22.587-.554 1.103-.975 1.507-.926.847-2.073 1.281-3.24 1.228-1.083.042-2.145-.362-3.006-1.144-.42-.376-.752-.873-.966-1.444s-.301-1.197-.255-1.82h2.348a2.25 2.25 0 0 0 .123.806 1.97 1.97 0 0 0 .394.673c.357.392.829.603 1.315.586a1.55 1.55 0 0 0 .748-.131c.239-.106.456-.27.638-.483a2.13 2.13 0 0 0 .406-.743 2.46 2.46 0 0 0 .111-.876 2.44 2.44 0 0 0-.06-.959c-.083-.31-.227-.591-.419-.822a1.73 1.73 0 0 0-.687-.508c-.259-.103-.536-.131-.806-.083h-1.432l.141-2.399zM52.222 41H43.48v-2.066l4.145-5.491a13.2 13.2 0 0 0 1.286-2.151 4.22 4.22 0 0 0 .381-1.613 2.87 2.87 0 0 0-.453-1.642c-.15-.213-.341-.38-.556-.489a1.27 1.27 0 0 0-.682-.134c-.26-.023-.521.032-.758.161a1.63 1.63 0 0 0-.599.575 3.99 3.99 0 0 0-.453 1.981H43.29a5.74 5.74 0 0 1 .258-1.951c.197-.623.498-1.192.886-1.672a4.22 4.22 0 0 1 1.461-1.156c.55-.259 1.14-.376 1.731-.344 1.14-.078 2.261.38 3.121 1.274a4.56 4.56 0 0 1 .869 1.555 5.17 5.17 0 0 1 .251 1.842c.015.93-.2 1.846-.619 2.632-.639 1.127-1.348 2.196-2.12 3.198l-2.382 3.057h5.479V41zm1.713-14.798a1.45 1.45 0 0 1 .235-.865c.086-.112.191-.2.309-.258a.75.75 0 0 1 .372-.077.76.76 0 0 1 .383.074c.121.058.231.147.321.261.164.245.248.552.235.865a1.42 1.42 0 0 1-.235.865.89.89 0 0 1-.309.258.75.75 0 0 1-.372.077.76.76 0 0 1-.383-.074c-.121-.058-.231-.147-.321-.261a1.42 1.42 0 0 1-.235-.865zm.516 0a1.32 1.32 0 0 0 0 .502c.034.065.083.118.141.153s.123.049.187.043c.058.006.117-.009.167-.044a.32.32 0 0 0 .115-.151.96.96 0 0 0 .117-.502 1.14 1.14 0 0 0-.07-.418.34.34 0 0 0-.127-.154c-.054-.035-.117-.049-.178-.041-.058-.006-.117.009-.167.044a.32.32 0 0 0-.115.151c-.077.152-.117.325-.117.502l.047-.084zm5.824 2.427a2.16 2.16 0 0 1-.099.754 1.91 1.91 0 0 1-.347.641c-.364.351-.824.53-1.291.502a1.43 1.43 0 0 1-.731-.14 1.69 1.69 0 0 1-.608-.502 2.26 2.26 0 0 1-.4-.745c-.089-.278-.129-.575-.117-.873v-1.06c-.022-.596.156-1.177.493-1.618.364-.379.831-.587 1.315-.587s.951.209 1.315.587a1.77 1.77 0 0 1 .369.634 2.03 2.03 0 0 1 .101.761h-.892a1.43 1.43 0 0 0-.211-.837.88.88 0 0 0-.316-.225c-.117-.048-.242-.066-.365-.054a.73.73 0 0 0-.324.149.9.9 0 0 0-.24.298 1.98 1.98 0 0 0-.235 1.032v1.06c-.02.37.072.735.258 1.032a.89.89 0 0 0 .302.291c.118.068.248.102.379.1a.66.66 0 0 0 .344-.053.78.78 0 0 0 .29-.226c.157-.226.233-.517.211-.809l.798-.112z"/></g><path d="M53.935 36.285a1.45 1.45 0 0 1 .234-.864.89.89 0 0 1 .309-.257.75.75 0 0 1 .371-.077.76.76 0 0 1 .383.074c.121.058.231.147.32.26a1.45 1.45 0 0 1 .235.864c.015.313-.068.621-.235.864a.88.88 0 0 1-.309.257.75.75 0 0 1-.371.077.76.76 0 0 1-.383-.074c-.121-.058-.231-.147-.321-.261-.166-.243-.25-.551-.234-.864zm.516 0a1.32 1.32 0 0 0 0 .502c.034.065.083.118.141.153s.123.049.187.043c.058.006.116-.009.167-.044a.32.32 0 0 0 .115-.151c.083-.148.124-.324.117-.502a1.13 1.13 0 0 0-.07-.418.34.34 0 0 0-.127-.154c-.055-.035-.117-.049-.178-.041-.058-.006-.117.009-.167.044s-.09.088-.114.151a1.11 1.11 0 0 0-.117.502l.047-.084zm5.161 2.035h-1.793v2.294h-.896v-5.529h3.092v.857h-2.196v1.52h1.882l-.09.857z" fill="#9fa9af"/><path d="M29.599 37.266c-.001.996-.397 1.952-1.101 2.657s-1.659 1.101-2.656 1.103h-9.641A4.31 4.31 0 0 1 12 36.717a4.31 4.31 0 0 1 4.201-4.309h.119a4.1 4.1 0 0 1 3.46-3.075 4.1 4.1 0 0 1 4.12 2.109c.204-.048.413-.072.622-.072.666.003 1.309.25 1.806.694s.815 1.054.894 1.716a3.77 3.77 0 0 1 2.376 3.486h0z" fill="#8796a1"/><rect x=".75" y=".75" width="102.5" height="170.5" rx="3.25" stroke="#8796a1" stroke-width="1.5"/><defs ><path id="B" d="M54 105a3 3 0 1 1-6 0 3 3 0 1 1 6 0z"/></defs></svg>