<svg xmlns="http://www.w3.org/2000/svg" width="104" height="172" fill="none" xmlns:v="https://vecta.io/nano"><g fill="#fff"><rect x=".75" y=".75" width="102.5" height="170.5" rx="3.25"/><rect x="6.5" y="6.5" width="91" height="159" rx="2.5" stroke="#8796a1"/></g><g fill="#8796a1"><path d="M17 14.5a2.5 2.5 0 1 1-5 0 2.5 2.5 0 1 1 5 0z"/><rect x="18" y="13.5" width="20" height="2" rx="1"/><rect x="78" y="13.5" width="14" height="2" rx="1"/><path d="M39.377 38.413c-.001 1.55-.617 3.036-1.713 4.133s-2.581 1.713-4.131 1.716H18.535c-1.748-.044-3.41-.77-4.631-2.022S12 39.308 12 37.559s.683-3.428 1.904-4.681a6.7 6.7 0 0 1 4.631-2.022h.185a6.38 6.38 0 0 1 1.952-3.224c.96-.853 2.156-1.397 3.431-1.559s2.568.064 3.712.649 2.084 1.503 2.697 2.631a4.29 4.29 0 0 1 .968-.112 4.25 4.25 0 0 1 4.2 3.749 5.86 5.86 0 0 1 3.697 5.422h0zm6.453-5.653h1.432a1.43 1.43 0 0 0 .725-.114c.232-.101.441-.263.614-.472a2.72 2.72 0 0 0 .423-1.618c.019-.547-.131-1.083-.423-1.507a1.63 1.63 0 0 0-.584-.441 1.41 1.41 0 0 0-.684-.117 1.62 1.62 0 0 0-1.198.502 1.85 1.85 0 0 0-.355.61c-.082.23-.12.479-.115.729H43.2a4.19 4.19 0 0 1 .267-1.673 3.57 3.57 0 0 1 .884-1.34c.824-.809 1.867-1.235 2.935-1.2 1.133-.074 2.251.342 3.147 1.172.377.406.672.908.863 1.468a4.7 4.7 0 0 1 .24 1.768c-.001.69-.181 1.362-.517 1.925-.358.623-.853 1.115-1.432 1.423.649.254 1.21.754 1.597 1.423a4.25 4.25 0 0 1 .564 2.204 4.75 4.75 0 0 1-.293 1.869c-.22.587-.554 1.103-.975 1.507-.926.847-2.073 1.281-3.24 1.228-1.083.042-2.145-.362-3.006-1.144a3.65 3.65 0 0 1-.966-1.444c-.214-.571-.301-1.197-.255-1.82h2.348a2.25 2.25 0 0 0 .123.806 1.97 1.97 0 0 0 .394.673c.357.392.829.603 1.315.586a1.55 1.55 0 0 0 .748-.131c.239-.106.456-.27.637-.483s.317-.464.406-.743a2.46 2.46 0 0 0 .111-.876 2.44 2.44 0 0 0-.06-.959c-.083-.31-.227-.591-.419-.822a1.73 1.73 0 0 0-.687-.508c-.259-.103-.536-.131-.806-.083h-1.432l.141-2.399zm16.336 9.351h-8.742v-2.066l4.145-5.491a13.2 13.2 0 0 0 1.286-2.151 4.22 4.22 0 0 0 .381-1.613 2.87 2.87 0 0 0-.453-1.642c-.15-.213-.341-.38-.556-.489a1.27 1.27 0 0 0-.682-.134c-.26-.023-.521.032-.758.161a1.63 1.63 0 0 0-.599.575 3.99 3.99 0 0 0-.453 1.981h-2.501c-.027-.665.061-1.328.258-1.951s.498-1.192.886-1.672a4.22 4.22 0 0 1 1.461-1.156c.55-.259 1.14-.376 1.731-.344 1.141-.078 2.261.38 3.121 1.274a4.56 4.56 0 0 1 .869 1.555 5.17 5.17 0 0 1 .251 1.842c.015.931-.2 1.846-.619 2.632-.639 1.127-1.348 2.196-2.12 3.198l-2.382 3.057h5.479v2.434zm1.713-14.798a1.45 1.45 0 0 1 .235-.865c.086-.112.191-.2.309-.258a.75.75 0 0 1 .372-.077.76.76 0 0 1 .383.074c.121.058.231.147.321.261.164.245.248.552.235.865a1.42 1.42 0 0 1-.235.865c-.086.112-.191.2-.309.258a.75.75 0 0 1-.372.077.76.76 0 0 1-.383-.074c-.121-.058-.231-.147-.321-.261a1.42 1.42 0 0 1-.235-.865zm.516 0a1.32 1.32 0 0 0 0 .502c.034.065.083.118.141.153s.123.049.187.043c.058.006.117-.009.167-.044a.32.32 0 0 0 .115-.151c.083-.148.124-.324.117-.502a1.13 1.13 0 0 0-.07-.418.34.34 0 0 0-.127-.154c-.054-.035-.117-.049-.178-.041-.058-.006-.117.009-.167.044a.32.32 0 0 0-.115.151 1.12 1.12 0 0 0-.117.502l.047-.084zm5.823 2.427a2.15 2.15 0 0 1-.099.754 1.91 1.91 0 0 1-.347.641c-.364.351-.824.529-1.291.502a1.43 1.43 0 0 1-.731-.14 1.69 1.69 0 0 1-.608-.502 2.26 2.26 0 0 1-.4-.745 2.55 2.55 0 0 1-.117-.873v-1.06c-.022-.596.156-1.177.493-1.618.364-.379.831-.588 1.315-.588s.951.209 1.315.588c.162.176.288.392.369.634s.116.502.101.761h-.892a1.43 1.43 0 0 0-.211-.837.88.88 0 0 0-.316-.225.76.76 0 0 0-.365-.054.73.73 0 0 0-.324.149.9.9 0 0 0-.24.298 1.98 1.98 0 0 0-.235 1.032v1.06c-.02.37.072.735.258 1.032a.9.9 0 0 0 .302.291c.118.068.248.102.379.1a.66.66 0 0 0 .344-.053.78.78 0 0 0 .29-.226c.157-.226.233-.517.211-.809l.798-.112z"/></g><g fill="#9fa9af"><rect x="72" y="26.111" width=".889" height="5.53" rx=".444"/><path d="M74.668 27.312c-.013-.312.07-.62.235-.864a.89.89 0 0 1 .309-.257c.118-.058.244-.084.371-.077a.76.76 0 0 1 .383.074c.121.058.231.147.32.26.164.244.248.552.234.864a1.42 1.42 0 0 1-.234.864.88.88 0 0 1-.309.257c-.118.058-.244.084-.371.077a.76.76 0 0 1-.383-.074c-.121-.058-.231-.147-.32-.261a1.42 1.42 0 0 1-.235-.864zm.516 0a1.32 1.32 0 0 0 0 .502c.034.065.083.118.141.152s.123.049.187.043c.058.006.117-.009.167-.044a.32.32 0 0 0 .115-.151c.083-.148.124-.324.117-.502a1.13 1.13 0 0 0-.07-.418.34.34 0 0 0-.127-.154c-.054-.035-.117-.049-.178-.041-.058-.006-.116.009-.167.044s-.09.088-.115.151a1.12 1.12 0 0 0-.117.502l.047-.084zm5.161 2.034h-1.793v2.294h-.896v-5.529h3.092v.857h-2.196v1.52h1.882l-.09.857z"/></g><g fill="#8796a1"><rect x="64" y="40" width="10" height="2" rx="1"/><rect x="77" y="40" width="10" height="2" rx="1"/><rect x="12" y="48" width="52" height="2" rx="1"/><rect x="12" y="58" width="38" height="14" rx="1.5"/></g><g fill="#fff"><path d="M23 65a3 3 0 1 1-6 0 3 3 0 1 1 6 0z"/><rect x="26" y="62.25" width="16" height="2" rx="1"/><rect x="26" y="65.75" width="10" height="2" rx="1"/></g><rect x="54" y="58" width="38" height="14" rx="1.5" fill="#8796a1"/><g fill="#fff"><path d="M65 65a3 3 0 1 1-6 0 3 3 0 1 1 6 0z"/><rect x="68" y="62.25" width="16" height="2" rx="1"/><rect x="68" y="65.75" width="10" height="2" rx="1"/></g><g fill="#8796a1"><rect x="12" y="111" width="12" height="2" rx="1"/><rect x="12" y="116" width="15" height="2" rx="1"/><rect x="80" y="111" width="12" height="2" rx="1"/><rect x="77" y="116" width="15" height="2" rx="1"/></g><g clip-path="url(#A)" fill="#8796a1"><path d="M65.37 81.278a.64.64 0 1 0 .907-.907l-.907-.907a.641.641 0 1 0-.907.907l.907.907zM65.15 84c0-.354-.287-.583-.642-.583h-1.283c-.355 0-.642.229-.642.583s.287.583.642.583h1.283c.355 0 .642-.229.642-.583zM69 80.15c.355 0 .583-.287.583-.642v-1.283c0-.354-.229-.642-.583-.642s-.583.287-.583.642v1.283c0 .354.229.642.583.642zm3.176 1.316a.64.64 0 0 0 .454-.188l.907-.907a.641.641 0 1 0-.907-.907l-.907.907a.64.64 0 0 0 .454 1.095zM69 80.792c-1.769 0-3.208 1.439-3.208 3.208s1.439 3.208 3.208 3.208 3.208-1.439 3.208-3.208-1.439-3.208-3.208-3.208zm-3.63 5.931l-.907.907a.64.64 0 1 0 .908.907l.907-.907a.641.641 0 1 0-.907-.907h0zm7.26 0a.641.641 0 1 0-.907.907l.907.907a.64.64 0 1 0 .907-.907l-.907-.907zm2.145-3.306h-1.283c-.355 0-.642.229-.642.583s.287.583.642.583h1.283c.355 0 .642-.229.642-.583s-.287-.583-.642-.583zM69 87.85c-.355 0-.583.287-.583.642v1.283c0 .354.229.642.583.642s.583-.287.583-.642v-1.283c0-.354-.229-.642-.583-.642z"/></g><g fill="#8796a1"><path d="M86.58 110.5c.784 0 1.424-.636 1.382-1.419-.191-3.521-1.091-6.99-2.664-10.253-1.784-3.7-4.399-7.063-7.695-9.895s-7.21-5.079-11.517-6.611S57.162 80 52.5 80s-9.278.789-13.585 2.322-8.221 3.779-11.517 6.611-5.911 6.195-7.695 9.895c-1.573 3.263-2.473 6.732-2.664 10.253-.043.783.597 1.419 1.382 1.419h0c.784 0 1.416-.636 1.462-1.419.189-3.2 1.014-6.352 2.444-9.319 1.641-3.404 4.047-6.498 7.08-9.103s6.633-4.673 10.596-6.083S48.211 82.44 52.5 82.44s8.536.726 12.498 2.136 7.563 3.477 10.596 6.083 5.439 5.699 7.08 9.103c1.43 2.967 2.256 6.119 2.444 9.319.046.783.678 1.419 1.462 1.419h0z"/><rect x="12" y="125" width="28" height="3" rx="1.5"/><rect x="72" y="125" width="20" height="3" rx="1.5"/><rect x="12" y="133" width="12" height="12" rx="2"/></g><path d="M21 139a3 3 0 1 1-6 0 3 3 0 1 1 6 0z" fill="#fff"/><g fill="#8796a1"><rect x="28" y="136" width="12" height="2" rx="1"/><rect x="28" y="140" width="18" height="2" rx="1"/><rect x="80" y="136" width="1" height="6" rx=".5"/><rect x="84" y="136" width="8" height="2" rx="1"/><rect x="84" y="140" width="8" height="2" rx="1"/><rect x="12" y="148" width="12" height="12" rx="2"/></g><path d="M21 154a3 3 0 1 1-6 0 3 3 0 1 1 6 0z" fill="#fff"/><g fill="#8796a1"><rect x="28" y="151" width="15" height="2" rx="1"/><rect x="28" y="155" width="20" height="2" rx="1"/><rect x="80" y="151" width="1" height="6" rx=".5"/><rect x="84" y="151" width="8" height="2" rx="1"/><rect x="84" y="155" width="8" height="2" rx="1"/></g><rect x=".75" y=".75" width="102.5" height="170.5" rx="3.25" stroke="#8796a1" stroke-width="1.5"/><defs><clipPath id="A"><path fill="#fff" transform="translate(62 77)" d="M0 0h14v14H0z"/></clipPath></defs></svg>