<svg xmlns="http://www.w3.org/2000/svg" xmlns:xlink="http://www.w3.org/1999/xlink" width="104" height="172" fill="none" xmlns:v="https://vecta.io/nano"><g fill="#fff"><rect x=".75" y=".75" width="102.5" height="170.5" rx="3.25"/><rect x="6.5" y="6.5" width="91" height="159" rx="2.5" stroke="#8796a1"/></g><rect x="10" y="111" width="84" height="51" rx="2" fill="#8796a1"/><g fill="#fff"><rect x="14" y="115" width="24" height="3" rx="1.5"/><rect x="70" y="115" width="20" height="3" rx="1.5"/><rect x="14" y="124" width="12" height="2" rx="1"/><use xlink:href="#B"/><rect x="72" y="124" width="8" height="2" rx="1"/><rect x="82" y="124" width="8" height="2" rx="1"/><rect x="14" y="134" width="16" height="2" rx="1"/><use xlink:href="#B" y="10"/><rect x="72" y="134" width="8" height="2" rx="1"/><rect x="82" y="134" width="8" height="2" rx="1"/><rect x="14" y="144" width="14" height="2" rx="1"/><use xlink:href="#B" y="20"/><rect x="72" y="144" width="8" height="2" rx="1"/><rect x="82" y="144" width="8" height="2" rx="1"/><rect x="14" y="154" width="14" height="2" rx="1"/><use xlink:href="#B" y="30"/><rect x="72" y="154" width="8" height="2" rx="1"/><rect x="82" y="154" width="8" height="2" rx="1"/></g><rect x="10" y="83" width="26" height="24" rx="2" fill="#8796a1"/><g fill="#fff"><use xlink:href="#B" x="-28" y="-34"/><rect x="15" y="96.5" width="16" height="2" rx="1"/><rect x="18" y="100" width="10" height="2" rx="1"/></g><rect x="39" y="83" width="26" height="24" rx="2" fill="#8796a1"/><g fill="#fff"><use xlink:href="#B" x="1" y="-34"/><rect x="45" y="96.5" width="14" height="2" rx="1"/><rect x="44.5" y="100" width="15" height="2" rx="1"/></g><rect x="68" y="83" width="26" height="24" rx="2" fill="#8796a1"/><g fill="#fff"><use xlink:href="#B" x="30" y="-34"/><rect x="77" y="96.5" width="8" height="2" rx="1"/><rect x="72" y="100" width="18" height="2" rx="1"/></g><rect x="10" y="10" width="84" height="11" rx="2" fill="#8796a1"/><g fill="#fff"><path d="M37.5 15.5a2.5 2.5 0 1 1-5 0 2.5 2.5 0 1 1 5 0z"/><rect x="39.5" y="14" width="32" height="3" rx="1.5"/></g><rect x="10" y="73" width="84" height="6" rx="2" fill="#8796a1"/><rect x="36" y="75" width="32" height="2" rx="1" fill="#fff"/><g fill="#8796a1"><rect x="10" y="24" width="20" height="2" rx="1"/><rect x="80" y="24" width="14" height="2" rx="1"/><path d="M60.21 39.266c-.001.996-.397 1.952-1.101 2.657s-1.66 1.101-2.656 1.103h-9.641a4.31 4.31 0 0 1 0-8.618h.119a4.1 4.1 0 0 1 7.58-.966 2.76 2.76 0 0 1 .623-.072 2.73 2.73 0 0 1 1.806.694c.497.444.815 1.054.894 1.716a3.77 3.77 0 0 1 2.377 3.486h0zM40.83 52.649h1.432a1.43 1.43 0 0 0 .725-.114c.232-.101.441-.263.614-.472a2.72 2.72 0 0 0 .423-1.618c.019-.547-.131-1.083-.423-1.506a1.63 1.63 0 0 0-.584-.441 1.41 1.41 0 0 0-.684-.117 1.62 1.62 0 0 0-1.198.502 1.85 1.85 0 0 0-.355.61c-.082.23-.12.479-.115.729H38.2a4.19 4.19 0 0 1 .267-1.673 3.57 3.57 0 0 1 .884-1.34c.824-.809 1.867-1.235 2.935-1.2 1.133-.074 2.251.342 3.147 1.172.377.406.672.908.863 1.468a4.7 4.7 0 0 1 .24 1.768c-.001.69-.181 1.362-.517 1.925-.358.623-.853 1.115-1.432 1.423.649.254 1.21.754 1.597 1.423.378.646.576 1.417.564 2.204a4.75 4.75 0 0 1-.293 1.869c-.22.587-.554 1.103-.975 1.507-.926.847-2.073 1.281-3.24 1.228-1.083.042-2.145-.362-3.006-1.144a3.65 3.65 0 0 1-.966-1.444c-.214-.571-.301-1.197-.255-1.82h2.348a2.25 2.25 0 0 0 .123.806 1.97 1.97 0 0 0 .394.673c.357.392.829.603 1.315.586a1.55 1.55 0 0 0 .748-.131c.239-.106.456-.27.637-.483a2.17 2.17 0 0 0 .406-.743 2.46 2.46 0 0 0 .111-.876 2.44 2.44 0 0 0-.06-.959c-.083-.31-.227-.591-.419-.822a1.73 1.73 0 0 0-.687-.508c-.259-.103-.536-.131-.806-.083h-1.432l.141-2.399zM57.166 62h-8.742v-2.066l4.145-5.491a13.2 13.2 0 0 0 1.286-2.151 4.22 4.22 0 0 0 .381-1.613 2.87 2.87 0 0 0-.453-1.642c-.15-.213-.341-.381-.556-.489a1.27 1.27 0 0 0-.682-.134c-.26-.023-.521.032-.758.161a1.63 1.63 0 0 0-.599.575 3.99 3.99 0 0 0-.453 1.981h-2.501a5.72 5.72 0 0 1 .258-1.951c.197-.623.498-1.192.886-1.672a4.22 4.22 0 0 1 1.461-1.156 3.6 3.6 0 0 1 1.731-.344c1.141-.078 2.261.38 3.121 1.274.379.439.676.969.869 1.554a5.17 5.17 0 0 1 .251 1.842c.015.93-.2 1.846-.619 2.632-.639 1.127-1.348 2.196-2.12 3.198l-2.382 3.057h5.479V62zm1.713-14.798a1.45 1.45 0 0 1 .235-.865c.086-.112.191-.2.309-.258a.75.75 0 0 1 .372-.077.76.76 0 0 1 .383.074c.121.058.231.147.321.261.164.245.248.552.235.865a1.42 1.42 0 0 1-.235.865c-.086.112-.191.2-.309.258a.75.75 0 0 1-.372.077.76.76 0 0 1-.383-.074c-.121-.058-.231-.147-.321-.261a1.42 1.42 0 0 1-.235-.865zm.516 0a1.32 1.32 0 0 0 0 .502c.034.065.083.118.141.153s.123.049.187.043c.058.006.117-.009.167-.044a.32.32 0 0 0 .115-.151c.083-.148.124-.324.117-.502a1.14 1.14 0 0 0-.07-.419.34.34 0 0 0-.127-.154c-.054-.035-.117-.049-.178-.041-.058-.006-.117.009-.167.044a.32.32 0 0 0-.115.151 1.12 1.12 0 0 0-.117.502l.047-.084zm5.823 2.427a2.15 2.15 0 0 1-.099.754 1.91 1.91 0 0 1-.347.641c-.364.351-.824.529-1.291.502a1.43 1.43 0 0 1-.731-.14c-.232-.111-.439-.283-.608-.502a2.26 2.26 0 0 1-.399-.745 2.55 2.55 0 0 1-.117-.873v-1.06c-.022-.596.156-1.177.493-1.618.364-.379.831-.587 1.315-.587s.951.209 1.315.587c.162.176.288.392.369.634s.116.502.101.761h-.892a1.43 1.43 0 0 0-.211-.837.88.88 0 0 0-.316-.225c-.117-.048-.242-.066-.365-.054a.73.73 0 0 0-.324.149.9.9 0 0 0-.24.298c-.168.306-.25.667-.235 1.032v1.06c-.02.37.072.736.258 1.032.08.124.183.223.302.291s.248.102.379.1a.66.66 0 0 0 .344-.053.78.78 0 0 0 .29-.226c.157-.226.233-.517.211-.809l.798-.112zm-6.339 7.656a1.45 1.45 0 0 1 .235-.864.89.89 0 0 1 .309-.257.75.75 0 0 1 .371-.077.76.76 0 0 1 .383.074c.121.058.231.147.32.26a1.45 1.45 0 0 1 .234.864 1.42 1.42 0 0 1-.234.864.88.88 0 0 1-.309.257.75.75 0 0 1-.371.077.76.76 0 0 1-.383-.074c-.121-.058-.231-.147-.32-.261a1.42 1.42 0 0 1-.235-.864zm.516 0a1.32 1.32 0 0 0 0 .502c.034.065.083.118.141.153s.123.049.187.043c.058.006.117-.009.167-.044a.32.32 0 0 0 .114-.151c.083-.148.124-.324.117-.502a1.13 1.13 0 0 0-.07-.418.34.34 0 0 0-.127-.154c-.054-.035-.117-.049-.178-.041-.058-.006-.117.009-.167.044s-.09.088-.115.151a1.11 1.11 0 0 0-.117.502l.047-.084zm5.161 2.035h-1.793v2.294h-.896v-5.529h3.092v.857h-2.196v1.52h1.882l-.09.857z"/><rect x="40" y="65" width="10" height="2" rx="1"/><rect x="53" y="65" width="10" height="2" rx="1"/></g><rect x=".75" y=".75" width="102.5" height="170.5" rx="3.25" stroke="#8796a1" stroke-width="1.5"/><defs ><path id="B" d="M54 125a3 3 0 1 1-6 0 3 3 0 1 1 6 0z"/></defs></svg>