<svg xmlns="http://www.w3.org/2000/svg" width="104" height="172" fill="none" xmlns:v="https://vecta.io/nano"><g fill="#fff"><rect x=".75" y=".75" width="102.5" height="170.5" rx="3.25"/><rect x="6.5" y="6.5" width="91" height="159" rx="2.5" stroke="#8796a1"/></g><g fill="#8796a1"><path d="M17 24a2.5 2.5 0 1 1-5 0 2.5 2.5 0 1 1 5 0z"/><rect x="18" y="23" width="20" height="2" rx="1"/><rect x="78" y="23" width="14" height="2" rx="1"/><rect x="12" y="106.5" width="21" height="2" rx="1"/><rect x="35" y="106.5" width="13" height="2" rx="1"/><rect x="12" y="113.5" width="13" height="2" rx="1"/><rect x="27" y="113.5" width="20" height="2" rx="1"/><rect x="12" y="120.5" width="19" height="2" rx="1"/><rect x="33" y="120.5" width="10" height="2" rx="1"/><rect x="12" y="127.5" width="22" height="2" rx="1"/><rect x="36" y="127.5" width="8" height="2" rx="1"/><rect x="12" y="134.5" width="18" height="2" rx="1"/><rect x="32" y="134.5" width="10" height="2" rx="1"/><rect x="12" y="141.5" width="15" height="2" rx="1"/><rect x="29" y="141.5" width="13" height="2" rx="1"/><rect x="12" y="148.5" width="16" height="2" rx="1"/><rect x="30" y="148.5" width="12" height="2" rx="1"/><rect x="56" y="106.5" width="20" height="2" rx="1"/><rect x="78" y="106.5" width="14" height="2" rx="1"/><rect x="61" y="113.5" width="19" height="2" rx="1"/><rect x="82" y="113.5" width="10" height="2" rx="1"/><rect x="56" y="120.5" width="23" height="2" rx="1"/><rect x="81" y="120.5" width="11" height="2" rx="1"/><rect x="62" y="127.5" width="20" height="2" rx="1"/><rect x="84" y="127.5" width="8" height="2" rx="1"/><rect x="65" y="134.5" width="18" height="2" rx="1"/><rect x="85" y="134.5" width="7" height="2" rx="1"/><rect x="69" y="141.5" width="12" height="2" rx="1"/><rect x="83" y="141.5" width="9" height="2" rx="1"/><rect x="62" y="148.5" width="16" height="2" rx="1"/><rect x="80" y="148.5" width="12" height="2" rx="1"/><rect x="12" y="71.5" width="24" height="3" rx="1.5"/><rect x="72" y="71.5" width="20" height="3" rx="1.5"/><rect x="16.5" y="80.5" width="13" height="2" rx="1"/><path d="M26 88a3 3 0 1 1-6 0 3 3 0 1 1 6 0z"/><rect x="15.5" y="93.5" width="15" height="2" rx="1"/><rect x="41" y="80.5" width="22" height="2" rx="1"/><path d="M55 88a3 3 0 1 1-6 0 3 3 0 1 1 6 0z"/><rect x="44.5" y="93.5" width="15" height="2" rx="1"/><rect x="73" y="80.5" width="16" height="2" rx="1"/><path d="M84 88a3 3 0 1 1-6 0 3 3 0 1 1 6 0z"/><rect x="73.5" y="93.5" width="15" height="2" rx="1"/></g><g clip-path="url(#A)"><path d="M92.249 89.675c-.001.179.07.351.196.478s.298.199.478.199.351-.071.478-.197l2.153-2.156c.127-.127.198-.3.197-.48v-.022a.67.67 0 0 0-.197-.499l-2.155-2.15c-.172-.163-.417-.225-.646-.161s-.407.242-.47.471-.002.474.162.645l1.698 1.698-1.698 1.698c-.126.127-.197.298-.197.477h0z" fill="#8796a1"/></g><g clip-path="url(#B)"><path d="M11.752 89.675c.001.179-.07.351-.197.478s-.298.199-.477.199-.351-.071-.478-.197l-2.153-2.156c-.127-.127-.198-.3-.197-.48v-.022a.67.67 0 0 1 .197-.499l2.155-2.15c.172-.163.417-.225.646-.161s.407.242.47.471.002.474-.162.645L9.856 87.5l1.698 1.698c.127.127.197.298.197.477h0z" fill="#8796a1"/></g><path d="M14.83 44.149h1.432a1.43 1.43 0 0 0 .725-.114c.232-.101.441-.263.614-.472a2.72 2.72 0 0 0 .423-1.618c.019-.547-.131-1.083-.423-1.506a1.63 1.63 0 0 0-.584-.441 1.41 1.41 0 0 0-.684-.117 1.62 1.62 0 0 0-1.198.502c-.153.172-.274.38-.354.61a2.1 2.1 0 0 0-.115.729H12.2a4.19 4.19 0 0 1 .267-1.673 3.57 3.57 0 0 1 .884-1.34c.824-.809 1.867-1.235 2.935-1.2 1.134-.074 2.251.342 3.147 1.172.377.406.672.908.863 1.468a4.7 4.7 0 0 1 .24 1.768 3.79 3.79 0 0 1-.516 1.925c-.358.623-.853 1.115-1.432 1.423.649.254 1.21.754 1.597 1.423.378.646.576 1.417.564 2.204a4.75 4.75 0 0 1-.293 1.869c-.22.587-.554 1.103-.975 1.507-.926.847-2.073 1.281-3.24 1.228-1.083.042-2.145-.362-3.006-1.144a3.65 3.65 0 0 1-.966-1.444c-.214-.571-.301-1.197-.255-1.82h2.348a2.25 2.25 0 0 0 .123.806 1.97 1.97 0 0 0 .394.673c.357.392.829.603 1.315.586a1.55 1.55 0 0 0 .748-.131c.239-.106.456-.27.638-.483a2.17 2.17 0 0 0 .406-.743 2.46 2.46 0 0 0 .111-.876 2.44 2.44 0 0 0-.06-.959c-.083-.31-.227-.591-.419-.822a1.73 1.73 0 0 0-.687-.508c-.259-.103-.536-.131-.806-.083h-1.432l.141-2.399zm16.272 9.123h-8.618v-2.037l4.086-5.413a13.05 13.05 0 0 0 1.268-2.12 4.16 4.16 0 0 0 .376-1.59c.014-.585-.143-1.157-.446-1.618-.148-.21-.336-.375-.548-.482a1.25 1.25 0 0 0-.673-.132c-.256-.023-.514.032-.748.158a1.61 1.61 0 0 0-.591.567c-.311.583-.466 1.263-.446 1.953h-2.466a5.66 5.66 0 0 1 .254-1.924 5.03 5.03 0 0 1 .873-1.648 4.16 4.16 0 0 1 1.44-1.139 3.55 3.55 0 0 1 1.706-.339c1.124-.077 2.229.374 3.076 1.255a4.48 4.48 0 0 1 .856 1.532c.19.577.275 1.197.247 1.816a5.37 5.37 0 0 1-.61 2.595 27.09 27.09 0 0 1-2.09 3.153L25.7 50.872h5.401v2.399zm1.777-14.57a1.45 1.45 0 0 1 .235-.865c.086-.112.191-.2.309-.258s.244-.084.371-.077a.76.76 0 0 1 .383.074c.121.058.231.147.321.261.164.245.248.552.235.865a1.42 1.42 0 0 1-.235.865c-.086.112-.191.2-.309.258a.75.75 0 0 1-.372.077.76.76 0 0 1-.383-.074c-.121-.058-.231-.147-.321-.261a1.42 1.42 0 0 1-.235-.865zm.516 0a1.32 1.32 0 0 0 0 .502.38.38 0 0 0 .141.153c.058.035.123.049.187.043.058.006.117-.009.167-.044a.32.32 0 0 0 .115-.151.96.96 0 0 0 .117-.502 1.14 1.14 0 0 0-.07-.419.34.34 0 0 0-.127-.154c-.054-.035-.117-.049-.178-.041-.058-.006-.117.009-.167.044a.32.32 0 0 0-.115.151c-.077.152-.117.325-.117.502l.047-.084zm5.823 2.427a2.15 2.15 0 0 1-.099.754 1.91 1.91 0 0 1-.347.641c-.364.351-.824.529-1.291.502a1.43 1.43 0 0 1-.731-.14c-.232-.111-.439-.283-.608-.502a2.26 2.26 0 0 1-.4-.745 2.55 2.55 0 0 1-.117-.873v-1.06c-.022-.596.155-1.177.493-1.618.364-.379.831-.587 1.315-.587s.951.209 1.315.587a1.77 1.77 0 0 1 .369.634c.081.242.116.502.101.761h-.892a1.43 1.43 0 0 0-.211-.837.88.88 0 0 0-.316-.225c-.117-.048-.242-.066-.365-.054a.73.73 0 0 0-.324.149.9.9 0 0 0-.24.298c-.168.306-.25.667-.235 1.032v1.06c-.02.37.072.736.258 1.032a.89.89 0 0 0 .302.291c.118.068.248.102.379.1a.66.66 0 0 0 .344-.053.78.78 0 0 0 .29-.226c.157-.226.233-.517.211-.809l.798-.112z" fill="#8796a1"/><g fill="#9fa9af"><rect x="40.999" y="37.5" width=".889" height="5.53" rx=".444"/><path d="M43.668 38.701c-.013-.312.07-.619.235-.864a.88.88 0 0 1 .309-.257c.118-.058.244-.084.371-.077a.76.76 0 0 1 .383.074c.121.058.231.147.32.261a1.45 1.45 0 0 1 .235.864c.015.313-.068.621-.235.864a.89.89 0 0 1-.309.257c-.118.058-.244.084-.371.077a.76.76 0 0 1-.383-.074c-.121-.058-.231-.147-.32-.261a1.42 1.42 0 0 1-.235-.864zm.516 0a1.32 1.32 0 0 0 0 .502c.034.065.083.118.141.153s.123.049.187.043c.058.006.117-.009.167-.044a.32.32 0 0 0 .115-.151c.083-.148.124-.324.117-.502.003-.144-.021-.286-.07-.418a.34.34 0 0 0-.127-.154c-.055-.035-.117-.049-.178-.041-.058-.006-.117.009-.167.044a.32.32 0 0 0-.115.151 1.11 1.11 0 0 0-.117.502l.047-.084zm5.16 2.034h-1.793v2.294h-.896V37.5h3.092v.857h-2.196v1.52h1.882l-.09.857z"/></g><g fill="#8796a1"><rect x="34" y="51.5" width="16" height="2" rx="1"/><rect x="68" y="58.5" width="24" height="2" rx="1"/><path d="M91.599 50.766c-.001.996-.397 1.952-1.101 2.657s-1.659 1.101-2.656 1.103h-9.641A4.31 4.31 0 0 1 74 50.217a4.31 4.31 0 0 1 4.201-4.309h.119a4.1 4.1 0 0 1 3.46-3.075 4.1 4.1 0 0 1 4.12 2.109c.204-.048.413-.072.622-.072.666.003 1.309.25 1.806.694s.815 1.054.894 1.716a3.77 3.77 0 0 1 2.376 3.486h0z"/><rect x="12" y="58.5" width="10" height="2" rx="1"/><rect x="25" y="58.5" width="10" height="2" rx="1"/></g><rect x=".75" y=".75" width="102.5" height="170.5" rx="3.25" stroke="#8796a1" stroke-width="1.5"/><defs><clipPath id="A"><path fill="#fff" transform="translate(91 84.5)" d="M0 0h6v6H0z"/></clipPath><clipPath id="B"><path fill="#fff" transform="matrix(-1 0 0 1 13 84.5)" d="M0 0h6v6H0z"/></clipPath></defs></svg>