<svg xmlns="http://www.w3.org/2000/svg" width="104" height="172" fill="none" xmlns:v="https://vecta.io/nano"><g fill="#fff"><rect x=".75" y=".75" width="102.5" height="170.5" rx="3.25"/><rect x="6.5" y="6.5" width="91" height="159" rx="2.5" stroke="#8796a1"/></g><g fill="#8796a1"><path d="M17 14.5a2.5 2.5 0 1 1-5 0 2.5 2.5 0 1 1 5 0z"/><rect x="18" y="13.5" width="20" height="2" rx="1"/><rect x="78" y="13.5" width="14" height="2" rx="1"/><path d="M16 101a2 2 0 1 1-4 0 2 2 0 1 1 4 0z"/><rect x="17" y="100" width="10" height="2" rx="1"/><path d="M40.5 101a2 2 0 1 1-4 0 2 2 0 1 1 4 0z"/><rect x="41.5" y="100" width="16" height="2" rx="1"/><path d="M71 101a2 2 0 1 1-4 0 2 2 0 1 1 4 0z"/><rect x="72" y="100" width="20" height="2" rx="1"/><rect x="12" y="111" width="24" height="3" rx="1.5"/><rect x="72" y="111" width="20" height="3" rx="1.5"/><rect x="12" y="120" width="12" height="2" rx="1"/><path d="M54 121a3 3 0 1 1-6 0 3 3 0 1 1 6 0z"/><rect x="74" y="120" width="8" height="2" rx="1"/><rect x="84" y="120" width="8" height="2" rx="1"/><rect x="12" y="129" width="16" height="2" rx="1"/><path d="M54 130a3 3 0 1 1-6 0 3 3 0 1 1 6 0z"/><rect x="74" y="129" width="8" height="2" rx="1"/><rect x="84" y="129" width="8" height="2" rx="1"/><rect x="12" y="138" width="14" height="2" rx="1"/><path d="M54 139a3 3 0 1 1-6 0 3 3 0 1 1 6 0z"/><rect x="74" y="138" width="8" height="2" rx="1"/><rect x="84" y="138" width="8" height="2" rx="1"/><rect x="12" y="147" width="14" height="2" rx="1"/><path d="M54 148a3 3 0 1 1-6 0 3 3 0 1 1 6 0z"/><rect x="74" y="147" width="8" height="2" rx="1"/><rect x="84" y="147" width="8" height="2" rx="1"/><rect x="12" y="156" width="14" height="2" rx="1"/><path d="M54 157a3 3 0 1 1-6 0 3 3 0 1 1 6 0z"/><rect x="74" y="156" width="8" height="2" rx="1"/><rect x="84" y="156" width="8" height="2" rx="1"/><rect x="37" y="47" width="14" height="2" rx="1"/><rect x="54" y="47" width="14" height="2" rx="1"/><rect x="32" y="52" width="41" height="2" rx="1"/><rect x="29" y="61" width="47" height="2" rx="1"/><rect x="36" y="66" width="33" height="2" rx="1"/><rect x="27" y="71" width="51" height="2" rx="1"/><rect x="33.5" y="76" width="38" height="2" rx="1"/><rect x="38.5" y="81" width="28" height="2" rx="1"/><rect x="36.5" y="86" width="32" height="2" rx="1"/><rect x="36.5" y="91" width="32" height="2" rx="1"/><path d="M46.486 31.649h1.432a1.43 1.43 0 0 0 .725-.114c.232-.101.441-.263.614-.472a2.72 2.72 0 0 0 .423-1.618c.019-.547-.131-1.083-.423-1.507a1.63 1.63 0 0 0-.584-.441 1.41 1.41 0 0 0-.684-.117 1.62 1.62 0 0 0-1.198.502c-.153.172-.274.38-.355.61a2.08 2.08 0 0 0-.115.729h-2.465a4.19 4.19 0 0 1 .267-1.673 3.57 3.57 0 0 1 .884-1.34c.824-.809 1.867-1.235 2.935-1.2 1.133-.074 2.251.342 3.147 1.172.377.406.672.908.863 1.468a4.7 4.7 0 0 1 .24 1.768 3.79 3.79 0 0 1-.517 1.925c-.358.623-.853 1.115-1.433 1.423.649.254 1.21.754 1.597 1.423.378.646.576 1.417.563 2.204a4.75 4.75 0 0 1-.293 1.869c-.22.587-.554 1.103-.975 1.507-.926.847-2.073 1.281-3.24 1.228-1.083.042-2.145-.362-3.006-1.144-.42-.376-.752-.873-.966-1.444s-.301-1.197-.255-1.82h2.348a2.25 2.25 0 0 0 .123.806 1.97 1.97 0 0 0 .394.673c.357.392.829.603 1.315.586a1.55 1.55 0 0 0 .748-.131c.239-.106.456-.27.638-.483a2.17 2.17 0 0 0 .406-.743 2.46 2.46 0 0 0 .111-.876 2.44 2.44 0 0 0-.06-.959c-.083-.31-.227-.591-.419-.822a1.73 1.73 0 0 0-.687-.508c-.259-.103-.536-.131-.806-.083h-1.432l.141-2.399zm16.273 9.123h-8.618v-2.037l4.086-5.413a13.05 13.05 0 0 0 1.268-2.12 4.16 4.16 0 0 0 .376-1.59c.014-.585-.143-1.157-.446-1.618a1.5 1.5 0 0 0-.548-.482 1.25 1.25 0 0 0-.673-.132c-.257-.023-.514.032-.748.159a1.61 1.61 0 0 0-.591.567 3.93 3.93 0 0 0-.446 1.953h-2.466a5.66 5.66 0 0 1 .254-1.924 5.03 5.03 0 0 1 .873-1.648c.407-.496.898-.885 1.44-1.14a3.55 3.55 0 0 1 1.706-.339c1.124-.076 2.229.374 3.076 1.256a4.48 4.48 0 0 1 .856 1.532c.19.577.275 1.197.247 1.816a5.37 5.37 0 0 1-.61 2.595 27.08 27.08 0 0 1-2.09 3.153l-2.348 3.013h5.401v2.399zm1.776-14.57a1.45 1.45 0 0 1 .235-.865c.086-.112.191-.2.309-.258s.244-.084.372-.077a.76.76 0 0 1 .383.074c.121.058.231.147.321.261.164.245.248.552.235.865a1.42 1.42 0 0 1-.235.865c-.086.112-.191.2-.309.258a.75.75 0 0 1-.372.077.76.76 0 0 1-.383-.074c-.121-.058-.231-.147-.321-.261a1.42 1.42 0 0 1-.235-.865zm.516 0a1.32 1.32 0 0 0 0 .502.38.38 0 0 0 .141.153c.058.034.123.049.187.043.058.006.117-.009.167-.044s.091-.088.115-.151a.96.96 0 0 0 .117-.502 1.14 1.14 0 0 0-.07-.418.34.34 0 0 0-.127-.154c-.054-.035-.117-.049-.178-.041-.058-.006-.117.009-.167.044a.32.32 0 0 0-.115.151c-.077.152-.117.325-.117.502l.047-.084zm5.824 2.427a2.16 2.16 0 0 1-.099.754 1.91 1.91 0 0 1-.347.641c-.364.351-.824.529-1.291.502a1.43 1.43 0 0 1-.731-.14 1.69 1.69 0 0 1-.608-.502 2.26 2.26 0 0 1-.4-.745 2.55 2.55 0 0 1-.117-.873v-1.06c-.022-.596.156-1.177.493-1.618.364-.379.831-.588 1.315-.588s.951.209 1.315.588c.162.176.288.392.369.634s.116.502.101.761h-.892a1.43 1.43 0 0 0-.211-.837.88.88 0 0 0-.316-.225.76.76 0 0 0-.365-.054.73.73 0 0 0-.324.149.9.9 0 0 0-.24.298 1.98 1.98 0 0 0-.235 1.032v1.06c-.02.37.072.735.258 1.032a.9.9 0 0 0 .302.291c.118.068.248.102.379.1a.66.66 0 0 0 .344-.053.78.78 0 0 0 .29-.226c.157-.226.233-.517.211-.809l.798-.112z"/></g><g fill="#9fa9af"><rect x="72.656" y="25" width=".889" height="5.53" rx=".444"/><path d="M75.324 26.2c-.013-.312.07-.619.235-.864a.88.88 0 0 1 .309-.257c.118-.058.244-.084.371-.077a.76.76 0 0 1 .383.074c.121.058.231.147.32.261a1.45 1.45 0 0 1 .234.864 1.42 1.42 0 0 1-.234.864.89.89 0 0 1-.309.257c-.118.058-.244.084-.371.077a.76.76 0 0 1-.383-.074c-.121-.058-.231-.147-.32-.261a1.42 1.42 0 0 1-.235-.864zm.516 0a1.32 1.32 0 0 0 0 .502c.034.065.083.118.141.152s.123.049.187.043c.058.006.117-.009.167-.044s.09-.088.115-.151c.083-.148.124-.324.117-.502a1.13 1.13 0 0 0-.07-.418.34.34 0 0 0-.127-.154c-.054-.035-.117-.049-.178-.041-.058-.006-.116.009-.167.044a.32.32 0 0 0-.115.151 1.12 1.12 0 0 0-.117.502l.047-.084zm5.161 2.034h-1.793v2.294h-.896V25h3.092v.857h-2.196v1.52h1.882l-.09.857z"/></g><path d="M40.199 36.916a3.76 3.76 0 0 1-3.757 3.76h-9.641a4.31 4.31 0 0 1-4.201-4.309 4.31 4.31 0 0 1 4.201-4.309h.119a4.1 4.1 0 0 1 3.46-3.075 4.1 4.1 0 0 1 4.12 2.109c.204-.047.413-.072.622-.072.666.003 1.309.25 1.806.694s.815 1.054.894 1.716a3.77 3.77 0 0 1 2.377 3.486h0z" fill="#8796a1"/><rect x=".75" y=".75" width="102.5" height="170.5" rx="3.25" stroke="#8796a1" stroke-width="1.5"/></svg>