<svg xmlns="http://www.w3.org/2000/svg" xmlns:xlink="http://www.w3.org/1999/xlink" width="160" height="96" fill="none"><rect x=".75" y=".75" width="158.5" height="94.5" rx="3.25" fill="#fff"/><g fill="#546069"><path d="M28.714 21.967c1.073-2.59-.157-5.558-2.747-6.631s-5.558.157-6.631 2.747.157 5.558 2.747 6.631 5.558-.157 6.631-2.747zm-4.639-8.192c.45 0 .825-.375.825-.825v-1.025c0-.45-.375-.825-.825-.825s-.825.35-.825.825v1.025c0 .45.375.825.825.825zm-5.6 1.8A.831.831 0 1 0 19.65 14.4l-.725-.725a.831.831 0 1 0-1.175 1.175l.725.725zm-.7 4.4c0-.45-.375-.825-.825-.825h-1.025c-.45 0-.825.375-.825.825s.375.825.825.825h1.025c.45.025.825-.35.825-.825zm.625 4.45l-.725.725a.831.831 0 1 0 1.175 1.175l.725-.725a.831.831 0 1 0-1.175-1.175zm5.575 1.875c-.45 0-.825.375-.825.825v1.025c0 .45.375.825.825.825s.825-.375.825-.825v-1.025c.025-.45-.35-.825-.825-.825zm5.625-1.8a.831.831 0 1 0-1.175 1.175l.725.725a.831.831 0 1 0 1.175-1.175L29.6 24.5zm2.55-5.25h-1.025c-.45 0-.825.375-.825.825s.375.825.825.825h1.025c.45 0 .825-.375.825-.825s-.375-.825-.825-.825zm-2.475-3.6l.725-.725a.831.831 0 1 0-1.175-1.175l-.725.725a.831.831 0 1 0 1.175 1.175zM57.55 19.7h-.05-.025-.025c0 .025-.025.025-.025.025-.625.375-1.35.6-2.15.6a4.14 4.14 0 0 1-4.15-4.15c0-.55.125-1.1.325-1.6.025-.025.025-.025.025-.05v-.05c0-.125-.1-.2-.2-.2h-.05a5.75 5.75 0 1 0 6.525 5.7v-.05-.075c-.025-.1-.1-.15-.2-.15zm27.375 2.975C84.7 20.075 82.525 18 79.85 18c-1.9 0-3.525 1.025-4.425 2.55-.475-.4-1.1-.625-1.775-.625-1.55 0-2.825 1.25-2.825 2.825-1.425.35-2.5 1.65-2.5 3.175A3.29 3.29 0 0 0 71.6 29.2h13.3a3.29 3.29 0 0 0 3.275-3.275 3.31 3.31 0 0 0-3.25-3.25zm.65-.675c.4.075.775.2 1.125.375 1.275-.875 2.025-2.425 1.825-4.075-.275-2.375-2.45-4.1-4.825-3.825-1.675.2-3.025 1.325-3.575 2.8 2.675.125 4.95 2.125 5.45 4.725zm-2.75-9.175a.718.718 0 1 0 1.425-.175l-.1-.875a.718.718 0 0 0-1.425.175l.1.875zM78.325 15l.7.55c.3.25.75.2 1-.125.25-.3.2-.75-.125-1l-.7-.55c-.3-.25-.75-.2-1 .125s-.2.775.125 1zm11.75 7.6l-.7-.55c-.3-.25-.75-.2-1 .125-.25.3-.2.75.125 1l.7.55c.3.25.75.2 1-.125s.2-.775-.125-1z"/><use xlink:href="#B"/><use xlink:href="#C"/><path d="M113.075 22.725a5.17 5.17 0 0 0-5.15-4.725c-1.925 0-3.575 1.05-4.475 2.6-.5-.4-1.125-.65-1.8-.65a2.85 2.85 0 0 0-2.85 2.85c-1.45.35-2.55 1.675-2.55 3.225a3.34 3.34 0 0 0 3.325 3.325h13.475a3.34 3.34 0 0 0 3.325-3.325c-.025-1.8-1.5-3.3-3.3-3.3zm6.5-5.5h-.05-.025s-.025 0-.025.025a3.73 3.73 0 0 1-1.9.525 3.63 3.63 0 0 1-3.625-3.625c0-.5.1-.975.275-1.425 0 0 0-.025.025-.025v-.025a.17.17 0 0 0-.175-.175h-.05c-2.475.325-4.375 2.425-4.375 5 2.05.625 3.65 2.375 4.075 4.525a3.79 3.79 0 0 1 1.375.5c2.6-.2 4.65-2.375 4.65-5.025v-.075-.075c-.025-.075-.075-.125-.175-.125zM139.6 23.15c-.2-2.4-2.2-4.3-4.675-4.3-1.75 0-3.25.95-4.05 2.35-.45-.35-1.025-.575-1.625-.575a2.6 2.6 0 0 0-2.6 2.6c-1.325.325-2.3 1.5-2.3 2.925a3.01 3.01 0 0 0 3 3h12.225a3.01 3.01 0 0 0 3-3c0-1.65-1.35-3-2.975-3z"/><use xlink:href="#D"/><path d="M133.925 18.225a4.6 4.6 0 0 1 1.025-.1c2.4 0 4.475 1.6 5.175 3.8 1.1-.5 1.975-1.475 2.325-2.65h-.825a1.98 1.98 0 0 1-1.975-1.975c0-.725.4-1.375 1.025-1.725a1.93 1.93 0 0 1 .55-.85c-.825-.75-1.925-1.2-3.125-1.15-2.4.1-4.275 2.125-4.175 4.525-.025.05 0 .1 0 .125zm4.15-5.65h.025c.375-.025.675-.35.675-.725l-.025-.925c-.025-.375-.35-.675-.725-.675H138c-.375.025-.675.35-.675.725l.025.925c.025.4.35.7.725.675zm-4.725 1.75a.71.71 0 0 0 1-.05l.025-.025a.71.71 0 0 0-.05-1l-.675-.625a.71.71 0 0 0-1 .05l-.025.025a.71.71 0 0 0 .05 1l.675.625zM131.3 18.9l.9-.025h.05a.61.61 0 0 0 .525-.3c.075-.125.125-.25.125-.425v-.05c-.025-.375-.325-.675-.725-.65l-.95.05c-.375.025-.675.325-.65.7v.05c.025.375.325.675.725.65zm11.9 2.7a.71.71 0 0 0-1 .05l-.025.025a.71.71 0 0 0 .05 1l.675.625a.71.71 0 0 0 1-.05l.025-.025a.71.71 0 0 0-.05-1l-.675-.625zm-.225-7.6l.625-.675a.71.71 0 0 0-.05-1l-.025-.025a.71.71 0 0 0-1 .05l-.625.675a.72.72 0 0 0 .075 1.025.71.71 0 0 0 1-.05zm-115.3 37.15c-.2-2.4-2.2-4.3-4.675-4.3-1.75 0-3.25.95-4.05 2.35-.45-.35-1.025-.575-1.625-.575a2.6 2.6 0 0 0-2.6 2.6c-1.325.325-2.3 1.5-2.3 2.925a3.01 3.01 0 0 0 3 3H27.65a3.01 3.01 0 0 0 3-3c0-1.65-1.325-3-2.975-3z"/><use xlink:href="#D" x="-111.925" y="27.225"/><path d="M33.05 46.5H33h-.025-.025s-.025 0-.025.025c-.575.35-1.225.55-1.95.55-2.075 0-3.75-1.675-3.75-3.75a3.5 3.5 0 0 1 .3-1.45s0-.025.025-.05 0-.025 0-.025a.17.17 0 0 0-.175-.175h-.05c-2.325.3-4.15 2.125-4.45 4.45H23c2.6 0 4.825 1.875 5.325 4.35.75.15 1.425.5 1.925 1C32 50.6 33.2 48.8 33.2 46.75c.025 0 .025-.025.025-.05v-.075c-.025-.075-.1-.125-.175-.125zm22.8 4.25a4.76 4.76 0 0 0-4.725-4.35A4.77 4.77 0 0 0 47 48.775c-.45-.375-1.025-.575-1.65-.575-1.45 0-2.625 1.175-2.625 2.625-1.325.325-2.325 1.525-2.325 2.95 0 1.675 1.375 3.05 3.05 3.05h12.375c1.675 0 3.05-1.375 3.05-3.05 0-1.65-1.35-3-3.025-3.025zm5.95-9.4c-.15-1.7-1.575-3.025-3.3-3.025A3.32 3.32 0 0 0 55.625 40c-.325-.25-.725-.4-1.15-.4a1.82 1.82 0 0 0-1.825 1.825c-.925.225-1.625 1.075-1.625 2.075 0 1.175.95 2.125 2.125 2.125h8.65c1.175 0 2.125-.95 2.125-2.125-.025-1.175-.975-2.125-2.125-2.15z"/></g><g clip-path="url(#A)"><g fill-rule="evenodd" fill="#546069"><path d="M84.925 48.4c-.225-2.625-2.4-4.675-5.075-4.675-1.9 0-3.525 1.025-4.425 2.55-.475-.4-1.1-.625-1.775-.625-1.55 0-2.825 1.25-2.825 2.825-1.425.35-2.5 1.65-2.5 3.175a3.29 3.29 0 0 0 3.275 3.275h13.3a3.29 3.29 0 0 0 3.275-3.275c-.025-1.775-1.475-3.25-3.25-3.25zm.65-.675c.4.075.775.2 1.125.375 1.275-.875 2.025-2.425 1.825-4.075-.275-2.375-2.45-4.1-4.825-3.825-1.675.2-3.025 1.325-3.575 2.8 2.675.125 4.95 2.1 5.45 4.725zm-2.75-9.175a.718.718 0 1 0 1.425-.175l-.125-.875a.718.718 0 1 0-1.425.175l.125.875zm-4.5 2.175l.7.55c.3.25.75.2 1-.125.25-.3.2-.75-.125-1l-.7-.55c-.3-.25-.75-.2-1 .125-.25.3-.2.75.125 1zm11.75 7.575l-.675-.55c-.3-.25-.75-.2-1 .125-.25.3-.2.75.125 1l.7.55c.3.25.75.2 1-.125.225-.3.175-.75-.15-1zm1.75-4.65a.71.71 0 0 0-.8-.625l-.875.1a.718.718 0 1 0 .175 1.425l.875-.1a.71.71 0 0 0 .625-.8zM88.55 40.2l.55-.7c.25-.3.2-.75-.125-1-.3-.25-.75-.2-1 .125l-.55.7c-.225.3-.175.75.125 1s.75.2 1-.125z"/></g><use xlink:href="#E" fill="#546069"/><path d="M78.05 57.075a.75.75 0 1 0 0-1.5.75.75 0 1 0 0 1.5zm4.775 0a.75.75 0 1 0 0-1.5.75.75 0 1 0 0 1.5zm-7.175 2.35a.75.75 0 1 0 0-1.5.75.75 0 1 0 0 1.5zm4.8 0a.75.75 0 1 0 0-1.5.75.75 0 1 0 0 1.5z" fill="#546069"/></g><g fill="#546069"><path d="M113.075 48.3a5.17 5.17 0 0 0-5.15-4.725c-1.925 0-3.575 1.05-4.475 2.6-.5-.4-1.125-.65-1.8-.65a2.85 2.85 0 0 0-2.85 2.85c-1.45.375-2.55 1.675-2.55 3.225a3.34 3.34 0 0 0 3.325 3.325h13.475a3.34 3.34 0 0 0 3.325-3.325c-.025-1.8-1.5-3.275-3.3-3.3zm6.5-5.5h-.05-.025s-.025 0-.025.025a3.73 3.73 0 0 1-1.9.525 3.63 3.63 0 0 1-3.625-3.625c0-.5.1-.975.275-1.425 0 0 0-.025.025-.025v-.025a.17.17 0 0 0-.175-.175h-.05c-2.475.325-4.375 2.425-4.375 5 2.05.625 3.65 2.375 4.075 4.525a3.79 3.79 0 0 1 1.375.5c2.6-.175 4.65-2.35 4.65-5V43v-.075c-.025-.075-.075-.125-.175-.125z" fill-rule="evenodd"/><use xlink:href="#E" x="27.975"/><use xlink:href="#E" x="32.775"/><use xlink:href="#E" x="37.55"/><use xlink:href="#E" x="30.375" y="2.35"/><use xlink:href="#E" x="35.15" y="2.35"/><path d="M144.375 42.55c-.225-2.65-2.425-4.7-5.125-4.7a5.15 5.15 0 0 0-4.45 2.575c-.475-.4-1.1-.625-1.8-.625a2.85 2.85 0 0 0-2.85 2.85 3.32 3.32 0 0 0-2.425 2.425 3.53 3.53 0 0 1 1.75-.475c.55 0 1.075.125 1.575.375a5.85 5.85 0 0 1 4.675-2.3 5.92 5.92 0 0 1 5.775 4.775 4.15 4.15 0 0 1 2.675 1.725h.175c1.825 0 3.3-1.475 3.3-3.3-.025-1.85-1.475-3.325-3.275-3.325zm-3.525 5.525c-.2-2.625-2.425-4.7-5.1-4.7a5.15 5.15 0 0 0-4.45 2.575 2.81 2.81 0 0 0-1.8-.625 2.85 2.85 0 0 0-2.85 2.85c-1.425.35-2.525 1.65-2.525 3.2 0 1.8 1.475 3.3 3.3 3.3h1.625l1.15-2.25c.2-.375.65-.525 1-.325.375.2.525.65.325 1l-.775 1.575h2.15l-1.2 2.375a.744.744 0 1 0 1.325.675l1.575-3.075h-1.65l1.125-2.225c.2-.375.65-.525 1-.325.375.2.525.65.325 1l-.8 1.575h2.175l1.15-2.25c.2-.375.65-.525 1-.325.375.2.525.65.325 1l-.775 1.55H136.8l-1.225 2.4a.744.744 0 1 0 1.325.675l1.55-3.05h2.35c1.8 0 3.3-1.475 3.3-3.3.025-1.8-1.45-3.275-3.25-3.3z"/><path d="M127.85 57.05a.744.744 0 1 0 1.325.675l1.575-3.05h-1.675l-1.225 2.375zM29.1 75.25c-.225-2.625-2.425-4.7-5.125-4.7a5.15 5.15 0 0 0-4.45 2.575 2.86 2.86 0 0 0-1.8-.625 2.85 2.85 0 0 0-2.85 2.85 3.3 3.3 0 0 0-2.5 3.2c0 1.8 1.475 3.3 3.3 3.3h3.2L21.9 76.2c.15-.275.45-.45.75-.45a.84.84 0 0 1 .65.3.74.74 0 0 1 .2.675l-.35 3.025 1.475-.1h.025c.325 0 .6.175.75.45s.15.625-.025.875l-.55.85h4.225c1.825 0 3.3-1.475 3.3-3.3a3.3 3.3 0 0 0-3.25-3.275zm3.5-5.525a5.12 5.12 0 0 0-5.1-4.7 5.15 5.15 0 0 0-4.45 2.575c-.475-.4-1.1-.625-1.8-.625a2.85 2.85 0 0 0-2.85 2.85 3.32 3.32 0 0 0-2.425 2.425 3.53 3.53 0 0 1 1.75-.475c.55 0 1.075.125 1.575.375a5.85 5.85 0 0 1 4.675-2.3 5.92 5.92 0 0 1 5.775 4.775 4.15 4.15 0 0 1 2.675 1.725h.175c1.825 0 3.3-1.475 3.3-3.3-.025-1.85-1.5-3.325-3.3-3.325zm-7.95 10.7l-2.225.125c-.075 0-.125-.05-.125-.125l.425-3.825c.025-.125-.15-.175-.2-.075L19.4 82.45c-.05.075.025.175.1.175l1.7-.05c.075 0 .125.05.1.125l-.6 3.85c-.025.125.15.175.2.075l3.85-6.05c.05-.075 0-.175-.1-.15zm37.225.375l-1.175-.675.675-.175c.2-.05.325-.25.275-.475-.05-.2-.25-.325-.475-.275l-1.4.375-1.05-.6 1.7-.45c.2-.05.325-.25.275-.475-.05-.2-.25-.325-.475-.275l-2.425.65-1.05-.6 2.75-.725c.2-.05.325-.25.275-.475-.05-.2-.25-.325-.475-.275l-3.475.925-.9-.525v-1.5l.925-.525 3.475.925c.2.05.4-.075.475-.275.05-.2-.075-.4-.275-.475l-2.75-.725 1.05-.6 2.425.65c.2.05.4-.075.475-.275.05-.2-.075-.4-.275-.475l-1.7-.45 1.05-.6 1.4.375c.2.05.4-.075.45-.275s-.075-.4-.275-.45L60.7 71.9l1.175-.675c.175-.125.225-.35.1-.525-.1-.15-.325-.225-.475-.125l-1.175.675.175-.675c.05-.2-.075-.4-.275-.475-.2-.05-.4.075-.475.275l-.375 1.4-1.05.6.45-1.7c.05-.2-.075-.4-.275-.475-.2-.05-.4.075-.475.275l-.65 2.425-1.05.6.725-2.75c.05-.2-.075-.4-.275-.475-.2-.05-.4.075-.475.275l-.925 3.475-.9.525-1.35-.75v-1.05l2.625-2.525c.15-.15.15-.4 0-.525-.15-.15-.375-.15-.525 0l-2 2v-1.2L55 68.725c.15-.15.15-.4 0-.525-.15-.15-.375-.15-.525 0l-1.25 1.25v-1.2l1.025-1.025c.15-.15.15-.4 0-.525-.15-.15-.375-.15-.525 0l-.5.5v-1.425c0-.2-.175-.375-.375-.375s-.375.175-.375.375v1.35l-.5-.5c-.15-.15-.4-.15-.525 0-.15.15-.15.375 0 .525l1.025 1.025v1.2l-1.25-1.25c-.15-.15-.4-.15-.525 0-.15.15-.15.375 0 .525l1.775 1.775v1.2l-2-2c-.15-.15-.4-.15-.525 0-.15.15-.15.375 0 .525l2.5 2.6v1.025l-1.325.8-.925-.525-.925-3.475c-.05-.2-.25-.325-.475-.275-.2.05-.325.25-.275.475l.725 2.75-1-.6-.65-2.425a.4.4 0 0 0-.475-.275c-.2.05-.325.25-.275.475l.45 1.7-1.05-.6-.375-1.4c-.05-.2-.25-.325-.475-.275-.2.05-.325.25-.275.475l.175.675-1.175-.675c-.2-.1-.425-.025-.5.175-.075.175-.025.375.125.475l1.175.675-.675.175c-.2.05-.325.25-.275.475.05.2.25.325.475.275l1.4-.375 1.05.6-1.675.425c-.2.05-.325.275-.25.475.05.15.2.275.35.275.025 0 .075 0 .1-.025l2.425-.65 1.05.6-2.75.725c-.2.05-.325.275-.25.475.05.15.2.275.35.275.025 0 .075 0 .1-.025l3.475-.925.875.5.025 1.55-.9.525-3.475-.925c-.2-.05-.4.075-.475.275-.05.2.075.4.275.475l2.75.725-1.05.6-2.425-.65c-.2-.05-.4.075-.475.275-.05.2.075.4.275.475l1.7.45-1.05.6L44.5 79.2c-.2-.05-.4.075-.475.275-.05.2.075.4.275.475l.675.175-1.175.675c-.175.1-.25.325-.15.525a.39.39 0 0 0 .325.2c.075 0 .125-.025.2-.05l1.175-.675-.175.675c-.05.2.075.4.275.45s.4-.075.45-.275l.375-1.4 1.05-.6-.45 1.7c-.05.2.075.4.275.475.2.05.4-.075.475-.275l.65-2.425 1.05-.6-.725 2.75c-.05.2.075.4.275.45s.4-.075.45-.275l.925-3.475.875-.5 1.35.75v1.025l-2.55 2.55c-.15.15-.15.4 0 .525.15.15.375.15.525 0l2-2v1.2L50.675 83.3c-.15.15-.15.4 0 .525.15.15.375.15.525 0l1.25-1.25v1.2L51.425 84.8c-.15.15-.15.4 0 .525.15.15.375.15.525 0l.5-.5v1.35c0 .2.175.375.375.375s.375-.175.375-.375v-1.35l.5.5c.15.15.375.15.525 0s.15-.4 0-.525L53.2 83.775v-1.2l1.25 1.25c.15.15.375.15.525 0s.15-.4 0-.525L53.2 81.525v-1.2l2 2c.15.15.375.15.525 0s.15-.4 0-.525L53.2 79.25v-1.025l1.325-.8.925.525.925 3.475c.05.2.25.325.475.275.2-.05.325-.25.275-.45L56.4 78.5l1.05.6.65 2.425c.05.2.25.325.475.275.2-.05.325-.25.275-.475l-.45-1.7 1.05.6.375 1.4c.05.2.25.325.475.275.2-.05.325-.25.275-.45l-.175-.675 1.175.675c.175.1.425.025.525-.15 0-.175-.05-.4-.225-.5zM72.5 70.375h12.075c.475 0 .875-.4.875-.875s-.4-.875-.875-.875H72.5c-.475 0-.875.4-.875.875s.4.875.875.875zM83.225 76c0-.475-.4-.875-.875-.875H70.275c-.475 0-.875.4-.875.875s.4.875.875.875H82.35a.87.87 0 0 0 .875-.875zm-1.6 6.025H74.3c-.475 0-.875.4-.875.875s.4.875.875.875h7.325a.87.87 0 0 0 .875-.875c0-.475-.4-.875-.875-.875zm4.85 0h-2.1c-.475 0-.875.4-.875.875s.4.875.875.875h2.1c.475 0 .875-.4.875-.875s-.4-.875-.875-.875zm3.575-6.9h-5.125c-.475 0-.875.4-.875.875s.4.875.875.875h5.125a.87.87 0 0 0 .875-.875c0-.475-.4-.875-.875-.875zm-10.325-2.25c0 .475.4.875.875.875h7.875c.475 0 .875-.4.875-.875s-.4-.875-.875-.875H80.6c-.475 0-.875.4-.875.875zm7.1 5.4H78.95c-.475 0-.875.4-.875.875s.4.875.875.875h7.875c.475 0 .875-.4.875-.875s-.4-.875-.875-.875zm-9.7.875c0-.475-.4-.875-.875-.875h-3.425c-.475 0-.875.4-.875.875s.4.875.875.875h3.425c.475 0 .875-.4.875-.875zM75.8 72c-.475 0-.875.4-.875.875s.4.875.875.875h2.15c.5 0 .9-.4.875-.875 0-.475-.4-.875-.875-.875H75.8z"/></g><rect x=".75" y=".75" width="158.5" height="94.5" rx="3.25" stroke="#8796a1" stroke-width="1.5"/><defs><clipPath id="A"><path fill="#fff" transform="translate(68 36)" d="M0 0h24v24H0z"/></clipPath><path id="B" d="M91.825 17.95a.71.71 0 0 0-.8-.625l-.875.1a.71.71 0 1 0 .175 1.425l.875-.1a.71.71 0 0 0 .625-.8z"/><path id="C" d="M88.55 14.5l.55-.7c.25-.3.2-.75-.125-1-.3-.25-.75-.2-1 .125l-.55.7c-.225.3-.175.75.125 1s.75.2 1-.125z"/><path id="D" d="M146.625 16.075c-.075-.975-.9-1.75-1.9-1.75-.7 0-1.325.4-1.65.975-.175-.15-.425-.225-.675-.225-.575 0-1.05.475-1.05 1.05-.55.125-.95.625-.95 1.2 0 .675.55 1.225 1.225 1.225h5c.675 0 1.225-.55 1.225-1.225 0-.7-.55-1.25-1.225-1.25z"/><path id="E" d="M73.275 57.075a.75.75 0 1 0 0-1.5.75.75 0 1 0 0 1.5z"/></defs></svg>