<svg xmlns="http://www.w3.org/2000/svg" xmlns:xlink="http://www.w3.org/1999/xlink" width="160" height="96" fill="none"><rect x=".75" y=".75" width="158.5" height="94.5" rx="3.25" fill="#fff"/><g fill="#546069"><path d="M24 14.25a5.75 5.75 0 1 0 0 11.5 5.75 5.75 0 1 0 0-11.5zm0 10.625c-2.675 0-4.875-2.175-4.875-4.875S21.3 15.125 24 15.125A4.9 4.9 0 0 1 28.875 20 4.9 4.9 0 0 1 24 24.875zM23.675 12.7h.65c.075 0 .125-.05.125-.125V9.5c0-.075-.05-.125-.125-.125h-.65c-.075 0-.125.05-.125.125v3.1c0 .05.075.1.125.1zm.65 14.6h-.65c-.075 0-.125.05-.125.125V30.5c0 .075.05.125.125.125h.65c.075 0 .125-.05.125-.125v-3.075c0-.075-.075-.125-.125-.125zM34.5 19.55h-3.075c-.075 0-.125.05-.125.125v.65c0 .075.05.125.125.125H34.5c.075 0 .125-.05.125-.125v-.65c0-.05-.05-.125-.125-.125zm-17.925 0H13.5c-.075 0-.125.05-.125.125v.65c0 .075.05.125.125.125h3.1c.075 0 .125-.05.125-.125v-.65c-.025-.05-.075-.125-.15-.125zm14.15-6.75c-.05-.05-.125-.05-.175 0l-1.475 1.475c-.05.05-.05.125 0 .175l.45.45c.05.05.125.05.175 0l1.475-1.475c.05-.05.05-.125 0-.175l-.45-.45zM18.45 25.1c-.05-.05-.125-.05-.175 0L16.8 26.575c-.05.05-.05.125 0 .175l.45.45c.05.05.125.05.175 0l1.475-1.475c.05-.05.05-.125 0-.175l-.45-.45zm11.25-.025c-.05-.05-.125-.05-.175 0l-.45.45c-.05.05-.05.125 0 .175l1.475 1.475c.05.05.125.05.175 0l.45-.45c.05-.05.05-.125 0-.175L29.7 25.075z"/><path d="M18.275 14.9c.05.05.125.05.175 0l.45-.45c.05-.05.05-.125 0-.175L17.425 12.8c-.05-.05-.125-.05-.175 0l-.45.45c-.05.05-.05.125 0 .175l1.475 1.475zm38.65 6.25c-.95.45-2.075.5-3.075.125a4.09 4.09 0 0 1-2.3-2.125c-.6-1.275-.35-2.95.625-4.275l.225-.3c.125-.175 0-.45-.225-.425l-.375.025c-.7.05-1.45.25-2.175.6-1.4.65-2.475 1.825-3.025 3.275a5.84 5.84 0 0 0 .2 4.45c.65 1.4 1.825 2.475 3.275 3.025.65.225 1.325.35 2 .35.85 0 1.675-.175 2.45-.55a6.44 6.44 0 0 0 2.025-1.55c.525-.625.925-1.4 1.175-2.225l.125-.45c.075-.25-.2-.425-.4-.3l-.525.35zm-1.05 2.05c-.475.55-1.075 1-1.725 1.325-1.175.55-2.525.6-3.8.15-1.25-.45-2.225-1.375-2.775-2.575-.55-1.175-.6-2.525-.15-3.8.45-1.25 1.375-2.225 2.575-2.775.325-.15.65-.275.95-.35-.725 1.425-.8 3.05-.2 4.325.55 1.175 1.575 2.1 2.8 2.575a5.04 5.04 0 0 0 2.975.15c-.2.375-.4.7-.65.975zM90.2 20.85A5.9 5.9 0 0 0 87 18.3c-.025 0-.025 0-.05-.025.1-.525.1-1.075 0-1.6-.125-.65-.45-1.25-.975-1.8-.5-.5-1.1-.85-1.75-1.025-.7-.175-1.4-.175-2.025.025-.675.2-1.275.575-1.725 1.075a3.76 3.76 0 0 0-.7 1.175l-.875-.375c-1.6-.65-3.375-.7-5-.125-1.625.55-3.025 1.65-3.9 3.125a7.32 7.32 0 0 0-.95 4.925c.275 1.7 1.125 3.25 2.45 4.375 1.3 1.125 2.975 1.725 4.675 1.725h9c1.425 0 2.775-.5 3.8-1.4 1.075-.875 1.775-2.15 2-3.55s-.05-2.8-.775-3.975zm-9.075-5.275c.35-.375.8-.675 1.325-.825.475-.15 1.025-.15 1.575-.025.5.125.95.4 1.35.775.4.4.625.875.75 1.375.075.4.1.825.025 1.225a5.91 5.91 0 0 0-3.15.35 3.68 3.68 0 0 0-.55.25 6.75 6.75 0 0 0-1.9-2.05c.1-.4.3-.775.575-1.075zm9 9.1c-.175 1.2-.8 2.25-1.7 3.025-.875.775-2.025 1.2-3.225 1.2h-9c-1.5 0-2.975-.55-4.125-1.525-1.15-1-1.925-2.35-2.15-3.825-.25-1.55.025-3.05.825-4.35.775-1.3 2-2.275 3.45-2.75.65-.225 1.35-.35 2.025-.35a6.56 6.56 0 0 1 2.375.45c1.3.525 2.375 1.45 3.075 2.6-.65.475-1.2 1.125-1.625 1.85-.05.1-.025.2.075.25l.45.225c.1.05.2 0 .25-.075.55-1 1.425-1.75 2.475-2.175 1.1-.45 2.325-.475 3.45-.125 1.125.375 2.1 1.125 2.725 2.175.6 1.025.825 2.225.65 3.4zm-7.225-11.4h.625c.075 0 .125-.05.125-.125V10.8c0-.075-.05-.125-.125-.125H82.9c-.075 0-.125.05-.125.125v2.35c.025.075.075.125.125.125zm4.775 4.1V18c0 .075.05.125.125.125h2.325c.075 0 .125-.05.125-.125v-.625c0-.075-.05-.125-.125-.125H87.8c-.075 0-.125.075-.125.125z"/><use xlink:href="#B"/><use xlink:href="#C"/><path d="M118.2 20.85a5.9 5.9 0 0 0-3.2-2.55c-.225-.075-.45-.125-.675-.175.325-.425.575-.9.725-1.375l.125-.45c.05-.2-.15-.375-.325-.275l-.5.25c-.65.3-1.325.325-1.95.075-.625-.2-1.125-.675-1.425-1.3-.375-.8-.225-1.85.4-2.65l.275-.375c.125-.175 0-.4-.225-.375l-.475.05c-.5.05-1 .2-1.45.4-.925.425-1.7 1.225-2.05 2.225-.175.5-.275 1-.225 1.55l-.325-.15c-1.6-.65-3.375-.7-5-.125s-3.025 1.675-3.9 3.15a7.32 7.32 0 0 0-.95 4.925c.275 1.7 1.125 3.25 2.45 4.375 1.3 1.125 2.975 1.725 4.675 1.725h9c1.425 0 2.775-.5 3.8-1.4 1.075-.875 1.775-2.15 2-3.55s-.05-2.8-.775-3.975zm-9.925-6.2c.3-.775.875-1.4 1.6-1.725l.275-.125c-.35.875-.35 1.825.025 2.625.375.85 1.075 1.475 1.925 1.75.55.2 1.125.25 1.725.15-.075.125-.15.225-.25.35a2 2 0 0 1-.325.325c-.775 0-1.55.125-2.275.425a3.68 3.68 0 0 0-.55.25c-.55-.925-1.325-1.7-2.225-2.3a2.9 2.9 0 0 1 .075-1.725zm9.85 10.025c-.175 1.2-.8 2.25-1.7 3.025-.875.775-2.025 1.2-3.225 1.2h-9c-1.5 0-2.975-.55-4.125-1.525-1.15-1-1.925-2.35-2.15-3.825-.25-1.55.025-3.05.825-4.35.775-1.3 2-2.275 3.45-2.75.65-.225 1.35-.35 2.025-.35a6.56 6.56 0 0 1 2.375.45c1.3.525 2.375 1.45 3.075 2.6-.675.5-1.225 1.15-1.65 1.9-.025.075 0 .15.05.175l.55.275c.05.025.125 0 .175-.05.55-1.025 1.45-1.8 2.5-2.2 1.1-.45 2.325-.475 3.45-.125 1.125.375 2.1 1.125 2.725 2.175.6 1 .825 2.2.65 3.375zM138.5 29.55h-7.45c-1.425 0-2.825-.5-3.9-1.425-1.1-.925-1.825-2.2-2.05-3.65-.25-1.45.025-2.925.775-4.125a5.9 5.9 0 0 1 3.25-2.6c1.325-.45 2.8-.4 4.175.1 1.2.5 2.225 1.325 2.9 2.4l.45-.2c1.05-.425 2.25-.475 3.4-.1 1.1.35 2.05 1.125 2.675 2.125s.85 2.2.65 3.35A4.97 4.97 0 0 1 141.7 28.4c-.875.7-2.025 1.15-3.2 1.15zm-7.45-11.25c-.55 0-1.1.1-1.625.275-1.175.4-2.175 1.2-2.8 2.225-.65 1.025-.875 2.275-.675 3.525a4.88 4.88 0 0 0 1.75 3.1c.925.8 2.125 1.225 3.35 1.225h7.45c.95 0 1.9-.35 2.6-.975.75-.625 1.225-1.475 1.375-2.45.15-.95-.05-1.925-.55-2.75s-1.3-1.45-2.175-1.725c-.95-.3-1.925-.275-2.8.1-.85.35-1.55.95-2 1.75-.05.075-.125.1-.2.05l-.5-.275c-.075-.05-.1-.125-.075-.225.325-.575.75-1.075 1.275-1.475a5.11 5.11 0 0 0-2.475-2.05c-.625-.2-1.275-.325-1.925-.325zm13.1-.825h-4.05c-.825 0-1.65-.3-2.25-.825-.65-.55-1.05-1.3-1.175-2.1a3.58 3.58 0 0 1 .45-2.35c.425-.7 1.05-1.225 1.85-1.5.775-.25 1.625-.25 2.4.05.65.275 1.2.7 1.575 1.25.6-.3 1.35-.35 2.075-.1.65.2 1.2.65 1.575 1.25s.5 1.275.375 1.95c-.125.7-.45 1.3-.975 1.725-.525.4-1.175.65-1.85.65zm-4.05-6.125c-.275 0-.575.05-.825.125-.6.225-1.075.625-1.4 1.125-.325.525-.425 1.15-.35 1.8.075.575.4 1.125.875 1.55.45.4 1.05.625 1.7.625h4.05c.475 0 .925-.175 1.3-.475.35-.3.575-.725.675-1.225.075-.45-.025-.925-.275-1.35-.25-.4-.625-.725-1.075-.85-.475-.15-.975-.15-1.375.025-.375.15-.7.425-.95.775-.05.075-.15.1-.225.075l-.45-.25c-.1-.05-.125-.15-.075-.25.15-.25.325-.45.525-.65-.275-.4-.675-.725-1.15-.9-.325-.075-.65-.15-.975-.15z"/><path d="M139.225 20.45l-.6-.625a2.84 2.84 0 0 0 .8-1.3c.125-.5.15-.95.05-1.4l.85-.2c.15.575.125 1.2-.05 1.85-.2.625-.55 1.2-1.05 1.675zm-6.25-2c-.125-.6-.1-1.225.05-1.8.525-1.8 2.275-2.925 4.1-2.675l-.125.875c-1.4-.2-2.725.65-3.15 2.05-.125.425-.125.925-.05 1.4l-.825.15z"/><use xlink:href="#D"/><use xlink:href="#D" x="-10.725" y="-3.125"/><path d="M133.975 13.65l-.875-1.525c-.05-.075-.025-.175.05-.2l.5-.275c.075-.05.175-.025.2.05l.875 1.525c.05.075.025.175-.05.2l-.5.275c-.075.05-.175.025-.2-.05zM28.025 47.925c-.375-.125-.725-.175-1.1-.225a4.2 4.2 0 0 0 .55-1.175l.125-.4c.05-.2-.15-.4-.35-.3l-.5.25c-.6.3-1.325.325-1.975.075a2.49 2.49 0 0 1-1.45-1.35c-.4-.825-.225-1.9.4-2.725l.275-.35c.125-.175 0-.425-.225-.4l-.425.05a4.92 4.92 0 0 0-1.5.4c-1 .45-1.75 1.25-2.1 2.275a3.72 3.72 0 0 0-.25 1.375c-.8-.05-1.575.05-2.325.3-1.375.45-2.55 1.4-3.25 2.6-.75 1.2-1.025 2.675-.775 4.125.225 1.425.95 2.725 2.05 3.65 1.075.925 2.475 1.425 3.9 1.425h7.4c1.175 0 2.325-.425 3.175-1.175a4.9 4.9 0 0 0 1.675-2.975c.2-1.15-.05-2.35-.65-3.35-.6-.975-1.575-1.725-2.675-2.1zm-7.5-3.55c.275-.8.875-1.425 1.65-1.775.1-.05.2-.1.325-.125-.375.9-.375 1.9.025 2.725.375.825 1.075 1.5 1.95 1.8.575.2 1.2.275 1.775.175-.075.125-.175.275-.3.4-.05.075-.125.125-.175.2-.4.05-.775.15-1.15.3-.15.05-.3.125-.45.2-.675-1.075-1.675-1.9-2.9-2.4-.325-.125-.65-.2-.975-.275.025-.425.1-.825.225-1.225zM30.5 53.25c-.15.975-.625 1.8-1.375 2.45-.7.625-1.65.975-2.6.975H19.05c-1.225 0-2.425-.425-3.35-1.225a4.88 4.88 0 0 1-1.75-3.1c-.2-1.25.025-2.5.675-3.525.625-1.05 1.6-1.825 2.8-2.225.525-.175 1.075-.275 1.625-.275.65 0 1.3.125 1.925.35 1.025.425 1.9 1.15 2.475 2.05-.5.4-.925.875-1.275 1.45-.05.075-.025.175.075.225l.5.25c.075.05.175 0 .225-.075a3.86 3.86 0 0 1 2-1.725c.875-.35 1.85-.375 2.8-.1a4.04 4.04 0 0 1 2.175 1.725c.5.85.7 1.825.55 2.775zm4.1-12.15c-.35-.6-.9-1.025-1.575-1.25-.725-.225-1.475-.2-2.075.1-.375-.55-.925-.975-1.575-1.25-.775-.3-1.625-.3-2.4-.05-.8.3-1.425.825-1.85 1.5-.425.7-.575 1.5-.45 2.35.125.8.525 1.55 1.175 2.1.625.525 1.425.825 2.25.825h4.05c.675 0 1.325-.225 1.85-.675.525-.425.85-1.025.975-1.725.125-.65 0-1.325-.375-1.925zm-.475 1.8c-.075.5-.325.925-.675 1.225-.375.3-.825.475-1.3.475H28.1a2.64 2.64 0 0 1-1.7-.625c-.475-.425-.8-.975-.875-1.55-.1-.65.025-1.275.35-1.8s.8-.925 1.4-1.125c.275-.1.55-.125.825-.125a2.68 2.68 0 0 1 .975.175c.475.2.875.5 1.15.9-.225.2-.4.425-.575.7-.025.05 0 .125.05.15l.575.325c.05.025.1 0 .125-.05.25-.4.575-.7 1-.85.4-.175.9-.175 1.375-.025.45.15.825.45 1.075.85.25.425.35.9.275 1.35zm23.825 4.725c-1.25-.4-2.55-.35-3.8.125l-.55.25c-.775-1.25-1.9-2.225-3.25-2.75-1.5-.6-3.15-.625-4.675-.125-1.575.55-2.825 1.55-3.65 2.95s-1.15 3.025-.875 4.6a6.8 6.8 0 0 0 2.3 4.075c1.2 1.025 2.75 1.6 4.375 1.6h8.4c1.325 0 2.575-.45 3.575-1.3 1-.825 1.65-2 1.875-3.325.225-1.3-.05-2.625-.725-3.75-.675-1.1-1.75-1.925-3-2.35zm2.875 5.975c-.175 1.1-.75 2.1-1.575 2.775a4.6 4.6 0 0 1-3.025 1.1h-8.4a5.86 5.86 0 0 1-3.825-1.4c-1.075-.925-1.775-2.2-2-3.575-.225-1.35.05-2.775.775-4 .725-1.2 1.825-2.1 3.2-2.55a5.89 5.89 0 0 1 1.875-.3 6.04 6.04 0 0 1 2.2.425c1.175.475 2.175 1.3 2.85 2.4-.6.45-1.1 1-1.45 1.65-.05.1-.025.225.075.275l.425.225c.1.05.2 0 .25-.075a4.64 4.64 0 0 1 2.275-1.975 4.7 4.7 0 0 1 3.2-.125c1.05.35 1.95 1.05 2.5 1.975.6.975.825 2.1.65 3.175zM62.4 39.525c-.475-.825-1.2-1.4-2.125-1.725a4.08 4.08 0 0 0-2.725.1c-.725.3-1.35.8-1.775 1.45-.05-.025-.125-.05-.175-.075-.7-.3-1.5-.325-2.225-.1-.75.225-1.35.7-1.775 1.4-.4.65-.55 1.425-.425 2.2.125.75.5 1.425 1.1 1.95.6.5 1.325.775 2.1.775H59c.975 0 1.875-.325 2.55-.925.725-.6 1.225-1.425 1.35-2.35.175-.95 0-1.9-.5-2.7zm-.35 2.525c-.1.725-.475 1.375-1.05 1.825-.525.45-1.225.725-1.975.725h-4.65a2.38 2.38 0 0 1-1.55-.575c-.425-.375-.725-.875-.8-1.4-.075-.55.025-1.125.325-1.6a2.19 2.19 0 0 1 1.275-1c.225-.075.475-.125.725-.125.3 0 .625.05.9.175.475.2.85.5 1.1.925.05.1.15.125.25.075l.45-.225c.1-.05.15-.175.075-.275-.175-.3-.4-.55-.65-.775.35-.5.825-.875 1.375-1.125.675-.275 1.425-.3 2.125-.075.7.25 1.275.7 1.65 1.35.4.65.55 1.4.425 2.1z"/></g><g clip-path="url(#A)" fill="#546069"><path d="M80.1 50.65c-.05-.075-.15-.075-.2 0l-.25.325c-.3.375-2.95 3.825-2.95 5.5.025 1.15.65 2.2 1.675 2.775.5.3 1.05.425 1.625.425s1.1-.15 1.625-.425c1.025-.575 1.65-1.625 1.675-2.775 0-1.675-2.65-5.1-2.95-5.5l-.25-.325zm1.05 7.85c-.7.375-1.575.4-2.275 0-.775-.425-1.25-1.2-1.275-2.05 0-1.025 1.525-3.275 2.4-4.5.9 1.2 2.4 3.475 2.425 4.5-.025.85-.5 1.625-1.275 2.05zm9.05-11.475a5.9 5.9 0 0 0-3.2-2.55l-.25-.075c.1-.525.1-1.075-.025-1.6-.125-.65-.45-1.25-.975-1.8-.5-.5-1.1-.85-1.75-1.025-.7-.175-1.4-.175-2.025.025-.675.2-1.275.575-1.725 1.075-.3.35-.55.725-.7 1.15l-.4-.225c-1.425-.65-3.1-.8-4.675-.425-1.525.375-2.95 1.25-3.975 2.525-1 1.275-1.55 2.8-1.575 4.425s.5 3.225 1.475 4.475c.925 1.225 2.2 2.125 3.7 2.575.1.025.225-.025.25-.15l.125-.45c.025-.1-.025-.225-.15-.25a6.26 6.26 0 0 1-3.25-2.275c-.875-1.125-1.3-2.475-1.275-3.925.025-1.425.5-2.775 1.375-3.875.9-1.125 2.15-1.9 3.475-2.225 1.4-.325 2.85-.2 4.1.375 1.225.575 2.2 1.45 2.825 2.525-.625.475-1.175 1.075-1.575 1.8-.05.1-.025.225.125.3l.375.2c.1.05.225.025.275-.075.55-.975 1.425-1.75 2.45-2.15 1.1-.45 2.325-.475 3.45-.125 1.125.375 2.1 1.125 2.725 2.175.625 1 .85 2.225.675 3.4-.175 1.2-.8 2.25-1.7 3.025-.825.725-1.9 1.15-3.05 1.2-.1 0-.2.1-.2.2v.475c0 .125.1.2.2.2 1.35-.05 2.625-.55 3.6-1.4 1.075-.875 1.775-2.15 2-3.55.275-1.375 0-2.8-.725-3.975zm-7.225-2.4c-.2.075-.4.175-.6.275-.525-.85-1.2-1.575-2.025-2.175.125-.375.325-.75.6-1.05.35-.375.8-.675 1.325-.825.475-.15 1.025-.15 1.575-.025.5.125.95.4 1.35.775.4.4.625.875.75 1.375.075.425.1.825 0 1.25-1.025-.1-2.05.025-2.975.4zm-.3-5.25h.65c.075 0 .125-.05.125-.125v-2.325c0-.075-.05-.125-.125-.125h-.65c-.075 0-.125.05-.125.125v2.325c0 .075.075.125.125.125z"/><path d="M87.45 43.5v.65c0 .075.05.125.125.125h2.375c.075 0 .125-.05.125-.125v-.65c0-.075-.05-.125-.125-.125h-2.375c-.075 0-.125.075-.125.125zm-1.075-2.6c.05.05.125.05.175 0l1.675-1.675c.05-.05.05-.125 0-.175l-.45-.45c-.05-.05-.125-.05-.175 0l-1.675 1.675c-.05.05-.05.125 0 .175l.45.45zm-6.925 0c.05.05.125.05.175 0l.45-.45c.05-.05.05-.125 0-.175l-1.65-1.65c-.05-.05-.125-.05-.175 0l-.45.45c-.05.05-.05.125 0 .175l1.65 1.65z"/></g><g fill="#546069"><path d="M108.1 50.725c-.075-.1-.25-.1-.325 0l-.175.225c-.3.375-2.95 3.825-2.95 5.5.025 1.15.65 2.2 1.675 2.775.5.3 1.05.425 1.625.425.55 0 1.1-.15 1.625-.425 1.025-.575 1.65-1.625 1.675-2.775 0-1.675-2.65-5.1-2.95-5.5l-.2-.225zm.975 7.775c-.7.4-1.575.4-2.275 0-.775-.425-1.25-1.2-1.275-2.05 0-1.025 1.525-3.275 2.425-4.5.9 1.2 2.4 3.475 2.4 4.5-.025.85-.5 1.625-1.275 2.05zm9.05-11.475a5.9 5.9 0 0 0-3.2-2.55 6.26 6.26 0 0 0-.65-.175 4 4 0 0 0 .75-1.45l.125-.45c.05-.2-.15-.375-.325-.275l-.5.25c-.6.3-1.275.325-1.95.075-.625-.2-1.125-.675-1.425-1.3-.375-.8-.225-1.85.4-2.65l.275-.375c.125-.175 0-.4-.225-.375l-.475.05c-.5.05-1 .2-1.45.4-.925.425-1.7 1.225-2.05 2.225a3.85 3.85 0 0 0-.225 1.7l-.15-.075c-1.425-.65-3.1-.8-4.675-.425-1.525.375-2.95 1.25-3.975 2.525-1 1.275-1.55 2.8-1.575 4.425s.5 3.225 1.475 4.45c.925 1.225 2.2 2.1 3.675 2.575a.2.2 0 0 0 .275-.15l.1-.4c.025-.125-.025-.25-.15-.275-1.3-.4-2.425-1.175-3.225-2.25-.8-1.1-1.25-2.475-1.225-3.925.025-1.425.5-2.775 1.375-3.875.9-1.125 2.15-1.9 3.475-2.225 1.4-.325 2.85-.2 4.125.375 1.2.55 2.175 1.425 2.825 2.5-.65.475-1.175 1.1-1.575 1.825-.05.075-.025.2.125.25l.425.225c.075.05.175 0 .225-.075.55-1 1.425-1.775 2.475-2.175 1.1-.45 2.325-.475 3.45-.125 1.125.375 2.1 1.125 2.725 2.175.625 1 .85 2.225.675 3.4-.175 1.2-.8 2.25-1.7 3.025-.85.75-1.95 1.15-3.1 1.2-.075 0-.15.075-.15.15v.575c0 .075.075.15.15.15 1.35-.025 2.65-.525 3.65-1.4 1.075-.875 1.775-2.15 2-3.55.2-1.4-.075-2.825-.8-4zm-7.225-2.4c-.2.075-.4.175-.6.275-.525-.85-1.225-1.6-2.05-2.175a3.05 3.05 0 0 1 .05-1.95c.3-.775.875-1.4 1.6-1.725l.275-.125c-.35.875-.35 1.825.025 2.625.4.825 1.1 1.475 1.925 1.75.575.2 1.15.25 1.725.175-.075.125-.15.225-.25.325a2.65 2.65 0 0 1-.375.375c-.825.025-1.6.15-2.325.45zm35.025.15c-.7-1.15-1.8-2.025-3.075-2.475a5.8 5.8 0 0 0-3.95.125 3.36 3.36 0 0 0-.6.3 7.2 7.2 0 0 0-3.4-2.875c-1.55-.625-3.275-.675-4.85-.125-1.625.55-2.95 1.625-3.8 3.05-.875 1.475-1.2 3.175-.9 4.775.3 1.675 1.125 3.15 2.4 4.225a7.13 7.13 0 0 0 4.35 1.675c.125 0 .225-.1.225-.225v-.45c0-.125-.1-.2-.2-.2a6.04 6.04 0 0 1-3.775-1.475c-1.125-.95-1.85-2.225-2.1-3.725-.3-1.375 0-2.875.75-4.15.725-1.25 1.9-2.175 3.325-2.65 1.375-.475 2.875-.425 4.25.125a6.41 6.41 0 0 1 3 2.525c-.6.475-1.1 1.05-1.5 1.725-.05.1-.025.225.1.3l.4.2c.1.05.225 0 .275-.1.525-.95 1.375-1.675 2.375-2.075 1.1-.45 2.25-.475 3.35-.125 1.1.375 2.025 1.1 2.625 2.075.6 1 .825 2.15.65 3.275-.175 1.15-.775 2.175-1.65 2.925-.8.7-1.825 1.1-2.925 1.15-.125 0-.2.1-.2.2v.45c0 .125.1.225.225.225 1.3-.05 2.55-.525 3.475-1.35 1.05-.85 1.725-2.075 1.95-3.45a6.05 6.05 0 0 0-.8-3.875z"/><use xlink:href="#E"/><use xlink:href="#F"/><use xlink:href="#E" x="-2.3"/><use xlink:href="#F" x="-2.3"/><use xlink:href="#E" x="-4.6"/><use xlink:href="#F" x="-4.6"/><path d="M27.55 78.75h-1.8c-.125 0-.2-.1-.2-.225l.7-4.675c.025-.2-.225-.3-.35-.15l-5.675 7.675c-.1.125 0 .3.15.3h1.8c.125 0 .2.1.2.225l-.725 4.675c-.025.2.225.3.35.15l5.675-7.675c.1-.1.025-.3-.125-.3zm-1.6 1.2l-2.55 3.425c-.125.15-.375.05-.35-.15l.325-2.2c.025-.125-.075-.225-.2-.225H22.1c-.15 0-.25-.175-.15-.3l2.55-3.425c.125-.15.375-.05.35.15l-.325 2.2c-.025.125.075.225.2.225H25.8c.15-.025.25.175.15.3zm8.25-8.5A5.9 5.9 0 0 0 31 68.9c-1.3-.425-2.75-.375-4.05.125-.2.075-.4.175-.6.275-.75-1.225-1.85-2.225-3.2-2.825-1.425-.65-3.1-.8-4.675-.425-1.525.375-2.95 1.25-3.975 2.525-1 1.275-1.55 2.8-1.575 4.425s.5 3.225 1.475 4.475c.925 1.225 2.225 2.125 3.725 2.575.1.025.2-.025.25-.125l.125-.475c.025-.1-.025-.2-.125-.225-1.325-.4-2.45-1.175-3.275-2.275-.875-1.125-1.3-2.475-1.275-3.925.025-1.425.5-2.775 1.375-3.875.9-1.125 2.15-1.9 3.475-2.225 1.4-.325 2.85-.2 4.125.375 1.2.55 2.175 1.425 2.825 2.5-.625.475-1.175 1.1-1.575 1.8-.05.1-.025.225.075.275l.425.225c.1.05.2.025.25-.075.55-.975 1.425-1.75 2.45-2.15 1.1-.45 2.325-.475 3.45-.125 1.125.375 2.1 1.125 2.725 2.175.625 1 .85 2.225.675 3.4-.175 1.2-.8 2.25-1.7 3.025-.825.725-1.925 1.15-3.05 1.2-.1 0-.175.075-.175.2v.5c0 .1.1.2.2.2 1.35-.05 2.625-.55 3.6-1.4 1.075-.875 1.775-2.15 2-3.55.225-1.45-.05-2.875-.775-4.05zm24.225 5.4l-2.875.75-1.375-.8v-1.45l1.4-.8 2.85.75c.025 0 .075.025.1.025.2 0 .375-.125.425-.325.05-.225-.075-.475-.3-.525l-2-.525 1.375-.8c.2-.125.275-.4.15-.6s-.4-.275-.6-.15l-1.4.8.525-2.025c.05-.225-.075-.475-.3-.525s-.475.075-.525.3l-.75 2.85-1.375.775-1.3-.75V72.25l2.075-2.1c.175-.175.175-.45 0-.625s-.45-.175-.625 0L52.45 71v-1.6a.45.45 0 1 0-.9 0v1.625l-1.475-1.475c-.175-.175-.45-.175-.625 0s-.175.45 0 .625l2.1 2.1v1.6l-1.3.75-1.375-.775-.775-2.875c-.075-.225-.3-.375-.525-.3s-.375.3-.3.525l.55 2.025-1.4-.8c-.2-.125-.475-.05-.6.15-.1.175-.025.425.175.55l1.375.8-1.975.525c-.225.05-.375.3-.3.525.05.2.225.325.425.325.025 0 .075 0 .1-.025l2.825-.75 1.4.8v1.45l-1.4.8-2.825-.775c-.225-.075-.475.075-.525.3s.075.475.3.525l2 .55-1.4.875c-.2.125-.275.4-.15.6.075.15.225.225.375.225.075 0 .15-.025.225-.05L47.875 79l-.525 2c-.05.225.075.475.3.525.05 0 .075.025.125.025.2 0 .375-.125.425-.325l.75-2.85 1.4-.8 1.25.725v1.65L49.5 82c-.175.175-.175.45 0 .625a.46.46 0 0 0 .3.125.46.46 0 0 0 .3-.125l1.475-1.475v1.625a.45.45 0 0 0 .9 0V81.15l1.45 1.45c.175.175.45.175.625 0s.175-.45 0-.625L52.475 79.9v-1.65l1.25-.725 1.425.825.75 2.825c.05.2.225.325.425.325.025 0 .075 0 .1-.025.225-.05.375-.3.3-.525L56.2 79l1.375.8c.075.05.15.05.225.05.15 0 .3-.075.375-.225.125-.2.05-.475-.15-.6l-1.4-.825 2.025-.525c.225-.05.375-.3.3-.525s-.3-.35-.525-.3zM53.3 76.8l-1.275.725-1.275-.7v-1.45l1.275-.75 1.275.725v1.45zm35.025-6.65h-15.45c-.1 0-.2-.1-.2-.2v-.475c0-.1.1-.2.2-.2h15.45c.1 0 .2.1.2.2v.475c0 .125-.1.2-.2.2zm-2.15 3.15h-10.85c-.1 0-.2-.1-.2-.2v-.475c0-.1.1-.2.2-.2h10.85c.1 0 .2.1.2.2v.475c0 .125-.1.2-.2.2zm1.5 3.15h-14.75c-.1 0-.2-.1-.2-.2v-.5c0-.1.1-.2.2-.2h14.75c.1 0 .2.1.2.2v.5c0 .1-.1.2-.2.2zm.65 6.25h-14.35c-.1 0-.2-.1-.2-.2v-.475c0-.1.1-.2.2-.2h14.35c.1 0 .2.1.2.2v.475c0 .125-.1.2-.2.2zm-4.4-3.15h-12.25c-.1 0-.2-.1-.2-.2v-.475c0-.1.1-.2.2-.2h12.25c.1 0 .2.1.2.2v.475c0 .125-.1.2-.2.2z"/></g><rect x=".75" y=".75" width="158.5" height="94.5" rx="3.25" stroke="#8796a1" stroke-width="1.5"/><defs><clipPath id="A"><path fill="#fff" transform="translate(68 36)" d="M0 0h24v24H0z"/></clipPath><path id="B" d="M86.575 14.8c.05.05.125.05.175 0l1.675-1.675c.05-.05.05-.125 0-.175l-.45-.45c-.05-.05-.125-.05-.175 0l-1.675 1.675c-.05.05-.05.125 0 .175l.45.45z"/><path id="C" d="M79.675 14.775c.05.05.125.05.175 0l.45-.45c.05-.05.05-.125 0-.175l-1.65-1.65c-.05-.05-.125-.05-.175 0l-.45.45c-.05.05-.05.125 0 .175l1.65 1.65z"/><path id="D" d="M142.725 19.925l-1.675-.5c-.075-.025-.125-.1-.1-.2l.15-.55c.025-.075.1-.125.2-.1l1.675.5c.075.025.125.1.1.2l-.15.55c-.025.075-.125.125-.2.1z"/><path id="E" d="M138.35 55.025l-.4-.2c-.1-.05-.225 0-.275.1l-.4.875c-.05.1 0 .225.1.275l.4.2c.1.05.225 0 .275-.1l.4-.875c.05-.1 0-.225-.1-.275z"/><path id="F" d="M139.725 52l-.4-.175c-.1-.05-.225 0-.275.1l-.925 2.05c-.05.1 0 .225.1.275l.4.175c.1.05.225 0 .275-.1l.925-2.05c.05-.1 0-.225-.1-.275z"/></defs></svg>