<svg xmlns="http://www.w3.org/2000/svg" xmlns:xlink="http://www.w3.org/1999/xlink" width="160" height="96" fill="none"><style><![CDATA[.B{stroke-miterlimit:10}.C{stroke-linecap:round}.D{stroke-width:.125}.E{stroke:#e6effc}.F{stroke-width:.5}.G{fill:#fff}.H{stroke:#f8af18}.I{stroke:#fbbf24}.J{stroke:#72b9d5}.K{stroke-linejoin:round}.L{stroke-width:.031}.M{stroke-width:.188}]]></style><rect x=".75" y=".75" width="158.5" height="94.5" rx="3.25" fill="#0950bc"/><g class="B"><path d="M24 23.938A3.94 3.94 0 0 0 27.938 20 3.94 3.94 0 0 0 24 16.063 3.94 3.94 0 0 0 20.063 20 3.94 3.94 0 0 0 24 23.938z" fill="url(#A)" class="D H"/><path d="M24 13.891v-2.329m0 16.875v-2.329m4.32-10.429l1.646-1.646M18.034 25.966l1.646-1.646m0-8.625l-1.646-1.646m11.932 11.918L28.32 24.32M17.891 20h-2.329m16.875 0h-2.329" stroke-width=".75" class="C I"/></g><g class="D"><path d="M57.498 21.575c-.821.006-1.635-.15-2.395-.459a6.25 6.25 0 0 1-3.406-3.359c-.319-.756-.486-1.568-.492-2.389a6.11 6.11 0 0 1 .206-1.556 6.21 6.21 0 0 0-5.038 3.954 6.21 6.21 0 0 0 1.136 6.303 6.21 6.21 0 0 0 6.102 1.947 6.21 6.21 0 0 0 4.577-4.48l-.69.037z" fill="url(#B)" class="J K"/><path d="M75.125 18.875c1.035 0 1.875-.84 1.875-1.875s-.84-1.875-1.875-1.875-1.875.839-1.875 1.875.84 1.875 1.875 1.875z" fill="url(#C)" class="B H"/></g><path d="M75.125 13.876v-1.189m0 8.625v-1.189m2.209-5.332l.84-.84m-6.097 6.098l.84-.84m0-4.417l-.84-.84m6.097 6.098l-.84-.84M70.813 17h1.189m7.436 0h-1.189" class="B C F I"/><g class="D"><path d="M85.438 19.813h-.12c.221-.909.11-1.867-.312-2.702s-1.128-1.492-1.991-1.853-1.827-.403-2.718-.118-1.651.879-2.144 1.674c-.398-.236-.851-.363-1.314-.367s-.918.114-1.321.342-.737.559-.971.959-.357.854-.359 1.316a2.71 2.71 0 0 0 .037.427 2.81 2.81 0 0 0-2.259 3.024c.065.695.387 1.34.901 1.811s1.186.734 1.883.738c.063.004.125.004.188 0h10.5c.696 0 1.364-.277 1.856-.769s.769-1.16.769-1.856-.276-1.364-.769-1.856-1.16-.769-1.856-.769z" fill="url(#D)" class="B E"/><path d="M106.999 18.005c-.523.004-1.041-.096-1.525-.293a3.98 3.98 0 0 1-1.296-.854c-.372-.367-.668-.804-.871-1.285s-.31-.998-.313-1.521c.001-.334.045-.667.131-.99a3.95 3.95 0 0 0-3.207 2.517 3.95 3.95 0 0 0 .723 4.012c.473.54 1.085.941 1.769 1.159s1.416.246 2.114.08a3.95 3.95 0 0 0 2.913-2.852 4.3 4.3 0 0 1-.438.026z" fill="url(#E)" class="J K"/><g class="B E"><path d="M113.437 19.813h-.12a3.93 3.93 0 0 0-2.303-4.556c-.863-.361-1.827-.403-2.718-.118s-1.652.879-2.145 1.674c-.398-.236-.851-.363-1.314-.367s-.918.114-1.32.342a2.62 2.62 0 0 0-.971.959c-.233.399-.357.854-.359 1.316.002.143.014.286.038.427a2.81 2.81 0 0 0-2.259 3.024 2.81 2.81 0 0 0 2.784 2.549c.062.004.125.004.187 0h10.5c.697 0 1.364-.277 1.857-.769s.768-1.16.768-1.856-.276-1.364-.768-1.856-1.16-.769-1.857-.769z" fill="url(#F)"/><path d="M141.437 19.813h-.12a3.93 3.93 0 0 0-2.303-4.556c-.863-.361-1.827-.403-2.718-.118s-1.652.879-2.145 1.674c-.398-.236-.851-.363-1.314-.367s-.918.114-1.32.342a2.62 2.62 0 0 0-.971.959c-.233.399-.357.854-.359 1.316.002.143.014.286.038.427a2.81 2.81 0 0 0-1.712 1.077c-.418.559-.613 1.253-.547 1.947a2.81 2.81 0 0 0 2.784 2.549c.062.004.125.004.187 0h10.5c.697 0 1.364-.277 1.857-.769s.768-1.16.768-1.856-.276-1.364-.768-1.856-1.16-.769-1.857-.769z" fill="url(#G)"/><path d="M29.438 47.813h-.12c.221-.909.11-1.867-.312-2.702s-1.128-1.492-1.991-1.853-1.827-.403-2.718-.118-1.651.879-2.145 1.674c-.398-.236-.851-.363-1.314-.367s-.918.114-1.321.342-.737.559-.971.959-.357.854-.358 1.316a2.7 2.7 0 0 0 .038.428 2.81 2.81 0 0 0-1.712 1.077c-.418.559-.612 1.253-.547 1.947s.387 1.34.901 1.811 1.186.734 1.883.738c.062.004.125.004.188 0h10.5c.696 0 1.364-.277 1.856-.769s.769-1.16.769-1.856-.277-1.364-.769-1.856-1.16-.769-1.856-.769z" fill="url(#H)"/></g></g><g clip-path="url(#l)" class="B"><g clip-path="url(#m)" class="L"><path d="M52.532 48.473c0 .392.16.768.445 1.045.141.137.309.246.493.32a1.56 1.56 0 0 0 .582.112h6.082v-.006c.036 0 .072.006.108.006.406 0 .797-.147 1.097-.412s.487-.63.525-1.022a1.55 1.55 0 0 0-.32-1.099c-.244-.315-.6-.53-.998-.604.047-.277.012-.562-.102-.82s-.301-.48-.54-.638a1.55 1.55 0 0 0-.808-.256c-.289-.009-.575.063-.823.206-.283-.453-.724-.792-1.243-.956a2.34 2.34 0 0 0-1.584.064c-.503.205-.913.579-1.157 1.053s-.303 1.018-.169 1.531c-.023 0-.047-.003-.068-.003a1.56 1.56 0 0 0-.582.112c-.184.074-.352.183-.493.32-.285.277-.445.653-.445 1.045z" fill="url(#I)" stroke="#848b98"/></g><g clip-path="url(#n)" class="E M"><path d="M56.868 47.873l-.119.006c.226-.885.119-1.819-.301-2.634a3.89 3.89 0 0 0-1.992-1.81 4.04 4.04 0 0 0-2.725-.115c-.893.279-1.655.859-2.147 1.635a2.68 2.68 0 0 0-2.64-.028c-.403.223-.738.545-.971.935a2.49 2.49 0 0 0-.355 1.283c.001.139.014.277.038.413-.687.128-1.3.501-1.719 1.044s-.616 1.219-.55 1.896.388 1.305.905 1.762a2.86 2.86 0 0 0 1.889.714l.188-.009v.009h10.5c.696 0 1.364-.269 1.856-.747s.769-1.127.769-1.803-.277-1.325-.769-1.803-1.16-.747-1.856-.747z" fill="url(#J)"/></g></g><g clip-path="url(#o)" class="B"><g clip-path="url(#p)" class="L"><path d="M80.532 48.473c0 .392.16.768.445 1.045.141.137.309.246.493.32a1.56 1.56 0 0 0 .582.112h6.082v-.006c.036 0 .072.006.108.006.406 0 .797-.147 1.097-.412s.487-.63.525-1.022a1.55 1.55 0 0 0-.32-1.099c-.244-.315-.6-.53-.998-.604.047-.277.012-.562-.102-.82s-.301-.48-.54-.638a1.55 1.55 0 0 0-.808-.256c-.289-.009-.575.063-.823.206-.283-.453-.725-.792-1.243-.956a2.34 2.34 0 0 0-1.584.064c-.503.205-.913.579-1.157 1.053s-.303 1.018-.169 1.531c-.023 0-.047-.003-.068-.003a1.56 1.56 0 0 0-.582.112c-.184.074-.352.183-.493.32-.285.277-.445.653-.445 1.045z" fill="url(#K)" stroke="#848b98"/></g><g clip-path="url(#q)" class="M"><path d="M84.868 47.873l-.119.006c.226-.885.119-1.819-.302-2.634a3.89 3.89 0 0 0-1.992-1.81 4.04 4.04 0 0 0-2.725-.115c-.893.279-1.655.859-2.147 1.635a2.68 2.68 0 0 0-2.64-.028c-.403.223-.738.545-.971.935a2.49 2.49 0 0 0-.354 1.283c.001.139.013.277.037.413-.687.128-1.299.501-1.719 1.044s-.616 1.219-.55 1.896.388 1.305.905 1.762a2.86 2.86 0 0 0 1.889.714l.188-.009v.009h10.5c.696 0 1.364-.269 1.856-.747s.769-1.127.769-1.803-.277-1.325-.769-1.803-1.16-.747-1.856-.747z" fill="url(#L)" stroke="#5b6472"/></g></g><g class="B"><path d="M113.437 47.813h-.12a3.93 3.93 0 0 0-2.303-4.556c-.863-.361-1.827-.403-2.718-.118s-1.652.879-2.145 1.674c-.398-.236-.851-.363-1.314-.367s-.918.114-1.32.342a2.62 2.62 0 0 0-.971.959c-.233.399-.357.854-.359 1.316.002.143.014.286.038.428a2.81 2.81 0 0 0-2.259 3.024 2.81 2.81 0 0 0 2.784 2.549c.062.004.125.004.187 0h10.5c.697 0 1.364-.277 1.857-.769s.768-1.16.768-1.856-.276-1.364-.768-1.856-1.16-.769-1.857-.769z" fill="url(#M)" class="D E"/><g class="C F"><path d="M105.146 52.1362L104.854 53.9887" stroke="url(#N)"/><path d="M107.771 52.1362L107.479 53.9887" stroke="url(#O)"/><path d="M110.396 52.1362L110.104 53.9887" stroke="url(#P)"/></g><path d="M131.125 46.875c1.036 0 1.875-.84 1.875-1.875s-.839-1.875-1.875-1.875-1.875.84-1.875 1.875.839 1.875 1.875 1.875z" fill="url(#Q)" class="D H"/><path d="M131.125 41.876v-1.189m0 8.625v-1.189m2.209-5.333l.84-.84m-6.098 6.098l.84-.84m0-4.417l-.84-.84m6.098 6.098l-.84-.84M126.812 45h1.189m7.437 0h-1.189" class="C F I"/><path d="M141.437 47.813h-.12a3.93 3.93 0 0 0-2.303-4.556c-.863-.361-1.827-.403-2.718-.118s-1.652.879-2.145 1.674c-.398-.236-.851-.363-1.314-.367s-.918.114-1.32.342a2.62 2.62 0 0 0-.971.959c-.233.399-.357.854-.359 1.316.002.143.014.286.038.428a2.81 2.81 0 0 0-1.712 1.077c-.418.559-.613 1.253-.547 1.947a2.81 2.81 0 0 0 2.784 2.549c.062.004.125.004.187 0h10.5c.697 0 1.364-.277 1.857-.769s.768-1.16.768-1.856-.276-1.364-.768-1.856-1.16-.769-1.857-.769z" fill="url(#R)" class="D E"/><g class="C F"><path d="M133.146 52.1362L132.854 53.9887" stroke="url(#S)"/><path d="M135.771 52.1362L135.479 53.9887" stroke="url(#T)"/><path d="M138.396 52.1362L138.104 53.9887" stroke="url(#U)"/></g></g><g class="D"><path d="M22.999 74.005c-.523.004-1.04-.096-1.525-.293a3.98 3.98 0 0 1-2.168-2.139 3.98 3.98 0 0 1-.313-1.521 3.94 3.94 0 0 1 .131-.99c-.713.088-1.388.37-1.953.813a3.95 3.95 0 0 0-1.45 3.81 3.95 3.95 0 0 0 2.688 3.065 3.95 3.95 0 0 0 3.967-.941c.513-.502.88-1.135 1.061-1.83a4.32 4.32 0 0 1-.439.026z" fill="url(#V)" class="J K"/><path d="M29.438 75.813h-.12c.221-.909.11-1.868-.312-2.702s-1.128-1.492-1.991-1.853-1.827-.403-2.718-.118-1.651.879-2.145 1.674c-.398-.236-.851-.363-1.314-.367s-.918.114-1.321.342-.737.559-.971.959-.357.854-.358 1.316a2.7 2.7 0 0 0 .038.427 2.81 2.81 0 0 0-1.712 1.077c-.418.559-.612 1.253-.547 1.947s.387 1.34.901 1.811 1.186.734 1.883.738c.062.004.125.004.188 0h10.5c.696 0 1.364-.277 1.856-.769s.769-1.16.769-1.856-.277-1.364-.769-1.856-1.16-.769-1.856-.769z" fill="url(#W)" class="B E"/></g><g class="C F B"><path d="M21.1463 80.1362L20.8538 81.9887" stroke="url(#X)"/><path d="M23.7713 80.1362L23.4788 81.9887" stroke="url(#Y)"/><path d="M26.3963 80.1362L26.1038 81.9887" stroke="url(#Z)"/></g><g class="D B"><path d="M57.438 75.813h-.12c.221-.909.11-1.868-.312-2.702s-1.128-1.492-1.991-1.853-1.827-.403-2.718-.118-1.651.879-2.145 1.674c-.398-.236-.851-.363-1.314-.367s-.918.114-1.321.342-.737.559-.971.959-.357.854-.358 1.316a2.71 2.71 0 0 0 .038.427 2.81 2.81 0 0 0-2.259 3.024c.065.694.387 1.34.901 1.811s1.186.734 1.883.738c.063.004.125.004.188 0h10.5c.696 0 1.364-.277 1.856-.769s.769-1.16.769-1.856-.276-1.364-.769-1.856-1.16-.769-1.856-.769z" fill="url(#a)" class="E"/><path d="M51.25 77.5l-1.5 4.5h1.5l-.75 3.75 3.75-5.25H52l1.5-3h-2.25z" fill="url(#b)" stroke="#f6a823"/><path d="M75.125 74.875c1.035 0 1.875-.84 1.875-1.875s-.84-1.875-1.875-1.875-1.875.84-1.875 1.875.84 1.875 1.875 1.875z" fill="url(#c)" class="H"/></g><path d="M75.125 69.876v-1.189m0 8.625v-1.189m2.209-5.332l.84-.84m-6.097 6.098l.84-.84m0-4.417l-.84-.84m6.097 6.098l-.84-.84M70.813 73h1.189m7.436 0h-1.189" class="B C F I"/><path d="M85.438 75.813h-.12c.221-.909.11-1.868-.312-2.702s-1.128-1.492-1.991-1.853-1.827-.403-2.718-.118-1.651.879-2.144 1.674c-.398-.236-.851-.363-1.314-.367s-.918.114-1.321.342-.737.559-.971.959-.357.854-.359 1.316a2.7 2.7 0 0 0 .037.427 2.81 2.81 0 0 0-1.712 1.077c-.418.559-.613 1.253-.547 1.947s.387 1.34.901 1.811 1.186.734 1.883.738c.062.004.125.004.188 0h10.5c.696 0 1.364-.277 1.856-.769s.769-1.16.769-1.856-.277-1.364-.769-1.856-1.16-.769-1.856-.769z" fill="url(#d)" class="B D E"/><g stroke-width=".25" class="B"><path d="M79.625 81.3438C79.8839 81.3438 80.0938 81.1339 80.0938 80.875C80.0938 80.6161 79.8839 80.4062 79.625 80.4062C79.3661 80.4062 79.1562 80.6161 79.1562 80.875C79.1562 81.1339 79.3661 81.3438 79.625 81.3438Z" stroke="url(#e)"/><path d="M80.4388 81.3438L80.03 81.1075M79.22 80.6425L78.8113 80.4062M79.625 79.9375V80.4062M79.625 81.8125V81.3438M79.22 81.1075L78.8113 81.3438M80.4388 80.4062L80.03 80.6425" stroke="url(#f)" class="C"/><path d="M77 81.3438C77.2589 81.3438 77.4688 81.1339 77.4688 80.875C77.4688 80.6161 77.2589 80.4062 77 80.4062C76.7411 80.4062 76.5312 80.6161 76.5312 80.875C76.5312 81.1339 76.7411 81.3438 77 81.3438Z" stroke="url(#g)"/><path d="M77.8138 81.3438L77.405 81.1075M76.595 80.6425L76.1863 80.4062M77 79.9375V80.4062M77 81.8125V81.3438M76.595 81.1075L76.1863 81.3438M77.8138 80.4062L77.405 80.6425" stroke="url(#h)" class="C"/><path d="M82.25 81.3438C82.5089 81.3438 82.7188 81.1339 82.7188 80.875C82.7188 80.6161 82.5089 80.4062 82.25 80.4062C81.9911 80.4062 81.7812 80.6161 81.7812 80.875C81.7812 81.1339 81.9911 81.3438 82.25 81.3438Z" stroke="url(#i)"/><path d="M83.0638 81.3438L82.655 81.1075M81.845 80.6425L81.4363 80.4062M82.25 79.9375V80.4062M82.25 81.8125V81.3438M81.845 81.1075L81.4363 81.3438M83.0638 80.4062L82.655 80.6425" stroke="url(#j)" class="C"/></g><g stroke-width=".75" class="B C"><path d="M102.375 73.375H113.625" stroke="url(#k)"/><path d="M102.375 76H113.625" stroke="url(#k)"/><path d="M102.375 78.625H113.625" stroke="url(#k)"/></g><rect x=".75" y=".75" width="158.5" height="94.5" rx="3.25" stroke="#8796a1" stroke-width="1.5"/><defs><linearGradient id="A" x1="22.031" y1="16.591" x2="25.969" y2="23.409" xlink:href="#r"><stop stop-color="#fbbf24"/><stop offset=".45" stop-color="#fbbf24"/><stop offset="1" stop-color="#f59e0b"/></linearGradient><linearGradient id="B" x1="48.22" y1="15.031" x2="54.445" y2="25.82" xlink:href="#r"><stop stop-color="#86c3db"/><stop offset=".45" stop-color="#86c3db"/><stop offset="1" stop-color="#5eafcf"/></linearGradient><linearGradient id="C" x1="74.188" y1="15.376" x2="76.063" y2="18.624" xlink:href="#r"><stop stop-color="#fbbf24"/><stop offset=".45" stop-color="#fbbf24"/><stop offset="1" stop-color="#f59e0b"/></linearGradient><linearGradient id="D" x1="76.46" y1="16.235" x2="82.7" y2="27.05" xlink:href="#r"><stop stop-color="#f3f7fe"/><stop offset=".45" stop-color="#f3f7fe"/><stop offset="1" stop-color="#deeafb"/></linearGradient><linearGradient id="E" x1="101.092" y1="13.839" x2="105.056" y2="20.701" xlink:href="#r"><stop stop-color="#86c3db"/><stop offset=".45" stop-color="#86c3db"/><stop offset="1" stop-color="#5eafcf"/></linearGradient><linearGradient id="F" x1="104.46" y1="16.235" x2="110.7" y2="27.05" xlink:href="#r"><stop stop-color="#f3f7fe"/><stop offset=".45" stop-color="#f3f7fe"/><stop offset="1" stop-color="#deeafb"/></linearGradient><linearGradient id="G" x1="132.46" y1="16.235" x2="138.7" y2="27.05" xlink:href="#r"><stop stop-color="#f3f7fe"/><stop offset=".45" stop-color="#f3f7fe"/><stop offset="1" stop-color="#deeafb"/></linearGradient><linearGradient id="H" x1="20.46" y1="44.235" x2="26.7" y2="55.05" xlink:href="#r"><stop stop-color="#f3f7fe"/><stop offset=".45" stop-color="#f3f7fe"/><stop offset="1" stop-color="#deeafb"/></linearGradient><linearGradient id="I" x1="54.98" y1="44.668" x2="58.598" y2="51.118" xlink:href="#r"><stop stop-color="#9ca3af"/><stop offset=".45" stop-color="#9ca3af"/><stop offset="1" stop-color="#6b7280"/></linearGradient><linearGradient id="J" x1="47.889" y1="44.397" x2="53.865" y2="55.053" xlink:href="#r"><stop stop-color="#f3f7fe"/><stop offset=".45" stop-color="#f3f7fe"/><stop offset="1" stop-color="#deeafb"/></linearGradient><linearGradient id="K" x1="82.98" y1="44.668" x2="86.598" y2="51.118" xlink:href="#r"><stop stop-color="#9ca3af"/><stop offset=".45" stop-color="#9ca3af"/><stop offset="1" stop-color="#6b7280"/></linearGradient><linearGradient id="L" x1="75.889" y1="44.397" x2="81.865" y2="55.053" xlink:href="#r"><stop stop-color="#6b7280"/><stop offset=".45" stop-color="#6b7280"/><stop offset="1" stop-color="#4b5563"/></linearGradient><linearGradient id="M" x1="104.46" y1="44.235" x2="110.7" y2="55.05" xlink:href="#r"><stop stop-color="#f3f7fe"/><stop offset=".45" stop-color="#f3f7fe"/><stop offset="1" stop-color="#deeafb"/></linearGradient><linearGradient id="N" x1="104.449" y1="52.106" x2="105.551" y2="54.019" xlink:href="#r"><stop stop-color="#4286ee"/><stop offset=".45" stop-color="#4286ee"/><stop offset="1" stop-color="#0950bc"/></linearGradient><linearGradient id="O" x1="107.074" y1="52.106" x2="108.176" y2="54.019" xlink:href="#r"><stop stop-color="#4286ee"/><stop offset=".45" stop-color="#4286ee"/><stop offset="1" stop-color="#0950bc"/></linearGradient><linearGradient id="P" x1="109.699" y1="52.106" x2="110.801" y2="54.019" xlink:href="#r"><stop stop-color="#4286ee"/><stop offset=".45" stop-color="#4286ee"/><stop offset="1" stop-color="#0950bc"/></linearGradient><linearGradient id="Q" x1="130.188" y1="43.376" x2="132.063" y2="46.624" xlink:href="#r"><stop stop-color="#fbbf24"/><stop offset=".45" stop-color="#fbbf24"/><stop offset="1" stop-color="#f59e0b"/></linearGradient><linearGradient id="R" x1="132.46" y1="44.235" x2="138.7" y2="55.05" xlink:href="#r"><stop stop-color="#f3f7fe"/><stop offset=".45" stop-color="#f3f7fe"/><stop offset="1" stop-color="#deeafb"/></linearGradient><linearGradient id="S" x1="132.449" y1="52.106" x2="133.551" y2="54.019" xlink:href="#r"><stop stop-color="#4286ee"/><stop offset=".45" stop-color="#4286ee"/><stop offset="1" stop-color="#0950bc"/></linearGradient><linearGradient id="T" x1="135.074" y1="52.106" x2="136.176" y2="54.019" xlink:href="#r"><stop stop-color="#4286ee"/><stop offset=".45" stop-color="#4286ee"/><stop offset="1" stop-color="#0950bc"/></linearGradient><linearGradient id="U" x1="137.699" y1="52.106" x2="138.801" y2="54.019" xlink:href="#r"><stop stop-color="#4286ee"/><stop offset=".45" stop-color="#4286ee"/><stop offset="1" stop-color="#0950bc"/></linearGradient><linearGradient id="V" x1="17.093" y1="69.839" x2="21.056" y2="76.701" xlink:href="#r"><stop stop-color="#86c3db"/><stop offset=".45" stop-color="#86c3db"/><stop offset="1" stop-color="#5eafcf"/></linearGradient><linearGradient id="W" x1="20.46" y1="72.235" x2="26.7" y2="83.05" xlink:href="#r"><stop stop-color="#f3f7fe"/><stop offset=".45" stop-color="#f3f7fe"/><stop offset="1" stop-color="#deeafb"/></linearGradient><linearGradient id="X" x1="20.449" y1="80.106" x2="21.551" y2="82.019" xlink:href="#r"><stop stop-color="#4286ee"/><stop offset=".45" stop-color="#4286ee"/><stop offset="1" stop-color="#0950bc"/></linearGradient><linearGradient id="Y" x1="23.074" y1="80.106" x2="24.176" y2="82.019" xlink:href="#r"><stop stop-color="#4286ee"/><stop offset=".45" stop-color="#4286ee"/><stop offset="1" stop-color="#0950bc"/></linearGradient><linearGradient id="Z" x1="25.699" y1="80.106" x2="26.801" y2="82.019" xlink:href="#r"><stop stop-color="#4286ee"/><stop offset=".45" stop-color="#4286ee"/><stop offset="1" stop-color="#0950bc"/></linearGradient><linearGradient id="a" x1="48.46" y1="72.235" x2="54.7" y2="83.05" xlink:href="#r"><stop stop-color="#f3f7fe"/><stop offset=".45" stop-color="#f3f7fe"/><stop offset="1" stop-color="#deeafb"/></linearGradient><linearGradient id="b" x1="50.028" y1="78.205" x2="53.41" y2="84.07" xlink:href="#r"><stop stop-color="#f7b23b"/><stop offset=".45" stop-color="#f7b23b"/><stop offset="1" stop-color="#f59e0b"/></linearGradient><linearGradient id="c" x1="74.188" y1="71.376" x2="76.063" y2="74.624" xlink:href="#r"><stop stop-color="#fbbf24"/><stop offset=".45" stop-color="#fbbf24"/><stop offset="1" stop-color="#f59e0b"/></linearGradient><linearGradient id="d" x1="76.46" y1="72.235" x2="82.7" y2="83.05" xlink:href="#r"><stop stop-color="#f3f7fe"/><stop offset=".45" stop-color="#f3f7fe"/><stop offset="1" stop-color="#deeafb"/></linearGradient><linearGradient id="e" x1="79.295" y1="80.305" x2="79.955" y2="81.445" xlink:href="#r"><stop stop-color="#86c3db"/><stop offset=".45" stop-color="#86c3db"/><stop offset="1" stop-color="#5eafcf"/></linearGradient><linearGradient id="f" x1="79.126" y1="80.009" x2="80.124" y2="81.741" xlink:href="#r"><stop stop-color="#86c3db"/><stop offset=".45" stop-color="#86c3db"/><stop offset="1" stop-color="#5eafcf"/></linearGradient><linearGradient id="g" x1="76.67" y1="80.305" x2="77.33" y2="81.445" xlink:href="#r"><stop stop-color="#86c3db"/><stop offset=".45" stop-color="#86c3db"/><stop offset="1" stop-color="#5eafcf"/></linearGradient><linearGradient id="h" x1="76.501" y1="80.009" x2="77.499" y2="81.741" xlink:href="#r"><stop stop-color="#86c3db"/><stop offset=".45" stop-color="#86c3db"/><stop offset="1" stop-color="#5eafcf"/></linearGradient><linearGradient id="i" x1="81.92" y1="80.305" x2="82.58" y2="81.445" xlink:href="#r"><stop stop-color="#86c3db"/><stop offset=".45" stop-color="#86c3db"/><stop offset="1" stop-color="#5eafcf"/></linearGradient><linearGradient id="j" x1="81.751" y1="80.009" x2="82.749" y2="81.741" xlink:href="#r"><stop stop-color="#86c3db"/><stop offset=".45" stop-color="#86c3db"/><stop offset="1" stop-color="#5eafcf"/></linearGradient><linearGradient id="k" x1="-nan" y1="-nan" x2="-nan" y2="-nan" xlink:href="#r"><stop stop-color="#d4d7dd"/><stop offset=".45" stop-color="#d4d7dd"/><stop offset="1" stop-color="#bec1c6"/></linearGradient><clipPath id="l"><path transform="translate(43.227 43)" d="M0 0h18.656v10.11H0z" class="G"/></clipPath><clipPath id="m"><path transform="translate(52.508 44.23)" d="M0 0h9.387v5.744H0z" class="G"/></clipPath><clipPath id="n"><path transform="translate(43.227 43)" d="M0 0h16.406v10.11H0z" class="G"/></clipPath><clipPath id="o"><path transform="translate(71.227 43)" d="M0 0h18.656v10.11H0z" class="G"/></clipPath><clipPath id="p"><path transform="translate(80.508 44.23)" d="M0 0h9.387v5.744H0z" class="G"/></clipPath><clipPath id="q"><path transform="translate(71.227 43)" d="M0 0h16.406v10.11H0z" class="G"/></clipPath><linearGradient id="r" gradientUnits="userSpaceOnUse"/></defs></svg>