<svg xmlns="http://www.w3.org/2000/svg" width="250" height="207" fill="none" xmlns:v="https://vecta.io/nano"><style><![CDATA[.B{fill:#546069}.C{fill:#8796a1}.D{fill:#f21197}]]></style><g fill="#fff"><path d="M0 0h250v207H0z"/><rect x="70.25" y="17.75" width="109.5" height="142.5" rx="3.25"/></g><g stroke="#8796a1"><rect x="70.25" y="17.75" width="109.5" height="142.5" rx="3.25" stroke-width="1.5"/><rect x="78" y="25.5" width="94" height="127" rx="2.5" fill="#fff"/></g><g class="C"><path d="M90.5 35.5a2.5 2.5 0 1 1-5 0 2.5 2.5 0 1 1 5 0z"/><rect x="91.5" y="34.25" width="20" height="2.5" rx="1.25"/><rect x="150.5" y="34.25" width="14" height="2.5" rx="1.25"/><rect x="109.5" y="66" width="14" height="2.5" rx="1.25"/><rect x="126.5" y="66" width="14" height="2.5" rx="1.25"/><rect x="104.5" y="71.5" width="41" height="2.5" rx="1.25"/><rect x="93" y="82" width="5" height="5" rx="2.5"/><rect x="101" y="83.25" width="38" height="2.5" rx="1.25"/></g><rect x="141" y="83.25" width="16" height="2.5" rx="1.25" class="B"/><g class="C"><rect x="104" y="89.5" width="5" height="5" rx="2.5"/><rect x="112" y="90.75" width="20" height="2.5" rx="1.25"/></g><rect x="134" y="90.75" width="12" height="2.5" rx="1.25" class="B"/><g class="C"><rect x="99" y="97" width="5" height="5" rx="2.5"/><rect x="107" y="98.25" width="25" height="2.5" rx="1.25"/></g><rect x="134" y="98.25" width="17" height="2.5" rx="1.25" class="B"/><g class="C"><rect x="93" y="104.5" width="5" height="5" rx="2.5"/><rect x="101" y="105.75" width="24" height="2.5" rx="1.25"/></g><rect x="127" y="105.75" width="30" height="2.5" rx="1.25" class="B"/><g class="C"><rect x="102.5" y="112" width="5" height="5" rx="2.5"/><rect x="110.5" y="113.25" width="23" height="2.5" rx="1.25"/></g><rect x="135.5" y="113.25" width="12" height="2.5" rx="1.25" class="B"/><g class="C"><rect x="97" y="119.5" width="5" height="5" rx="2.5"/><rect x="105" y="120.75" width="24" height="2.5" rx="1.25"/></g><rect x="131" y="120.75" width="22" height="2.5" rx="1.25" class="B"/><g class="C"><rect x="93" y="127" width="5" height="5" rx="2.5"/><rect x="101" y="128.25" width="34" height="2.5" rx="1.25"/></g><rect x="137" y="128.25" width="20" height="2.5" rx="1.25" class="B"/><path d="M90.5 143.5a2.5 2.5 0 1 1-5 0 2.5 2.5 0 1 1 5 0z" class="C"/><rect x="92.5" y="142.25" width="14" height="2.5" rx="1.25" class="B"/><path d="M115 143.5a2.5 2.5 0 1 1-5 0 2.5 2.5 0 1 1 5 0z" class="C"/><rect x="117" y="142.25" width="15" height="2.5" rx="1.25" class="B"/><path d="M140.5 143.5a2.5 2.5 0 1 1-5 0 2.5 2.5 0 1 1 5 0z" class="C"/><g class="B"><rect x="142.5" y="142.25" width="22" height="2.5" rx="1.25"/><path d="M119.486 50.649h1.432a1.43 1.43 0 0 0 .725-.114 1.68 1.68 0 0 0 .614-.472c.302-.46.452-1.036.422-1.618.02-.547-.131-1.083-.422-1.506a1.63 1.63 0 0 0-.584-.441 1.41 1.41 0 0 0-.684-.117 1.62 1.62 0 0 0-1.198.502 1.83 1.83 0 0 0-.354.61 2.08 2.08 0 0 0-.115.729h-2.466a4.18 4.18 0 0 1 .267-1.673c.201-.524.503-.984.884-1.34.824-.809 1.867-1.235 2.935-1.2 1.133-.074 2.251.342 3.146 1.172.377.406.672.908.864 1.468a4.68 4.68 0 0 1 .24 1.768 3.79 3.79 0 0 1-.517 1.925c-.357.623-.853 1.115-1.432 1.423.649.254 1.21.754 1.597 1.423.378.646.575 1.417.563 2.204.028.642-.072 1.282-.293 1.869s-.554 1.103-.975 1.507c-.926.847-2.072 1.281-3.24 1.228-1.083.042-2.145-.362-3.006-1.144a3.65 3.65 0 0 1-.966-1.444 4.32 4.32 0 0 1-.255-1.82h2.348c-.008.276.034.551.123.806s.223.484.394.673c.357.392.829.603 1.315.586a1.55 1.55 0 0 0 .748-.131c.239-.106.456-.27.637-.483s.317-.464.406-.743a2.46 2.46 0 0 0 .111-.876 2.44 2.44 0 0 0-.06-.959 2.18 2.18 0 0 0-.419-.822c-.193-.231-.428-.405-.687-.508a1.48 1.48 0 0 0-.807-.083h-1.432l.141-2.399zm16.273 9.123h-8.618v-2.037l4.086-5.413a13.13 13.13 0 0 0 1.268-2.12c.226-.489.355-1.033.375-1.59a2.83 2.83 0 0 0-.446-1.618c-.148-.21-.336-.375-.548-.482a1.25 1.25 0 0 0-.673-.132 1.32 1.32 0 0 0-.747.158 1.61 1.61 0 0 0-.591.567c-.311.583-.466 1.263-.446 1.953h-2.466c-.026-.655.06-1.309.254-1.924s.491-1.175.873-1.648c.407-.496.898-.885 1.44-1.139a3.55 3.55 0 0 1 1.707-.339c1.124-.077 2.228.374 3.076 1.255a4.48 4.48 0 0 1 .856 1.532 5.09 5.09 0 0 1 .247 1.816c.015.917-.197 1.82-.61 2.595a27.04 27.04 0 0 1-2.09 3.153l-2.348 3.013h5.401v2.399zm1.776-14.57c-.013-.313.071-.62.235-.865.086-.112.191-.2.309-.258s.244-.084.371-.077a.77.77 0 0 1 .384.074c.121.058.231.147.32.261.165.245.248.552.235.865a1.42 1.42 0 0 1-.235.865c-.086.112-.191.2-.309.258s-.244.084-.371.077a.77.77 0 0 1-.384-.074c-.121-.058-.231-.147-.32-.261-.166-.243-.25-.552-.235-.865zm.516 0c-.032.165-.032.337 0 .502a.39.39 0 0 0 .142.153c.057.035.122.049.187.043.058.006.116-.009.167-.044s.09-.088.114-.151c.083-.148.125-.324.118-.502a1.16 1.16 0 0 0-.071-.419c-.028-.066-.072-.119-.127-.154s-.116-.049-.178-.041c-.058-.006-.116.009-.167.044s-.09.088-.114.151c-.077.152-.117.325-.117.502l.046-.084zm5.823 2.427a2.17 2.17 0 0 1-.098.754 1.91 1.91 0 0 1-.348.641c-.363.351-.823.529-1.291.502a1.43 1.43 0 0 1-.731-.14c-.232-.111-.439-.283-.608-.502-.174-.213-.31-.467-.399-.745a2.54 2.54 0 0 1-.117-.873v-1.06c-.022-.596.155-1.177.493-1.618.364-.379.831-.587 1.315-.587s.951.209 1.315.587c.161.176.287.392.369.634s.115.502.1.761h-.892a1.43 1.43 0 0 0-.211-.837c-.091-.1-.199-.177-.316-.225a.76.76 0 0 0-.365-.054c-.116.021-.226.072-.324.149a.91.91 0 0 0-.24.298c-.168.306-.25.667-.235 1.032v1.06c-.019.37.072.736.259 1.032a.89.89 0 0 0 .301.291.74.74 0 0 0 .38.1.66.66 0 0 0 .344-.053c.11-.048.209-.126.29-.226.157-.226.233-.517.211-.809l.798-.112z"/></g><g class="C"><rect x="145.656" y="44" width=".889" height="5.53" rx=".444"/><path d="M148.324 45.2a1.45 1.45 0 0 1 .234-.864.89.89 0 0 1 .309-.257.75.75 0 0 1 .372-.077c.13-.009.261.016.383.074s.231.147.32.261c.165.244.248.552.235.864.015.313-.068.621-.235.864a.88.88 0 0 1-.308.257.75.75 0 0 1-.372.077c-.131.009-.261-.016-.383-.074a.91.91 0 0 1-.321-.261 1.42 1.42 0 0 1-.234-.864zm.516 0a1.32 1.32 0 0 0 0 .502.38.38 0 0 0 .141.152c.058.034.123.049.187.043.058.006.117-.009.167-.044s.091-.088.115-.151c.083-.148.124-.324.117-.502a1.13 1.13 0 0 0-.07-.418c-.028-.065-.073-.119-.127-.154s-.117-.049-.178-.041c-.058-.006-.117.009-.167.044s-.091.088-.115.151c-.076.152-.117.325-.117.502l.047-.084zm5.161 2.034h-1.793v2.294h-.896V44h3.092v.857h-2.196v1.52h1.882l-.089.857z"/></g><path d="M113.199 55.916c-.001.997-.397 1.952-1.101 2.657s-1.66 1.102-2.656 1.103h-9.641a4.31 4.31 0 0 1-4.201-4.309 4.31 4.31 0 0 1 4.201-4.309h.119c.2-.801.637-1.524 1.254-2.072a4.1 4.1 0 0 1 4.592-.585c.735.376 1.339.966 1.734 1.692.204-.048.413-.072.622-.072a2.73 2.73 0 0 1 2.701 2.41c.698.278 1.298.758 1.721 1.379s.652 1.355.655 2.107h0z" class="B"/><g fill-rule="evenodd"><path d="M165.5 140h-82a.5.5 0 0 0-.5.5v6a.5.5 0 0 0 .5.5h82a.5.5 0 0 0 .5-.5v-6a.5.5 0 0 0-.5-.5zm-82-1.5a2 2 0 0 0-2 2v6a2 2 0 0 0 2 2h82a2 2 0 0 0 2-2v-6a2 2 0 0 0-2-2h-82z" class="D"/><path d="M165.5 80.5h-82a.5.5 0 0 0-.5.5v52a.5.5 0 0 0 .5.5h82a.5.5 0 0 0 .5-.5V81a.5.5 0 0 0-.5-.5zm-82-1.5a2 2 0 0 0-2 2v52a2 2 0 0 0 2 2h82a2 2 0 0 0 2-2V81a2 2 0 0 0-2-2h-82z" fill="#ff5a08"/><path d="M174.029 111.559L167 106.5l7.896-3.558-.362 3.6c5.582.885 11.994 2.548 16.84 5.347 2.529 1.461 4.678 3.258 6.043 5.461 1.378 2.222 1.931 4.821 1.318 7.801-1.462 7.101-6.341 11.507-11.825 14.245-3.948 1.971-8.248 3.099-11.913 3.764A4 4 0 0 1 167 143a4 4 0 0 1 7.775-1.325c3.563-.649 7.696-1.74 11.465-3.621 5.232-2.612 9.687-6.706 11.025-13.205.536-2.601.055-4.809-1.123-6.709-1.19-1.921-3.116-3.564-5.518-4.952-4.594-2.653-10.759-4.275-16.241-5.151l-.354 3.522z" class="D"/></g><path d="M88.5 169.1v-14.9H91l-3-5.2-3 5.2h2.5v14.9c-1 .2-1.8 1.1-1.8 2.2 0 1.2 1 2.3 2.3 2.3 1.2 0 2.3-1 2.3-2.3 0-1.1-.8-2-1.8-2.2zM25 184.748a5 5 0 1 0 0-10 5 5 0 1 0 0 10z" class="D"/><path d="M39.256 180.05h1.611c-.043.57-.201 1.076-.475 1.517a2.84 2.84 0 0 1-1.143 1.032c-.488.25-1.08.375-1.775.375-.535 0-1.018-.094-1.447-.282a3.07 3.07 0 0 1-1.096-.814c-.305-.351-.531-.781-.691-1.277s-.24-1.061-.24-1.682v-.65c0-.622.082-1.182.246-1.682s.398-.926.703-1.277a3.18 3.18 0 0 1 1.107-.821c.429-.192.918-.287 1.453-.287.695 0 1.283.129 1.764.387s.854.603 1.119 1.049.426.957.48 1.535h-1.611c-.031-.36-.109-.664-.234-.914s-.305-.44-.551-.569-.564-.199-.967-.199c-.312 0-.588.059-.826.176a1.51 1.51 0 0 0-.586.527c-.156.231-.274.52-.352.868s-.117.742-.117 1.195v.662a5.87 5.87 0 0 0 .105 1.166 2.64 2.64 0 0 0 .328.873c.148.238.34.42.574.545s.514.187.838.187c.395 0 .715-.062.961-.187s.44-.309.568-.551.217-.543.252-.902zm2.467-.299v-.123a3.96 3.96 0 0 1 .199-1.283c.133-.395.326-.737.58-1.026s.564-.513.932-.673.785-.247 1.254-.247c.477 0 .898.082 1.266.247s.684.384.938.673.447.631.58 1.026a3.96 3.96 0 0 1 .199 1.283v.123a3.99 3.99 0 0 1-.199 1.283 3.04 3.04 0 0 1-.58 1.026c-.254.289-.564.513-.932.673s-.787.241-1.26.241-.889-.08-1.26-.241a2.6 2.6 0 0 1-.937-.673 3.04 3.04 0 0 1-.58-1.026 3.99 3.99 0 0 1-.199-1.283zm1.547-.123v.123a3.53 3.53 0 0 0 .082.779c.055.242.139.455.252.639a1.26 1.26 0 0 0 .44.434c.18.106.402.152.656.152s.465-.051.645-.152.326-.25.439-.434a2 2 0 0 0 .258-.639 3.53 3.53 0 0 0 .082-.779v-.123a3.43 3.43 0 0 0-.082-.768c-.055-.242-.141-.455-.258-.638s-.262-.334-.445-.44-.396-.164-.65-.164a1.22 1.22 0 0 0-.645.164 1.25 1.25 0 0 0-.44.44c-.113.183-.197.396-.252.638a3.43 3.43 0 0 0-.082.768zm7.066-1.811v5.039h-1.547v-6.339h1.459l.088 1.3zm-.229 1.641h-.475c0-.441.053-.848.158-1.219a2.92 2.92 0 0 1 .481-.967 2.18 2.18 0 0 1 .779-.644c.313-.152.674-.229 1.084-.229.285 0 .547.043.785.129a1.57 1.57 0 0 1 .615.393c.172.18.31.406.404.691s.141.619.141 1.014v4.23h-1.547v-4.072c0-.297-.043-.529-.129-.697a.7.7 0 0 0-.357-.352 1.37 1.37 0 0 0-.562-.105 1.28 1.28 0 0 0-.627.146 1.21 1.21 0 0 0-.428.393 1.91 1.91 0 0 0-.246.58 3.13 3.13 0 0 0-.076.709zm3.855-.287l-.639.117c.004-.398.059-.771.164-1.119a2.79 2.79 0 0 1 .463-.92 2.15 2.15 0 0 1 .768-.621c.308-.152.664-.229 1.066-.229a2.48 2.48 0 0 1 .844.135 1.57 1.57 0 0 1 .65.416c.18.188.316.432.41.733s.146.668.146 1.101v4.072h-1.559v-4.078c0-.308-.043-.545-.129-.709a.69.69 0 0 0-.357-.34c-.156-.063-.34-.099-.551-.099a1.22 1.22 0 0 0-.562.123c-.156.078-.289.187-.398.328a1.53 1.53 0 0 0-.24.492 2.24 2.24 0 0 0-.076.598zm6.81-1.436v7.559h-1.553v-8.777h1.435l.117 1.218zm4.072 1.887v.123a4.8 4.8 0 0 1-.164 1.283c-.109.394-.262.733-.469 1.026s-.465.515-.773.679-.656.241-1.055.241a2.21 2.21 0 0 1-1.02-.223 2.09 2.09 0 0 1-.732-.645 3.54 3.54 0 0 1-.48-.966 7.21 7.21 0 0 1-.264-1.213v-.393a7.41 7.41 0 0 1 .264-1.265 3.5 3.5 0 0 1 .48-.991c.199-.278.441-.498.727-.65a2.14 2.14 0 0 1 1.014-.229 2.35 2.35 0 0 1 1.061.229 2.13 2.13 0 0 1 .779.656 2.99 2.99 0 0 1 .475 1.02 5.12 5.12 0 0 1 .158 1.318zm-1.553.123v-.123c0-.281-.025-.541-.076-.779s-.129-.453-.234-.633a1.17 1.17 0 0 0-.41-.428c-.168-.101-.371-.152-.609-.152a1.48 1.48 0 0 0-.615.117c-.172.078-.312.19-.422.334a1.68 1.68 0 0 0-.258.516 3.1 3.1 0 0 0-.117.65v.973a2.74 2.74 0 0 0 .205.779 1.3 1.3 0 0 0 .445.551c.199.137.457.205.774.205.238 0 .441-.053.609-.158a1.22 1.22 0 0 0 .41-.434c.106-.187.182-.402.229-.644a4.06 4.06 0 0 0 .07-.774zm2.408.006v-.123a3.96 3.96 0 0 1 .199-1.283c.133-.395.326-.737.58-1.026a2.61 2.61 0 0 1 .932-.673 3.11 3.11 0 0 1 1.254-.247c.477 0 .898.082 1.266.247s.684.384.938.673.447.631.58 1.026a3.96 3.96 0 0 1 .199 1.283v.123a3.99 3.99 0 0 1-.199 1.283 3.04 3.04 0 0 1-.58 1.026c-.254.289-.564.513-.932.673s-.787.241-1.26.241-.889-.08-1.26-.241a2.6 2.6 0 0 1-.937-.673 3.04 3.04 0 0 1-.58-1.026 3.99 3.99 0 0 1-.199-1.283zm1.547-.123v.123a3.53 3.53 0 0 0 .082.779c.055.242.139.455.252.639s.26.328.439.434.402.152.656.152.465-.051.645-.152.326-.25.439-.434a2 2 0 0 0 .258-.639 3.53 3.53 0 0 0 .082-.779v-.123a3.43 3.43 0 0 0-.082-.768c-.055-.242-.141-.455-.258-.638s-.262-.334-.445-.44-.396-.164-.65-.164a1.22 1.22 0 0 0-.645.164 1.24 1.24 0 0 0-.439.44 2.07 2.07 0 0 0-.252.638 3.43 3.43 0 0 0-.082.768zm7.072-1.816v5.044h-1.547v-6.339h1.465l.082 1.295zm1.928-1.336l-.023 1.441a2.7 2.7 0 0 0-.293-.035l-.299-.012a1.79 1.79 0 0 0-.627.1 1.16 1.16 0 0 0-.451.275 1.22 1.22 0 0 0-.27.445c-.062.172-.098.368-.105.586l-.334-.041a4.82 4.82 0 0 1 .123-1.119 3.13 3.13 0 0 1 .357-.902c.156-.258.352-.457.586-.598s.512-.217.82-.217a1.71 1.71 0 0 1 .275.024.94.94 0 0 1 .24.053zm4.143.041v1.113h-3.633v-1.113h3.633zm-2.66-1.559h1.553v6.07c0 .188.025.332.076.434s.127.17.228.205a1.12 1.12 0 0 0 .363.053 2.04 2.04 0 0 0 .281-.018l.217-.035.006 1.16a2.98 2.98 0 0 1-.439.106c-.16.027-.342.041-.545.041-.348 0-.652-.059-.914-.176a1.31 1.31 0 0 1-.609-.58c-.145-.27-.217-.625-.217-1.067v-6.193zm9.345 7.898h-1.84l.012-1.265h1.828c.496 0 .912-.11 1.248-.328.336-.223.59-.541.762-.955s.258-.918.258-1.5v-.44c0-.449-.049-.846-.147-1.189a2.38 2.38 0 0 0-.434-.867 1.8 1.8 0 0 0-.697-.534c-.277-.121-.596-.181-.955-.181h-1.91v-1.272h1.91c.57 0 1.09.096 1.559.287s.881.467 1.225.826a3.67 3.67 0 0 1 .797 1.278c.184.496.281 1.051.281 1.664v.428a4.72 4.72 0 0 1-.281 1.664c-.187.5-.449.922-.797 1.277s-.754.629-1.231.82-1.006.287-1.588.287zm-.937-8.531v8.531h-1.611v-8.531h1.611zm9.58 7.184v-2.924a1.29 1.29 0 0 0-.111-.557.8.8 0 0 0-.34-.363c-.153-.086-.346-.129-.58-.129-.207 0-.389.035-.545.106s-.27.17-.352.298a.78.78 0 0 0-.123.434h-1.553c0-.262.063-.51.188-.744a2.05 2.05 0 0 1 .533-.633c.23-.184.514-.334.838-.439s.695-.159 1.102-.159c.481 0 .908.082 1.283.247a1.95 1.95 0 0 1 .891.726c.219.324.328.732.328 1.225v2.765c0 .317.019.588.059.815a2.06 2.06 0 0 0 .188.58v.099h-1.576c-.074-.16-.131-.363-.17-.609a4.77 4.77 0 0 1-.059-.738zm.217-2.514l.012.92h-.978c-.242 0-.455.025-.639.076s-.334.117-.451.211-.205.199-.264.328-.088.268-.088.428a.84.84 0 0 0 .105.422.81.81 0 0 0 .316.299 1.09 1.09 0 0 0 .492.105 1.49 1.49 0 0 0 .715-.164c.203-.113.361-.25.475-.41s.174-.313.182-.457l.445.668a2.64 2.64 0 0 1-.246.51 2.33 2.33 0 0 1-.422.504 2.14 2.14 0 0 1-.621.386 2.16 2.16 0 0 1-.844.153 2.41 2.41 0 0 1-1.102-.246 1.96 1.96 0 0 1-.768-.674c-.187-.285-.281-.61-.281-.973a2.02 2.02 0 0 1 .188-.891c.125-.257.31-.474.557-.65s.551-.314.914-.404a5.27 5.27 0 0 1 1.26-.141h1.043zm5.736-2.478v1.113h-3.633v-1.113h3.633zm-2.66-1.559h1.552v6.07c0 .188.026.332.077.434s.127.17.228.205a1.12 1.12 0 0 0 .363.053c.102 0 .196-.006.282-.018l.217-.035.005 1.16a2.98 2.98 0 0 1-.439.106c-.16.027-.342.041-.545.041-.348 0-.652-.059-.914-.176a1.31 1.31 0 0 1-.609-.58c-.145-.27-.217-.625-.217-1.067v-6.193zm7.183 6.551v-2.924c0-.215-.037-.4-.111-.557a.8.8 0 0 0-.34-.363c-.152-.086-.346-.129-.58-.129-.207 0-.389.035-.545.106a.79.79 0 0 0-.351.298.78.78 0 0 0-.123.434h-1.553c0-.262.062-.51.187-.744a2.04 2.04 0 0 1 .534-.633 2.62 2.62 0 0 1 .837-.439 3.58 3.58 0 0 1 1.102-.159c.48 0 .908.082 1.283.247a1.95 1.95 0 0 1 .891.726c.219.324.328.732.328 1.225v2.765c0 .317.019.588.059.815a2.09 2.09 0 0 0 .187.58v.099h-1.576c-.074-.16-.131-.363-.17-.609s-.059-.496-.059-.738zm.217-2.514l.012.92h-.979a2.39 2.39 0 0 0-.638.076c-.184.047-.334.117-.451.211s-.206.199-.264.328a1.02 1.02 0 0 0-.088.428.85.85 0 0 0 .105.422c.075.125.18.224.317.299a1.09 1.09 0 0 0 .492.105c.273 0 .512-.055.715-.164a1.36 1.36 0 0 0 .474-.41c.113-.16.174-.313.182-.457l.445.668a2.56 2.56 0 0 1-.246.51c-.109.179-.25.347-.422.504a2.11 2.11 0 0 1-.621.386c-.243.101-.523.153-.843.153-.411 0-.778-.082-1.102-.246a1.96 1.96 0 0 1-.768-.674c-.188-.285-.281-.61-.281-.973a2.02 2.02 0 0 1 .188-.891c.125-.257.31-.474.556-.65s.551-.314.914-.404.788-.141 1.26-.141h1.043z" class="B"/><path d="M133.883 184.748a5 5 0 1 0 0-10 5 5 0 1 0 0 10z" fill="#ff5a08"/><path d="M148.139 180.193h1.611c-.043.571-.201 1.077-.475 1.518a2.82 2.82 0 0 1-1.142 1.031c-.488.25-1.08.375-1.776.375-.535 0-1.017-.094-1.447-.281s-.791-.463-1.096-.815-.531-.781-.691-1.277-.24-1.06-.24-1.682v-.65c0-.621.082-1.182.246-1.682s.398-.925.703-1.277a3.15 3.15 0 0 1 1.107-.82c.434-.192.918-.287 1.454-.287.695 0 1.283.129 1.763.386s.854.604 1.119 1.049.426.957.481 1.535h-1.611c-.032-.359-.11-.664-.235-.914a1.23 1.23 0 0 0-.551-.568c-.242-.133-.564-.199-.966-.199-.313 0-.588.058-.827.176a1.52 1.52 0 0 0-.586.527c-.156.23-.273.519-.351.867a5.44 5.44 0 0 0-.117 1.195v.662c0 .434.035.823.105 1.167a2.68 2.68 0 0 0 .328.873c.149.238.34.419.575.544s.513.188.837.188c.395 0 .715-.063.961-.188a1.27 1.27 0 0 0 .569-.55c.133-.242.217-.543.252-.903zm4.259-6.193v9h-1.552v-9h1.552zm-.246 5.602h-.457c0-.442.059-.848.176-1.219a3.01 3.01 0 0 1 .498-.967c.215-.277.471-.492.768-.645s.633-.228.996-.228c.312 0 .596.045.849.135.258.086.479.224.663.416s.324.441.421.75.153.676.153 1.113V183h-1.559v-4.055c0-.293-.043-.523-.129-.691a.77.77 0 0 0-.369-.369 1.35 1.35 0 0 0-.58-.112c-.25 0-.465.049-.644.147s-.329.225-.446.392a1.83 1.83 0 0 0-.258.581 2.72 2.72 0 0 0-.082.709zm8.924 2.05v-2.923a1.29 1.29 0 0 0-.111-.557c-.074-.156-.188-.277-.34-.363s-.346-.129-.58-.129c-.207 0-.389.035-.545.105s-.27.17-.352.299-.123.27-.123.434h-1.552c0-.262.062-.51.187-.745a1.99 1.99 0 0 1 .533-.632 2.64 2.64 0 0 1 .838-.44c.328-.105.696-.158 1.102-.158.48 0 .908.082 1.283.246s.676.402.891.727.328.732.328 1.224v2.766c0 .316.019.588.058.814a2.07 2.07 0 0 0 .188.58v.1h-1.576a2.3 2.3 0 0 1-.17-.609c-.039-.25-.059-.496-.059-.739zm.217-2.513l.012.92h-.979a2.39 2.39 0 0 0-.638.076c-.184.047-.334.117-.452.211a.85.85 0 0 0-.263.328.99.99 0 0 0-.088.428c0 .156.035.296.105.421s.18.225.317.299.304.106.492.106c.273 0 .512-.055.715-.164.203-.114.361-.25.474-.41s.174-.313.182-.458l.445.668a2.51 2.51 0 0 1-.246.51 2.27 2.27 0 0 1-.422.504c-.172.156-.379.285-.621.387s-.523.152-.844.152c-.41 0-.777-.082-1.101-.246a1.96 1.96 0 0 1-.768-.674c-.187-.285-.281-.609-.281-.972a2.02 2.02 0 0 1 .188-.891 1.7 1.7 0 0 1 .556-.65c.246-.18.551-.315.914-.405s.787-.14 1.26-.14h1.043zm4.254-1.125V183H164v-6.34h1.453l.094 1.354zm-.246 1.588h-.457a4.19 4.19 0 0 1 .187-1.254 2.95 2.95 0 0 1 .51-.967 2.28 2.28 0 0 1 .791-.621c.305-.145.645-.217 1.02-.217.304 0 .58.043.826.129s.457.223.633.41.316.434.41.738.146.672.146 1.114V183h-1.558v-4.078c0-.289-.043-.518-.129-.686a.73.73 0 0 0-.364-.357 1.43 1.43 0 0 0-.58-.106 1.29 1.29 0 0 0-.627.147c-.175.094-.324.225-.445.392s-.207.362-.269.581a2.55 2.55 0 0 0-.094.709zm9.463-2.942h1.406v6.147c0 .574-.125 1.06-.375 1.459s-.592.707-1.037.914-.963.316-1.553.316c-.254 0-.529-.035-.826-.105a3.39 3.39 0 0 1-.85-.334c-.269-.149-.494-.342-.674-.58l.698-.915a2.13 2.13 0 0 0 .715.557 1.94 1.94 0 0 0 .861.193c.312 0 .578-.058.797-.175a1.17 1.17 0 0 0 .51-.504c.121-.219.181-.488.181-.809v-4.717l.147-1.447zm-4.284 3.246v-.123c0-.484.059-.924.176-1.318s.285-.74.504-1.026.49-.505.803-.662.672-.234 1.066-.234c.418 0 .77.076 1.055.228a1.97 1.97 0 0 1 .715.651c.188.281.34.615.445 1.002.11.383.194.805.252 1.265v.334c-.055.45-.142.862-.264 1.237-.117.375-.273.703-.468.984a2.02 2.02 0 0 1-.727.645c-.289.153-.629.228-1.019.228a2.28 2.28 0 0 1-1.055-.24c-.313-.16-.58-.385-.803-.674s-.387-.629-.504-1.019a4.44 4.44 0 0 1-.176-1.278zm1.547-.123v.123c0 .274.028.53.082.768a2.08 2.08 0 0 0 .252.633c.113.184.256.32.428.422s.377.152.615.152c.321 0 .582-.067.785-.199s.364-.323.469-.557c.11-.238.18-.506.211-.803v-.92c-.019-.234-.062-.451-.129-.65a1.61 1.61 0 0 0-.263-.516 1.19 1.19 0 0 0-.434-.34c-.176-.082-.385-.123-.627-.123-.234 0-.439.053-.615.159s-.321.244-.434.427-.199.397-.258.639-.082.504-.082.785zm8.385 3.334c-.48 0-.912-.078-1.295-.234s-.709-.373-.978-.651a2.99 2.99 0 0 1-.616-.978c-.14-.375-.211-.777-.211-1.207v-.235c0-.488.071-.931.211-1.33s.34-.748.598-1.037.567-.511.926-.668.756-.234 1.189-.234c.45 0 .846.076 1.19.228s.631.36.861.633.404.602.522.985.175.799.175 1.259v.651h-4.968v-1.067h3.445v-.117c-.008-.246-.055-.47-.141-.674a1.09 1.09 0 0 0-.398-.492c-.18-.121-.412-.187-.697-.187a1.16 1.16 0 0 0-.604.152 1.21 1.21 0 0 0-.422.422 2.11 2.11 0 0 0-.246.644c-.055.25-.082.528-.082.832v.235c0 .265.035.512.106.738s.181.424.322.592a1.57 1.57 0 0 0 .515.387c.204.09.434.134.692.134.324 0 .617-.062.879-.187a1.96 1.96 0 0 0 .691-.568l.779.808a2.57 2.57 0 0 1-.539.563c-.222.179-.492.326-.808.439s-.682.164-1.096.164zm9.996-3.228h-2.197v-1.266h2.197c.36 0 .651-.059.873-.176s.393-.285.498-.492.159-.451.159-.721a1.71 1.71 0 0 0-.159-.732c-.105-.227-.271-.41-.498-.551s-.513-.211-.873-.211h-1.67V183h-1.611v-8.531h3.281c.664 0 1.231.119 1.699.357s.832.561 1.079.979.375.886.375 1.418c0 .55-.125 1.025-.375 1.423s-.606.706-1.079.92c-.468.215-1.035.323-1.699.323zm3.944.006v-.124c0-.464.066-.892.199-1.283a3 3 0 0 1 .58-1.025 2.61 2.61 0 0 1 .931-.674 3.05 3.05 0 0 1 1.254-.246c.477 0 .899.082 1.266.246s.684.385.938.674a2.99 2.99 0 0 1 .58 1.025 3.99 3.99 0 0 1 .199 1.283v.124c0 .46-.067.888-.199 1.283a3 3 0 0 1-.58 1.025c-.253.293-.565.514-.932.674s-.787.24-1.26.24-.889-.08-1.26-.24a2.6 2.6 0 0 1-.937-.674c-.254-.293-.447-.635-.58-1.025s-.199-.823-.199-1.283zm1.546-.124v.124c0 .277.028.537.082.779a2.06 2.06 0 0 0 .252.638 1.26 1.26 0 0 0 .44.434c.183.102.402.152.656.152s.465-.05.645-.152.326-.25.439-.434a2.1 2.1 0 0 0 .258-.638c.055-.242.082-.502.082-.779v-.124c0-.273-.027-.529-.082-.767a2.01 2.01 0 0 0-.258-.639 1.23 1.23 0 0 0-.445-.439c-.18-.11-.397-.164-.651-.164a1.2 1.2 0 0 0-.644.164 1.25 1.25 0 0 0-.44.439c-.113.184-.197.397-.252.639a3.43 3.43 0 0 0-.082.767zm9.012 1.495c0-.133-.035-.252-.105-.358s-.203-.201-.399-.287a4.38 4.38 0 0 0-.844-.252c-.328-.07-.63-.158-.908-.264s-.515-.232-.715-.38a1.66 1.66 0 0 1-.468-.534c-.113-.204-.164-.445-.164-.714 0-.262.056-.508.17-.739s.277-.439.492-.615a2.43 2.43 0 0 1 .785-.422 3.31 3.31 0 0 1 1.043-.158c.539 0 1.002.088 1.389.264s.689.418.896.726a1.8 1.8 0 0 1 .311 1.031h-1.547c0-.168-.039-.32-.117-.457s-.19-.246-.346-.328-.354-.129-.592-.129c-.215 0-.396.036-.545.106s-.254.162-.328.275a.67.67 0 0 0-.111.375c0 .102.019.194.058.276a.67.67 0 0 0 .205.216c.094.067.221.127.381.182a5.42 5.42 0 0 0 .604.158c.472.094.884.219 1.236.375s.633.356.832.61.299.578.299.972c0 .282-.061.539-.182.774a1.8 1.8 0 0 1-.527.603c-.231.172-.506.307-.826.405-.321.093-.682.14-1.084.14-.582 0-1.074-.103-1.477-.31s-.707-.477-.914-.797-.31-.66-.31-1.008h1.482c.012.246.078.443.199.592s.274.256.457.322a1.85 1.85 0 0 0 .592.094c.234 0 .432-.031.592-.094s.281-.154.363-.264a.64.64 0 0 0 .123-.386zm4.33-4.606V183h-1.552v-6.34h1.552zm-1.658-1.658c0-.231.078-.422.234-.574s.375-.229.645-.229.482.076.639.229a.77.77 0 0 1 .24.574.75.75 0 0 1-.24.568c-.157.153-.37.229-.639.229s-.484-.076-.645-.229a.76.76 0 0 1-.234-.568zm6.135 1.658v1.113h-3.633v-1.113h3.633zm-2.66-1.558h1.552v6.07c0 .187.026.332.077.433a.39.39 0 0 0 .228.206c.102.035.223.052.363.052.102 0 .196-.006.282-.017l.216-.035.006 1.16c-.129.043-.275.078-.439.105s-.342.041-.545.041c-.348 0-.652-.058-.914-.176s-.465-.314-.61-.58-.216-.625-.216-1.066v-6.193zm5.332 1.558V183h-1.553v-6.34h1.553zm-1.659-1.658c0-.231.079-.422.235-.574s.375-.229.644-.229.483.076.639.229.24.343.24.574a.75.75 0 0 1-.24.568c-.156.153-.369.229-.639.229s-.484-.076-.644-.229a.76.76 0 0 1-.235-.568zm2.86 4.893v-.124c0-.464.066-.892.199-1.283a3 3 0 0 1 .58-1.025c.254-.289.565-.514.932-.674a3.11 3.11 0 0 1 1.254-.246c.476 0 .898.082 1.265.246s.684.385.938.674.447.631.58 1.025.199.819.199 1.283v.124c0 .46-.066.888-.199 1.283a3 3 0 0 1-.58 1.025c-.254.293-.565.514-.932.674s-.787.24-1.26.24-.888-.08-1.259-.24-.684-.385-.938-.674a3.01 3.01 0 0 1-.58-1.025c-.133-.39-.199-.823-.199-1.283zm1.547-.124v.124c0 .277.027.537.082.779a2.06 2.06 0 0 0 .252.638 1.25 1.25 0 0 0 .439.434 1.33 1.33 0 0 0 .656.152c.25 0 .465-.05.645-.152a1.25 1.25 0 0 0 .439-.434 1.95 1.95 0 0 0 .258-.638c.055-.242.082-.502.082-.779v-.124c0-.273-.027-.529-.082-.767s-.14-.455-.258-.639-.261-.334-.445-.439a1.28 1.28 0 0 0-.65-.164c-.254 0-.465.054-.645.164a1.24 1.24 0 0 0-.439.439c-.114.184-.198.397-.252.639a3.49 3.49 0 0 0-.082.767zm7.043-1.757V183h-1.547v-6.34h1.453l.094 1.354zm-.246 1.588h-.457c.003-.461.066-.879.187-1.254a2.95 2.95 0 0 1 .51-.967 2.27 2.27 0 0 1 .791-.621 2.34 2.34 0 0 1 1.019-.217 2.5 2.5 0 0 1 .827.129c.246.086.457.223.632.41a1.88 1.88 0 0 1 .411.738c.094.304.146.672.146 1.114V183h-1.559v-4.078c0-.289-.043-.518-.129-.686s-.203-.287-.363-.357-.349-.106-.58-.106a1.29 1.29 0 0 0-.627.147c-.176.094-.324.225-.445.392a1.85 1.85 0 0 0-.27.581c-.063.219-.093.455-.093.709z" class="B"/><path d="M204.096 119.889h-2.198v-1.266h2.198c.359 0 .65-.059.873-.176a1.15 1.15 0 0 0 .498-.492c.105-.211.158-.451.158-.721 0-.261-.053-.505-.158-.732a1.28 1.28 0 0 0-.498-.551c-.223-.14-.514-.211-.873-.211h-1.67V123h-1.612v-8.531h3.282c.664 0 1.23.119 1.699.357s.832.561 1.078.979.375.886.375 1.418c0 .55-.125 1.025-.375 1.423s-.605.706-1.078.92-1.035.323-1.699.323zm8.074 1.605v-4.834h1.559V123h-1.465l-.094-1.506zm.199-1.312l.481-.012a4.65 4.65 0 0 1-.141 1.178c-.094.359-.24.672-.439.937a2.04 2.04 0 0 1-.745.615c-.3.145-.656.217-1.066.217-.313 0-.598-.043-.855-.129s-.481-.228-.668-.416-.327-.435-.428-.732-.153-.662-.153-1.084v-4.096h1.547v4.108c0 .211.024.386.071.527s.119.256.205.346.193.148.31.187.25.053.387.053c.375 0 .67-.074.885-.223a1.25 1.25 0 0 0 .469-.609c.093-.258.14-.547.14-.867zm5.731-3.522v1.113h-3.633v-1.113h3.633zm-2.661-1.558h1.553v6.07a1 1 0 0 0 .076.433c.051.102.127.17.229.206s.223.052.363.052a2.21 2.21 0 0 0 .281-.017l.217-.035.006 1.16c-.129.043-.275.078-.439.105a3.2 3.2 0 0 1-.545.041c-.348 0-.653-.058-.914-.176s-.465-.314-.61-.58-.217-.625-.217-1.066v-6.193zm8.321 1.558V123h-1.553v-6.34h1.553zm-1.658-1.658c0-.231.078-.422.234-.574s.375-.229.644-.229.483.076.639.229.24.343.24.574a.75.75 0 0 1-.24.568c-.156.153-.369.229-.639.229s-.484-.076-.644-.229a.76.76 0 0 1-.234-.568zm4.652 3.012V123h-1.547v-6.34h1.453l.094 1.354zm-.246 1.588h-.457a4.19 4.19 0 0 1 .187-1.254 2.95 2.95 0 0 1 .51-.967 2.28 2.28 0 0 1 .791-.621c.305-.145.645-.217 1.02-.217.304 0 .58.043.826.129s.457.223.633.41.316.434.41.738.146.672.146 1.114V123h-1.558v-4.078c0-.289-.043-.518-.129-.686a.73.73 0 0 0-.364-.357 1.43 1.43 0 0 0-.58-.106 1.29 1.29 0 0 0-.627.147c-.175.094-.324.225-.445.392s-.207.362-.269.581a2.55 2.55 0 0 0-.094.709zm-22.811 9.058v1.113h-3.633v-1.113h3.633zm-2.66-1.558h1.553v6.07c0 .187.025.332.076.433a.4.4 0 0 0 .229.206 1.09 1.09 0 0 0 .363.052 2.22 2.22 0 0 0 .281-.017l.217-.035.006 1.16c-.129.043-.276.078-.44.105s-.342.041-.545.041c-.347 0-.652-.058-.914-.176s-.465-.314-.609-.58-.217-.625-.217-1.066v-6.193zm5.209-1.102v9h-1.553v-9h1.553zm-.246 5.602h-.457c0-.442.059-.848.176-1.219a3.01 3.01 0 0 1 .498-.967c.215-.277.471-.492.767-.645a2.15 2.15 0 0 1 .996-.228 2.53 2.53 0 0 1 .85.135c.258.086.479.224.662.416s.324.441.422.75.152.676.152 1.113V135h-1.558v-4.055c0-.293-.043-.523-.129-.691a.77.77 0 0 0-.369-.369 1.35 1.35 0 0 0-.58-.112 1.33 1.33 0 0 0-.645.147c-.18.094-.328.225-.445.392a1.83 1.83 0 0 0-.258.581 2.72 2.72 0 0 0-.082.709zm8.279 3.515c-.48 0-.912-.078-1.295-.234s-.709-.373-.978-.651a2.97 2.97 0 0 1-.615-.978 3.4 3.4 0 0 1-.211-1.207v-.235c0-.488.07-.931.211-1.33s.339-.748.597-1.037.567-.511.926-.668.756-.234 1.19-.234c.449 0 .845.076 1.189.228s.631.36.861.633.405.602.522.985.176.799.176 1.259v.651h-4.969v-1.067h3.445v-.117c-.008-.246-.055-.47-.14-.674s-.219-.371-.399-.492-.412-.187-.697-.187a1.16 1.16 0 0 0-.604.152c-.168.098-.308.238-.422.422a2.11 2.11 0 0 0-.246.644 3.95 3.95 0 0 0-.082.832v.235c0 .265.035.512.106.738s.181.424.322.592.316.293.516.387.433.134.691.134c.324 0 .617-.062.879-.187a1.95 1.95 0 0 0 .691-.568l.78.808a2.62 2.62 0 0 1-.539.563c-.223.179-.493.326-.809.439a3.36 3.36 0 0 1-1.096.164zm12.129-1.383V135h-4.289v-1.266h4.289zm-3.803-7.265V135h-1.611v-8.531h1.611zm6.405 2.191V135h-1.553v-6.34h1.553zm-1.658-1.658c0-.231.078-.422.234-.574s.375-.229.644-.229.483.076.639.229.24.343.24.574a.75.75 0 0 1-.24.568c-.156.153-.369.229-.639.229s-.484-.076-.644-.229a.76.76 0 0 1-.234-.568zm6.621 6.264c0-.133-.035-.252-.106-.358s-.203-.201-.398-.287a4.38 4.38 0 0 0-.844-.252 6.11 6.11 0 0 1-.908-.264 2.92 2.92 0 0 1-.715-.38 1.73 1.73 0 0 1-.469-.534 1.51 1.51 0 0 1-.164-.714 1.66 1.66 0 0 1 .17-.739c.113-.234.277-.439.492-.615a2.44 2.44 0 0 1 .785-.422 3.31 3.31 0 0 1 1.043-.158c.539 0 1.002.088 1.389.264s.69.418.897.726a1.8 1.8 0 0 1 .31 1.031h-1.547c0-.168-.039-.32-.117-.457a.82.82 0 0 0-.346-.328c-.157-.082-.353-.129-.591-.129a1.27 1.27 0 0 0-.545.106.8.8 0 0 0-.329.275c-.074.114-.111.239-.111.375 0 .102.02.194.059.276a.66.66 0 0 0 .205.216c.094.067.221.127.381.182s.365.108.603.158c.473.094.885.219 1.237.375s.632.356.832.61.298.578.298.972c0 .282-.06.539-.181.774a1.79 1.79 0 0 1-.528.603c-.23.172-.505.307-.826.405-.32.093-.681.14-1.084.14-.582 0-1.074-.103-1.476-.31s-.707-.477-.914-.797-.311-.66-.311-1.008h1.482c.012.246.079.443.2.592a1.02 1.02 0 0 0 .457.322c.184.066.385.094.592.094a1.62 1.62 0 0 0 .591-.094.84.84 0 0 0 .364-.264.64.64 0 0 0 .123-.386zm5.689-4.606v1.113h-3.633v-1.113h3.633zm-2.66-1.558h1.553v6.07c0 .187.025.332.076.433a.4.4 0 0 0 .228.206c.101.036.223.052.364.052a2.22 2.22 0 0 0 .281-.017l.217-.035.006 1.16c-.129.043-.276.078-.44.105s-.342.041-.545.041c-.347 0-.652-.058-.914-.176a1.3 1.3 0 0 1-.609-.58c-.145-.269-.217-.625-.217-1.066v-6.193z" class="D"/></svg>