<svg xmlns="http://www.w3.org/2000/svg" xmlns:xlink="http://www.w3.org/1999/xlink" width="250" height="207" fill="none" xmlns:v="https://vecta.io/nano"><g fill="#fff"><path d="M0 0h250v207H0z"/><rect x="70.25" y="17.75" width="109.5" height="142.5" rx="3.25"/></g><g stroke="#8796a1"><rect x="70.25" y="17.75" width="109.5" height="142.5" rx="3.25" stroke-width="1.5"/><rect x="78" y="25.5" width="94" height="127" rx="2.5" fill="#fff"/></g><path d="M82 93.75h86a1.25 1.25 0 0 1 1.25 1.25v53a1.25 1.25 0 0 1-1.25 1.25H82a1.25 1.25 0 0 1-1.25-1.25V95A1.25 1.25 0 0 1 82 93.75z" stroke="#f21197" stroke-width="1.5"/><rect x="83" y="29" width="84" height="8" rx="2" fill="#8796a1"/><g fill="#fff"><path d="M110.5 33a2.5 2.5 0 1 1-5 0 2.5 2.5 0 1 1 5 0z"/><rect x="112.5" y="31.5" width="32" height="3" rx="1.5"/></g><g fill="#8796a1"><rect x="83" y="40" width="20" height="2" rx="1"/><rect x="153" y="40" width="14" height="2" rx="1"/><path d="M133.599 54.266a3.76 3.76 0 0 1-3.757 3.76h-9.641a4.31 4.31 0 0 1 0-8.618h.119c.2-.801.637-1.524 1.255-2.072a4.1 4.1 0 0 1 6.325 1.107 2.76 2.76 0 0 1 .623-.072c.666.003 1.308.25 1.806.694a2.73 2.73 0 0 1 .894 1.716 3.77 3.77 0 0 1 2.376 3.486h0zm-19.38 13.383h1.432a1.43 1.43 0 0 0 .725-.114 1.68 1.68 0 0 0 .614-.472 2.72 2.72 0 0 0 .423-1.618c.019-.547-.132-1.083-.423-1.507a1.63 1.63 0 0 0-.584-.441 1.41 1.41 0 0 0-.684-.117 1.62 1.62 0 0 0-1.198.502 1.83 1.83 0 0 0-.354.61 2.08 2.08 0 0 0-.115.729h-2.466a4.18 4.18 0 0 1 .267-1.673c.201-.524.503-.984.884-1.34.824-.809 1.867-1.235 2.935-1.2 1.133-.074 2.251.342 3.146 1.172.377.406.672.908.864 1.468a4.68 4.68 0 0 1 .24 1.768 3.79 3.79 0 0 1-.517 1.925c-.357.623-.853 1.115-1.432 1.423.649.254 1.21.754 1.597 1.423.378.646.575 1.417.563 2.204.028.642-.072 1.282-.293 1.869s-.554 1.103-.975 1.507c-.926.847-2.072 1.281-3.24 1.228-1.083.042-2.145-.362-3.006-1.144a3.65 3.65 0 0 1-.966-1.445 4.32 4.32 0 0 1-.255-1.82h2.348c-.008.276.034.551.123.806a1.97 1.97 0 0 0 .394.673c.357.392.829.603 1.315.586a1.55 1.55 0 0 0 .748-.131c.239-.106.456-.27.637-.483s.317-.464.406-.743a2.46 2.46 0 0 0 .111-.876 2.44 2.44 0 0 0-.06-.959 2.18 2.18 0 0 0-.419-.822c-.193-.231-.428-.405-.687-.508a1.48 1.48 0 0 0-.807-.083h-1.432l.141-2.399zM130.555 77h-8.742v-2.066l4.145-5.491a13.2 13.2 0 0 0 1.286-2.151c.23-.496.361-1.048.382-1.613.014-.593-.146-1.174-.453-1.642-.15-.213-.341-.38-.556-.489s-.45-.154-.683-.134c-.26-.023-.521.032-.758.161a1.63 1.63 0 0 0-.599.575 3.99 3.99 0 0 0-.453 1.981h-2.501a5.72 5.72 0 0 1 .258-1.951c.196-.623.497-1.192.885-1.672.413-.504.911-.898 1.461-1.156a3.6 3.6 0 0 1 1.731-.344c1.141-.078 2.261.38 3.121 1.274.379.439.675.969.868 1.554a5.17 5.17 0 0 1 .251 1.842c.015.93-.2 1.846-.619 2.632a27.53 27.53 0 0 1-2.12 3.198l-2.382 3.057h5.478V77zm1.713-14.798c-.013-.313.071-.62.235-.865.086-.112.191-.2.309-.258a.75.75 0 0 1 .372-.077c.13-.009.261.016.383.074s.231.147.32.261c.165.245.248.552.235.865a1.42 1.42 0 0 1-.235.865c-.086.112-.191.2-.309.258s-.244.084-.371.077a.76.76 0 0 1-.383-.074.91.91 0 0 1-.321-.261c-.166-.243-.25-.552-.235-.865zm.517 0c-.033.165-.033.337 0 .502a.38.38 0 0 0 .141.153c.058.035.123.049.187.043.058.006.117-.009.167-.044s.091-.088.115-.151c.083-.148.124-.324.117-.502a1.14 1.14 0 0 0-.07-.419.35.35 0 0 0-.127-.154c-.055-.035-.117-.049-.178-.041-.059-.006-.117.009-.167.044s-.091.088-.115.151c-.077.152-.117.325-.117.502l.047-.084zm5.823 2.427a2.17 2.17 0 0 1-.099.754c-.077.24-.195.459-.348.641-.363.351-.823.529-1.291.502-.249.019-.499-.029-.731-.14a1.69 1.69 0 0 1-.608-.502c-.174-.213-.31-.467-.399-.745a2.54 2.54 0 0 1-.117-.873v-1.06c-.022-.596.155-1.177.493-1.618.364-.379.831-.587 1.315-.587s.951.209 1.315.587a1.77 1.77 0 0 1 .369.634c.081.242.116.502.101.761h-.893a1.43 1.43 0 0 0-.211-.837c-.091-.1-.199-.177-.316-.225a.76.76 0 0 0-.365-.054c-.116.021-.226.072-.324.149a.91.91 0 0 0-.24.298c-.168.306-.25.667-.234 1.032v1.06c-.02.37.072.736.258 1.032.08.124.183.223.302.291s.248.102.379.1a.67.67 0 0 0 .344-.053c.11-.048.209-.126.29-.226.157-.226.233-.517.211-.809l.799-.112zm-6.34 7.657a1.45 1.45 0 0 1 .235-.864.88.88 0 0 1 .309-.257.74.74 0 0 1 .371-.077.76.76 0 0 1 .383.074c.121.058.231.147.321.261.164.244.248.551.234.864.016.313-.068.621-.234.864a.88.88 0 0 1-.309.257c-.118.058-.244.084-.371.077a.77.77 0 0 1-.384-.074c-.121-.058-.231-.147-.32-.26a1.42 1.42 0 0 1-.235-.864zm.516 0a1.32 1.32 0 0 0 0 .501c.035.065.084.118.141.153s.123.049.188.043c.058.006.116-.009.167-.044s.09-.088.114-.151c.083-.148.124-.324.118-.501a1.15 1.15 0 0 0-.071-.418.34.34 0 0 0-.127-.154c-.055-.035-.116-.049-.178-.041-.058-.006-.116.009-.167.044s-.09.088-.114.151a1.11 1.11 0 0 0-.117.502l.046-.084zm5.161 2.034h-1.793v2.294h-.896v-5.529h3.092v.857h-2.196v1.52h1.883l-.09.857z"/><rect x="113.389" y="80" width="10" height="2" rx="1"/><rect x="126.389" y="80" width="10" height="2" rx="1"/><rect x="83" y="86" width="84" height="6" rx="2"/></g><rect x="109" y="88" width="32" height="2" rx="1" fill="#fff"/><rect x="83" y="96" width="84" height="51" rx="2" fill="#8796a1"/><g fill="#fff"><rect x="87" y="100" width="24" height="3" rx="1.5"/><rect x="143" y="100" width="20" height="3" rx="1.5"/><rect x="87" y="109" width="12" height="2" rx="1"/><path d="M127 110a3 3 0 1 1-6 0 3 3 0 1 1 6 0z"/><rect x="145" y="109" width="8" height="2" rx="1"/><rect x="155" y="109" width="8" height="2" rx="1"/><rect x="87" y="119" width="16" height="2" rx="1"/><path d="M127 120a3 3 0 1 1-6 0 3 3 0 1 1 6 0z"/><rect x="145" y="119" width="8" height="2" rx="1"/><rect x="155" y="119" width="8" height="2" rx="1"/><rect x="87" y="129" width="14" height="2" rx="1"/><path d="M127 130a3 3 0 1 1-6 0 3 3 0 1 1 6 0z"/><rect x="145" y="129" width="8" height="2" rx="1"/><rect x="155" y="129" width="8" height="2" rx="1"/><rect x="87" y="139" width="14" height="2" rx="1"/><path d="M127 140a3 3 0 1 1-6 0 3 3 0 1 1 6 0z"/><rect x="145" y="139" width="8" height="2" rx="1"/><rect x="155" y="139" width="8" height="2" rx="1"/></g><g fill="#f21197"><path fill-rule="evenodd" d="M170.67 104.5L175 97l4.33 7.5h-3.58V138h3.58l-4.33 7.5-4.33-7.5h3.58v-33.5h-3.58z"/><path d="M38.411 184.748a5 5 0 1 0 0-10 5 5 0 1 0 0 10z"/></g><g fill="#546069"><path d="M49.023 174.469V183h-1.611v-8.531h1.611zm3.439 3.685v1.272h-3.861v-1.272h3.861zm.451-3.685v1.271h-4.312v-1.271h4.313zm.574 5.426v-.124c0-.464.066-.892.199-1.283a2.97 2.97 0 0 1 .58-1.025 2.61 2.61 0 0 1 .932-.674c.367-.164.785-.246 1.254-.246.477 0 .898.082 1.266.246a2.6 2.6 0 0 1 .938.674c.254.289.447.631.58 1.025s.199.819.199 1.283v.124c0 .46-.066.888-.199 1.283a3.05 3.05 0 0 1-.58 1.025 2.61 2.61 0 0 1-.932.674c-.367.16-.787.24-1.26.24s-.889-.08-1.26-.24a2.6 2.6 0 0 1-.937-.674c-.254-.293-.447-.635-.58-1.025s-.199-.823-.199-1.283zm1.547-.124v.124a3.53 3.53 0 0 0 .082.779 2.07 2.07 0 0 0 .252.638c.113.184.26.329.439.434s.402.152.656.152.465-.05.645-.152.326-.25.439-.434a2.1 2.1 0 0 0 .258-.638 3.53 3.53 0 0 0 .082-.779v-.124a3.42 3.42 0 0 0-.082-.767 2 2 0 0 0-.258-.639 1.23 1.23 0 0 0-.445-.439c-.18-.11-.396-.164-.65-.164a1.21 1.21 0 0 0-.645.164 1.24 1.24 0 0 0-.439.439c-.113.187-.197.397-.252.639a3.42 3.42 0 0 0-.082.767zm7.072-1.816V183H60.56v-6.34h1.465l.082 1.295zm1.928-1.336l-.023 1.442c-.086-.016-.184-.028-.293-.036l-.299-.011c-.238 0-.447.033-.627.099a1.18 1.18 0 0 0-.451.276 1.21 1.21 0 0 0-.27.445 1.91 1.91 0 0 0-.105.586l-.334-.041a4.82 4.82 0 0 1 .123-1.119c.082-.344.201-.645.357-.903a1.72 1.72 0 0 1 .586-.597c.238-.145.512-.217.82-.217a1.82 1.82 0 0 1 .275.023 1 1 0 0 1 .24.053zm3.58 6.498c-.481 0-.912-.078-1.295-.234s-.709-.373-.978-.651-.471-.607-.615-.978a3.41 3.41 0 0 1-.211-1.207v-.235a3.98 3.98 0 0 1 .211-1.33 3.05 3.05 0 0 1 .598-1.037 2.64 2.64 0 0 1 .926-.668c.359-.156.756-.234 1.19-.234.449 0 .846.076 1.189.228a2.31 2.31 0 0 1 .861.633 2.77 2.77 0 0 1 .521.985 4.25 4.25 0 0 1 .176 1.259v.651h-4.969v-1.067h3.445v-.117c-.008-.246-.055-.47-.141-.674s-.219-.371-.398-.492-.412-.187-.697-.187a1.16 1.16 0 0 0-.604.152 1.21 1.21 0 0 0-.422.422 2.09 2.09 0 0 0-.246.644c-.055.25-.082.528-.082.832v.235a2.48 2.48 0 0 0 .106.738 1.77 1.77 0 0 0 .322.592c.14.168.316.293.516.387a1.69 1.69 0 0 0 .691.134c.324 0 .617-.062.879-.187s.496-.318.691-.568l.779.808c-.133.195-.312.383-.539.563a2.79 2.79 0 0 1-.809.439 3.36 3.36 0 0 1-1.096.164zm6.211-1.219c.219 0 .414-.043.586-.128a1.03 1.03 0 0 0 .41-.364 1.02 1.02 0 0 0 .17-.545h1.459a2.06 2.06 0 0 1-.363 1.155c-.234.34-.547.609-.937.808s-.82.293-1.301.293c-.488 0-.914-.082-1.277-.246s-.666-.392-.908-.685-.418-.633-.539-1.02a4.14 4.14 0 0 1-.176-1.242v-.188a4.27 4.27 0 0 1 .176-1.242 3.03 3.03 0 0 1 .539-1.019c.242-.293.545-.522.908-.686s.787-.246 1.272-.246c.512 0 .961.1 1.348.299s.695.48.914.844.338.791.346 1.283h-1.459a1.42 1.42 0 0 0-.152-.61 1.12 1.12 0 0 0-.398-.433c-.172-.11-.381-.164-.627-.164-.262 0-.481.054-.656.164a1.11 1.11 0 0 0-.404.451c-.097.191-.16.398-.199.633a4.81 4.81 0 0 0-.053.726v.188c0 .258.018.504.053.738s.105.445.199.633.233.33.404.439.398.164.668.164zm7.149-.246v-2.923a1.29 1.29 0 0 0-.111-.557.8.8 0 0 0-.34-.363c-.153-.086-.346-.129-.58-.129-.207 0-.389.035-.545.105a.8.8 0 0 0-.352.299c-.082.125-.123.27-.123.434H77.37c0-.262.063-.51.188-.745s.303-.449.533-.632a2.63 2.63 0 0 1 .838-.44c.328-.105.695-.158 1.102-.158.48 0 .908.082 1.283.246s.676.402.891.727.328.732.328 1.224v2.766c0 .316.02.588.059.814s.105.416.188.58v.1h-1.576c-.074-.16-.131-.363-.17-.609a4.75 4.75 0 0 1-.059-.739zm.217-2.513l.012.92h-.978c-.242 0-.455.025-.639.076s-.334.117-.451.211-.205.199-.264.328a1 1 0 0 0-.088.428c0 .161.035.296.105.421a.78.78 0 0 0 .316.299c.136.074.305.106.492.106a1.49 1.49 0 0 0 .715-.164c.203-.114.361-.25.475-.41s.174-.313.182-.458l.445.668a2.58 2.58 0 0 1-.246.51 2.27 2.27 0 0 1-.422.504c-.172.156-.379.285-.621.387s-.523.152-.844.152a2.41 2.41 0 0 1-1.102-.246c-.325-.164-.58-.389-.768-.674s-.281-.609-.281-.972a2.02 2.02 0 0 1 .188-.891 1.7 1.7 0 0 1 .557-.65c.246-.18.551-.315.914-.405s.787-.14 1.26-.14h1.043zm6.222 2.127c0-.133-.035-.252-.106-.358s-.203-.201-.398-.287a4.38 4.38 0 0 0-.844-.252 6.11 6.11 0 0 1-.908-.264c-.277-.106-.516-.232-.715-.38a1.73 1.73 0 0 1-.469-.534 1.51 1.51 0 0 1-.164-.714 1.66 1.66 0 0 1 .17-.739 1.81 1.81 0 0 1 .492-.615 2.36 2.36 0 0 1 .785-.422c.309-.105.656-.158 1.043-.158.539 0 1.002.088 1.389.264s.689.418.896.726a1.8 1.8 0 0 1 .311 1.031h-1.547c0-.168-.039-.32-.117-.457a.82.82 0 0 0-.346-.328c-.157-.082-.353-.129-.592-.129-.215 0-.396.036-.545.106s-.254.162-.328.275a.67.67 0 0 0-.111.375.62.62 0 0 0 .059.276.66.66 0 0 0 .205.216 1.5 1.5 0 0 0 .381.182c.164.055.365.108.603.158.473.094.885.219 1.236.375s.633.356.832.61.299.578.299.972a1.66 1.66 0 0 1-.182.774 1.8 1.8 0 0 1-.527.603c-.23.172-.506.307-.826.405-.32.093-.682.14-1.084.14-.582 0-1.074-.103-1.477-.31s-.707-.477-.914-.797-.311-.66-.311-1.008h1.482c.012.246.078.443.199.592a1.03 1.03 0 0 0 .457.322 1.85 1.85 0 0 0 .592.094c.234 0 .432-.031.592-.094s.281-.154.363-.264a.64.64 0 0 0 .123-.386zm5.69-4.606v1.113H89.47v-1.113h3.633zm-2.66-1.558h1.553v6.07c0 .187.025.332.076.433a.4.4 0 0 0 .229.206 1.12 1.12 0 0 0 .363.052 2.22 2.22 0 0 0 .281-.017l.217-.035.006 1.16c-.129.043-.275.078-.439.105a3.19 3.19 0 0 1-.545.041c-.348 0-.652-.058-.914-.176s-.465-.314-.609-.58-.217-.625-.217-1.066v-6.193zm10.189.662L98.2 183h-1.705l3.188-8.531h1.089l-.14 1.295zm2.033 7.236l-2.443-7.236-.147-1.295h1.096l3.205 8.531h-1.711zm-.111-3.17v1.272h-4.576v-1.272h4.576zm4.131-1.875V183h-1.547v-6.34h1.465l.082 1.295zm1.927-1.336l-.023 1.442c-.086-.016-.184-.028-.293-.036l-.299-.011c-.238 0-.447.033-.627.099s-.33.155-.451.276a1.17 1.17 0 0 0-.27.445 1.93 1.93 0 0 0-.105.586l-.334-.041a4.82 4.82 0 0 1 .123-1.119c.082-.344.201-.645.357-.903a1.71 1.71 0 0 1 .586-.597 1.55 1.55 0 0 1 .821-.217 1.82 1.82 0 0 1 .275.023c.102.012.182.03.24.053zm3.58 6.498c-.48 0-.912-.078-1.295-.234s-.709-.373-.978-.651a2.97 2.97 0 0 1-.615-.978 3.4 3.4 0 0 1-.211-1.207v-.235c0-.488.07-.931.211-1.33s.34-.748.597-1.037.567-.511.926-.668a2.96 2.96 0 0 1 1.19-.234c.449 0 .845.076 1.189.228s.631.36.861.633.405.602.522.985.176.799.176 1.259v.651h-4.969v-1.067h3.445v-.117c-.008-.246-.054-.47-.14-.674a1.09 1.09 0 0 0-.399-.492c-.18-.121-.412-.187-.697-.187a1.16 1.16 0 0 0-.604.152c-.168.098-.308.238-.422.422a2.11 2.11 0 0 0-.246.644 3.95 3.95 0 0 0-.082.832v.235a2.49 2.49 0 0 0 .106.738c.074.227.181.424.322.592s.317.293.516.387.433.134.691.134c.324 0 .617-.062.879-.187a1.95 1.95 0 0 0 .691-.568l.78.808a2.62 2.62 0 0 1-.539.563c-.223.179-.493.326-.809.439a3.36 3.36 0 0 1-1.096.164zm7.102-1.465v-2.923a1.29 1.29 0 0 0-.111-.557.81.81 0 0 0-.34-.363c-.153-.086-.346-.129-.58-.129-.207 0-.389.035-.545.105a.8.8 0 0 0-.352.299c-.082.125-.123.27-.123.434h-1.553c0-.262.063-.51.188-.745a1.99 1.99 0 0 1 .533-.632 2.64 2.64 0 0 1 .838-.44c.328-.105.695-.158 1.102-.158.48 0 .908.082 1.283.246a1.94 1.94 0 0 1 .89.727c.219.324.329.732.329 1.224v2.766c0 .316.019.588.058.814a2.07 2.07 0 0 0 .188.58v.1h-1.577a2.34 2.34 0 0 1-.169-.609c-.04-.25-.059-.496-.059-.739zm.217-2.513l.011.92h-.978c-.242 0-.455.025-.639.076a1.18 1.18 0 0 0-.451.211.86.86 0 0 0-.264.328c-.058.125-.087.267-.087.428s.035.296.105.421a.78.78 0 0 0 .316.299c.141.071.305.106.493.106.273 0 .511-.055.714-.164.204-.114.362-.25.475-.41s.174-.313.182-.458l.445.668a2.62 2.62 0 0 1-.246.51 2.27 2.27 0 0 1-.422.504c-.172.156-.379.285-.621.387s-.523.152-.844.152c-.41 0-.777-.082-1.101-.246a1.96 1.96 0 0 1-.768-.674c-.188-.285-.281-.609-.281-.972a2.02 2.02 0 0 1 .187-.891 1.7 1.7 0 0 1 .557-.65c.246-.18.551-.315.914-.405s.787-.14 1.26-.14h1.043zm6.545-4.67h1.394l2.332 6.422 2.326-6.422h1.401l-3.17 8.531h-1.119l-3.164-8.531zm-.703 0h1.365l.246 5.9V183h-1.611v-8.531zm7.488 0h1.371V183h-1.611v-2.631l.24-5.9zm6.387 7.183v-2.923a1.29 1.29 0 0 0-.112-.557.8.8 0 0 0-.34-.363c-.152-.086-.345-.129-.58-.129-.207 0-.388.035-.545.105a.8.8 0 0 0-.351.299c-.082.125-.123.27-.123.434h-1.553c0-.262.063-.51.188-.745a2.01 2.01 0 0 1 .533-.632c.231-.183.513-.334.838-.44a3.6 3.6 0 0 1 1.101-.158c.481 0 .908.082 1.283.246s.676.402.891.727.328.732.328 1.224v2.766c0 .316.02.588.059.814a2.07 2.07 0 0 0 .187.58v.1h-1.576c-.074-.16-.131-.363-.17-.609s-.058-.496-.058-.739zm.216-2.513l.012.92h-.978c-.243 0-.456.025-.639.076s-.334.117-.451.211a.86.86 0 0 0-.264.328.99.99 0 0 0-.088.428c0 .156.035.296.106.421a.8.8 0 0 0 .316.299 1.08 1.08 0 0 0 .492.106c.274 0 .512-.055.715-.164.203-.114.361-.25.475-.41a.88.88 0 0 0 .181-.458l.446.668a2.62 2.62 0 0 1-.246.51 2.3 2.3 0 0 1-.422.504c-.172.156-.379.285-.621.387s-.524.152-.844.152c-.41 0-.778-.082-1.102-.246a1.95 1.95 0 0 1-.767-.674c-.188-.285-.282-.609-.282-.972a2.02 2.02 0 0 1 .188-.891c.125-.258.31-.475.557-.65s.55-.315.914-.405.787-.14 1.259-.14h1.043zm3.95-2.479l1.13 2.016 1.149-2.016h1.681l-1.863 3.106 1.94 3.234h-1.682l-1.213-2.115-1.219 2.115h-1.681l1.933-3.234-1.851-3.106h1.676z"/><use xlink:href="#B"/><path d="M152.909 177.961V183h-1.547v-6.34h1.459l.088 1.301zm-.228 1.641h-.475c0-.442.053-.848.158-1.219a2.83 2.83 0 0 1 .481-.967 2.23 2.23 0 0 1 .779-.645c.309-.153.674-.228 1.084-.228.285 0 .547.043.785.129a1.57 1.57 0 0 1 .615.392c.171.179.311.407.405.692s.14.619.14 1.014V183h-1.547v-4.072c0-.297-.043-.53-.128-.698s-.202-.285-.358-.351-.344-.106-.562-.106c-.243 0-.452.049-.627.147a1.23 1.23 0 0 0-.428.392c-.113.167-.191.362-.246.581a2.91 2.91 0 0 0-.076.709zm3.855-.288l-.639.118a3.96 3.96 0 0 1 .165-1.12c.105-.351.259-.658.462-.919a2.16 2.16 0 0 1 .768-.622c.309-.152.664-.228 1.066-.228.313 0 .594.045.844.135s.471.224.651.416.316.431.41.732.146.668.146 1.102V183h-1.558v-4.078c0-.309-.043-.545-.129-.709s-.201-.277-.358-.34a1.47 1.47 0 0 0-.551-.1c-.211 0-.402.041-.562.123a1.16 1.16 0 0 0-.398.329c-.106.14-.186.304-.241.492s-.076.383-.076.597zm9.035 2.18v-4.834h1.559V183h-1.465l-.094-1.506zm.2-1.312l.48-.012a4.65 4.65 0 0 1-.141 1.178 2.65 2.65 0 0 1-.439.937c-.195.262-.443.467-.744.615s-.656.217-1.067.217a2.69 2.69 0 0 1-.855-.129c-.258-.09-.481-.228-.668-.416s-.326-.435-.428-.732-.152-.662-.152-1.084v-4.096h1.547v4.108c0 .211.023.386.07.527a.97.97 0 0 0 .205.346c.09.086.193.148.311.187a1.24 1.24 0 0 0 .386.053c.375 0 .67-.074.885-.223a1.25 1.25 0 0 0 .469-.609 2.52 2.52 0 0 0 .141-.867zm4.271-2.221V183h-1.547v-6.34h1.459l.088 1.301zm-.229 1.641h-.474c0-.442.053-.848.158-1.219a2.83 2.83 0 0 1 .481-.967 2.18 2.18 0 0 1 .779-.645c.312-.152.674-.228 1.084-.228.285 0 .547.043.785.129s.443.213.615.392a1.79 1.79 0 0 1 .405.692c.094.285.14.619.14 1.014V183h-1.547v-4.072c0-.297-.043-.53-.129-.698s-.201-.285-.357-.351a1.37 1.37 0 0 0-.563-.106 1.27 1.27 0 0 0-.627.147 1.22 1.22 0 0 0-.427.392 1.87 1.87 0 0 0-.246.581c-.051.218-.077.455-.077.709zm3.856-.288l-.639.118c.004-.399.059-.772.164-1.12a2.81 2.81 0 0 1 .463-.919 2.16 2.16 0 0 1 .768-.622c.308-.152.664-.228 1.066-.228.313 0 .594.045.844.135s.471.224.65.416.317.431.411.732.146.668.146 1.102V183h-1.559v-4.078c0-.309-.043-.545-.129-.709a.69.69 0 0 0-.357-.34c-.156-.063-.34-.1-.551-.1s-.402.041-.562.123a1.17 1.17 0 0 0-.399.329c-.105.14-.185.304-.24.492s-.076.383-.076.597zm14.027-1.324v1.266h-4.488v-1.266h4.488zm-4.049-3.521V183h-1.611v-8.531h1.611zm5.245 0V183h-1.612v-8.531h1.612zm4.371 8.648c-.481 0-.912-.078-1.295-.234s-.709-.373-.979-.651-.47-.607-.615-.978a3.4 3.4 0 0 1-.211-1.207v-.235c0-.488.07-.931.211-1.33s.34-.748.598-1.037.566-.511.925-.668a2.96 2.96 0 0 1 1.19-.234c.449 0 .846.076 1.189.228s.631.36.862.633a2.77 2.77 0 0 1 .521.985c.117.379.176.799.176 1.259v.651h-4.969v-1.067h3.446v-.117c-.008-.246-.055-.47-.141-.674a1.09 1.09 0 0 0-.399-.492c-.18-.121-.412-.187-.697-.187a1.16 1.16 0 0 0-.603.152 1.21 1.21 0 0 0-.422.422 2.06 2.06 0 0 0-.246.644c-.055.25-.082.528-.082.832v.235a2.49 2.49 0 0 0 .105.738 1.77 1.77 0 0 0 .322.592c.145.164.317.293.516.387a1.69 1.69 0 0 0 .691.134 2.01 2.01 0 0 0 .879-.187c.266-.129.496-.318.692-.568l.779.808c-.133.195-.312.383-.539.563a2.76 2.76 0 0 1-.809.439c-.316.109-.681.164-1.095.164z"/><use xlink:href="#B" x="48.621"/><path d="M204.021 176.66h1.406v6.147c0 .574-.125 1.06-.375 1.459s-.592.707-1.037.914-.963.316-1.553.316c-.254 0-.529-.035-.826-.105a3.39 3.39 0 0 1-.85-.334c-.269-.149-.494-.342-.674-.58l.698-.915c.211.247.449.432.714.557a2 2 0 0 0 .862.193c.309 0 .578-.058.797-.175s.392-.282.509-.504.182-.488.182-.809v-4.717l.147-1.447zm-4.284 3.246v-.123c0-.484.059-.924.176-1.318s.285-.74.504-1.026.49-.505.803-.662.672-.234 1.066-.234c.418 0 .77.076 1.055.228a1.97 1.97 0 0 1 .715.651c.188.281.34.615.445 1.002a9.34 9.34 0 0 1 .252 1.265v.334c-.055.45-.143.862-.264 1.237s-.273.703-.468.984a2.02 2.02 0 0 1-.727.645c-.289.153-.629.228-1.02.228s-.742-.08-1.054-.24-.58-.385-.803-.674-.387-.629-.504-1.019a4.44 4.44 0 0 1-.176-1.278zm1.547-.123v.123c0 .274.028.53.082.768a2.08 2.08 0 0 0 .252.633 1.27 1.27 0 0 0 .428.422c.172.101.377.152.615.152.32 0 .582-.067.785-.199s.364-.323.469-.557.18-.506.211-.803v-.92c-.02-.234-.063-.451-.129-.65a1.59 1.59 0 0 0-.264-.516 1.18 1.18 0 0 0-.433-.34c-.176-.082-.385-.123-.627-.123-.235 0-.44.053-.615.159s-.321.244-.434.427-.199.397-.258.639-.082.504-.082.785zm7.055-5.783v9h-1.553v-9h1.553zm-.246 5.602h-.457c0-.442.058-.848.176-1.219a3.01 3.01 0 0 1 .498-.967c.214-.277.47-.492.767-.645s.633-.228.996-.228a2.53 2.53 0 0 1 .85.135 1.6 1.6 0 0 1 .662.416c.184.191.324.441.422.75s.152.676.152 1.113V183h-1.558v-4.055c0-.293-.043-.523-.129-.691a.77.77 0 0 0-.369-.369c-.157-.074-.35-.112-.581-.112-.25 0-.464.049-.644.147s-.328.225-.445.392-.2.362-.258.581-.082.455-.082.709zm8.431-2.942v1.113h-3.632v-1.113h3.632zm-2.66-1.558h1.553v6.07c0 .187.025.332.076.433a.4.4 0 0 0 .229.206 1.09 1.09 0 0 0 .363.052 2.21 2.21 0 0 0 .281-.017l.217-.035.006 1.16c-.129.043-.276.078-.44.105s-.341.041-.545.041c-.347 0-.652-.058-.914-.176a1.31 1.31 0 0 1-.609-.58c-.144-.269-.217-.625-.217-1.066v-6.193z"/></g><path d="M216.833 179a2.67 2.67 0 0 0 2.667 2.667 2.67 2.67 0 0 0 2.667-2.667 2.67 2.67 0 0 0-2.667-2.667 2.67 2.67 0 0 0-2.667 2.667zm15.667 0v.5a.5.5 0 0 0 .5-.5h-.5zm0-54h.5a.5.5 0 0 0-.5-.5v.5zm-55 0l5 2.887v-5.774l-5 2.887zm42 54.5h13v-1h-13v1zm13.5-.5v-54h-1v54h1zm-.5-54.5H182v1h50.5v-1z" fill="#f21197"/><defs ><path id="B" d="M149.892 176.66V183h-1.553v-6.34h1.553zm-1.659-1.658c0-.231.079-.422.235-.574s.375-.229.644-.229.483.076.639.229.24.343.24.574a.75.75 0 0 1-.24.568c-.156.153-.369.229-.639.229s-.484-.076-.644-.229a.76.76 0 0 1-.235-.568z"/></defs></svg>