<svg xmlns="http://www.w3.org/2000/svg" xmlns:xlink="http://www.w3.org/1999/xlink" width="250" height="207" fill="none"><g fill="#fff"><path d="M0 0h250v207H0z"/><rect x="70.25" y="17.75" width="109.5" height="142.5" rx="3.25"/></g><g stroke="#8796a1"><rect x="70.25" y="17.75" width="109.5" height="142.5" rx="3.25" stroke-width="1.5"/><path d="M83.5 25.5h83l3.225.105c.762.102 1.212.296 1.543.627s.524.781.627 1.543c.104.776.105 1.797.105 3.225v116l-.105 3.225c-.103.762-.296 1.212-.627 1.543s-.781.524-1.543.627c-.776.104-1.797.105-3.225.105h-83c-1.428 0-2.449-.001-3.225-.105-.761-.103-1.212-.296-1.543-.627s-.524-.781-.627-1.543c-.104-.776-.105-1.797-.105-3.225V31l.105-3.225c.102-.761.296-1.212.627-1.543s.781-.524 1.543-.627c.776-.104 1.797-.105 3.225-.105z" fill="#fff"/></g><path d="M90 29.5a2.5 2.5 0 1 1-5 0 2.5 2.5 0 1 1 5 0zm1 0a1 1 0 0 1 1-1h18a1 1 0 1 1 0 2H92a1 1 0 0 1-1-1zm60 0a1 1 0 0 1 1-1h12a1 1 0 1 1 0 2h-12a1 1 0 0 1-1-1zm-31.516 17.149h1.432a1.43 1.43 0 0 0 .725-.114 1.67 1.67 0 0 0 .614-.472 2.72 2.72 0 0 0 .423-1.618c.019-.547-.132-1.083-.423-1.506a1.63 1.63 0 0 0-.584-.441 1.41 1.41 0 0 0-.684-.117 1.62 1.62 0 0 0-1.198.502 1.83 1.83 0 0 0-.354.61 2.08 2.08 0 0 0-.115.729h-2.466a4.18 4.18 0 0 1 .267-1.673c.201-.524.503-.984.884-1.34.824-.809 1.867-1.235 2.935-1.2 1.133-.074 2.251.342 3.146 1.172.377.406.672.908.864 1.468a4.68 4.68 0 0 1 .24 1.768 3.79 3.79 0 0 1-.517 1.925c-.357.623-.853 1.115-1.432 1.423.649.254 1.21.754 1.597 1.423.378.646.575 1.417.563 2.204.028.642-.072 1.282-.293 1.869s-.554 1.103-.975 1.507c-.926.847-2.072 1.281-3.24 1.228-1.083.042-2.145-.362-3.006-1.144a3.65 3.65 0 0 1-.966-1.444 4.32 4.32 0 0 1-.255-1.82h2.348c-.008.276.034.551.123.806a1.97 1.97 0 0 0 .394.673c.357.392.829.603 1.315.586a1.55 1.55 0 0 0 .748-.131c.239-.106.456-.27.637-.483s.317-.464.406-.743a2.46 2.46 0 0 0 .111-.876 2.44 2.44 0 0 0-.06-.959 2.18 2.18 0 0 0-.419-.822c-.193-.231-.428-.405-.687-.508a1.48 1.48 0 0 0-.807-.083h-1.432l.141-2.399zm16.273 9.123h-8.618v-2.037l4.086-5.413a13.13 13.13 0 0 0 1.268-2.12c.226-.489.355-1.033.375-1.59a2.83 2.83 0 0 0-.446-1.618c-.148-.21-.336-.375-.548-.482a1.25 1.25 0 0 0-.673-.132 1.32 1.32 0 0 0-.747.158 1.61 1.61 0 0 0-.591.567c-.311.583-.466 1.263-.446 1.953h-2.466c-.026-.655.06-1.309.254-1.924s.491-1.175.873-1.648c.407-.496.898-.885 1.44-1.139a3.55 3.55 0 0 1 1.707-.339c1.124-.077 2.228.374 3.076 1.255a4.48 4.48 0 0 1 .856 1.532 5.09 5.09 0 0 1 .247 1.816c.015.917-.197 1.82-.61 2.595a27.04 27.04 0 0 1-2.09 3.153l-2.348 3.013h5.401v2.399zm1.776-14.57c-.013-.313.071-.62.235-.865.086-.112.191-.2.309-.258s.244-.084.371-.077a.77.77 0 0 1 .384.074c.121.058.231.147.32.261.165.245.248.552.235.865a1.42 1.42 0 0 1-.235.865c-.086.112-.191.2-.309.258s-.244.084-.371.077a.76.76 0 0 1-.383-.074.9.9 0 0 1-.321-.261c-.166-.243-.25-.552-.235-.865zm.517 0c-.033.165-.033.337 0 .502a.38.38 0 0 0 .141.153c.057.035.122.049.187.043.058.006.117-.009.167-.044a.33.33 0 0 0 .115-.151c.083-.148.124-.324.117-.502a1.12 1.12 0 0 0-.071-.419c-.028-.066-.072-.119-.127-.154s-.116-.049-.178-.041c-.058-.006-.116.009-.166.044s-.091.088-.115.151c-.077.152-.117.325-.117.502l.047-.084zm5.822 2.427a2.15 2.15 0 0 1-.098.754c-.077.241-.196.459-.348.641-.363.351-.823.529-1.291.502-.249.019-.499-.029-.731-.14s-.439-.283-.608-.502c-.174-.213-.31-.467-.399-.745a2.54 2.54 0 0 1-.117-.873v-1.06c-.022-.596.155-1.177.493-1.618.364-.379.831-.587 1.315-.587s.951.209 1.315.587c.161.176.287.392.369.634s.115.502.1.761h-.892a1.43 1.43 0 0 0-.211-.837c-.091-.1-.199-.177-.316-.225a.76.76 0 0 0-.365-.054c-.116.021-.226.072-.324.149a.91.91 0 0 0-.24.298c-.168.306-.25.667-.235 1.032v1.06c-.019.37.072.736.259 1.032a.89.89 0 0 0 .301.291.74.74 0 0 0 .38.1.66.66 0 0 0 .344-.053c.11-.048.209-.126.29-.226.157-.226.233-.517.211-.809l.798-.112z" fill="#8796a1"/><g fill="#9fa9af"><rect x="145.654" y="40" width=".889" height="5.53" rx=".444"/><path d="M148.322 41.2c-.013-.312.07-.62.235-.864a.88.88 0 0 1 .308-.257.75.75 0 0 1 .372-.077c.131-.009.261.016.383.074s.231.147.32.261c.165.244.248.552.235.864.015.313-.068.621-.235.864a.88.88 0 0 1-.308.257.75.75 0 0 1-.372.077c-.131.009-.261-.016-.383-.074s-.231-.147-.32-.261c-.167-.243-.25-.551-.235-.864zm.516 0a1.32 1.32 0 0 0 0 .502.38.38 0 0 0 .141.152c.058.034.123.049.187.043.059.006.117-.009.167-.044s.091-.088.115-.151c.083-.148.124-.324.117-.502a1.13 1.13 0 0 0-.07-.418c-.028-.065-.073-.119-.127-.154s-.117-.049-.178-.041c-.058-.006-.117.009-.167.044s-.091.088-.115.151c-.076.152-.117.325-.117.502l.047-.084zm5.161 2.034h-1.793v2.294h-.896V40h3.092v.857h-2.196v1.52h1.882l-.089.857z"/></g><g fill="#8796a1"><path d="M113.197 51.916c-.001.997-.397 1.952-1.101 2.657a3.76 3.76 0 0 1-2.656 1.103h-9.641a4.31 4.31 0 0 1 0-8.618h.119a4.1 4.1 0 0 1 5.846-2.657 4.1 4.1 0 0 1 1.734 1.692c.204-.048.413-.072.622-.072a2.73 2.73 0 0 1 2.701 2.41 3.77 3.77 0 0 1 2.376 3.486h0zM109.5 63a1 1 0 0 1 1-1h12a1 1 0 1 1 0 2h-12a1 1 0 0 1-1-1zm17 0a1 1 0 0 1 1-1h12a1 1 0 1 1 0 2h-12a1 1 0 0 1-1-1zm-22 5a1 1 0 0 1 1-1h39a1 1 0 1 1 0 2h-39a1 1 0 0 1-1-1zm-3 6a1 1 0 0 1 1-1h45a1 1 0 1 1 0 2h-45a1 1 0 0 1-1-1zm7 4a1 1 0 0 1 1-1h31a1 1 0 1 1 0 2h-31a1 1 0 0 1-1-1zm-2.5 4a1 1 0 0 1 1-1h36a1 1 0 1 1 0 2h-36a1 1 0 0 1-1-1zm5 4a1 1 0 0 1 1-1h26a1 1 0 1 1 0 2h-26a1 1 0 0 1-1-1zm-2 4a1 1 0 0 1 1-1h30a1 1 0 1 1 0 2h-30a1 1 0 0 1-1-1zm-24 15.5a1.5 1.5 0 0 1 1.5-1.5h21a1.5 1.5 0 1 1 0 3h-21a1.5 1.5 0 0 1-1.5-1.5zm60 0a1.5 1.5 0 0 1 1.5-1.5h17a1.5 1.5 0 1 1 0 3h-17a1.5 1.5 0 0 1-1.5-1.5zM85 114a1 1 0 0 1 1-1h10a1 1 0 1 1 0 2H86a1 1 0 0 1-1-1zm42 0a3 3 0 1 1-6 0 3 3 0 1 1 6 0z"/><use xlink:href="#B"/><use xlink:href="#B" x="10"/><path d="M85 123a1 1 0 0 1 1-1h14a1 1 0 1 1 0 2H86a1 1 0 0 1-1-1zm42 0a3 3 0 1 1-6 0 3 3 0 1 1 6 0z"/><use xlink:href="#B" y="9"/><use xlink:href="#B" x="10" y="9"/><path d="M85 132a1 1 0 0 1 1-1h12a1 1 0 1 1 0 2H86a1 1 0 0 1-1-1zm42 0a3 3 0 1 1-6 0 3 3 0 1 1 6 0z"/><use xlink:href="#B" y="18"/><use xlink:href="#B" x="10" y="18"/><path d="M85 141a1 1 0 0 1 1-1h12a1 1 0 1 1 0 2H86a1 1 0 0 1-1-1zm42 0a3 3 0 1 1-6 0 3 3 0 1 1 6 0z"/><use xlink:href="#B" y="27"/><use xlink:href="#B" x="10" y="27"/></g><g stroke="#f21197"><use xlink:href="#C" stroke-width=".7"/><path d="M84 102.5h82a1.5 1.5 0 0 1 1.5 1.5v40a1.5 1.5 0 0 1-1.5 1.5H84a1.5 1.5 0 0 1-1.5-1.5v-40a1.5 1.5 0 0 1 1.5-1.5z"/><use xlink:href="#C" y="50" stroke-width=".7"/></g><g fill="#f21197"><path d="M70.625 183.262l1.145-2.452c-.235 1.441-1.085 2.674-2.272 3.423.422-.267.802-.594 1.127-.971z"/><path fill-rule="evenodd" d="M66.835 186a6 6 0 1 0 0-12 6 6 0 1 0 0 12zm2.126-1.473c1.698-.8 2.874-2.526 2.874-4.527a5 5 0 0 0-4.615-4.985c.01 0 .019.001.028.002l-3.969 8.498a4.97 4.97 0 0 0 .892.717l4.2-8.992a5.04 5.04 0 0 1 .65.262l-4.232 9.062a4.95 4.95 0 0 0 1.068.34l4.111-8.801c.295.238.563.508.797.806l-.259-.303-3.918 8.388.247.006a5 5 0 0 0 1.487-.225l-.46.119 3.385-7.248c.148.277.27.569.365.874l-2.846 6.094.196-.087zm-6.18-1.6l3.697-7.914a4.94 4.94 0 0 0-1.364.291l-2.985 6.39.123.308c.144.328.322.638.529.925zm-.911-2.332l2.235-4.785c-1.367.893-2.27 2.436-2.27 4.19a5.06 5.06 0 0 0 .035.595zM66.803 175h.032"/></g><path d="M77.538 174.621h1.394l2.332 6.422 2.326-6.422h1.4l-3.17 8.531h-1.119l-3.164-8.531zm-.703 0H78.2l.246 5.9v2.631h-1.611v-8.531zm7.488 0h1.371v8.531h-1.611v-2.631l.24-5.9zm6.387 7.184v-2.924a1.29 1.29 0 0 0-.111-.557.8.8 0 0 0-.34-.363c-.153-.086-.346-.129-.58-.129-.207 0-.389.035-.545.106a.8.8 0 0 0-.352.298c-.082.125-.123.27-.123.434h-1.553c0-.262.063-.51.188-.744a2 2 0 0 1 .533-.633c.234-.188.514-.334.838-.439s.695-.159 1.102-.159c.481 0 .908.082 1.283.246a2 2 0 0 1 .891.727c.215.324.328.732.328 1.225v2.765a4.89 4.89 0 0 0 .058.815 2.22 2.22 0 0 0 .188.58v.099h-1.576a2.33 2.33 0 0 1-.17-.609 4.77 4.77 0 0 1-.059-.738zm.217-2.514l.012.92h-.979c-.242 0-.455.025-.639.076s-.334.117-.451.211-.205.199-.264.328a1 1 0 0 0-.088.428.85.85 0 0 0 .105.422.81.81 0 0 0 .316.299c.141.07.305.105.492.105a1.49 1.49 0 0 0 .715-.164c.203-.113.361-.25.475-.41s.174-.313.182-.457l.445.668c-.055.16-.137.33-.246.51s-.25.347-.422.503-.379.286-.621.387a2.16 2.16 0 0 1-.844.153c-.41 0-.777-.082-1.102-.247a1.95 1.95 0 0 1-.767-.673c-.187-.286-.281-.61-.281-.973a2.02 2.02 0 0 1 .188-.891c.125-.257.311-.474.557-.65a2.64 2.64 0 0 1 .914-.404c.363-.089.787-.141 1.26-.141h1.043zm4.283-1.184v5.045h-1.547v-6.34h1.465l.082 1.295zm1.928-1.336l-.023 1.442a2.7 2.7 0 0 0-.293-.035l-.299-.012a1.79 1.79 0 0 0-.627.1 1.16 1.16 0 0 0-.451.275 1.22 1.22 0 0 0-.269.445c-.062.172-.098.368-.106.586l-.334-.041a4.82 4.82 0 0 1 .123-1.119 3.13 3.13 0 0 1 .357-.902c.156-.258.352-.457.586-.598s.512-.217.82-.217a1.71 1.71 0 0 1 .275.024c.102.011.182.029.24.052zm4.763.041h1.407v6.147c0 .574-.125 1.061-.375 1.459a2.39 2.39 0 0 1-1.037.914c-.445.207-.963.316-1.553.316-.254 0-.529-.035-.826-.105s-.576-.182-.85-.334a2.1 2.1 0 0 1-.674-.58l.697-.914a2.14 2.14 0 0 0 .715.556 1.95 1.95 0 0 0 .862.194c.309 0 .578-.059.796-.176a1.15 1.15 0 0 0 .51-.504c.121-.219.182-.488.182-.808v-4.717l.146-1.448zm-4.283 3.247v-.123c0-.485.059-.924.176-1.319s.285-.74.504-1.025a2.33 2.33 0 0 1 .803-.662c.316-.157.672-.235 1.066-.235.418 0 .77.076 1.055.229s.527.369.715.65.339.615.445 1.002a8.64 8.64 0 0 1 .252 1.266v.334c-.055.449-.143.861-.264 1.236a3.56 3.56 0 0 1-.469.984c-.195.278-.437.493-.726.645s-.629.229-1.02.229a2.28 2.28 0 0 1-1.054-.241c-.312-.16-.58-.384-.803-.674s-.387-.628-.504-1.019a4.43 4.43 0 0 1-.176-1.277zm1.547-.123v.123a3.42 3.42 0 0 0 .082.767 2.09 2.09 0 0 0 .252.633 1.26 1.26 0 0 0 .428.422c.172.102.377.152.615.152.32 0 .582-.066.785-.199a1.29 1.29 0 0 0 .469-.557c.106-.235.18-.506.211-.802v-.92c-.02-.235-.063-.451-.129-.651s-.15-.371-.264-.515-.258-.258-.433-.34a1.47 1.47 0 0 0-.627-.123c-.235 0-.44.053-.615.158a1.23 1.23 0 0 0-.434.428c-.113.183-.199.396-.258.638a3.57 3.57 0 0 0-.082.786zm7.178-3.124v6.34h-1.553v-6.34h1.553zm-1.658-1.658a.77.77 0 0 1 .234-.574c.16-.152.375-.228.644-.228s.483.076.639.228a.76.76 0 0 1 .24.574c0 .227-.08.416-.24.569s-.369.228-.639.228-.484-.076-.644-.228-.234-.342-.234-.569zm4.652 3.012v4.986h-1.547v-6.34h1.453l.094 1.354zm-.246 1.588h-.457a4.19 4.19 0 0 1 .187-1.254 2.96 2.96 0 0 1 .51-.967c.223-.269.486-.476.791-.621a2.36 2.36 0 0 1 1.02-.217c.304 0 .58.043.826.129s.457.223.633.41.316.434.41.739.146.672.146 1.113v4.066h-1.558v-4.078c0-.289-.043-.517-.129-.685a.72.72 0 0 0-.364-.358c-.156-.07-.349-.105-.58-.105-.238 0-.447.049-.627.146a1.29 1.29 0 0 0-.445.393 1.92 1.92 0 0 0-.269.58c-.063.219-.094.455-.094.709zm11.906-5.133v8.531h-1.605v-8.531h1.605zm2.649 0v1.272h-6.874v-1.272h6.874zm-.235 5.426v-.123c0-.465.067-.893.199-1.283s.327-.737.58-1.026.565-.513.932-.674.785-.246 1.254-.246c.477 0 .898.082 1.266.246a2.61 2.61 0 0 1 .937.674c.254.289.447.631.58 1.026s.199.818.199 1.283v.123a3.99 3.99 0 0 1-.199 1.283 3.04 3.04 0 0 1-.58 1.025c-.254.29-.564.514-.932.674s-.787.241-1.259.241-.889-.081-1.26-.241a2.59 2.59 0 0 1-.938-.674c-.253-.293-.447-.634-.58-1.025s-.199-.822-.199-1.283zm1.547-.123v.123c0 .277.027.537.082.779s.139.455.252.639.26.328.439.433c.184.102.403.153.657.153a1.27 1.27 0 0 0 .644-.153 1.25 1.25 0 0 0 .44-.433c.114-.183.203-.397.257-.639a3.51 3.51 0 0 0 .083-.779v-.123a3.41 3.41 0 0 0-.083-.768c-.054-.242-.14-.455-.257-.638s-.262-.334-.446-.44a1.27 1.27 0 0 0-.65-.164c-.254 0-.465.055-.645.164a1.25 1.25 0 0 0-.439.44c-.113.183-.197.396-.252.638a3.43 3.43 0 0 0-.082.768zm7.072-1.893v7.559h-1.552v-8.778h1.435l.117 1.219zm4.073 1.887v.123a4.76 4.76 0 0 1-.165 1.283c-.105.391-.261.733-.468 1.026a2.22 2.22 0 0 1-.774.679c-.304.16-.656.241-1.054.241a2.21 2.21 0 0 1-1.02-.223 2.09 2.09 0 0 1-.732-.645 3.52 3.52 0 0 1-.481-.966c-.117-.372-.205-.776-.263-1.213v-.393c.058-.465.146-.887.263-1.266s.281-.712.481-.99a2.09 2.09 0 0 1 .726-.65c.289-.153.627-.229 1.014-.229a2.33 2.33 0 0 1 1.06.229 2.13 2.13 0 0 1 .78.656c.211.285.369.625.474 1.02s.159.834.159 1.318zm-1.553.123v-.123a3.79 3.79 0 0 0-.076-.779c-.051-.243-.129-.453-.235-.633s-.242-.326-.41-.428-.371-.152-.609-.152-.444.039-.616.117-.312.189-.421.334-.196.316-.258.516a3.1 3.1 0 0 0-.117.65v.973a2.73 2.73 0 0 0 .205.779c.101.23.25.414.445.551s.457.205.773.205c.239 0 .442-.053.61-.158s.305-.25.41-.434a2.12 2.12 0 0 0 .228-.645c.047-.242.071-.5.071-.773zm7.066-1.494l1.553-1.02c.246-.164.416-.322.51-.474a1.04 1.04 0 0 0 .14-.551c0-.191-.074-.369-.222-.533s-.35-.252-.616-.252c-.187 0-.345.043-.474.129s-.227.201-.293.345a1.1 1.1 0 0 0-.094.469 1.23 1.23 0 0 0 .135.539c.09.183.219.377.375.58l.533.651 4.025 4.722h-1.769l-3.293-3.832-.738-.949c-.215-.289-.383-.568-.504-.838a2.12 2.12 0 0 1-.176-.844c0-.445.094-.832.281-1.16a1.92 1.92 0 0 1 .791-.761c.34-.179.746-.27 1.207-.27.438 0 .815.09 1.131.27s.569.41.744.703a1.83 1.83 0 0 1 .264.961 1.84 1.84 0 0 1-.147.738c-.097.223-.232.428-.404.615a4.15 4.15 0 0 1-.597.522l-1.829 1.312c-.175.149-.308.295-.398.44s-.145.271-.176.392-.041.235-.041.34c0 .238.051.453.153.645s.253.337.445.451.426.164.691.164c.324 0 .637-.072.938-.217s.57-.35.808-.615.434-.582.575-.949.216-.78.216-1.225h1.325a5.78 5.78 0 0 1-.123 1.213c-.083.379-.215.73-.399 1.054a3.25 3.25 0 0 1-.721.868l-.099.093c-.035.039-.067.071-.094.094-.355.305-.74.533-1.154.686s-.858.222-1.342.222c-.57 0-1.063-.103-1.477-.31a2.33 2.33 0 0 1-.961-.856c-.222-.363-.334-.779-.334-1.248a1.91 1.91 0 0 1 .206-.908 2.69 2.69 0 0 1 .58-.726 8.38 8.38 0 0 1 .849-.68zm12.774.803h-2.18l-.012-1.137h1.869c.321 0 .588-.045.803-.135s.377-.221.486-.392c.114-.172.17-.381.17-.627 0-.274-.052-.497-.158-.668s-.262-.297-.48-.375-.496-.123-.832-.123h-1.325v7.259h-1.611v-8.531h2.936a5.4 5.4 0 0 1 1.295.141c.382.09.707.23.972.422a1.85 1.85 0 0 1 .604.72c.14.289.211.633.211 1.032 0 .351-.082.675-.246.972s-.409.531-.745.715-.753.289-1.265.316l-.492.411zm-.071 3.802h-2.584l.674-1.265h1.91c.321 0 .584-.053.791-.158a1.07 1.07 0 0 0 .469-.434 1.33 1.33 0 0 0 .158-.645c0-.265-.047-.496-.14-.691s-.235-.346-.434-.451-.453-.158-.773-.158h-1.676l.012-1.137h2.132l.37.439c.492.004.892.102 1.201.293s.543.438.691.739.223.625.223.972c0 .547-.119 1.006-.358 1.377s-.578.651-1.031.838-.994.281-1.635.281zm4.026-3.105v-.123c0-.465.066-.893.199-1.283s.326-.737.58-1.026.564-.513.932-.674.785-.246 1.254-.246c.476 0 .898.082 1.265.246s.684.385.938.674.447.631.58 1.026.199.818.199 1.283v.123a3.99 3.99 0 0 1-.199 1.283 3.04 3.04 0 0 1-.58 1.025c-.254.29-.565.514-.932.674s-.787.241-1.26.241-.888-.081-1.259-.241a2.58 2.58 0 0 1-.938-.674 3.04 3.04 0 0 1-.58-1.025 3.99 3.99 0 0 1-.199-1.283zm1.547-.123v.123c0 .277.027.537.082.779s.138.455.252.639.259.328.439.433a1.33 1.33 0 0 0 .656.153c.25 0 .465-.051.645-.153a1.23 1.23 0 0 0 .439-.433 2.01 2.01 0 0 0 .258-.639c.055-.242.082-.502.082-.779v-.123c0-.274-.027-.529-.082-.768s-.141-.455-.258-.638a1.3 1.3 0 0 0-.445-.44 1.27 1.27 0 0 0-.65-.164c-.253 0-.465.055-.645.164a1.24 1.24 0 0 0-.439.44c-.114.183-.198.396-.252.638a3.49 3.49 0 0 0-.082.768zm8.525-3.112v1.114h-3.633v-1.114h3.633zm-2.66-1.558h1.553v6.07c0 .188.025.332.076.434s.127.17.228.205a1.12 1.12 0 0 0 .364.053c.101 0 .195-.006.281-.018l.217-.035.005 1.16a2.95 2.95 0 0 1-.439.106c-.16.027-.342.041-.545.041-.348 0-.652-.059-.914-.176s-.465-.315-.609-.58-.217-.625-.217-1.067v-6.193zm6.691 1.558v1.114h-3.633v-1.114h3.633zm-2.66-1.558h1.553v6.07c0 .188.025.332.076.434a.39.39 0 0 0 .229.205c.102.035.222.053.363.053.101 0 .195-.006.281-.018l.217-.035.006 1.16c-.129.043-.276.078-.44.106s-.342.041-.545.041c-.347 0-.652-.059-.914-.176a1.31 1.31 0 0 1-.609-.58c-.145-.27-.217-.625-.217-1.067v-6.193zm3.264 4.793v-.123c0-.465.066-.893.199-1.283s.326-.737.58-1.026.565-.513.932-.674.785-.246 1.254-.246c.476 0 .898.082 1.265.246s.684.385.938.674.447.631.58 1.026.199.818.199 1.283v.123a3.99 3.99 0 0 1-.199 1.283 3.04 3.04 0 0 1-.58 1.025c-.254.29-.565.514-.932.674s-.787.241-1.26.241-.888-.081-1.259-.241a2.58 2.58 0 0 1-.938-.674 3.04 3.04 0 0 1-.58-1.025 3.99 3.99 0 0 1-.199-1.283zm1.547-.123v.123c0 .277.027.537.082.779s.138.455.252.639.259.328.439.433a1.33 1.33 0 0 0 .656.153c.25 0 .465-.051.645-.153a1.23 1.23 0 0 0 .439-.433 2.01 2.01 0 0 0 .258-.639c.055-.242.082-.502.082-.779v-.123c0-.274-.027-.529-.082-.768s-.141-.455-.258-.638a1.3 1.3 0 0 0-.445-.44 1.23 1.23 0 0 0-.65-.164c-.25 0-.465.055-.645.164a1.24 1.24 0 0 0-.439.44c-.114.183-.198.396-.252.638a3.49 3.49 0 0 0-.082.768zm7.066-1.811v5.039h-1.547v-6.34h1.459l.088 1.301zm-.228 1.641h-.475c0-.442.053-.848.158-1.219a2.84 2.84 0 0 1 .481-.967c.211-.274.47-.492.779-.644s.674-.229 1.084-.229c.285 0 .547.043.785.129a1.57 1.57 0 0 1 .615.393c.172.18.311.406.405.691s.14.619.14 1.014v4.23h-1.547v-4.072c0-.297-.043-.529-.129-.697a.7.7 0 0 0-.357-.352 1.37 1.37 0 0 0-.563-.105c-.242 0-.451.049-.626.146a1.21 1.21 0 0 0-.428.393c-.11.168-.192.361-.246.58a3.12 3.12 0 0 0-.076.709zm3.855-.287l-.639.117a3.99 3.99 0 0 1 .164-1.119c.106-.352.26-.658.463-.92a2.15 2.15 0 0 1 .768-.621c.308-.153.664-.229 1.066-.229.313 0 .594.045.844.135s.471.225.65.416a1.86 1.86 0 0 1 .411.733c.094.301.146.667.146 1.101v4.072h-1.559v-4.078c0-.308-.043-.545-.128-.709s-.202-.277-.358-.34-.34-.099-.551-.099-.402.041-.562.123-.289.187-.399.328-.185.305-.24.492a2.23 2.23 0 0 0-.076.598z" fill="#546069"/><defs ><path id="B" d="M147 114a1 1 0 0 1 1-1h6a1 1 0 1 1 0 2h-6a1 1 0 0 1-1-1z"/><path id="C" d="M82 101v-4h3m-3 4l3-4m-3 4h2m1-4h2m-3 4l3-4m-3 4h2m1-4h2m0 0l-3 4m3-4h2m-5 4h2m0 0l3-4m-3 4h2m1-4h2m0 0l-3 4m3-4h2m-5 4h2m0 0l3-4m-3 4h2m1-4h2m0 0l-3 4m3-4h2m-5 4h2m0 0l3-4m-3 4h2m1-4h2m0 0l-3 4m3-4h2m-5 4h2m0 0l3-4m-3 4h2m1-4h2m0 0l-3 4m3-4h2m-5 4h2m0 0l3-4m-3 4h2m1-4h2m0 0l-3 4m3-4h2m-5 4h2m0 0l3-4m-3 4h2m1-4h2m0 0l-3 4m3-4h2m-5 4h2m0 0l3-4m-3 4h2m1-4h2m0 0l-3 4m3-4h2m-5 4h2m0 0l3-4m-3 4h2m1-4h2m0 0l-3 4m3-4h2m-5 4h2m0 0l3-4m-3 4h2m1-4h2m0 0l-3 4m3-4h2m-5 4h2m0 0l3-4m-3 4h2m1-4h2m0 0l-3 4m3-4h2m-5 4h2m0 0l3-4m-3 4h2m1-4h2m0 0l-3 4m3-4h2m-5 4h2m0 0l3-4m-3 4h2m1-4h2m0 0l-3 4m3-4h2m-5 4h2m0 0l3-4m-3 4h2m1-4h2m0 0l-3 4m3-4h2m-5 4h2m0 0l3-4m-3 4h2m1-4h2m0 0l-3 4m3-4h2m-5 4h2m0 0l3-4m-3 4h2m1-4h2m0 0l-3 4m3-4h2m-5 4h2m0 0l3-4m-3 4h2m1-4h2m0 0l-3 4m3-4h2m-5 4h2m0 0l3-4m-3 4h2m1-4h2m0 0l-3 4m3-4h2m-5 4h2m0 0l3-4m-3 4h2m1-4h2m0 0l-3 4m3-4h2m-5 4h2m0 0l3-4m-3 4h2m1-4h2m0 0l-3 4m3-4h2m-5 4h2m0 0l3-4m-3 4h2m1-4h1v1m-2 3h2v-3m-2 3l2-3"/></defs></svg>