<svg xmlns="http://www.w3.org/2000/svg" xmlns:xlink="http://www.w3.org/1999/xlink" width="160" height="96" fill="none"><style><![CDATA[.B{fill:#fff}.C{fill:#546069}]]></style><rect x=".75" y=".75" width="158.5" height="94.5" rx="3.25" class="B"/><g clip-path="url(#A)" class="C"><path d="M12.48 18.08h4.56A3.04 3.04 0 1 0 14 15.04v.24c0 .24.32.48.56.4.24 0 .48-.32.4-.56v-.08a2.12 2.12 0 0 1 2.08-2.08 2.12 2.12 0 0 1 2.08 2.08 2.12 2.12 0 0 1-2.08 2.08h-4.56a.52.52 0 0 0-.48.48.52.52 0 0 0 .48.48zm12-4.64c-1.92 0-3.52 1.6-3.52 3.52 0 .24 0 .48.08.72s.32.4.56.32.4-.32.32-.56c0-.16-.08-.32-.08-.56 0-1.44 1.12-2.56 2.56-2.56s2.56 1.12 2.56 2.56c0 .16 0 .4-.08.56-.24 1.2-1.28 2-2.48 2h-12c-.16.08-.4.32-.4.56a.52.52 0 0 0 .48.48h12c1.68 0 3.12-1.2 3.44-2.72.08-.32.08-.56.08-.8 0-1.92-1.6-3.52-3.52-3.52zM22 21.92h-9.52a.52.52 0 0 0-.48.48.52.52 0 0 0 .48.48H22a2.12 2.12 0 0 1 2.08 2.08A2.12 2.12 0 0 1 22 27.04c-1.12 0-2.08-.96-2.08-2.16.08-.24-.16-.48-.4-.56s-.48.16-.56.4v.24A3.04 3.04 0 1 0 22 21.92z"/></g><g clip-path="url(#B)" class="C"><path d="M45.84 16.48a.49.49 0 0 0 .64 0 .49.49 0 0 0 0-.64l-1.44-1.52a.49.49 0 0 0-.64 0 .49.49 0 0 0 0 .64l1.44 1.52zm-.8 3.52a.52.52 0 0 0-.48-.48h-2.08A.52.52 0 0 0 42 20a.52.52 0 0 0 .48.48h2.08a.52.52 0 0 0 .48-.48zm.8 3.52l-1.44 1.44a.49.49 0 0 0 0 .64.49.49 0 0 0 .64 0l1.44-1.44a.49.49 0 0 0 0-.64.49.49 0 0 0-.64 0zm8.32-7.04l1.44-1.44a.49.49 0 0 0 0-.64.49.49 0 0 0-.64 0l-1.44 1.44a.49.49 0 0 0 0 .64c.16.16.48.24.64 0zm-4.16.64c1.44 0 2.72 1.04 2.88 2.48 0 .24.24.48.56.4.24 0 .48-.24.4-.56-.24-1.84-1.92-3.28-3.84-3.28a3.93 3.93 0 0 0-3.92 3.92c0 1.92 1.44 3.6 3.36 3.84h.08c.24 0 .48-.16.48-.4s-.16-.48-.4-.56c-1.44-.16-2.56-1.44-2.56-2.88.08-1.68 1.36-2.96 2.96-2.96zm0-2.08a.52.52 0 0 0 .48-.48v-2.08A.52.52 0 0 0 50 12a.52.52 0 0 0-.48.48v2.08a.52.52 0 0 0 .48.48zm-2.56.16c.08.24.4.32.64.24s.32-.4.24-.64l-.24-.48c-.08-.24-.4-.4-.64-.24-.24.08-.32.4-.24.64l.24.48zm-3.2 3.04l.56.24c.24.08.56 0 .64-.24s0-.56-.24-.64l-.56-.24c-.24-.08-.56 0-.64.24s0 .56.24.64zm.48 4.56l.48-.16c.24-.08.32-.4.24-.64s-.4-.32-.64-.24l-.48.24c-.24.08-.32.4-.24.64.08.16.32.32.64.16zm3.44 1.84c-.24-.08-.56 0-.64.24l-.24.56c-.08.24 0 .56.24.64s.56 0 .64-.24l.24-.64c.16-.24 0-.48-.24-.56zm7.12-7.44l-.48.24c-.24.08-.32.4-.24.64s.4.32.64.24l.48-.24c.24-.08.32-.4.24-.64s-.32-.32-.64-.24zm-3.44-1.76c.24.08.56 0 .64-.24l.24-.56c.08-.24 0-.56-.24-.64s-.56 0-.64.24l-.24.56c-.16.24 0 .48.24.64zm6 6.64a.63.63 0 0 0-.88 0l-4.88 4.88a.63.63 0 0 0 0 .88.63.63 0 0 0 .88 0l4.88-4.88a.63.63 0 0 0 0-.88zM56.96 26a1.06 1.06 0 0 0-1.04 1.04 1.06 1.06 0 0 0 1.04 1.04A1.06 1.06 0 0 0 58 27.04 1.06 1.06 0 0 0 56.96 26zm-4-2.08a.96.96 0 1 0 0-1.92.96.96 0 1 0 0 1.92z"/></g><g clip-path="url(#C)" class="C"><path d="M86.16 16.8c1.04 0 1.84-.8 1.84-1.76 0-1.28-1.36-2.64-1.44-2.72-.24-.24-.56-.24-.88 0-.08.08-1.36 1.36-1.36 2.64a1.81 1.81 0 0 0 1.84 1.84zm0-3.52c.4.48.88 1.2.88 1.76a.89.89 0 0 1-.88.88.89.89 0 0 1-.88-.88c0-.56.48-1.28.88-1.76zm-1.04 5.84c0-1.28-1.36-2.64-1.36-2.64l-.08-.08c-.24-.16-.56-.24-.88.08-.08.08-1.36 1.36-1.36 2.64a1.84 1.84 0 1 0 3.68 0zm-1.84.88a.89.89 0 0 1-.88-.88c0-.56.48-1.28.88-1.76.4.48.88 1.2.88 1.76a.89.89 0 0 1-.88.88zm3.36.64a.63.63 0 0 0-.88 0c-.08.08-1.36 1.36-1.36 2.64a1.84 1.84 0 1 0 3.68 0c-.08-1.12-1.2-2.32-1.44-2.64zm.4 2.64a.89.89 0 0 1-.88.88.89.89 0 0 1-.88-.88c0-.56.48-1.28.88-1.76.4.48.88 1.2.88 1.76zm-7.28-4.08v-4.32a2.88 2.88 0 1 0-5.76 0v4.32c-1.28.96-2 2.4-2 3.92 0 2.72 2.16 4.88 4.88 4.88s4.88-2.16 4.88-4.88c0-1.6-.72-3.04-2-3.92zm-2.88 7.84a3.93 3.93 0 0 1-3.92-3.92c0-1.36.64-2.56 1.76-3.28l.24-.16v-4.8a1.95 1.95 0 0 1 1.92-1.92 1.95 1.95 0 0 1 1.92 1.92v4.8l.24.16c1.12.72 1.76 1.92 1.76 3.28a3.93 3.93 0 0 1-3.92 3.92zm.48-5.36v-5.12a.52.52 0 0 0-.48-.48.52.52 0 0 0-.48.48v5.2c-.64.24-1.12.8-1.12 1.52 0 .88.72 1.6 1.6 1.6s1.6-.72 1.6-1.6a1.74 1.74 0 0 0-1.12-1.6z"/></g><g clip-path="url(#D)" class="C"><path d="M117.2 18.56c-.32-.4-.72-.64-1.2-.72v-.16c0-2.72-2.24-4.88-4.88-4.88-1.92-.16-3.68 1.04-4.48 2.8-.24-.08-.56-.08-.8-.08a3.8 3.8 0 0 0-3.76 3.28c-.08.16-.08.4-.08.56 0 2.16 1.76 3.84 3.84 3.84h9.36c1.52 0 2.8-1.28 2.8-2.8 0-.72-.24-1.36-.8-1.84zm-2 3.68h-9.36a2.87 2.87 0 0 1-2.88-2.88c0-.16 0-.32.08-.48.16-1.36 1.36-2.4 2.8-2.4.32 0 .64.08.96.16 1.04.32 1.76 1.2 1.92 2.32 0 .24.24.48.56.4.24 0 .48-.32.4-.56-.24-1.28-.96-2.32-2.08-2.88.64-1.36 2-2.32 3.52-2.32a3.93 3.93 0 0 1 3.92 3.92v.08c-.72 0-1.36.32-1.92.88a.49.49 0 0 0 0 .64.49.49 0 0 0 .64 0c.32-.4.8-.56 1.36-.56h.24c.4.08.8.24 1.12.56s.48.8.48 1.28c.08 1.04-.72 1.84-1.76 1.84z"/><use xlink:href="#O"/><path d="M108.88 24.72l-1.28 1.84c-.16.24-.08.48.08.64s.48.08.64-.08l1.28-1.84c.16-.24.08-.48-.08-.64s-.48-.08-.64.08zm2.72 0l-1.28 1.84c-.16.24-.08.48.08.64s.48.08.64-.08l1.28-1.84c.16-.24.08-.48-.08-.64s-.48-.08-.64.08zm2.72 0l-1.28 1.84c-.16.24-.08.48.08.64s.48.08.64-.08l1.28-1.84c.16-.24.08-.48-.08-.64s-.48-.08-.64.08z"/></g><g clip-path="url(#E)" class="C"><path d="M147.36 19.84c-.24-.32-.56-.48-.96-.64v-.08c0-2.24-1.84-4-4-4-1.6 0-2.96.96-3.68 2.32-.16 0-.4-.08-.56-.08-1.6 0-2.88 1.2-3.12 2.72 0 .16-.08.32-.08.48a3.21 3.21 0 0 0 3.2 3.2h7.52a2.32 2.32 0 0 0 2.32-2.32 2.38 2.38 0 0 0-.64-1.6zm-1.68 2.96h-7.52c-1.2 0-2.24-1.04-2.24-2.24v-.32c.16-1.04 1.12-1.84 2.24-1.84.24 0 .48 0 .72.08.8.24 1.36.96 1.52 1.76 0 .24.32.48.56.4.24 0 .48-.32.4-.56-.16-1.04-.8-1.84-1.68-2.32.48-1.04 1.6-1.68 2.72-1.68a3.04 3.04 0 0 1 3.04 3.04c-.56.08-1.12.32-1.52.72a.49.49 0 0 0 0 .64.49.49 0 0 0 .64 0c.24-.24.64-.4.96-.4h.16c.32 0 .56.16.8.4s.4.56.4.96c.16.8-.48 1.36-1.2 1.36zm-10.32-5.36c0-.96.8-1.76 1.76-1.76.48 0 .88.16 1.2.48.16-.24.4-.48.64-.72-.4-.48-1.04-.8-1.76-.8-1.52 0-2.8 1.28-2.8 2.8a2.13 2.13 0 0 0 .24.96c.16-.32.48-.64.72-.96zm2.16-3.52c.24 0 .48-.16.56-.4l.08-.72c0-.24-.16-.48-.4-.56-.24 0-.48.16-.56.4l-.08.8c-.08.24.16.48.4.48zm-2.4.08c.08.24.4.32.64.24s.32-.4.24-.64l-.32-.64c-.08-.24-.4-.4-.64-.24-.24.08-.32.4-.24.64l.32.64zm-1.44.32c-.24-.16-.56-.16-.72.08s-.08.48.16.64l.56.4c.24.16.48.08.64-.08s.08-.48-.08-.64l-.56-.4zm-.56 3.2c.24 0 .48-.16.56-.4s-.16-.56-.4-.56l-.72-.08c-.24 0-.48.16-.56.4 0 .24.16.48.4.56l.72.08zm.24 1.12l-.64.32c-.24.08-.4.4-.24.64.08.24.4.32.64.24l.64-.32c.24-.08.32-.4.24-.64-.16-.24-.4-.32-.64-.24zm6.56-4.16l.4-.56c.16-.24.08-.48-.08-.64-.24-.24-.56-.16-.72.08l-.4.56c-.16.24-.08.48.08.64.24.16.56.16.72-.08z"/><use xlink:href="#P"/><use xlink:href="#Q"/><path d="M142.64 25.04a.52.52 0 0 0-.48.48v1.76a.52.52 0 0 0 .48.48.52.52 0 0 0 .48-.48v-1.76a.46.46 0 0 0-.48-.48zm2.24 0a.52.52 0 0 0-.48.48v1.76a.52.52 0 0 0 .48.48.52.52 0 0 0 .48-.48v-1.76c0-.32-.16-.48-.48-.48z"/></g><g clip-path="url(#F)" class="C"><path d="M24.32 52.4v2.24c0 .16-.16.32-.32.32h-8c-.16 0-.32-.16-.32-.32v-2.56-1.04-.96-1.04-.96-.88-.96-1.04-3.92c0-.16.16-.32.32-.32h8c.16 0 .32.16.32.32v3.12a5.44 5.44 0 0 0-1.84-.32 4.57 4.57 0 0 0-2.72.8c-.64.4-1.12.72-2.24.72-.32 0-.64 0-.88-.08v.96c.24 0 .56.08.88.08.48 0 .88-.08 1.2-.16.4-.08.72-.32 1.04-.48.48-.24.96-.56 1.68-.72h.16c.24-.08.56-.08.96-.08s.64 0 .96.08h.16c.24.08.48.16.72.32.08.08.24.16.4.24s.32.16.48.32c.32.08.64.24 1.04.32.32.08.72.16 1.2.16a.52.52 0 0 0 .48-.48.52.52 0 0 0-.48-.48c-1.12 0-1.6-.32-2.24-.64v-3.68c0-.72-.56-1.28-1.28-1.28h-8c-.72 0-1.28.56-1.28 1.28v3.36c-.56-.32-1.2-.56-2.24-.56a.52.52 0 0 0-.48.48.52.52 0 0 0 .48.48c.4 0 .64 0 .96.08h.16c.48.08.8.32 1.12.56v.88c-.32-.08-.64-.24-1.04-.32s-.72-.16-1.2-.16a.52.52 0 0 0-.48.48.52.52 0 0 0 .48.48c.48 0 .8.08 1.12.16.48.16.8.32 1.12.48v.88c-.32-.16-.64-.32-1.04-.4-.32-.08-.72-.16-1.2-.16a.52.52 0 0 0-.48.48.52.52 0 0 0 .48.48c.48 0 .8.08 1.12.16h.08c.4.08.72.32 1.04.48v.88c-.32-.08-.64-.24-1.04-.32-.32-.08-.72-.16-1.2-.16a.52.52 0 0 0-.48.48.52.52 0 0 0 .48.48c.48 0 .88.08 1.2.16.4.08.72.32 1.04.48v3.04c0 .8.56 1.36 1.28 1.36h8c.72 0 1.28-.56 1.28-1.28v-1.76c-.16-.08-.32-.16-.48-.32l-.48-.24z"/><path d="M27.52 47.6c-.48 0-.88-.08-1.2-.16-.4-.08-.72-.24-1.04-.4-.16-.08-.32-.16-.48-.32l-.48-.24c-.24-.08-.4-.24-.64-.24-.32-.08-.72-.16-1.2-.16s-.88.08-1.2.16c-.72.16-1.12.4-1.6.72-.24.16-.56.32-.96.48-.32.08-.72.16-1.2.16-.32 0-.64 0-.88-.08v.96c.24 0 .56.08.88.08.48 0 .88-.08 1.2-.16h.08c.32-.08.64-.32.96-.48.4-.24.88-.56 1.6-.72.32-.08.72-.16 1.12-.16.48 0 .88.08 1.12.16l.64.24.48.24c.16.08.32.16.48.32.24.16.56.24.96.32h.08c.32.08.72.16 1.2.16a.52.52 0 0 0 .48-.48c0-.24-.16-.4-.4-.4zm0 2c-.48 0-.88-.08-1.2-.16-.4-.08-.8-.24-1.04-.4-.16-.08-.32-.16-.48-.32l-.48-.24c-.24-.08-.4-.24-.64-.24-.32-.08-.72-.16-1.2-.16s-.88.08-1.2.16c-.4.16-.72.32-1.12.56s-.88.56-1.6.72c-.24 0-.56.08-1.04.08-.32 0-.64 0-.88-.08v.96c.24 0 .56.08.88.08.48 0 .8-.08 1.2-.16.08 0 .08 0 .16-.08.64-.16 1.04-.4 1.44-.64.32-.24.64-.4 1.12-.56.32-.08.72-.16 1.12-.16.48 0 .88.08 1.12.16l.64.24.48.24c.16.08.32.16.48.32.32.16.64.32 1.04.4.32.08.72.16 1.2.16A.52.52 0 0 0 28 50c0-.24-.24-.4-.48-.4zm0 1.92c-.48 0-.88-.08-1.2-.16-.4-.08-.8-.24-1.04-.4-.16-.08-.32-.16-.48-.32l-.48-.24c-.16-.08-.4-.16-.64-.24-.32-.08-.72-.16-1.2-.16s-.88.08-1.2.16c-.4.08-.72.32-1.12.48-.4.24-.88.56-1.6.72-.32.08-.64.16-1.12.16-.32 0-.64 0-.88-.08v.96c.24.08.56.08.88.08.48 0 .8-.08 1.2-.16.72-.16 1.12-.4 1.6-.72a2.39 2.39 0 0 1 1.12-.48c.32-.08.72-.16 1.2-.16s.88.08 1.2.16l.64.24.48.24c.16.08.32.16.48.32.32.16.64.32 1.04.4.32.08.72.16 1.2.16a.52.52 0 0 0 .48-.48c0-.24-.32-.48-.56-.48z"/></g><g clip-path="url(#G)" class="C"><path d="M50 55.84c-4.24 0-8-3.68-8-5.36 0-1.76 3.68-5.36 8-5.36 4.48 0 8 3.84 8 5.36s-3.52 5.36-8 5.36zm0-9.76c-3.84 0-7.04 3.36-7.04 4.4 0 .96 2.96 4.4 7.04 4.4 4 0 7.04-3.52 7.04-4.4S54 46.08 50 46.08zm0-2.48c-.32 0-.64-.24-.64-.56V40.8c0-.32.24-.56.56-.56s.64.24.64.56v2.24c.08.32-.24.56-.56.56zm4.32.8c-.32-.16-.4-.48-.32-.8l1.04-2c.16-.32.48-.4.8-.32.32.16.4.48.32.8l-.96 2.08c-.16.32-.56.4-.88.24zm-8.64 0c.32-.16.4-.48.32-.8l-1.04-2c-.16-.32-.48-.4-.8-.32-.32.16-.4.48-.32.8l.96 2.08c.16.32.56.4.88.24zm7.04 5.6c0-.08 0-.08 0 0 0-.08-.08-.16-.08-.16l-.08-.08h-.08-.08-.08-.08-.08-.08c-.16.08-.32.16-.56.16a1.09 1.09 0 0 1-1.12-1.12c0-.16.08-.32.16-.48a.42.42 0 0 0-.16-.56c-.08 0-.08 0-.16-.08-1.6-.16-3.12 1.12-3.12 2.8 0 1.52 1.28 2.8 2.8 2.8s2.8-1.28 2.8-2.8a.51.51 0 0 0 0-.48zM50 52.48a1.98 1.98 0 0 1-2-2 1.99 1.99 0 0 1 1.68-2v.32a1.95 1.95 0 0 0 1.92 1.92c.16 0 .32 0 .4-.08-.08 1.04-.96 1.84-2 1.84z"/></g><g clip-path="url(#H)" class="C"><path d="M87.52 54h-3.76l-2.8-2.8c-.56-.48-1.44-.48-1.92 0l-2.8 2.8h-3.76a.52.52 0 0 0-.48.48.52.52 0 0 0 .48.48h2.8 1.36l.96-.96 2.16-2.16c.08-.08.16-.16.32-.16s.24.08.32.16L82.56 54l.96.96h1.36 2.8a.52.52 0 0 0 .48-.48c-.16-.24-.4-.48-.64-.48zm-10.96-2.48c.08 0 .16 0 .24-.08.24-.16.32-.4.16-.64-.32-.48-.48-1.12-.48-1.76 0-1.92 1.6-3.52 3.52-3.52s3.52 1.6 3.52 3.52c0 .64-.16 1.2-.48 1.76-.16.24-.08.56.16.64.24.16.56.08.64-.16.4-.64.56-1.44.56-2.16 0-2.48-2-4.48-4.48-4.48s-4.48 2-4.48 4.48c0 .8.24 1.52.56 2.24.24.08.4.16.56.16zm-4.08-2h1.36a.52.52 0 0 0 .48-.48.52.52 0 0 0-.48-.48h-1.36a.52.52 0 0 0-.48.48.52.52 0 0 0 .48.48zm13.12-.48a.52.52 0 0 0 .48.48h1.36a.52.52 0 0 0 .48-.48.52.52 0 0 0-.48-.48h-1.36a.52.52 0 0 0-.48.48zm-.08-2.64l1.2-.72c.24-.16.32-.4.16-.64s-.4-.32-.64-.16l-1.2.72c-.24.16-.32.4-.16.64s.4.32.64.16zm-2.72-2.24c.24.16.56.08.64-.16l.72-1.2c.16-.24.08-.56-.16-.64-.24-.16-.56-.08-.64.16l-.72 1.2c-.16.24-.08.48.16.64zm-2.8-.8a.52.52 0 0 0 .48-.48v-1.36a.52.52 0 0 0-.48-.48.52.52 0 0 0-.48.48v1.36a.46.46 0 0 0 .48.48zm-3.44.64c.16.24.4.32.64.16s.32-.4.16-.64l-.72-1.2c-.08-.24-.4-.32-.64-.24-.24.16-.32.48-.16.72l.72 1.2zm-3.28 1.68l1.2.72c.24.16.56.08.64-.16.16-.24.08-.56-.16-.72l-1.2-.64c-.24-.16-.56-.08-.64.16-.16.24-.08.48.16.64z"/></g><g clip-path="url(#I)" class="C"><path d="M110.8 40.4c-.48-.4-1.12-.4-1.52 0h-.08c-1.76 1.76-5.04 6.08-5.04 9.76 0 3.2 2.64 5.92 5.84 5.92s5.84-2.64 5.84-5.92c0-3.68-3.28-8-5.04-9.76zm-.96.8c.08-.08.08-.08.16-.08h.16c1.36 1.36 4.72 5.44 4.8 8.88a2.54 2.54 0 0 0-1.2.72c-.32.32-.56.48-.96.48-.48 0-.72-.24-.96-.48-.4-.32-.8-.8-1.68-.8s-1.28.4-1.68.8c-.32.32-.56.48-.96.48-.48 0-.72-.24-.96-.48-.32-.32-.72-.64-1.36-.72 0-3.36 3.2-7.36 4.64-8.8zm.16 13.84c-2.4 0-4.4-1.76-4.8-4.08.24.08.4.24.64.48.4.32.8.8 1.68.8s1.28-.4 1.68-.8c.32-.32.48-.48.96-.48s.72.24.96.48c.32.32.8.8 1.68.8s1.28-.4 1.68-.8c.16-.16.24-.24.4-.32-.48 2.24-2.48 3.92-4.88 3.92zm-1.92-6.16c.16.16.4.16.56 0l3.28-3.28c.16-.16.16-.4 0-.56s-.4-.16-.56 0l-3.28 3.28c-.16.16-.16.4 0 .56zm3.28.16a.72.72 0 1 0 0-1.44.72.72 0 0 0 0 1.44z"/><path d="M108.64 46.24a.72.72 0 0 0 0-1.44.72.72 0 0 0 0 1.44z"/></g><g clip-path="url(#J)" class="C"><path d="M140 56c-4.4 0-8-3.6-8-8s3.6-8 8-8 8 3.6 8 8-3.6 8-8 8zm0-15.04a7 7 0 0 0-7.04 7.04 7.04 7.04 0 1 0 14.08 0 7 7 0 0 0-7.04-7.04zm3.92 9.36c-.08 0-.16.08-.24.16-.8 1.2-2.16 2-3.68 2s-2.88-.8-3.68-2c-.08-.08-.16-.16-.24-.16h-1.12c-.24 0-.4.24-.24.4.96 1.92 3.04 3.28 5.36 3.28s4.32-1.36 5.36-3.28a.31.31 0 0 0-.24-.4h-1.28zM140 44a.52.52 0 0 1-.48-.48v-1.04A.52.52 0 0 1 140 42a.52.52 0 0 1 .48.48v1.04a.52.52 0 0 1-.48.48zm.16 3.44h-.08l-.56-1.68c-.08-.24-.32-.4-.56-.32s-.4.32-.32.56l.48 1.68c-.32.24-.56.56-.64 1.04-.08.8.48 1.52 1.28 1.68s1.52-.48 1.68-1.28c.16-.88-.48-1.6-1.28-1.68zm-.24 2c-.32 0-.48-.32-.48-.56 0-.32.32-.48.56-.48.32 0 .48.32.48.56s-.24.48-.56.48zm-2.72-4.32a.49.49 0 0 1-.64 0l-.8-.72a.49.49 0 0 1 0-.64.49.49 0 0 1 .64 0l.72.72c.24.16.24.48.08.64zm-1.2 2.8a.52.52 0 0 1-.48.48h-1.04a.52.52 0 0 1-.48-.48.52.52 0 0 1 .48-.48h1.04a.52.52 0 0 1 .48.48zm7.92.08a.52.52 0 0 1 .48-.48h1.04a.52.52 0 0 1 .48.48.52.52 0 0 1-.48.48h-1.04a.52.52 0 0 1-.48-.48zm-1.12-2.8a.49.49 0 0 1 0-.64l.72-.72a.49.49 0 0 1 .64 0 .49.49 0 0 1 0 .64l-.72.72a.49.49 0 0 1-.64 0z"/><path d="M145.04 50.32c.24 0 .4.24.24.4-.96 1.92-3.04 3.28-5.36 3.28s-4.32-1.36-5.36-3.28a.31.31 0 0 1 .24-.4h1.2c.08 0 .16.08.24.16.8 1.2 2.16 2 3.68 2s2.88-.8 3.68-2c.08-.08.16-.16.24-.16h1.2z"/></g><path d="M20.32 70.32c-.08-.24-.56-.24-.64 0l-4.56 11.12c-.08.24.24.48.48.32l4.16-2c.08-.08.24-.08.32 0l4.16 2c.32.16.64-.08.48-.32l-4.4-11.12z" stroke="#546069" stroke-width="1.2" stroke-miterlimit="10"/><g clip-path="url(#K)" class="C"><path d="M57.6 77.6c-.08-.24-.32-.4-.56-.32L54.4 78l-1.84-1.04v-1.92L54.4 74l2.64.72h.16c.24 0 .4-.16.48-.32.08-.24-.08-.56-.32-.56l-1.76-.48 1.2-.72c.24-.16.32-.4.16-.64s-.4-.32-.64-.16l-1.2.72.48-1.68c.08-.24-.08-.56-.32-.56-.24-.08-.56.08-.56.32L54 73.28l-1.84 1.04-1.6-.96V71.2l1.84-1.92c.16-.16.16-.48 0-.72-.16-.16-.48-.16-.72 0l-1.2 1.2v-1.28A.52.52 0 0 0 50 68a.52.52 0 0 0-.48.48v1.36l-1.2-1.2c-.24-.24-.56-.24-.72 0a.49.49 0 0 0 0 .64l1.92 1.92v2.08l-1.6.96-1.84-1.04-.72-2.64c0-.24-.32-.4-.56-.32s-.4.32-.32.56l.48 1.68-1.2-.64c-.24-.16-.56-.08-.72.16-.08.24 0 .56.24.64l1.12.72-1.68.4c-.24.08-.4.4-.32.64s.24.32.48.32h.16l2.64-.72 1.84 1.04v1.84l-1.84 1.04-2.64-.72c-.24-.08-.56.08-.56.32-.08.24.08.56.32.56l1.6.56-1.2.72c-.24.16-.32.4-.16.64s.4.32.64.16l1.2-.72-.48 1.68c-.08.24.08.56.32.56h.16c.24 0 .4-.16.48-.32l.72-2.64 1.84-1.04 1.6.96v2.16l-1.92 1.92c-.16.16-.16.48 0 .72.16.16.48.16.72 0l1.2-1.2v1.36a.52.52 0 0 0 .48.48.52.52 0 0 0 .48-.48v-1.36l1.2 1.2c.08.08.24.16.32.16.16 0 .24-.08.32-.16.16-.16.16-.48 0-.72l-1.84-1.92v-2.08l1.6-.96 1.84 1.04.72 2.64c.08.24.24.32.48.32h.16c.24-.08.4-.32.32-.56l-.48-1.68 1.2.72c.24.16.56.08.64-.16.16-.24.08-.56-.16-.64l-1.2-.8 1.68-.48c.24 0 .4-.32.32-.56zm-6-.64l-1.6.96-1.6-.96v-1.92l1.6-.96 1.6.96v1.92z"/></g><g clip-path="url(#L)" class="C"><path d="M87.52 79.84h-2.8-1.36l-.96.96-2.16 2.16c-.08.08-.16.16-.32.16s-.24-.08-.32-.16l-2-2.16-.96-.96h-1.36-2.8a.46.46 0 0 0-.48.48.52.52 0 0 0 .48.48h3.76l2.8 2.88c.56.48 1.44.48 1.92 0l2.8-2.88h3.76a.52.52 0 0 0 .48-.48.46.46 0 0 0-.48-.48zM76.8 78.16c.24.16.48.08.64-.08.16-.24.08-.48-.08-.64-1.2-.88-1.92-2.24-1.92-3.76 0-2.32 1.68-4.16 3.92-4.56-.08.4-.16.72-.16 1.12a4.27 4.27 0 0 0 4.24 4.24c.4 0 .8-.08 1.12-.16a4.66 4.66 0 0 1-1.92 3.12c-.24.16-.24.48-.08.64a.44.44 0 0 0 .4.24c.08 0 .16 0 .24-.08 1.44-1.04 2.32-2.72 2.32-4.64a.44.44 0 0 0-.24-.4.51.51 0 0 0-.48 0c-.48.24-.96.32-1.44.32-1.76 0-3.28-1.44-3.28-3.28 0-.48.16-.96.32-1.44.08-.16 0-.32-.08-.48s-.24-.24-.48-.24c-3.04 0-5.6 2.48-5.6 5.52.24 1.84 1.04 3.52 2.56 4.56z"/></g><g clip-path="url(#M)" class="C"><path d="M110.32 75.2v-4.32a2.87 2.87 0 0 0-2.88-2.88c-1.6 0-2.96 1.28-2.96 2.88v4.32c-1.28.96-2 2.4-2 3.92 0 2.72 2.16 4.88 4.88 4.88s4.88-2.16 4.88-4.88c.08-1.6-.72-3.04-1.92-3.92zm-2.96 7.84a3.93 3.93 0 0 1-3.92-3.92c0-1.36.64-2.56 1.76-3.28l.24-.16v-4.8a1.95 1.95 0 0 1 1.92-1.92 1.95 1.95 0 0 1 1.92 1.92v4.8l.24.16c1.12.72 1.76 1.92 1.76 3.28.08 2.16-1.68 3.92-3.92 3.92zm.56-5.36v-5.12a.52.52 0 0 0-.48-.48c-.24 0-.56.24-.56.48v5.2c-.64.24-1.12.8-1.12 1.52 0 .88.72 1.6 1.6 1.6s1.6-.72 1.6-1.6c.08-.72-.4-1.36-1.04-1.6zm7.36-1.76c-.16.24-.08.56.16.64l.64.4c.24.16.56.08.64-.16.16-.24.08-.56-.16-.64l-.64-.4c-.16-.16-.48-.08-.64.16zm1.04-2.24a.52.52 0 0 0-.48.48.52.52 0 0 0 .48.48h.72a.52.52 0 0 0 .48-.48.52.52 0 0 0-.48-.48h-.72zm.32-1.44c.24-.16.32-.4.16-.64s-.4-.32-.64-.16l-.56.32c-.24.16-.32.4-.16.64s.4.32.64.16l.56-.32zM114 70.4c-.16.24-.08.56.16.64.16.16.48.08.64-.08l.4-.64c.16-.24.08-.56-.16-.64-.24-.16-.56-.08-.72.16l-.32.56zm-1.12-.32v-.72a.52.52 0 0 0-.48-.48.52.52 0 0 0-.48.48v.72a.52.52 0 0 0 .48.48.46.46 0 0 0 .48-.48zm.96 7.76l.32.64c.16.24.4.32.64.16s.32-.4.16-.64l-.32-.64c-.16-.24-.4-.32-.64-.16-.24.08-.32.4-.16.64zm-.64-1.2c-.16 0-.32-.08-.4-.32s0-.56.24-.64c.64-.32 1.12-.96 1.12-1.68 0-.96-.8-1.84-1.84-1.84H112c-.24.08-.48-.08-.56-.4-.08-.24.08-.48.4-.56.16 0 .32-.08.48-.08 1.52 0 2.8 1.28 2.8 2.8 0 1.12-.64 2.08-1.68 2.56-.16.16-.16.16-.24.16z"/></g><g clip-path="url(#N)" class="C"><path d="M147.2 73.84c-.32-.4-.72-.64-1.2-.8v-.16c0-2.72-2.24-4.88-4.88-4.88-1.92 0-3.68 1.2-4.48 2.96-.24-.08-.56-.08-.8-.08-1.92 0-3.52 1.44-3.76 3.2-.08.24-.08.4-.08.64 0 1.76 1.12 3.28 2.8 3.68h.16c.24 0 .4-.16.48-.32.08-.24-.08-.56-.32-.56-1.28-.4-2.16-1.52-2.16-2.8 0-.16 0-.32.08-.48.24-1.68 2-2.8 3.76-2.32.24.08.56-.08.64-.32.56-1.6 2-2.64 3.76-2.64a3.93 3.93 0 0 1 3.92 3.92v.48.08.08.08s0 .08.08.08l.08.08c.08 0 .08.08.16.08.4.08.8.24 1.04.56.32.32.48.8.48 1.28a1.81 1.81 0 0 1-1.84 1.84h-.08a.52.52 0 0 0-.48.48.52.52 0 0 0 .48.48c1.52 0 2.8-1.28 2.8-2.8.16-.64-.08-1.36-.64-1.84zm-5.84.32a1.57 1.57 0 0 0-1.36-.72 1.57 1.57 0 0 0-1.36.72L134 81.52c-.32.48-.32 1.12-.08 1.6.32.56.8.8 1.44.8h9.28c.56 0 1.12-.32 1.44-.8.32-.56.24-1.12-.08-1.6l-4.64-7.36zm3.84 8.56c-.08.24-.32.32-.56.32h-9.28c-.24 0-.48-.16-.56-.32-.08-.24-.08-.48 0-.64l4.64-7.36c.24-.4.88-.4 1.12 0l4.64 7.36c.16.16.16.4 0 .64zm-5.2-6.08a.52.52 0 0 0-.48.48v2.64a.52.52 0 0 0 .48.48.52.52 0 0 0 .48-.48v-2.64a.52.52 0 0 0-.48-.48zm0 4.24a.52.52 0 0 0-.48.48.52.52 0 0 0 .48.48.52.52 0 0 0 .48-.48.52.52 0 0 0-.48-.48z"/></g><rect x=".75" y=".75" width="158.5" height="94.5" rx="3.25" stroke="#8796a1" stroke-width="1.5"/><defs><clipPath id="A"><path transform="translate(12 12)" d="M0 0h16v16H0z" class="B"/></clipPath><clipPath id="B"><path transform="translate(42 12)" d="M0 0h16v16H0z" class="B"/></clipPath><clipPath id="C"><path transform="translate(72 12)" d="M0 0h16v16H0z" class="B"/></clipPath><clipPath id="D"><path transform="translate(102 12)" d="M0 0h16v16H0z" class="B"/></clipPath><clipPath id="E"><path transform="translate(132 12)" d="M0 0h16v16H0z" class="B"/></clipPath><clipPath id="F"><path transform="translate(12 40)" d="M0 0h16v16H0z" class="B"/></clipPath><clipPath id="G"><path transform="translate(42 40)" d="M0 0h16v16H0z" class="B"/></clipPath><clipPath id="H"><path transform="translate(72 40)" d="M0 0h16v16H0z" class="B"/></clipPath><clipPath id="I"><path transform="translate(102 40)" d="M0 0h16v16H0z" class="B"/></clipPath><clipPath id="J"><path transform="translate(132 40)" d="M0 0h16v16H0z" class="B"/></clipPath><clipPath id="K"><path transform="translate(42 68)" d="M0 0h16v16H0z" class="B"/></clipPath><clipPath id="L"><path transform="translate(72 68)" d="M0 0h16v16H0z" class="B"/></clipPath><clipPath id="M"><path transform="translate(102 68)" d="M0 0h16v16H0z" class="B"/></clipPath><clipPath id="N"><path transform="translate(132 68)" d="M0 0h16v16H0z" class="B"/></clipPath><path id="O" d="M106.16 24.72l-1.28 1.84c-.16.24-.08.48.08.64s.48.08.64-.08l1.28-1.84c.16-.24.08-.48-.08-.64s-.48-.08-.64.08z"/><path id="P" d="M138 25.04a.52.52 0 0 0-.48.48v1.76a.52.52 0 0 0 .48.48.52.52 0 0 0 .48-.48v-1.76c0-.32-.16-.48-.48-.48z"/><path id="Q" d="M140.32 25.04a.52.52 0 0 0-.48.48v1.76a.52.52 0 0 0 .48.48.52.52 0 0 0 .48-.48v-1.76a.46.46 0 0 0-.48-.48z"/></defs></svg>