<svg xmlns="http://www.w3.org/2000/svg" xmlns:xlink="http://www.w3.org/1999/xlink" width="160" height="96" fill="none"><style><![CDATA[.B{fill:#546069}.C{fill:#fff}]]></style><rect x=".75" y=".75" width="158.5" height="94.5" rx="3.25" class="C"/><g clip-path="url(#A)" class="B"><path d="M20 15.2c-2.64 0-4.8 2.16-4.8 4.8s2.16 4.8 4.8 4.8 4.8-2.16 4.8-4.8-2.16-4.8-4.8-4.8zm-1.68 2.4c.4 0 .72.32.72.72s-.32.72-.72.72-.72-.32-.72-.72.32-.72.72-.72zm3.36 4.8c-.4 0-.72-.32-.72-.72s.32-.72.72-.72.72.32.72.72-.32.72-.72.72zm.48-3.6l-3.36 3.36a.84.84 0 0 1-1.04 0c-.24-.24-.24-.72 0-.96l3.36-3.36c.24-.24.72-.24.96 0 .4.24.4.72.08.96zM20 14.4c-.48 0-.8-.32-.8-.8v-.8c0-.48.32-.8.8-.8s.8.32.8.8v.8c0 .48-.32.8-.8.8zm-3.92 1.68a.77.77 0 0 1-1.12 0l-.64-.56a.77.77 0 0 1 0-1.12.77.77 0 0 1 1.12 0l.56.56c.4.24.4.8.08 1.12zM14.4 20c0 .48-.32.8-.8.8h-.8c-.48 0-.8-.32-.8-.8s.32-.8.8-.8h.8c.48 0 .8.32.8.8zm1.68 3.92a.77.77 0 0 1 0 1.12l-.56.56a.77.77 0 0 1-1.12 0 .77.77 0 0 1 0-1.12l.56-.56c.24-.32.8-.32 1.12 0zM20 25.6c.48 0 .8.32.8.8v.8c0 .48-.32.8-.8.8s-.8-.32-.8-.8v-.8c0-.48.32-.8.8-.8zm3.92-1.68a.77.77 0 0 1 1.12 0l.56.56a.77.77 0 0 1 0 1.12.77.77 0 0 1-1.12 0l-.56-.56c-.32-.24-.32-.8 0-1.12zM25.6 20c0-.48.32-.8.8-.8h.8c.48 0 .8.32.8.8s-.32.8-.8.8h-.8c-.48 0-.8-.32-.8-.8z"/><path d="M23.92 16.08a.77.77 0 0 1 0-1.12l.56-.56a.77.77 0 0 1 1.12 0 .77.77 0 0 1 0 1.12l-.56.56c-.24.32-.8.32-1.12 0z"/></g><g clip-path="url(#B)" class="B"><path d="M56.64 17.84c.72 0 1.36-.64 1.36-1.36 0-.96-.96-2-1.28-2.32h-.08-.08c-.32.32-1.28 1.44-1.28 2.32.08.8.64 1.36 1.36 1.36zm-2.72.48h-.08-.08c-.32.32-1.28 1.44-1.28 2.32 0 .72.64 1.36 1.36 1.36s1.36-.64 1.36-1.36c-.08-.88-.96-2-1.28-2.32zm2.88 4.16h-.08-.08c-.32.32-1.28 1.44-1.28 2.32 0 .72.64 1.36 1.36 1.36s1.36-.64 1.36-1.36c-.08-.96-.96-2-1.28-2.32zM50 19.6v-4.4a3.21 3.21 0 0 0-3.2-3.2c-1.68 0-3.12 1.44-3.12 3.2v4.4A4.68 4.68 0 0 0 42 23.2c0 2.64 2.16 4.8 4.8 4.8s4.8-2.16 4.8-4.8c0-1.44-.64-2.72-1.6-3.6zm-3.2 5.2c-.88 0-1.6-.72-1.6-1.6 0-.56.32-1.12.8-1.36v-4.88c0-.4.4-.8.8-.8h.08c.4 0 .72.4.72.8v4.88c.48.24.8.8.8 1.36 0 .88-.72 1.6-1.6 1.6z"/></g><g clip-path="url(#C)" class="B"><path d="M86.88 17.44c-.72-.72-1.68-1.12-2.8-1.2-.32-2.32-2.32-4.16-4.72-4.16-2.56 0-4.56 1.92-4.8 4.4A3.9 3.9 0 0 0 72 20.16c0 1.04.48 2.08 1.2 2.8s1.68 1.12 2.8 1.12h8.16a3.93 3.93 0 0 0 3.92-3.92c-.08-1.04-.48-2-1.2-2.72zm-8.72 4.32l-.88 1.2c-.32.4-.88.48-1.28.16a.89.89 0 0 1-.16-1.2l.96-1.28c.32-.4.88-.48 1.2-.16.4.32.4.88.16 1.28zm3.2 0l-.96 1.2c-.32.4-.88.48-1.2.16-.4-.32-.48-.88-.16-1.2l.96-1.2c.32-.4.88-.48 1.2-.16.4.24.48.8.16 1.2zm3.2 0l-.88 1.2c-.32.4-.88.48-1.2.16-.4-.32-.48-.88-.16-1.2l.96-1.2c.32-.4.88-.48 1.2-.16.32.24.4.8.08 1.2zm-7.68 5.84l.96-1.2c.32-.4.24-.96-.16-1.2-.4-.32-.96-.24-1.2.16l-.96 1.2c-.32.32-.32.88.08 1.2s.96.24 1.28-.16zm2.72-2.24l-.96 1.2c-.32.4-.24.96.16 1.2.4.32.96.24 1.2-.16l.96-1.2c.32-.4.24-.96-.16-1.2a.89.89 0 0 0-1.2.16zm-6 2.24l.96-1.2c.32-.4.24-.96-.16-1.2-.4-.32-.96-.24-1.2.16l-.96 1.2c-.32.4-.24.96.16 1.2s.96.24 1.2-.16z"/></g><g clip-path="url(#D)" class="B"><path d="M112.56 18c-.24-2.08-2-3.6-4.16-3.6s-4 1.68-4.16 3.84c-1.28.48-2.24 1.76-2.24 3.2.08 1.84 1.6 3.36 3.44 3.36h7.04c1.92 0 3.44-1.52 3.44-3.44 0-1.84-1.52-3.36-3.36-3.36zm3.68-1.44c0 .64-.24 1.28-.64 1.76-.64-.64-1.36-1.04-2.24-1.2a4.84 4.84 0 0 0-1.84-2.64c.48-.4 1.2-.72 1.84-.72 1.6 0 2.88 1.28 2.88 2.8zm-3.76-3.12c-.24.08-.56-.08-.56-.32l-.16-.4c-.08-.24.08-.56.32-.56.24-.08.56.08.56.32l.16.32c.08.24-.08.56-.32.64zm4.16 3.92c.08-.24.32-.4.56-.32l.4.08c.24.08.4.32.4.56-.08.24-.32.4-.56.32l-.4-.08c-.32-.08-.48-.32-.4-.56zm-.32-2.24c-.08-.24 0-.56.24-.64l.4-.24c.24-.08.56 0 .64.24s0 .56-.24.64l-.4.24c-.16.08-.48 0-.64-.24zm-1.6-1.6c-.24-.08-.32-.4-.24-.64l.16-.4c.08-.24.4-.32.64-.24s.32.4.24.64l-.16.4c-.08.24-.4.4-.64.24zM105.36 28a1.2 1.2 0 0 0 0-2.4 1.2 1.2 0 0 0 0 2.4zm3.68 0a1.2 1.2 0 0 0 0-2.4 1.2 1.2 0 0 0 0 2.4zm3.68 0a1.2 1.2 0 0 0 0-2.4 1.2 1.2 0 0 0 0 2.4z"/></g><g clip-path="url(#E)" class="B"><path d="M136.8 21.92v-.48c.24.08.56.08.8.08 1.44 0 2.24-.48 2.8-.96.56-.4.96-.64 1.92-.64.32 0 .64 0 .88.08.4.08.72.32 1.04.56.24.16.56.32.88.48.48.24 1.12.4 2 .4.48 0 .8-.32.8-.8 0-.4-.32-.8-.8-.8-.96 0-1.36-.32-1.92-.64-.48-.32-1.04-.72-1.92-.8-.24-.08-.56-.08-.88-.08-1.44 0-2.24.48-2.8.96-.56.32-1.04.64-2 .64-.32 0-.64 0-.8-.08v-.56-.48-.48c.24.08.56.08.8.08 1.44 0 2.24-.48 2.8-.96.56-.4.96-.64 1.92-.64.32 0 .64.08.88.08.4.08.72.32 1.04.56.24.16.56.32.88.48.48.24 1.12.4 2 .4.48 0 .8-.32.8-.8s-.32-.8-.8-.8c-.96 0-1.36-.32-1.92-.64v-1.12-1.44a1.52 1.52 0 0 0-1.52-1.52h-.4-1.92-2.64-1.92-.48c-.8 0-1.44.64-1.52 1.44v.08 1.04 1.04c-.48-.24-1.12-.48-2-.48-.48 0-.8.32-.8.8s.32.8.8.8c.96 0 1.36.32 1.92.64v.24.88.16c-.4-.16-1.04-.32-1.92-.32-.48 0-.8.4-.8.8 0 .48.32.8.8.8.96 0 1.36.32 1.92.64v.24.88.16c-.4-.24-1.04-.4-1.92-.4-.48 0-.8.4-.8.8 0 .48.32.8.8.8.96 0 1.36.32 1.92.64v1.12 1.6.08c0 .8.72 1.44 1.52 1.44h.4 1.92 2.64 1.92.4a1.52 1.52 0 0 0 1.52-1.52v-1.2c-.64-.24-1.04-.56-1.36-.72-.24-.16-.4-.24-.56-.32-.08-.08-.32-.16-.72-.16a2 2 0 0 0-1.04.24c-.08.08-.24.16-.32.24-.48.32-1.2.8-2.24.96-.4.08-.8.16-1.2.16-.32 0-.56 0-.8-.08v-.96c.24.08.56.08.8.08 1.44 0 2.24-.48 2.8-.96.56-.4.96-.64 1.92-.64.32 0 .64 0 .88.08.4.08.72.32 1.04.56.24.16.56.32.88.48.48.24 1.12.4 2 .4.48 0 .8-.32.8-.8 0-.4-.32-.8-.8-.8-.96 0-1.36-.32-1.92-.64-.48-.32-1.04-.72-1.92-.8-.24-.08-.56-.08-.88-.08-1.44 0-2.24.56-2.8.96s-.96.64-1.92.64c-.32 0-.64 0-.8-.08v-.56-.48h-.08z"/></g><g clip-path="url(#F)" class="B"><path d="M27.68 49.52c-.96-1.6-3.2-4.32-7.68-4.32s-6.72 2.72-7.68 4.32c-.24.32-.32.72-.32 1.12s.08.72.32 1.04c.16.32.4.64.72.96l.24.24s0 .08.08.08C14.48 54.48 16.64 56 20 56c2.24 0 3.92-.72 5.2-1.6.08-.08.16-.16.24-.16l.16-.16c1.04-.8 1.68-1.76 2.08-2.4.16-.32.32-.72.32-1.04 0-.4-.08-.8-.32-1.12zm-4.96 1.04c0 1.6-1.2 2.8-2.72 2.8s-2.72-1.2-2.72-2.72 1.2-2.8 2.72-2.8h.08c.16 0 .24.16.24.24v.08a1.98 1.98 0 0 0 2 2h.08c.16.08.32.24.32.4 0-.08 0-.08 0 0zM20 44c.48 0 .88-.32.88-.8v-2.4c0-.4-.4-.8-.88-.8s-.88.32-.88.8v2.4c0 .4.4.8.88.8zm-5.92 1.12c.24.32.8.32 1.2.08s.4-.8.16-1.12l-1.6-1.92c-.24-.32-.8-.32-1.2-.08s-.4.8-.16 1.12l1.6 1.92zm11.84 0l1.52-1.84c.24-.32.24-.88-.16-1.12-.4-.32-.88-.32-1.2.08L24.64 44c-.24.32-.24.88.16 1.12.32.32.88.32 1.12 0z"/></g><g clip-path="url(#G)" class="B"><path d="M42.72 52.32h1.2c.4 0 .72-.32.72-.72s-.32-.72-.72-.72h-1.2c-.4 0-.72.32-.72.72s.32.72.72.72zm2.48-4.56a.68.68 0 0 0 1.04 0c.32-.24.32-.72 0-1.04l-.8-.8a.68.68 0 0 0-1.04 0c-.32.24-.32.72 0 1.04l.8.8zm9.6 0l.8-.8c.24-.24.24-.72 0-1.04a.68.68 0 0 0-1.04 0l-.8.8a.68.68 0 0 0 0 1.04c.32.32.8.32 1.04 0zm.56 3.84c0 .4.32.72.72.72h1.2c.4 0 .72-.32.72-.72s-.32-.72-.72-.72h-1.2c-.4 0-.72.32-.72.72z"/><use xlink:href="#N"/><path d="M49.52 46.24a.68.68 0 0 0 1.04 0l2.48-2.48a.68.68 0 0 0 0-1.04.68.68 0 0 0-1.04 0L50.72 44v-3.28c0-.4-.32-.72-.72-.72s-.72.32-.72.72V44L48 42.64c-.16-.08-.32-.16-.48-.16s-.4.08-.56.16a.68.68 0 0 0 0 1.04l2.56 2.56zm.48 1.68c2.48 0 4.4 2 4.4 4.4 0 .24-.16.4-.4.4h-8c-.24 0-.4-.16-.4-.4 0-2.4 1.92-4.4 4.4-4.4z"/></g><path d="M80 40c-1.52 0-6 5.68-6 10 0 3.28 2.72 6 6 6s6-2.72 6-6c0-4.24-4.56-10-6-10zm1.68 13.76c-.4 0-.72-.32-.72-.72s.32-.72.72-.72.72.32.72.72-.32.72-.72.72zm.48-3.52L78.8 53.6a.68.68 0 0 1-1.04 0c-.24-.24-.24-.72 0-.96l3.36-3.36c.24-.24.72-.24.96 0 .4.16.4.64.08.96zm-4.56-.56c0-.4.32-.72.72-.72s.72.32.72.72-.32.72-.72.72-.72-.32-.72-.72zm4.24-2.24c-.96 0-.96-.64-1.84-.64-.96 0-.96.56-1.84.56s-.96-.56-1.76-.64c.96-2.24 2.72-4.4 3.6-5.04.88.64 2.64 2.8 3.6 5.12-.8.08-.88.64-1.76.64z" class="B"/><g clip-path="url(#H)" class="B"><path d="M110 40c-4.4 0-8 3.6-8 8s3.6 8 8 8 8-3.6 8-8-3.6-8-8-8zm5.68 10.56c-.24.48-.48.96-.8 1.36-.48.64-1.12 1.2-1.84 1.6l-.08.08c-.48.24-.96.4-1.52.56h-.08c-.16 0-.4.08-.56.08-.24 0-.48.08-.8.08-2 0-3.76-.88-4.88-2.32-.32-.4-.64-.88-.8-1.36-.08-.24.08-.4.16-.4h1.92c.08 0 .16 0 .16.08.48.64 1.12 1.2 1.84 1.52h.08.08c.48.16.96.24 1.52.24a4.53 4.53 0 0 0 1.44-.24h.08c.8-.32 1.44-.8 1.84-1.52 0-.08.08-.08.16-.08h1.92c.08 0 .24.16.16.32zm-7.44-1.6c0-.4.16-.8.4-1.12l.08-2.4c0-.24.32-.32.4-.08l1.36 2c.72.24 1.2.88 1.2 1.68 0 .96-.8 1.76-1.76 1.76-.88-.08-1.68-.8-1.68-1.84zm6.4-.48a.63.63 0 1 1 0-1.28h.64c-.16-1.04-.56-2-1.2-2.72l-.48.48a.63.63 0 0 1-.88 0 .63.63 0 0 1 0-.88l.48-.48c-.8-.64-1.76-.96-2.8-1.12v.72a.63.63 0 1 1-1.28 0v-.56c-.88.16-1.84.56-2.56 1.2l.48.48a.63.63 0 0 1 0 .88.63.63 0 0 1-.88 0l-.4-.48c-.64.8-.96 1.76-1.12 2.8h.72a.63.63 0 1 1 0 1.28h-1.52v-.72-.48c.08-1.28.56-2.4 1.28-3.36.24-.32.56-.56.8-.88.88-.8 2.08-1.28 3.28-1.44h.72.48c1.28.08 2.4.56 3.36 1.28.32.24.56.56.88.8.8.88 1.36 2.08 1.44 3.28 0 .24.08.48.08.72v.48h-1.52z"/></g><path d="M140.32 42c-.08-.32-.56-.32-.72 0l-4.8 11.76c-.08.24.24.48.56.4l4.4-2.08c.08-.08.24-.08.4 0l4.4 2.08c.32.16.64-.08.56-.4L140.32 42z" class="B"/><g clip-path="url(#I)" class="B"><path d="M26.72 76.56l-2.96.8-.96-.56v-1.6l1.04-.56 2.96.8h.16a.77.77 0 0 0 .72-.56c.08-.4-.16-.8-.48-.88l-1.6-.4.96-.56c.32-.16.48-.64.24-.96s-.64-.48-.96-.24l-1.04.56.4-1.52c.08-.4-.16-.8-.48-.88s-.8.16-.88.48l-.8 2.96L22 74l-1.36-.8V72l2.16-2.16c.24-.24.24-.72 0-1.04a.84.84 0 0 0-1.04 0l-1.12 1.12v-1.04c0-.4-.32-.72-.72-.72s-.64.32-.64.72V70l-1.12-1.12c-.24-.32-.72-.32-1.04 0-.24.24-.24.72 0 1.04L19.28 72v1.2l-1.36.8-.96-.64-.8-2.96c-.16-.32-.56-.56-.88-.48-.4.16-.64.56-.56.88l.4 1.52-.88-.48c-.32-.16-.8-.08-.96.24s-.08.8.24.96l.88.56-1.52.4c-.32.16-.56.56-.48.88a.77.77 0 0 0 .72.56h.16l2.96-.8.96.56v1.6l-1.04.56-2.96-.8c-.4-.08-.8.16-.88.48-.08.4.16.8.48.88l1.6.48-.96.56c-.32.16-.48.64-.24.96.16.24.4.32.64.32.16 0 .24 0 .4-.08l.96-.56-.4 1.52c-.08.4.16.8.48.88h.16a.77.77 0 0 0 .72-.56l.8-2.96 1.04-.56 1.36.8V80l-2.16 2.16a.84.84 0 0 0 0 1.04c.16.16.32.24.48.24s.4-.08.48-.24l1.12-1.12v1.12c0 .4.32.72.72.72s.72-.32.72-.72v-1.12l1.12 1.12c.24.32.72.32 1.04 0 .24-.24.24-.72 0-1.04L20.72 80v-1.2l1.36-.8 1.04.56.8 2.96a.77.77 0 0 0 .72.56h.16a.64.64 0 0 0 .48-.88l-.4-1.52.96.56c.08.08.24.08.4.08.24 0 .48-.16.64-.4.16-.32.08-.8-.24-.96l-1.04-.56 1.52-.4a.64.64 0 0 0 .48-.88c-.16-.4-.48-.64-.88-.56z"/></g><g clip-path="url(#J)" class="B"><path d="M57.12 82.24H42.88a.89.89 0 0 0-.88.88.89.89 0 0 0 .88.88h14.24a.89.89 0 0 0 .88-.88.89.89 0 0 0-.88-.88zm-6.64-14a.68.68 0 0 0-1.04 0l-2.48 2.48a.68.68 0 0 0 0 1.04.84.84 0 0 0 1.04 0l1.28-1.28v3.28c0 .32.32.64.72.64s.72-.32.72-.72v-3.2L52 71.76c.16.16.32.24.48.24s.4-.08.48-.24a.68.68 0 0 0 0-1.04l-2.48-2.48zm-4.8 12.32c0 .08 0 .08 0 0 0 .08.08.08.08.08h8.48c.08 0 .08 0 .08-.08.32-.8.4-1.76.16-2.72 0-.08-.16-.08-.16 0a3.33 3.33 0 0 1-2.08 1.28c-1.04.16-2.24-.24-2.88-1.04-.96-.96-.96-2.32-.48-3.36 0-.08 0-.16-.08-.16-.96.24-1.84.8-2.56 1.76-.72 1.04-1.04 2.4-.8 3.6l.24.64z"/></g><g clip-path="url(#K)" class="B"><path d="M86.24 70.48a.61.61 0 0 0-.4.16l-.96.64c-.32.24-.4.64-.16.96.16.16.32.32.56.32a.61.61 0 0 0 .4-.16l.96-.64c.32-.24.4-.64.16-.96-.16-.24-.4-.32-.56-.32zm-.08 4.4a.77.77 0 0 0-.72.56c-.08.4.24.72.56.8l1.12.16h.08a.77.77 0 0 0 .72-.56c.08-.4-.24-.72-.56-.8l-1.12-.16h-.08zm-1.92 3.2c-.08 0-.24 0-.32.08l-.32.24c-.24.16-.24.48-.08.72l.88 1.28a.44.44 0 0 0 .4.24c.08 0 .24 0 .32-.08l.32-.24c.24-.16.24-.48.08-.72l-.88-1.28c-.08-.24-.24-.24-.4-.24zm-2-10.08a.77.77 0 0 0-.72.56l-.16 1.12c-.08.4.24.72.56.8H82a.77.77 0 0 0 .72-.56l.16-1.12c.08-.4-.24-.72-.56-.8h-.08zm-2.32 7.6v-4.4c0-1.76-1.36-3.2-3.12-3.2s-3.12 1.44-3.12 3.2v4.4A4.68 4.68 0 0 0 72 79.2c0 2.64 2.16 4.8 4.8 4.8s4.8-2.16 4.8-4.8a4.68 4.68 0 0 0-1.68-3.6zm-3.12 5.2c-.88 0-1.6-.72-1.6-1.6 0-.56.32-1.12.8-1.36v-4.88c0-.4.32-.72.72-.72h.08c.48-.08.8.32.8.72v4.88c.48.24.8.8.8 1.36 0 .88-.72 1.6-1.6 1.6zm7.92-6c0 1.44-.8 2.64-2.08 3.2 0-.08-.08-.24-.08-.32-.24-.96-.72-1.84-1.44-2.56v-3.76h.08c2 0 3.52 1.52 3.52 3.44z"/></g><g clip-path="url(#L)" class="B"><path d="M112.56 76.48c-.32-2.08-2-3.68-4.16-3.68s-4 1.68-4.16 3.84c-1.28.56-2.24 1.76-2.24 3.2 0 1.92 1.52 3.44 3.44 3.44h7.04c1.92 0 3.44-1.52 3.44-3.44 0-1.84-1.52-3.36-3.36-3.36zm5.44-1.84c0 .8-.4 1.52-.96 2l-.72.48c-.64-.88-1.6-1.52-2.72-1.76-.8-2.16-2.8-3.76-5.2-3.76-.32 0-.64 0-.96.08.32-1.68 2.08-2.96 4.16-2.96 2.16 0 4 1.44 4.16 3.2 1.28.4 2.24 1.52 2.24 2.72z"/></g><g clip-path="url(#M)" class="B"><path d="M148 76.08c0 1.6-.96 2.96-2.24 3.52l-3.52-5.52a2.77 2.77 0 0 0-2.24-1.2c-.88 0-1.76.56-2.24 1.28l-3.52 5.52c-.4-.16-.8-.48-1.12-.8-.72-.72-1.12-1.68-1.12-2.8a3.9 3.9 0 0 1 2.56-3.68c.24-2.48 2.24-4.4 4.8-4.4 2.4 0 4.4 1.84 4.72 4.16 1.04 0 2.08.48 2.8 1.2a3.81 3.81 0 0 1 1.12 2.72zm-2.16 6l-4.64-7.28c-.24-.4-.72-.64-1.2-.64s-.96.24-1.2.64l-4.64 7.28c-.24.4-.24.88 0 1.28s.72.64 1.2.64h9.28c.48 0 .96-.24 1.2-.64s.24-.88 0-1.28zm-5.84.48c-.4 0-.8-.32-.8-.8s.4-.8.8-.8.8.32.8.8c0 .4-.4.8-.8.8zm.8-2.96c0 .4-.4.8-.8.8s-.8-.4-.8-.8v-2.32c0-.4.4-.8.8-.8s.8.4.8.8v2.32z"/></g><rect x=".75" y=".75" width="158.5" height="94.5" rx="3.25" stroke="#8796a1" stroke-width="1.5"/><defs><clipPath id="A"><path transform="translate(12 12)" d="M0 0h16v16H0z" class="C"/></clipPath><clipPath id="B"><path transform="translate(42 12)" d="M0 0h16v16H0z" class="C"/></clipPath><clipPath id="C"><path transform="translate(72 12)" d="M0 0h16v16H0z" class="C"/></clipPath><clipPath id="D"><path transform="translate(102 12)" d="M0 0h16v16H0z" class="C"/></clipPath><clipPath id="E"><path transform="translate(132 12)" d="M0 0h16v16H0z" class="C"/></clipPath><clipPath id="F"><path transform="translate(12 40)" d="M0 0h16v16H0z" class="C"/></clipPath><clipPath id="G"><path transform="translate(42 40)" d="M0 0h16v16H0z" class="C"/></clipPath><clipPath id="H"><path transform="translate(102 40)" d="M0 0h16v16H0z" class="C"/></clipPath><clipPath id="I"><path transform="translate(12 68)" d="M0 0h16v16H0z" class="C"/></clipPath><clipPath id="J"><path transform="translate(42 68)" d="M0 0h16v16H0z" class="C"/></clipPath><clipPath id="K"><path transform="translate(72 68)" d="M0 0h16v16H0z" class="C"/></clipPath><clipPath id="L"><path transform="translate(102 68)" d="M0 0h16v16H0z" class="C"/></clipPath><clipPath id="M"><path transform="translate(132 68)" d="M0 0h16v16H0z" class="C"/></clipPath><path id="N" d="M57.12 54.24H42.88a.89.89 0 0 0-.88.88.89.89 0 0 0 .88.88h14.24a.89.89 0 0 0 .88-.88.89.89 0 0 0-.88-.88z"/></defs></svg>