<svg xmlns="http://www.w3.org/2000/svg" xmlns:xlink="http://www.w3.org/1999/xlink" width="160" height="96" fill="none"><style><![CDATA[.B{fill:#546069}.C{fill:#fff}]]></style><rect x=".75" y=".75" width="158.5" height="94.5" rx="3.25" class="C"/><g clip-path="url(#A)" class="B"><use xlink:href="#N"/><path d="M21.76 23.12a.89.89 0 0 0-.88.88v1.52a.89.89 0 0 0 .88.88.89.89 0 0 0 .88-.88V24a.89.89 0 0 0-.88-.88zm-2.56 1.6a.89.89 0 0 0-.88.88v1.52c0 .48.32.88.88.88a.89.89 0 0 0 .88-.88V25.6a.89.89 0 0 0-.88-.88zm2.32-11.28c.08.24.4.4.64.24.24-.08.4-.32.24-.56l-.32-.72c-.08-.24-.4-.4-.64-.24-.24.08-.4.4-.24.64l.32.64zm3.04.32c.24.08.56 0 .64-.24l.4-.72c.08-.24 0-.56-.24-.64s-.56 0-.64.24l-.32.72c-.16.24-.08.56.16.64zm2.4 2.08l.72-.32c.24-.08.4-.4.24-.64-.08-.24-.4-.4-.64-.24l-.72.32c-.24.08-.4.4-.24.64.08.24.4.32.64.24zm.64 2.24l-.72-.32c-.24-.08-.56 0-.64.24s0 .56.24.64l.72.32c.24.08.56 0 .64-.24.16-.24.08-.56-.24-.64z"/><path d="M23.12 17.76c-.08-2.32-2-4.16-4.32-4.16a4.3 4.3 0 0 0-4.32 4.32c-.56.16-1.04.48-1.44.88-.64.64-1.04 1.6-1.04 2.56 0 1.2.56 2.24 1.44 2.96.08 0 .08.08.16.08.16.08.32.16.48.16a.89.89 0 0 0 .88-.88c0-.32-.16-.56-.32-.72l-.08-.08a1.82 1.82 0 0 1-.8-1.52c0-.48.16-.96.56-1.36.16-.16.48-.32.72-.48l1.2-.32v-1.28a2.58 2.58 0 0 1 2.56-2.56c1.36 0 2.48 1.12 2.56 2.48l.08 1.6 1.6.08c.96.08 1.84.88 1.84 1.92 0 .48-.24.96-.56 1.36-.16.16-.32.24-.48.32a.84.84 0 0 0-.4.72.89.89 0 0 0 .88.88c.08 0 .24 0 .32-.08.08 0 .16-.08.24-.16.24-.16.4-.32.64-.48.64-.64 1.04-1.6 1.04-2.56.08-2-1.52-3.6-3.44-3.68zm.08-2.24h.16c.64 0 1.2.56 1.2 1.2 0 .24-.08.4-.16.64.4.16.8.32 1.2.64.24-.4.32-.8.32-1.28 0-1.44-1.2-2.64-2.64-2.64-.4 0-.72.08-1.04.24.4.32.72.8.96 1.2z"/></g><g clip-path="url(#B)" class="B"><path d="M57.36 17.28l-.96-.24c-.24-.08-.48-.24-.72-.4 0 0-.08 0-.08-.08V14a1.98 1.98 0 0 0-2-2h-7.2a1.98 1.98 0 0 0-2 2v2.24l-.8-.24-.8-.24c-.4 0-.8.32-.8.72s.24.64.64.72.72.16.96.32c.24.08.48.24.72.32l.08.08v1.04l-.8-.24c-.24-.08-.48-.16-.8-.16-.4-.08-.8.24-.8.72 0 .32.24.64.64.72.4 0 .72.08.96.24.24.08.48.24.72.4l.08.08v1.12c-.24-.16-.48-.24-.8-.32-.24-.08-.48-.16-.8-.16-.4-.08-.8.32-.8.72s.24.64.64.72l.96.24c.24.08.48.24.72.4l.08.08v2.56c0 1.04.88 1.92 2 1.92h7.2a1.98 1.98 0 0 0 2-2v-.96c-.24-.08-.4-.24-.64-.4-.4-.24-.72-.4-1.12-.56V26c0 .16-.08.24-.24.24h-7.2c-.16 0-.24-.08-.24-.24v-1.84-1.52-1.28-1.44-1.28-1.44V14c0-.16.08-.24.24-.24h7.2c.16 0 .24.08.24.24v1.84c-.24-.08-.48-.08-.8-.08h-.4c-1.52 0-2.32.48-3.04.88-.56.4-1.12.72-2.24.72h-.4v1.44h.4c1.52 0 2.32-.48 3.04-.88.64-.4 1.2-.72 2.32-.72h.4c.32 0 .56.08.8.16.4.16.8.32 1.12.56.16.16.4.24.64.4s.48.24.8.32c.24.08.48.16.8.16.4.08.8-.32.8-.72-.08-.4-.32-.72-.72-.8z"/><path d="M57.36 20.08c-.72-.08-1.2-.32-1.68-.64 0 0-.08 0-.08-.08-.48-.24-.96-.56-1.76-.72-.32-.08-.72-.08-1.2-.08-1.52 0-2.32.48-3.04.88-.64.4-1.2.72-2.32.72h-.4v1.44h.4c1.52 0 2.32-.48 3.04-.88.64-.4 1.2-.72 2.32-.72.48 0 .88.08 1.2.16.4.16.8.32 1.12.56.16.16.4.24.64.4.4.24.96.4 1.6.48.4.08.8-.32.8-.72 0-.48-.24-.8-.64-.8zm0 2.72c-.72-.08-1.12-.4-1.68-.64 0 0-.08 0-.08-.08-.48-.32-.96-.56-1.76-.72-.32-.08-.72-.08-1.2-.08-1.52 0-2.32.48-3.04.88-.64.4-1.2.72-2.32.72h-.4v1.44h.4c1.52 0 2.32-.48 3.04-.88.64-.4 1.2-.72 2.32-.72.48 0 .88.08 1.2.16.4.16.8.32 1.12.56.16.08.4.24.64.4.4.24.96.4 1.6.48.4.08.8-.32.8-.72 0-.48-.32-.8-.64-.8z"/></g><g clip-path="url(#C)" class="B"><path d="M87.68 21.52c-.96-1.6-3.28-4.32-7.68-4.32-4.48 0-6.72 2.72-7.68 4.32-.24.32-.32.72-.32 1.12 0 .32.08.72.32 1.04.16.32.4.64.72 1.04l.24.24s0 .08.08.08C74.48 26.48 76.64 28 80 28c2.24 0 3.92-.72 5.2-1.6l.24-.24.16-.16c1.04-.8 1.68-1.76 2.08-2.4.16-.32.32-.72.32-1.04s-.08-.72-.32-1.04zm-1.44 1.28c-.8 1.28-2.64 3.52-6.24 3.52s-5.44-2.16-6.24-3.52a.51.51 0 0 1 0-.48c.8-1.28 2.64-3.44 6.24-3.44s5.44 2.16 6.24 3.44a.51.51 0 0 1 0 .48zm-3.76-.56c-.08 0-.08 0 0 0h-.08a1.98 1.98 0 0 1-2-2v-.08c0-.16-.16-.24-.24-.24H80c-1.52 0-2.72 1.2-2.72 2.72s1.2 2.72 2.72 2.72 2.72-1.2 2.72-2.72v-.08c0-.16-.16-.32-.24-.32zM80 16c.48 0 .88-.32.88-.8v-2.4c0-.4-.4-.8-.88-.8s-.88.32-.88.8v2.4c0 .4.4.8.88.8zm-5.92 1.12c.24.32.8.32 1.2.08s.4-.8.16-1.12l-1.6-1.92c-.24-.32-.8-.32-1.2-.08s-.4.8-.16 1.12l1.6 1.92zm11.84 0l1.52-1.84c.24-.32.24-.88-.16-1.12-.4-.32-.88-.32-1.2.08L84.64 16c-.24.32-.24.88.16 1.12.32.32.88.32 1.12 0z"/></g><g clip-path="url(#D)" class="B"><path d="M110 19.84c-2.48 0-4.48 2-4.48 4.48a.89.89 0 0 0 .88.88.89.89 0 0 0 .88-.88c0-1.52 1.2-2.72 2.72-2.72s2.72 1.2 2.72 2.72a.89.89 0 0 0 .88.88.89.89 0 0 0 .88-.88c0-2.48-2-4.48-4.48-4.48zm-7.28 4.48h1.2c.4 0 .72-.32.72-.72s-.32-.72-.72-.72h-1.2c-.4 0-.72.32-.72.72s.32.72.72.72zm2.48-4.56a.68.68 0 0 0 1.04 0c.32-.24.32-.72 0-1.04l-.8-.8a.68.68 0 0 0-1.04 0c-.24.24-.24.72 0 1.04l.8.8zm9.6 0l.8-.8c.32-.24.32-.72 0-1.04a.68.68 0 0 0-1.04 0l-.8.8a.84.84 0 0 0 0 1.04c.32.32.8.32 1.04 0zm.56 3.84c0 .4.32.72.72.72h1.2c.4 0 .72-.32.72-.72s-.32-.72-.72-.72h-1.2c-.4 0-.72.32-.72.72z"/><use xlink:href="#O"/><path d="M108 15.76l1.28-1.28v3.28c0 .32.32.64.72.64s.72-.32.72-.72v-3.2l1.28 1.28c.16.16.32.24.48.24s.4-.08.48-.24a.68.68 0 0 0 0-1.04l-2.56-2.56a.68.68 0 0 0-1.04 0l-2.4 2.56a.68.68 0 0 0 0 1.04.84.84 0 0 0 1.04 0z"/></g><path d="M140.32 12.16c-.08-.08-.08-.08 0 0-.16-.16-.24-.16-.32-.16s-.16 0-.24.08l-.08.08c-1.2 1.12-5.44 5.92-5.44 10.08 0 3.2 2.56 5.76 5.76 5.76s5.76-2.56 5.76-5.76c0-4.16-4.32-9.04-5.44-10.08zm.96 4.24a.77.77 0 0 1 1.12 0c.16.16.24.32.24.56 0 .16-.08.4-.24.56l-3.68 3.68a.77.77 0 0 1-1.12 0 .77.77 0 0 1 0-1.12l3.68-3.68zm1.28 4.16c0 .4-.32.8-.8.8-.4 0-.8-.32-.8-.8 0-.4.32-.8.8-.8s.8.4.8.8zm-4.4-4.4c.4 0 .8.32.8.8s-.32.8-.8.8c-.4 0-.8-.32-.8-.8s.4-.8.8-.8zm1.84 10c-2.08 0-3.76-1.6-3.92-3.6.24.24.56.4 1.12.4s.88-.24 1.12-.48c.24-.16.48-.4.88-.4s.64.16.88.4.56.48 1.12.48.88-.24 1.12-.48c.24-.16.4-.4.88-.4.4 0 .56.16.8.32-.24 2.16-1.92 3.76-4 3.76z" class="B"/><g clip-path="url(#E)" class="B"><path d="M20 40c-4.4 0-8 3.6-8 8s3.6 8 8 8 8-3.6 8-8-3.6-8-8-8zm0 14.24A6.25 6.25 0 0 1 13.76 48 6.25 6.25 0 0 1 20 41.76 6.25 6.25 0 0 1 26.24 48 6.25 6.25 0 0 1 20 54.24zM24.8 50h-1.68c-.08 0-.08 0-.16.08a4.41 4.41 0 0 1-1.6 1.36h-.08c-.4.16-.8.24-1.28.24s-.88-.08-1.28-.24h-.08-.08c-.64-.24-1.2-.72-1.6-1.28 0-.08-.08-.08-.16-.08h-1.68c-.08 0-.24.16-.16.24.16.4.4.88.72 1.2.96 1.28 2.56 2.08 4.24 2.08.24 0 .48 0 .72-.08.16 0 .32-.08.48-.08h.08c.48-.08.88-.24 1.28-.48l.08-.08a4.41 4.41 0 0 0 1.6-1.36c.32-.4.56-.8.72-1.2.08-.24 0-.32-.08-.32zm-4.8.48c.88 0 1.6-.72 1.6-1.6 0-.72-.48-1.28-1.12-1.52l-1.2-1.76c-.16-.16-.4-.08-.4.08l-.08 2.16c-.24.32-.4.64-.4 1.04 0 .88.72 1.6 1.6 1.6zm0-1.04a.46.46 0 0 1-.48-.48c0-.32.24-.56.48-.56s.56.24.56.56c0 .24-.24.48-.56.48zm0-4.48c.4 0 .72-.32.72-.72V43.2c0-.4-.32-.72-.72-.72s-.72.32-.72.72v1.04c0 .4.32.72.72.72zm-3.12.88c.16.16.32.24.48.24s.4-.08.48-.24c.32-.24.32-.72 0-1.04l-.72-.72c-.16-.16-.32-.16-.48-.16s-.4 0-.56.16a.84.84 0 0 0 0 1.04l.8.72zm-.64 2.88c.4 0 .72-.32.72-.72s-.32-.72-.72-.72H15.2c-.4 0-.72.32-.72.72s.32.72.72.72h1.04zm8.48-1.44h-1.04c-.4 0-.72.32-.72.72s.32.72.72.72h1.04c.4 0 .72-.32.72-.72s-.32-.72-.72-.72zm-2.08-1.2c.16 0 .4-.08.48-.24l.72-.72a.68.68 0 0 0 0-1.04c-.16-.16-.32-.24-.48-.24s-.4.08-.48.24l-.72.72a.68.68 0 0 0 0 1.04c.08.16.32.24.48.24z"/></g><g clip-path="url(#F)" class="B"><path d="M50 40c-4.4 0-8 3.6-8 8s3.6 8 8 8 8-3.6 8-8-3.6-8-8-8zm0 14.24A6.25 6.25 0 0 1 43.76 48 6.25 6.25 0 0 1 50 41.76 6.25 6.25 0 0 1 56.24 48 6.25 6.25 0 0 1 50 54.24zm.24-11.12a.25.25 0 0 0-.48 0l-2.96 8.8c-.08.24.16.4.32.24l2.72-1.52c.08-.08.16-.08.24 0l2.72 1.52c.16.08.4-.08.32-.24l-2.88-8.8z"/></g><g clip-path="url(#G)" class="B"><path d="M86.72 48.56l-2.96.8-.96-.56v-1.6l1.04-.56 2.96.8h.16a.77.77 0 0 0 .72-.56c.08-.4-.16-.8-.48-.88l-1.6-.4.96-.56c.32-.16.48-.64.24-.96-.16-.32-.64-.48-.96-.24l-.96.56.4-1.52c.08-.4-.16-.8-.48-.88-.4-.08-.8.16-.88.48l-.8 2.96-1.04.56-1.36-.8V44l2.16-2.16a.68.68 0 0 0 0-1.04.68.68 0 0 0-1.04 0l-1.12 1.12v-1.04c0-.4-.32-.72-.72-.72s-.72.32-.72.72V42l-1.12-1.12a.68.68 0 0 0-1.04 0c-.32.32-.24.72 0 1.04L79.28 44v1.2l-1.36.8-1.04-.64-.8-2.96c-.08-.32-.48-.56-.8-.48-.4.16-.64.56-.56.88l.4 1.52-.88-.48c-.32-.16-.8-.08-.96.24s-.08.8.24.96l.96.56-1.6.4c-.4.16-.56.56-.48.88a.77.77 0 0 0 .72.56h.16l2.96-.8.96.56v1.6l-1.04.56-2.96-.8c-.4-.08-.8.16-.88.48-.08.4.16.8.48.88l1.6.48-.96.56c-.32.16-.48.64-.24.96.16.24.4.4.64.4.16 0 .24 0 .32-.08l.96-.56-.4 1.52c-.08.4.16.8.48.88h.16a.77.77 0 0 0 .72-.56l.8-2.96 1.04-.56 1.36.8V52l-2.16 2.16a.68.68 0 0 0 0 1.04c.16.16.32.24.48.24s.4-.08.48-.24l1.12-1.12v1.12c0 .4.32.72.72.72s.72-.32.72-.72v-1.12l1.12 1.12a.68.68 0 0 0 1.04 0 .68.68 0 0 0 0-1.04L80.72 52v-1.2l1.36-.8 1.04.56.8 2.96a.77.77 0 0 0 .72.56h.16a.64.64 0 0 0 .48-.88l-.4-1.52.96.56c.08.08.24.08.32.08.24 0 .48-.16.64-.4.16-.32.08-.8-.24-.96l-1.04-.56 1.52-.4a.64.64 0 0 0 .48-.88c0-.4-.4-.64-.8-.56zm-5.68 0L80 49.2l-1.04-.56v-1.2L80 46.8l1.04.56v1.2z"/></g><g clip-path="url(#H)" class="B"><path d="M117.12 54.24h-14.24a.89.89 0 0 0-.88.88.89.89 0 0 0 .88.88h14.24a.89.89 0 0 0 .88-.88.89.89 0 0 0-.88-.88zm-7.6-8a.68.68 0 0 0 1.04 0l2.48-2.48a.68.68 0 0 0 0-1.04.68.68 0 0 0-1.04 0L110.72 44v-3.28c0-.4-.32-.72-.72-.72s-.72.32-.72.72V44L108 42.64c-.16-.08-.32-.16-.48-.16s-.4.08-.56.16a.68.68 0 0 0 0 1.04l2.56 2.56zm-3.6 6.88c0 .08.08.08.08.08h8s.08 0 .08-.08c.32-.8.32-1.68.16-2.56 0-.08-.16-.08-.16 0-.4.64-1.12 1.12-2 1.2-1.04.16-2.08-.16-2.72-.96-.88-.96-.88-2.24-.4-3.28 0-.08 0-.16-.08-.16-.88.24-1.68.72-2.4 1.68s-1.04 2.24-.72 3.44c0 .24.08.48.16.64z"/></g><g clip-path="url(#I)" class="B"><path d="M136.8 40a3.24 3.24 0 0 0-3.28 3.28V48c-.88.88-1.36 2.08-1.36 3.36 0 2.56 2.08 4.64 4.64 4.64s4.64-2.08 4.64-4.64c0-1.28-.48-2.48-1.36-3.28v-4.8c-.08-.88-.4-1.68-1.04-2.32-.56-.64-1.44-.96-2.24-.96zm0 14.24a2.87 2.87 0 0 1-2.88-2.88c0-.8.32-1.52.88-2.08l.4-.56v-5.44c0-.88.72-1.52 1.6-1.52a1.58 1.58 0 0 1 1.6 1.6v4.8.72l.48.48c.56.56.88 1.28.88 2.08a2.98 2.98 0 0 1-2.96 2.8zm0-8.48c-.24 0-.4.16-.4.4v3.68c-.64.16-1.2.8-1.2 1.52 0 .88.72 1.6 1.6 1.6s1.6-.72 1.6-1.6c0-.72-.48-1.36-1.2-1.52v-3.68c0-.24-.24-.4-.4-.4zm4.4-2.4v1.92a1.25 1.25 0 0 1 .96.48c.64.64.64 1.6 0 2.24-.16.16-.32.24-.48.32a6.79 6.79 0 0 1 .72 1.76c.4-.16.72-.4 1.04-.72 1.36-1.36 1.44-3.52.08-4.88-.56-.72-1.44-1.12-2.32-1.12zm4.88-.88a.61.61 0 0 0-.4.16l-.96.64c-.32.24-.4.64-.16.96.16.16.32.32.56.32a.61.61 0 0 0 .4-.16l.96-.64c.32-.24.4-.64.16-.96-.16-.24-.4-.32-.56-.32zm-.08 4.4a.77.77 0 0 0-.72.56c-.08.4.24.72.56.8l1.12.16h.08a.77.77 0 0 0 .72-.56c.08-.4-.24-.72-.56-.8l-1.12-.16H146zm-1.92 3.2c-.08 0-.24 0-.32.08l-.32.24c-.24.16-.24.48-.08.72l.88 1.28a.44.44 0 0 0 .4.24c.08 0 .24 0 .32-.08l.32-.24c.24-.16.24-.48.08-.72l-.88-1.28c-.08-.24-.24-.24-.4-.24zm-2-10.08a.77.77 0 0 0-.72.56l-.16 1.12c-.08.4.24.72.56.8h.08a.77.77 0 0 0 .72-.56l.16-1.12c.08-.4-.24-.72-.56-.8h-.08z"/></g><g clip-path="url(#J)" class="B"><path d="M21.52 74.56c-.56-1.36-1.92-2.24-3.52-2.24-1.68 0-3.04 1.04-3.6 2.48a3.74 3.74 0 0 0-2.4 3.52c0 2.08 1.68 3.76 3.76 3.76h5.28c2.08 0 3.76-1.68 3.76-3.76a3.8 3.8 0 0 0-3.28-3.76zm-.48 5.76h-5.28a1.98 1.98 0 0 1-2-2c0-.96.64-1.76 1.6-2l.56-.16.08-.56c.16-.88.96-1.52 2-1.52.96 0 1.84.64 2 1.52l.16.72h.88a2 2 0 1 1 0 4zm4.16-8.4c-.48-1.2-1.68-2-3.12-2-1.04 0-2.08.48-2.64 1.28-.16.24-.08.48.08.56.32.08.56.24.8.4.16.16.4.08.64-.08.32-.24.72-.4 1.12-.4.8 0 1.44.48 1.6 1.2l.16.72h.72c.96 0 1.76.8 1.76 1.76 0 .56-.24.96-.64 1.28-.16.16-.24.4-.16.56.08.24.08.56.16.88 0 .24.16.4.4.4h.16s.08 0 .08-.08c1.04-.56 1.76-1.76 1.76-3.04-.08-1.68-1.28-3.12-2.88-3.44z"/></g><g clip-path="url(#K)" class="B"><path d="M53.92 70.96h-.16l-.08-.16c-.72-1.68-2.32-2.72-4.24-2.72s-3.6 1.2-4.24 2.96v.16h-.16c-1.76.64-2.96 2.4-2.96 4.24 0 1.76.96 3.28 2.48 4l.88-1.52c-.96-.48-1.6-1.44-1.6-2.48 0-1.28.96-2.48 2.24-2.72l.56-.16.16-.56c.24-1.28 1.36-2.16 2.8-2.16 1.36 0 2.48.88 2.72 2.16l.08.64h.96c1.52 0 2.8 1.28 2.8 2.8 0 1.12-.64 2.08-1.6 2.48l.88 1.52c1.44-.72 2.48-2.32 2.48-4 0-2.24-1.68-4.16-4-4.48zm-2.72 2.8c-.24-.4-.72-.72-1.2-.72s-.96.24-1.2.72l-4.64 8c-.24.4-.24.96 0 1.44.24.4.72.72 1.2.72h9.28c.48 0 .96-.24 1.2-.72.24-.4.24-.96 0-1.44l-4.64-8zm-5.2 8.4l4-6.96 4 6.96h-8zm3.44-4.56v1.68c0 .32.24.56.56.56s.56-.24.56-.56V77.6c0-.32-.24-.56-.56-.56s-.56.24-.56.56z"/><path d="M50 80.32c-.32 0-.56.24-.56.56s.24.56.56.56.56-.24.56-.56-.24-.56-.56-.56z"/></g><g clip-path="url(#L)" class="B"><path d="M78.4 72.08c.56-.24 1.04-.32 1.6-.32 1.76 0 3.28 1.04 3.92 2.64.16.4.64.64 1.04.4l.8-.32 1.68-.72a.77.77 0 0 0 .56-.72c0-.08 0-.16-.08-.32-.16-.4-.64-.64-1.04-.4l-1.68.72c-.56-.96-1.28-1.68-2.16-2.16l.72-1.68c.16-.4 0-.88-.4-1.04s-.88 0-1.04.4l-.72 1.68c-.48-.16-1.04-.16-1.52-.16s-1.04.08-1.52.24l-.8-1.84c-.16-.4-.64-.56-1.04-.4s-.64.64-.4 1.04l.72 1.68c-.96.56-1.68 1.28-2.24 2.16l-1.68-.72c-.4-.16-.88 0-1.04.4s0 .88.4 1.04l1.68.72c-.24.96-.32 2 0 3.04l-1.68.72c-.4.16-.64.64-.4 1.04.16.4.64.64 1.04.4l1.68-.72c.56.88 1.28 1.68 2.16 2.16l-.72 1.68c0 .08-.08.24-.08.32 0 .32.16.64.48.72.4.16.88 0 1.04-.4l.72-1.68.32-.8c.16-.4 0-.8-.32-1.04h-.08c-1.04-.4-1.84-1.2-2.24-2.32-.4-1.04-.4-2.24 0-3.2.4-1.04 1.28-1.84 2.32-2.24zm9.28 5.36c-.4-.4-1.04-.4-1.44 0l-4.8 4.8c-.4.4-.4 1.04 0 1.44s1.04.4 1.44 0l4.8-4.8c.4-.4.4-1.04 0-1.44zm-5.52 1.76a1.06 1.06 0 0 0 1.04-1.04 1.06 1.06 0 0 0-1.04-1.04 1.06 1.06 0 0 0-1.04 1.04 1.06 1.06 0 0 0 1.04 1.04zm4.8 2.72a1.06 1.06 0 0 0-1.04 1.04A1.06 1.06 0 0 0 86.96 84 1.06 1.06 0 0 0 88 82.96a1.06 1.06 0 0 0-1.04-1.04z"/></g><g clip-path="url(#M)" class="B"><path d="M116.64 73.84c.72 0 1.36-.64 1.36-1.36 0-.96-.96-2-1.28-2.32h-.08-.08c-.32.32-1.28 1.44-1.28 2.32.08.8.64 1.36 1.36 1.36zm-2.72.48h-.08-.08c-.32.32-1.28 1.44-1.28 2.32 0 .72.64 1.36 1.36 1.36s1.36-.64 1.36-1.36c-.08-.88-.96-2-1.28-2.32zm2.88 4.16h-.08-.08c-.32.32-1.28 1.44-1.28 2.32 0 .72.64 1.36 1.36 1.36s1.36-.64 1.36-1.36c-.08-.96-.96-2-1.28-2.32zm-6.96-7.2c0-.88-.32-1.68-.96-2.32-.56-.64-1.44-.96-2.24-.96a3.24 3.24 0 0 0-3.28 3.28V76c-.88.88-1.36 2.08-1.36 3.36 0 2.56 2.08 4.64 4.64 4.64s4.64-2.08 4.64-4.64c0-1.28-.48-2.48-1.36-3.28v-4.8h-.08zm-3.2 10.96a2.87 2.87 0 0 1-2.88-2.88c0-.8.32-1.52.88-2.08l.48-.56v-5.44a1.52 1.52 0 0 1 1.52-1.52 1.58 1.58 0 0 1 1.6 1.6v4.8.72l.48.48c.56.56.88 1.28.88 2.08a2.98 2.98 0 0 1-2.96 2.8zm.4-4.4v-3.68c0-.24-.16-.4-.4-.4s-.4.16-.4.4v3.68c-.64.16-1.2.8-1.2 1.52 0 .88.72 1.6 1.6 1.6s1.6-.72 1.6-1.6c-.08-.72-.56-1.36-1.2-1.52z"/></g><path d="M144.56 72.64c-.8-1.76-2.56-3.04-4.56-3.04-2.4 0-4.48 1.76-4.96 4.08-1.76.48-3.04 2-3.04 3.92a4.53 4.53 0 0 0 .24 1.44c0 .08.08.24.16.32a.84.84 0 0 0 .72.4.89.89 0 0 0 .88-.88c0-.16 0-.24-.08-.32v-.08c-.08-.24-.16-.56-.16-.88 0-.88.48-1.68 1.28-2 .32-.16.64-.32.96-.32.24 0 .56.08.8.16-.08-.24-.08-.48-.08-.8s.08-.72.16-1.04c.4-1.28 1.68-2.24 3.12-2.24 1.12 0 2.08.56 2.72 1.44.24.48.48 1.04.48 1.68.24-.08.48-.16.8-.16.4 0 .72.08 1.04.24.72.4 1.2 1.12 1.2 2 0 .64-.24 1.2-.64 1.6 0 0-.08 0-.08.08-.16.16-.24.4-.24.64a.89.89 0 0 0 .88.88c.16 0 .32-.08.48-.16l.08-.08.08-.08.08-.08c.72-.72 1.12-1.68 1.12-2.8 0-2-1.52-3.68-3.44-3.92zm-4.32 6.4l.96-1.2c.32-.4.24-.96-.16-1.2-.4-.32-.96-.24-1.2.16l-.96 1.2c-.32.4-.24.96.16 1.2.32.32.88.24 1.2-.16zm-2.88.72l-.96 1.2c-.32.4-.24.96.16 1.2s.96.24 1.2-.16l.96-1.2c.32-.4.24-.96-.16-1.2a.89.89 0 0 0-1.2.16zm5.44-2.96l-.96 1.2c-.32.4-.24.96.16 1.2.4.32.96.24 1.2-.16l.96-1.2c.32-.4.24-.96-.16-1.2-.32-.32-.88-.24-1.2.16zm-2.32 2.96l-.96 1.2c-.32.4-.24.96.16 1.2.4.32.96.24 1.2-.16l.96-1.2c.32-.4.24-.96-.16-1.2a.89.89 0 0 0-1.2.16zm-3.28-.64l.96-1.2c.32-.4.24-.96-.16-1.2-.4-.32-.96-.24-1.28.08l-.96 1.2c-.24.4-.16.96.16 1.2s.96.24 1.28-.08z" class="B"/><rect x=".75" y=".75" width="158.5" height="94.5" rx="3.25" stroke="#8796a1" stroke-width="1.5"/><defs><clipPath id="A"><path transform="translate(12 12)" d="M0 0h16v16H0z" class="C"/></clipPath><clipPath id="B"><path transform="translate(42 12)" d="M0 0h16v16H0z" class="C"/></clipPath><clipPath id="C"><path transform="translate(72 12)" d="M0 0h16v16H0z" class="C"/></clipPath><clipPath id="D"><path transform="translate(102 12)" d="M0 0h16v16H0z" class="C"/></clipPath><clipPath id="E"><path transform="translate(12 40)" d="M0 0h16v16H0z" class="C"/></clipPath><clipPath id="F"><path transform="translate(42 40)" d="M0 0h16v16H0z" class="C"/></clipPath><clipPath id="G"><path transform="translate(72 40)" d="M0 0h16v16H0z" class="C"/></clipPath><clipPath id="H"><path transform="translate(102 40)" d="M0 0h16v16H0z" class="C"/></clipPath><clipPath id="I"><path transform="translate(132 40)" d="M0 0h16v16H0z" class="C"/></clipPath><clipPath id="J"><path transform="translate(12 68)" d="M0 0h16v16H0z" class="C"/></clipPath><clipPath id="K"><path transform="translate(42 68)" d="M0 0h16v16H0z" class="C"/></clipPath><clipPath id="L"><path transform="translate(72 68)" d="M0 0h16v16H0z" class="C"/></clipPath><clipPath id="M"><path transform="translate(102 68)" d="M0 0h16v16H0z" class="C"/></clipPath><path id="N" d="M16.56 23.12a.89.89 0 0 0-.88.88v1.52a.89.89 0 0 0 .88.88.89.89 0 0 0 .88-.88V24a.89.89 0 0 0-.88-.88z"/><path id="O" d="M117.12 26.24h-14.24a.89.89 0 0 0-.88.88.89.89 0 0 0 .88.88h14.24a.89.89 0 0 0 .88-.88.89.89 0 0 0-.88-.88z"/></defs></svg>