<?xml version="1.0" encoding="UTF-8"?> <svg xmlns="http://www.w3.org/2000/svg" xmlns:xlink="http://www.w3.org/1999/xlink" width="80px" height="80px" viewBox="0 0 80 80"><!-- Generator: Sketch 60 (88103) - https://sketch.com --><title>automatic-scheduling_icon</title><desc>Created with Sketch.</desc><g id="automatic-scheduling_icon" stroke="none" stroke-width="1" fill="none" fill-rule="evenodd"><rect id="mask" x="0" y="0" width="80" height="80"></rect><g id="Icon" transform="translate(4.000000, 4.000000)"><path d="M18,0.9 C15.1833478,0.9 12.9,3.18334778 12.9,6 L12.9,56 C12.9,58.8166522 15.1833478,61.1 18,61.1 L56,61.1 C58.8166522,61.1 61.1,58.8166522 61.1,56 L61.1,18.8284271 C61.1,18.536689 60.9841075,18.2568997 60.7778175,18.0506097 L43.9493903,1.22218254 C43.7431003,1.01589252 43.463311,0.9 43.1715729,0.9 L18,0.9 Z" id="Rectangle" stroke="#02182B" stroke-width="1.8" fill="#D9F4F4"></path><path d="M17,1 L17,1 L17,1 L17,61 C14.790861,61 13,59.209139 13,57 L13,5 C13,2.790861 14.790861,1 17,1 Z" id="Rectangle" fill="#02182B" opacity="0.100000001"></path><path d="M44,1 L44,12 C44,15.3137085 46.6862915,18 50,18 L61,18 L61,18" id="Path-16" stroke="#02182B" stroke-width="1.8"></path><line x1="24" y1="30" x2="50" y2="30" id="Path-17" stroke="#02182B" stroke-width="1.8" stroke-linecap="round"></line><line x1="24" y1="38" x2="34" y2="38" id="Path-17-Copy" stroke="#02182B" stroke-width="1.8" stroke-linecap="round"></line><line x1="38" y1="38" x2="43" y2="38" id="Path-17-Copy-2" stroke="#02182B" stroke-width="1.8" stroke-linecap="round"></line><circle id="Oval" stroke="#02182B" stroke-width="1.8" fill="#FFFFFF" cx="13" cy="34" r="12.1"></circle><line x1="8.5" y1="34" x2="17.5" y2="34" id="Path-7" stroke="#02182B" stroke-width="1.8" stroke-linecap="round"></line><polyline id="Path-8" stroke="#02182B" stroke-width="1.8" stroke-linecap="round" stroke-linejoin="round" points="14 30.5 17.5 34 14 37.5"></polyline><circle id="Oval" stroke="#02182B" stroke-width="1.8" fill="#FFFFFF" cx="61" cy="61" r="14.1"></circle><polyline id="Path-18" stroke="#02182B" stroke-width="2" stroke-linecap="round" stroke-linejoin="round" points="61 55 61 62 65.5 64.5"></polyline></g></g></svg> 