<?xml version="1.0" encoding="UTF-8"?> <svg xmlns="http://www.w3.org/2000/svg" xmlns:xlink="http://www.w3.org/1999/xlink" width="80px" height="80px" viewBox="0 0 80 80"><!-- Generator: Sketch 60 (88103) - https://sketch.com --><title>developer-friendly_icon@2x</title><desc>Created with Sketch.</desc><g id="developer-friendly_icon" stroke="none" stroke-width="1" fill="none" fill-rule="evenodd"><rect id="mask" x="0" y="0" width="80" height="80"></rect><g id="Icon" transform="translate(9.000000, 12.000000)"><g id="hand-drawn"><path d="M5,1 L57,1 C59.209139,1 61,2.790861 61,5 L61,13 L61,13 L1,13 L1,5 C1,2.790861 2.790861,1 5,1 Z" id="Rectangle" fill="#FFFFFF"></path><path d="M0,12 L62,12 L62,51 C62,53.7614237 59.7614237,56 57,56 L5,56 C2.23857625,56 3.38176876e-16,53.7614237 0,51 L0,12 L0,12 Z" id="Rectangle-Copy-5" fill="#D9F4F4"></path><rect id="Rectangle" stroke="#02182B" stroke-width="1.8" x="0.9" y="0.9" width="60.2" height="54.2" rx="5"></rect><line x1="33" y1="23" x2="27" y2="45" id="Path-13" stroke="#02182B" stroke-width="2" stroke-linecap="round"></line><polyline id="Path-12" stroke="#02182B" stroke-width="2" stroke-linecap="round" stroke-linejoin="round" points="23 28 16 34 23 40"></polyline><polyline id="Path-12-Copy" stroke="#02182B" stroke-width="2" stroke-linecap="round" stroke-linejoin="round" transform="translate(41.500000, 34.000000) scale(-1, 1) translate(-41.500000, -34.000000) " points="45 28 38 34 45 40"></polyline><circle id="Oval" stroke="#02182B" stroke-width="1.8" fill="#D9F4F4" cx="8" cy="7" r="2.1"></circle><circle id="Oval-Copy-7" stroke="#02182B" stroke-width="1.8" fill="#D9F4F4" cx="16" cy="7" r="2.1"></circle><circle id="Oval-Copy-8" stroke="#02182B" stroke-width="1.8" fill="#D9F4F4" cx="24" cy="7" r="2.1"></circle><rect id="Rectangle" fill="#02182B" x="0" y="12" width="62" height="1.8"></rect><rect id="Rectangle" fill="#02182B" opacity="0.100000001" x="1" y="2" width="4" height="52"></rect></g></g></g></svg> 