<?xml version="1.0" encoding="UTF-8"?> <svg xmlns="http://www.w3.org/2000/svg" xmlns:xlink="http://www.w3.org/1999/xlink" width="54px" height="54px" viewBox="0 0 54 54"><!-- Generator: sketchtool 61.2 (101010) - https://sketch.com --><title>94609B8B-007B-41CC-9584-736051D4A3E7</title><desc>Created with sketchtool.</desc><g id="(Inspect)-Explainer" stroke="none" stroke-width="1" fill="none" fill-rule="evenodd"><g id="Explainer-1.0" transform="translate(-180.000000, -1725.000000)"><g id="Icons" transform="translate(173.000000, 1714.000000)"><g id="1"><g id="easy-to-use_icon" transform="translate(0.000000, 5.000000)"><rect id="mask" x="0" y="0" width="60" height="60"></rect><g id="hand-drawn" transform="translate(7.500000, 6.750000)"><path d="M3.75,0.75 L42.75,0.75 C44.4068542,0.75 45.75,2.09314575 45.75,3.75 L45.75,9.75 L45.75,9.75 L0.75,9.75 L0.75,3.75 C0.75,2.09314575 2.09314575,0.75 3.75,0.75 Z" id="Rectangle" fill="#FFFFFF"></path><path d="M0,9 L46.5,9 L46.5,38.25 C46.5,40.3210678 44.8210678,42 42.75,42 L3.75,42 C1.67893219,42 2.53632657e-16,40.3210678 0,38.25 L0,9 L0,9 Z" id="Rectangle-Copy-5" fill="#D9F4F4"></path><path d="M45.825,3.75 C45.825,2.05172439 44.4482756,0.675 42.75,0.675 L3.75,0.675 C2.05172439,0.675 0.675,2.05172439 0.675,3.75 L0.675,38.25 C0.675,39.9482756 2.05172439,41.325 3.75,41.325 L42.75,41.325 C44.4482756,41.325 45.825,39.9482756 45.825,38.25 L45.825,3.75 Z" id="Rectangle" stroke="#02182B" stroke-width="1.35"></path><rect id="Rectangle" stroke="#02182B" stroke-width="1.35" fill="#D9F4F4" x="18.675" y="18.675" width="19.65" height="12.15" rx="1.875"></rect><line x1="7.50517688" y1="21.1761661" x2="13.4948231" y2="20.8238339" id="Path-15" stroke="#02182B" stroke-width="1.35" stroke-linecap="round" transform="translate(10.500000, 21.000000) rotate(3.366461) translate(-10.500000, -21.000000) "></line><line x1="7.50517688" y1="24.9261661" x2="13.4948231" y2="24.5738339" id="Path-15-Copy-4" stroke="#02182B" stroke-width="1.35" stroke-linecap="round" transform="translate(10.500000, 24.750000) rotate(3.366461) translate(-10.500000, -24.750000) "></line><line x1="7.50517688" y1="28.6761661" x2="13.4948231" y2="28.3238339" id="Path-15-Copy-5" stroke="#02182B" stroke-width="1.35" stroke-linecap="round" transform="translate(10.500000, 28.500000) rotate(3.366461) translate(-10.500000, -28.500000) "></line><circle id="Oval" stroke="#02182B" stroke-width="1.35" fill="#D9F4F4" cx="6" cy="5.25" r="1.575"></circle><circle id="Oval-Copy-7" stroke="#02182B" stroke-width="1.35" fill="#D9F4F4" cx="12" cy="5.25" r="1.575"></circle><circle id="Oval-Copy-8" stroke="#02182B" stroke-width="1.35" fill="#D9F4F4" cx="18" cy="5.25" r="1.575"></circle><rect id="Rectangle" fill="#02182B" x="0" y="9" width="46.5" height="1.35"></rect><rect id="Rectangle" fill="#02182B" opacity="0.100000001" x="0.75" y="1.5" width="3" height="39"></rect><path d="M49.575,28.5 C49.575,27.6301515 48.8698485,26.925 48,26.925 L27,26.925 C26.1301515,26.925 25.425,27.6301515 25.425,28.5 L25.425,43.5 C25.425,44.3698485 26.1301515,45.075 27,45.075 L48,45.075 C48.8698485,45.075 49.575,44.3698485 49.575,43.5 L49.575,28.5 Z" id="Rectangle-Copy-33" stroke="#02182B" stroke-width="1.35" fill="#FFFFFF"></path><line x1="30.75" y1="33" x2="44.25" y2="33" id="Path-15" stroke="#02182B" stroke-width="1.35" stroke-linecap="round"></line><line x1="30.75" y1="36" x2="35.25" y2="36" id="Path-15-Copy" stroke="#02182B" stroke-width="1.35" stroke-linecap="round"></line><line x1="38.25" y1="36" x2="41.25" y2="36" id="Path-15-Copy-3" stroke="#02182B" stroke-width="1.35" stroke-linecap="round"></line><line x1="30.75" y1="39" x2="39.75" y2="39" id="Path-15-Copy-2" stroke="#02182B" stroke-width="1.35" stroke-linecap="round"></line><g id="cursor-grab" transform="translate(37.500000, 39.000000)" stroke="#02182B" stroke-linecap="round" stroke-linejoin="round" stroke-width="1.35"><path d="M3,2.5485 L3,3.75 L1.5,3.75 C0.67125,3.75 0,4.42125 0,5.25 L0,8.17125 C0,9.19275 0.348,10.18425 0.98625,10.98225 L3,13.5 L13.5,13.5 L14.628,4.47675 C14.8335,2.83275 13.66725,1.3335 12.02325,1.128 L5.529,0.3165 C4.1865,0.1485 3,1.1955 3,2.5485 Z" id="Path" fill="#FFFFFF"></path><line x1="3" y1="3.75" x2="3" y2="6.75" id="Path"></line><line x1="7.5" y1="5.25" x2="7.5" y2="9.75" id="Path"></line><line x1="10.5" y1="5.25" x2="10.5" y2="9.75" id="Path"></line></g></g></g></g></g></g></g></svg> 