<?xml version="1.0" encoding="UTF-8"?> <svg xmlns="http://www.w3.org/2000/svg" xmlns:xlink="http://www.w3.org/1999/xlink" width="45px" height="46px" viewBox="0 0 45 46"><!-- Generator: sketchtool 59 (101010) - https://sketch.com --><title>6C851C1C-3ED4-4EC4-8FA5-297F5A9BCE4F</title><desc>Created with sketchtool.</desc><g id="(Inspect)-Megamenu" stroke="none" stroke-width="1" fill="none" fill-rule="evenodd"><g id="Tour-Mega-Menu-0.7" transform="translate(-254.000000, -174.000000)"><g id="List-1" transform="translate(190.000000, 146.000000)"><g id="1"><g id="svg-megamenu-import" transform="translate(64.000000, 28.000000)"><path d="M28,11.57 C36.955998,11.57 44.37,8.83279519 44.37,6 C44.37,3.21266299 37.0524549,0.63 28,0.63 C18.9475451,0.63 11.63,3.21266299 11.63,6 C11.63,8.83279519 19.044002,11.57 28,11.57 Z" id="Oval" stroke="#02182B" stroke-width="1.26" fill="#D9F4F4"></path><path d="M11.63,7.40991921 L11.63,17.6470588 C11.63,20.6386244 18.9389589,23.37 28,23.37 C37.0610411,23.37 44.37,20.6386244 44.37,17.6470588 L44.37,7.40991921 C40.8533949,10.219759 35.3918801,11.6064706 28,11.6064706 C20.6081199,11.6064706 15.1466051,10.219759 11.63,7.40991921 Z" id="Path" stroke="#02182B" stroke-width="1.26" fill="#D9F4F4"></path><path d="M11.63,18.4099192 L11.63,28.6470588 C11.63,31.6386244 18.9389589,34.37 28,34.37 C37.0610411,34.37 44.37,31.6386244 44.37,28.6470588 L44.37,18.4099192 C40.8533949,21.219759 35.3918801,22.6064706 28,22.6064706 C20.6081199,22.6064706 15.1466051,21.219759 11.63,18.4099192 Z" id="Path-Copy-3" stroke="#02182B" stroke-width="1.26" fill="#FCFCFD"></path><path d="M11.63,29.4099192 L11.63,39.6470588 C11.63,42.6386244 18.9389589,45.37 28,45.37 C37.0610411,45.37 44.37,42.6386244 44.37,39.6470588 L44.37,29.4099192 C40.8533949,32.219759 35.3918801,33.6064706 28,33.6064706 C20.6081199,33.6064706 15.1466051,32.219759 11.63,29.4099192 Z" id="Path-Copy-4" stroke="#02182B" stroke-width="1.26" fill="#D9F4F4"></path><path d="M11.4969202,6.75071615 L11.5006114,39 C11.5006114,40.2962728 12.3330085,41.018996 14.4969202,42 L14.4969202,9 C13.5633868,8.5808197 12.5633868,7.83105842 11.4969202,6.75071615 Z" id="Path-Copy-5" fill-opacity="0.1" fill="#02182B"></path><circle id="Oval-Copy-7" stroke="#02182B" stroke-width="1.25999998" fill="#D9F4F4" cx="37.1" cy="16.4" r="1.46999997"></circle><circle id="Oval-Copy-9" stroke="#02182B" stroke-width="1.25999998" cx="37.1" cy="27.4" r="1.46999997"></circle><path d="M32.5,39 C30.8333333,39.3333333 29.3333333,39.5 28,39.5 C26.6666667,39.5 25.1666667,39.3333333 23.5,39" id="Path" stroke="#02182B" stroke-width="1.26" stroke-linecap="round"></path><path d="M32.5,28 C30.8333333,28.3333333 29.3333333,28.5 28,28.5 C26.6666667,28.5 25.1666667,28.3333333 23.5,28" id="Path-Copy" stroke="#02182B" stroke-width="1.26" stroke-linecap="round"></path><path d="M32.5,17 C30.8333333,17.3333333 29.3333333,17.5 28,17.5 C26.6666667,17.5 25.1666667,17.3333333 23.5,17" id="Path-Copy-2" stroke="#02182B" stroke-width="1.26" stroke-linecap="round"></path><g id="Arrow" transform="translate(0.000000, 16.200000)" stroke="#02182B"><circle id="Oval" stroke-width="1.25999998" fill="#FFFFFF" cx="10.5" cy="10.5" r="9.87000001"></circle><g id="Group-3" transform="translate(6.500000, 7.000000)" stroke-linecap="round" stroke-width="1.4"><line x1="0.15" y1="3.4" x2="7.65" y2="3.4" id="Path-7"></line><polyline id="Path-8" stroke-linejoin="round" points="4.65 0.4 7.65 3.4 4.65 6.4"></polyline></g></g></g></g></g></g></g></svg> 