<?xml version="1.0" encoding="UTF-8"?> <svg xmlns="http://www.w3.org/2000/svg" xmlns:xlink="http://www.w3.org/1999/xlink" width="50px" height="51px" viewBox="0 0 50 51"><!-- Generator: Sketch 60.1 (88133) - https://sketch.com --><title>Artboard</title><desc>Created with Sketch.</desc><g id="Artboard" stroke="none" stroke-width="1" fill="none" fill-rule="evenodd"><g id="svg-megamenu-migrate" transform="translate(1.000000, 1.000000)"><path d="M3,1 L31,1 C32.1046,1 33,1.89543 33,3 L33,9 L1,9 L1,3 C1,1.89543 1.89543,1 3,1 Z" id="Path" fill="#FFFFFF"></path><path d="M0,8.57141 L34.2857,8.57141 L34.2857,26.4286 C34.2857,28.401 32.6867,30 30.7143,30 L3.57143,30 C1.59898,30 0,28.401 0,26.4286 L0,8.57141 Z" id="Path" fill="#D9F4F4"></path><path d="M33.6429,3.57142 C33.6429,1.95402 32.3317,0.642853 30.7143,0.642853 L3.57145,0.642853 C1.95405,0.642853 0.642883,1.95402 0.642883,3.57142 L0.642883,26.4286 C0.642883,28.046 1.95405,29.3571 3.57145,29.3571 L30.7143,29.3571 C32.3317,29.3571 33.6429,28.046 33.6429,26.4286 L33.6429,3.57142 Z" id="Path" stroke="#02182B" stroke-width="1.28571"></path><path d="M26.7143,15.2143 L18.5714,15.2143 C17.5852,15.2143 16.7857,16.0138 16.7857,17 L16.7857,22.1429 C16.7857,23.1291 17.5852,23.9286 18.5714,23.9286 L26.7143,23.9286 C27.7005,23.9286 28.5,23.1291 28.5,22.1429 L28.5,17 C28.5,16.0138 27.7005,15.2143 26.7143,15.2143 Z" id="Path" stroke="#02182B" stroke-width="1.28571" fill="#FFFFFF" fill-rule="nonzero"></path><line x1="7.14285" y1="16" x2="12.1429" y2="16" id="Path" stroke="#02182B" stroke-width="1.28571" stroke-linecap="round"></line><line x1="6.99997" y1="19.5" x2="12" y2="19.5" id="Path" stroke="#02182B" stroke-width="1.28571" stroke-linecap="round"></line><line x1="6.99997" y1="23" x2="12" y2="23" id="Path" stroke="#02182B" stroke-width="1.28571" stroke-linecap="round"></line><path d="M5.71429,6.5 C6.54272,6.5 7.21429,5.82843 7.21429,5 C7.21429,4.17157 6.54272,3.5 5.71429,3.5 C4.88587,3.5 4.21429,4.17157 4.21429,5 C4.21429,5.82843 4.88587,6.5 5.71429,6.5 Z" id="Path" stroke="#02182B" stroke-width="1.28571" fill="#D9F4F4" fill-rule="nonzero"></path><path d="M11.42859,6.5 C12.257,6.5 12.92859,5.82843 12.92859,5 C12.92859,4.17157 12.257,3.5 11.42859,3.5 C10.6002,3.5 9.92859,4.17157 9.92859,5 C9.92859,5.82843 10.6002,6.5 11.42859,6.5 Z" id="Path" stroke="#02182B" stroke-width="1.28571" fill="#D9F4F4" fill-rule="nonzero"></path><polygon id="Path" fill="#02182B" fill-rule="nonzero" points="34.2857 8.57141 0 8.57141 0 9.85713 34.2857 9.85713"></polygon><polygon id="Path" fill="#02182B" fill-rule="nonzero" opacity="0.1" points="3.57144 1.42856 0.714294 1.42856 0.714294 28.5714 3.57144 28.5714"></polygon><path d="M17,20 L45,20 C46.1046,20 47,20.8954 47,22 L47,28 L15,28 L15,22 C15,20.8954 15.8954,20 17,20 Z" id="Path" fill="#FFFFFF"></path><path d="M14,27.5714 L48.2857,27.5714 L48.2857,45.4286 C48.2857,47.401 46.6867,49 44.7143,49 L17.5714,49 C15.599,49 14,47.401 14,45.4286 L14,27.5714 Z" id="Path" fill="#D9F4F4"></path><path d="M47.6429,22.5714 C47.6429,20.954 46.3317,19.6429 44.7143,19.6429 L17.5715,19.6429 C15.954,19.6429 14.6429,20.954 14.6429,22.5714 L14.6429,45.4286 C14.6429,47.046 15.954,48.3571 17.5715,48.3571 L44.7143,48.3571 C46.3317,48.3571 47.6429,47.046 47.6429,45.4286 L47.6429,22.5714 Z" id="Path" stroke="#02182B" stroke-width="1.28571"></path><path d="M40.7143,34.2143 L32.5714,34.2143 C31.5852,34.2143 30.7857,35.0138 30.7857,36 L30.7857,41.1429 C30.7857,42.1291 31.5852,42.9286 32.5714,42.9286 L40.7143,42.9286 C41.7005,42.9286 42.5,42.1291 42.5,41.1429 L42.5,36 C42.5,35.0138 41.7005,34.2143 40.7143,34.2143 Z" id="Path" stroke="#02182B" stroke-width="1.28571" fill="#FFFFFF" fill-rule="nonzero"></path><line x1="21.1429" y1="35" x2="26.1429" y2="35" id="Path" stroke="#02182B" stroke-width="1.28571" stroke-linecap="round"></line><line x1="21" y1="38.5" x2="26" y2="38.5" id="Path" stroke="#02182B" stroke-width="1.28571" stroke-linecap="round"></line><line x1="21" y1="42" x2="26" y2="42" id="Path" stroke="#02182B" stroke-width="1.28571" stroke-linecap="round"></line><path d="M19.7143,25.5 C20.5427,25.5 21.2143,24.8284 21.2143,24 C21.2143,23.1716 20.5427,22.5 19.7143,22.5 C18.8859,22.5 18.2143,23.1716 18.2143,24 C18.2143,24.8284 18.8859,25.5 19.7143,25.5 Z" id="Path" stroke="#02182B" stroke-width="1.28571" fill="#D9F4F4" fill-rule="nonzero"></path><path d="M25.4286,25.5 C26.257,25.5 26.9286,24.8284 26.9286,24 C26.9286,23.1716 26.257,22.5 25.4286,22.5 C24.6002,22.5 23.9286,23.1716 23.9286,24 C23.9286,24.8284 24.6002,25.5 25.4286,25.5 Z" id="Path" stroke="#02182B" stroke-width="1.28571" fill="#D9F4F4" fill-rule="nonzero"></path><polygon id="Path" fill="#02182B" fill-rule="nonzero" points="48.2857 27.5714 14 27.5714 14 28.8571 48.2857 28.8571"></polygon><polygon id="Path" fill="#02182B" fill-rule="nonzero" opacity="0.1" points="17.5714 20.4286 14.7143 20.4286 14.7143 47.5714 17.5714 47.5714"></polygon></g></g></svg> 