<?xml version="1.0" encoding="UTF-8"?> <svg xmlns="http://www.w3.org/2000/svg" xmlns:xlink="http://www.w3.org/1999/xlink" width="45px" height="46px" viewBox="0 0 45 46"><!-- Generator: sketchtool 59 (101010) - https://sketch.com --><title>9BEBAC3F-EDA2-48D4-97B6-F0CFBD3996B9</title><desc>Created with sketchtool.</desc><g id="(Inspect)-Megamenu" stroke="none" stroke-width="1" fill="none" fill-rule="evenodd"><g id="Tour-Mega-Menu-0.7" transform="translate(-265.000000, -285.000000)"><g id="List-1" transform="translate(190.000000, 146.000000)"><g id="2" transform="translate(0.000000, 112.000000)"><g id="svg-megamenu-export" transform="translate(75.000000, 27.000000)"><path d="M17,11.57 C25.955998,11.57 33.37,8.83279519 33.37,6 C33.37,3.21266299 26.0524549,0.63 17,0.63 C7.94754515,0.63 0.63,3.21266299 0.63,6 C0.63,8.83279519 8.044002,11.57 17,11.57 Z" id="Oval" stroke="#02182B" stroke-width="1.26" fill="#D9F4F4"></path><path d="M0.63,7.40991921 L0.63,17.6470588 C0.63,20.6386244 7.93895886,23.37 17,23.37 C26.0610411,23.37 33.37,20.6386244 33.37,17.6470588 L33.37,7.40991921 C29.8533949,10.219759 24.3918801,11.6064706 17,11.6064706 C9.60811995,11.6064706 4.14660507,10.219759 0.63,7.40991921 Z" id="Path" stroke="#02182B" stroke-width="1.26" fill="#D9F4F4"></path><path d="M0.63,18.4099192 L0.63,28.6470588 C0.63,31.6386244 7.93895886,34.37 17,34.37 C26.0610411,34.37 33.37,31.6386244 33.37,28.6470588 L33.37,18.4099192 C29.8533949,21.219759 24.3918801,22.6064706 17,22.6064706 C9.60811995,22.6064706 4.14660507,21.219759 0.63,18.4099192 Z" id="Path-Copy-3" stroke="#02182B" stroke-width="1.26" fill="#FFFFFF"></path><path d="M0.63,29.4099192 L0.63,39.6470588 C0.63,42.6386244 7.93895886,45.37 17,45.37 C26.0610411,45.37 33.37,42.6386244 33.37,39.6470588 L33.37,29.4099192 C29.8533949,32.219759 24.3918801,33.6064706 17,33.6064706 C9.60811995,33.6064706 4.14660507,32.219759 0.63,29.4099192 Z" id="Path-Copy-4" stroke="#02182B" stroke-width="1.26" fill="#D9F4F4"></path><path d="M0.496920217,6.75071615 L0.500611409,39 C0.500611409,40.2962728 1.33300847,41.018996 3.49692022,42 L3.49692022,9 C2.56338677,8.5808197 1.56338677,7.83105842 0.496920217,6.75071615 Z" id="Path-Copy-5" fill-opacity="0.1" fill="#02182B"></path><circle id="Oval-Copy-7" stroke="#02182B" stroke-width="1.25999998" fill="#D9F4F4" cx="26.1" cy="16.4" r="1.46999997"></circle><circle id="Oval-Copy-9" stroke="#02182B" stroke-width="1.25999998" fill="#D9F4F4" cx="26.1" cy="27.4" r="1.46999997"></circle><path d="M21.5,39 C19.8333333,39.3333333 18.3333333,39.5 17,39.5 C15.6666667,39.5 14.1666667,39.3333333 12.5,39" id="Path" stroke="#02182B" stroke-width="1.26" stroke-linecap="round"></path><path d="M21.5,28 C19.8333333,28.3333333 18.3333333,28.5 17,28.5 C15.6666667,28.5 14.1666667,28.3333333 12.5,28" id="Path-Copy" stroke="#02182B" stroke-width="1.26" stroke-linecap="round"></path><path d="M21.5,17 C19.8333333,17.3333333 18.3333333,17.5 17,17.5 C15.6666667,17.5 14.1666667,17.3333333 12.5,17" id="Path-Copy-2" stroke="#02182B" stroke-width="1.26" stroke-linecap="round"></path><g id="Arrow" transform="translate(24.000000, 17.200000)" stroke="#02182B"><circle id="Oval" stroke-width="1.25999998" fill="#FFFFFF" cx="10.5" cy="10.5" r="9.87000001"></circle><g id="Group-3" transform="translate(6.500000, 7.000000)" stroke-linecap="round" stroke-width="1.4"><line x1="0.15" y1="3.4" x2="7.65" y2="3.4" id="Path-7"></line><polyline id="Path-8" stroke-linejoin="round" points="4.65 0.4 7.65 3.4 4.65 6.4"></polyline></g></g></g></g></g></g></g></svg> 