<?xml version="1.0" encoding="UTF-8"?> <svg xmlns="http://www.w3.org/2000/svg" xmlns:xlink="http://www.w3.org/1999/xlink" width="46px" height="43px" viewBox="0 0 46 43"><!-- Generator: Sketch 60.1 (88133) - https://sketch.com --><title>Artboard</title><desc>Created with Sketch.</desc><g id="Artboard" stroke="none" stroke-width="1" fill="none" fill-rule="evenodd"><g id="svg-megamenu-bulkedit" transform="translate(1.000000, 1.000000)"><path d="M3.57144,0.714233 L40.714294,0.714233 C42.2922,0.714233 43.5714,1.99342 43.5714,3.57138 L43.5714,9.28566 L0.714294,9.28566 L0.714294,3.57138 C0.714294,1.99342 1.99348,0.714233 3.57144,0.714233 Z" id="Path" fill="#FFFFFF"></path><path d="M0,8.57138 L44.2857,8.57138 L44.2857,36.4285 C44.2857,38.401 42.6867,39.9999 40.7143,39.9999 L3.57143,39.9999 C1.59898,39.9999 0,38.401 0,36.4285 L0,8.57138 Z" id="Path" fill="#D9F4F4"></path><polygon id="Path" fill="#FFFFFF" fill-rule="nonzero" points="43 16 1 16 1 22 43 22"></polygon><polygon id="Path" fill="#FFFFFF" points="1 28 43 28 43 34 1 34"></polygon><path d="M43.6429,3.57139 C43.6429,1.95399 42.3317,0.642822 40.7143,0.642822 L3.57145,0.642822 C1.95405,0.642822 0.642883,1.95399 0.642883,3.57139 L0.642883,37.4285 C0.642883,39.0459 1.95405,40.3571 3.57145,40.3571 L40.7143,40.3571 C42.3317,40.3571 43.6429,39.0459 43.6429,37.4285 L43.6429,3.57139 Z" id="Path" stroke="#02182B" stroke-width="1.28571"></path><line x1="1.00001" y1="28" x2="43" y2="28" id="Path" stroke="#02182B" stroke-width="1.1" stroke-linecap="round"></line><line x1="1.00001" y1="34" x2="43" y2="34" id="Path" stroke="#02182B" stroke-width="1.1" stroke-linecap="round"></line><line x1="1.00001" y1="16" x2="43" y2="16" id="Path" stroke="#02182B" stroke-width="1.1" stroke-linecap="round"></line><line x1="1.00001" y1="22" x2="43" y2="22" id="Path" stroke="#02182B" stroke-width="1.1" stroke-linecap="round"></line><path d="M5.71429,6.49994 C6.54272,6.49994 7.21429,5.82837 7.21429,4.99994 C7.21429,4.17151 6.54272,3.49994 5.71429,3.49994 C4.88587,3.49994 4.21429,4.17151 4.21429,4.99994 C4.21429,5.82837 4.88587,6.49994 5.71429,6.49994 Z" id="Path" stroke="#02182B" stroke-width="1.28571" fill="#D9F4F4" fill-rule="nonzero"></path><path d="M11.42859,6.49994 C12.257,6.49994 12.92859,5.82837 12.92859,4.99994 C12.92859,4.17151 12.257,3.49994 11.42859,3.49994 C10.6002,3.49994 9.92859,4.17151 9.92859,4.99994 C9.92859,5.82837 10.6002,6.49994 11.42859,6.49994 Z" id="Path" stroke="#02182B" stroke-width="1.28571" fill="#D9F4F4" fill-rule="nonzero"></path><path d="M17.1429,6.49994 C17.9713,6.49994 18.6429,5.82837 18.6429,4.99994 C18.6429,4.17151 17.9713,3.49994 17.1429,3.49994 C16.3145,3.49994 15.6429,4.17151 15.6429,4.99994 C15.6429,5.82837 16.3145,6.49994 17.1429,6.49994 Z" id="Path" stroke="#02182B" stroke-width="1.28571" fill="#D9F4F4" fill-rule="nonzero"></path><polygon id="Path" fill="#02182B" fill-rule="nonzero" points="44.2857 8.57138 0 8.57138 0 9.85709 44.2857 9.85709"></polygon><polygon id="Path" fill="#02182B" fill-rule="nonzero" opacity="0.1" points="3.57144 1.42853 0.714294 1.42853 0.714294 39.5714 3.57144 39.5714"></polygon><line x1="14.5" y1="8.99997" x2="14.5" y2="40.5" id="Path" stroke="#02182B" stroke-width="1.1"></line><line x1="29.5" y1="8.99997" x2="29.5" y2="40.5" id="Path" stroke="#02182B" stroke-width="1.1"></line></g></g></svg> 