<?xml version="1.0" encoding="UTF-8"?> <svg xmlns="http://www.w3.org/2000/svg" xmlns:xlink="http://www.w3.org/1999/xlink" width="28px" height="28px" viewBox="0 0 28 28"><!-- Generator: sketchtool 61.2 (101010) - https://sketch.com --><title>405208A1-C617-4F36-BD13-F841EB652C44</title><desc>Created with sketchtool.</desc><g id="(Inspect)-Explainer" stroke="none" stroke-width="1" fill="none" fill-rule="evenodd"><g id="Explainer-1.0" transform="translate(-1042.000000, -1521.000000)"><g id="~~~~-Explainer" transform="translate(180.000000, 580.000000)"><g id="Content" transform="translate(0.000000, 500.000000)"><g id="Button" transform="translate(770.000000, 433.000000)"><g id="play_icon" transform="translate(92.000000, 8.000000)"><rect id="Rectangle" fill="#00B3B6" x="0" y="0" width="28" height="28" rx="14"></rect><path d="M10,8.92065556 L10,19.0793444 C10,19.6316292 10.4477153,20.0793444 11,20.0793444 C11.2051721,20.0793444 11.4053788,20.0162348 11.5734623,19.8985764 L18.8296687,14.8192319 C19.282118,14.5025174 19.3921528,13.878987 19.0754383,13.4265377 C19.0084893,13.3308963 18.92531,13.247717 18.8296687,13.1807681 L11.5734623,8.10142364 C11.121013,7.78470913 10.4974826,7.89474392 10.1807681,8.34719322 C10.0631096,8.51527675 10,8.71548346 10,8.92065556 Z" id="icon-play" fill="#FFFFFF"></path></g></g></g></g></g></g></svg> 